<svg id="Layer_1" data-name="Layer 1" xmlns="http://www.w3.org/2000/svg" xmlns:xlink="http://www.w3.org/1999/xlink" viewBox="0 0 100.86 33.69"><defs><style>.cls-1{fill:none;stroke:#ffff;stroke-miterlimit:10;stroke-width:1.5px;}.cls-2{fill:#f7f5f5;}.cls-3{isolation:isolate;}.cls-4{fill:#fcfcfc;}</style></defs><path class="cls-1" d="M69.18,13.82" transform="translate(-4.72 -5.82)"/><path class="cls-2" d="M27.88,28.72,33,11.12h-.2l-10.4,17.6h-5.3l-1.3-17.6h-.2l-4,17.6H5.48l5.9-22.9h6.2c2.5,0,3.6,1.9,3.7,4.3l.6,10.1h.2l5.5-10.1c1.3-2.4,3.4-4.3,5.9-4.3h6.4L34,28.72Z" transform="translate(-4.72 -5.82)"/>
  <path class="cls-2" d="M55.68,16.22a19.43,19.43,0,0,1-.8,4.5c-1.7,6.6-3.5,8.2-10.2,8.2-4.8,0-6.6-1-6.6-3.9a22.08,22.08,0,0,1,.7-4.3c1.7-6.6,3.4-8.2,10.1-8.2C53.78,12.52,55.68,13.22,55.68,16.22Zm-11.5,4.5a7.88,7.88,0,0,0-.4,2.3c0,1,.7,1.2,2.3,1.2,2.4,0,2.8-.3,3.6-3.5a9.06,9.06,0,0,0,.4-2.3c0-1-.6-1.2-2.2-1.2C45.28,17.22,44.88,17.62,44.18,20.72Z" transform="translate(-4.72 -5.82)"/>
  <path class="cls-2" d="M78.38,12.62h11.1l-1,3.9h-9.7l-2.1,8.3h9.7l-1,3.9H74.28a2.73,2.73,0,0,1-3-2.8,2.77,2.77,0,0,1,.1-.9l2.2-8.6A5.2,5.2,0,0,1,78.38,12.62Zm-.2,9.6V19h8.3v3.2Z" transform="translate(-4.72 -5.82)"/><path class="cls-2" d="M99.28,20.22l2.5,8.5h-6.2l-1-5.3L91,28.72h-6.3l7-8.5-2.1-7.6h6.1l.7,4.5,3.1-4.5h6.1Z" transform="translate(-4.72 -5.82)"/><image class="cls-3" width="512" height="512" transform="translate(47.56 2.57) scale(0.04)" xlink:href="ivan.png"/><path class="cls-4" d="M4.72,37.59l.92-4.33h.62l-.06.56h0a2.34,2.34,0,0,1,.26-.34,1.08,1.08,0,0,1,.32-.22,1,1,0,0,1,.37-.08.9.9,0,0,1,.4.09.63.63,0,0,1,.3.28,1,1,0,0,1,.11.5,2.6,2.6,0,0,1,0,.36c0,.13,0,.27-.08.41l-.58,2.77H6.52L7.08,35c0-.13,0-.26.07-.39a2.14,2.14,0,0,0,0-.34A.35.35,0,0,0,7.1,34a.3.3,0,0,0-.24-.09.5.5,0,0,0-.38.17,1.58,1.58,0,0,0-.28.47,4.7,4.7,0,0,0-.22.76l-.48,2.3Z" transform="translate(-4.72 -5.82)"/><path class="cls-4" d="M7.77,39.46l1.3-6.19H9.7l-.06.61h0a1.54,1.54,0,0,1,.3-.39,1,1,0,0,1,.32-.23.86.86,0,0,1,.36-.08.77.77,0,0,1,.45.14.92.92,0,0,1,.29.41,1.94,1.94,0,0,1,.1.69,4.75,4.75,0,0,1-.07.81,4.32,4.32,0,0,1-.21.86,3.76,3.76,0,0,1-.34.79,1.84,1.84,0,0,1-.49.57,1,1,0,0,1-.62.21.72.72,0,0,1-.33-.07.69.69,0,0,1-.25-.2A.86.86,0,0,1,9,37.07H9l-.06.41a3.29,3.29,0,0,1-.07.36l-.35,1.62ZM9.64,37a.47.47,0,0,0,.36-.17,1.4,1.4,0,0,0,.29-.45,4.32,4.32,0,0,0,.23-.61,5.13,5.13,0,0,0,.13-.66,3.3,3.3,0,0,0,0-.6,1.06,1.06,0,0,0-.09-.5.28.28,0,0,0-.26-.16A.48.48,0,0,0,10,34a1.3,1.3,0,0,0-.27.36,4.68,4.68,0,0,0-.22.5c-.06.18-.11.37-.16.56s-.07.38-.09.55a2.74,2.74,0,0,0,0,.45.78.78,0,0,0,.11.45A.32.32,0,0,0,9.64,37Z" transform="translate(-4.72 -5.82)"/><path class="cls-4" d="M12.94,37.66a1.11,1.11,0,0,1-.6-.15,1,1,0,0,1-.38-.46,1.82,1.82,0,0,1-.13-.74,5.14,5.14,0,0,1,.26-1.57,3.91,3.91,0,0,1,.37-.77A2.1,2.1,0,0,1,13,33.4a1.31,1.31,0,0,1,.74-.21,1.05,1.05,0,0,1,.6.16,1,1,0,0,1,.37.46,1.85,1.85,0,0,1,.13.74,4.78,4.78,0,0,1-.07.82,5.2,5.2,0,0,1-.22.84,3,3,0,0,1-.37.73,1.82,1.82,0,0,1-.54.53A1.27,1.27,0,0,1,12.94,37.66ZM13,37a.5.5,0,0,0,.36-.16,1.46,1.46,0,0,0,.29-.44,3.25,3.25,0,0,0,.22-.6c0-.22.1-.44.13-.66a4.41,4.41,0,0,0,0-.6,1.43,1.43,0,0,0,0-.38.57.57,0,0,0-.14-.24.36.36,0,0,0-.23-.08.51.51,0,0,0-.38.18,1.9,1.9,0,0,0-.3.47,3.75,3.75,0,0,0-.2.62,5.13,5.13,0,0,0-.13.66,3.94,3.94,0,0,0,0,.55.92.92,0,0,0,.11.51A.33.33,0,0,0,13,37Z" transform="translate(-4.72 -5.82)"/><path class="cls-4" d="M16,39.51l.4-1.88a1.36,1.36,0,0,1-.66-.22,1.22,1.22,0,0,1-.41-.53,2.14,2.14,0,0,1-.14-.81,4,4,0,0,1,.08-.75,3.36,3.36,0,0,1,.24-.76,2.84,2.84,0,0,1,.42-.66,2,2,0,0,1,.6-.48,1.68,1.68,0,0,1,.79-.19l.36-1.72h.75l-.36,1.72a1.27,1.27,0,0,1,.88.44,1.7,1.7,0,0,1,.3,1.1,4,4,0,0,1-.08.75,4.32,4.32,0,0,1-.25.77,2.71,2.71,0,0,1-.42.67,2,2,0,0,1-.59.49,1.8,1.8,0,0,1-.78.19l-.39,1.87ZM16.52,37l.66-3.09a.84.84,0,0,0-.53.24,1.86,1.86,0,0,0-.38.54,3.35,3.35,0,0,0-.22.72,3.71,3.71,0,0,0-.08.73,1.35,1.35,0,0,0,.06.41.75.75,0,0,0,.18.3A.6.6,0,0,0,16.52,37Zm.76,0a.8.8,0,0,0,.45-.17,1.28,1.28,0,0,0,.34-.42,2.06,2.06,0,0,0,.23-.55,4.56,4.56,0,0,0,.14-.59,3.25,3.25,0,0,0,0-.51,1.31,1.31,0,0,0-.06-.41.65.65,0,0,0-.18-.29.54.54,0,0,0-.31-.15Z" transform="translate(-4.72 -5.82)"/><path class="cls-4" d="M20.81,37.66a1.29,1.29,0,0,1-.64-.15,1.1,1.1,0,0,1-.42-.46,1.84,1.84,0,0,1-.14-.74,5.06,5.06,0,0,1,.13-1.17,3.86,3.86,0,0,1,.39-1,2.23,2.23,0,0,1,.62-.7,1.35,1.35,0,0,1,.8-.25,1,1,0,0,1,.7.24.94.94,0,0,1,.26.7,1.56,1.56,0,0,1-.14.66,1.32,1.32,0,0,1-.4.48,1.74,1.74,0,0,1-.64.31,3.15,3.15,0,0,1-.85.1h-.06c0,.09,0,.18,0,.28a2.44,2.44,0,0,0,0,.27,1,1,0,0,0,.15.61A.57.57,0,0,0,21,37a1.49,1.49,0,0,0,.43-.06,2.73,2.73,0,0,0,.45-.2v.61a1.64,1.64,0,0,1-.51.22A2.44,2.44,0,0,1,20.81,37.66Zm-.28-2.55h0a2,2,0,0,0,.72-.11.81.81,0,0,0,.39-.33.94.94,0,0,0,.12-.47.41.41,0,0,0-.08-.28.32.32,0,0,0-.26-.11.51.51,0,0,0-.36.17,1.44,1.44,0,0,0-.32.45A4.46,4.46,0,0,0,20.53,35.11Z" transform="translate(-4.72 -5.82)"/><path class="cls-4" d="M23.89,37.66a1.1,1.1,0,0,1-.59-.15,1,1,0,0,1-.37-.45,2,2,0,0,1-.12-.73,4.75,4.75,0,0,1,.07-.81,4.22,4.22,0,0,1,.21-.85,3.27,3.27,0,0,1,.37-.75,1.74,1.74,0,0,1,.55-.53,1.28,1.28,0,0,1,.73-.21,1.56,1.56,0,0,1,.44.06,1.76,1.76,0,0,1,.37.17l-.31.62a1.34,1.34,0,0,0-.24-.12.85.85,0,0,0-.26,0,.65.65,0,0,0-.51.24,2.15,2.15,0,0,0-.36.62,4.95,4.95,0,0,0-.27,1.52,1.61,1.61,0,0,0,0,.42.47.47,0,0,0,.16.25.4.4,0,0,0,.27.09,1.09,1.09,0,0,0,.33-.07,1.51,1.51,0,0,0,.37-.2v.67a1.35,1.35,0,0,1-.4.19A1.61,1.61,0,0,1,23.89,37.66Z" transform="translate(-4.72 -5.82)"/><path class="cls-4" d="M26.3,37.66a.88.88,0,0,1-.45-.1.59.59,0,0,1-.27-.29,1.14,1.14,0,0,1-.09-.48,2.12,2.12,0,0,1,0-.34c0-.12,0-.25.07-.36l.6-2.82h.76l-.56,2.66c0,.13-.05.24-.07.36a1.72,1.72,0,0,0,0,.31.47.47,0,0,0,.07.28.3.3,0,0,0,.24.09.52.52,0,0,0,.38-.16,1.71,1.71,0,0,0,.29-.49,4.77,4.77,0,0,0,.21-.76L28,33.27h.77l-.91,4.32h-.62l.05-.54h0a1.49,1.49,0,0,1-.27.33,1.06,1.06,0,0,1-.31.21A.84.84,0,0,1,26.3,37.66Z" transform="translate(-4.72 -5.82)"/><path class="cls-4" d="M30,37.66a1.16,1.16,0,0,1-.6-.15,1.09,1.09,0,0,1-.38-.46,2,2,0,0,1-.13-.74,4.16,4.16,0,0,1,.07-.74,4.35,4.35,0,0,1,.2-.83,3.39,3.39,0,0,1,.36-.77,2,2,0,0,1,.55-.57,1.31,1.31,0,0,1,.74-.21,1,1,0,0,1,.59.16,1,1,0,0,1,.38.46,2,2,0,0,1,.13.74,4.83,4.83,0,0,1-.08.82,4.3,4.3,0,0,1-.21.84,3,3,0,0,1-.38.73,1.91,1.91,0,0,1-.53.53A1.3,1.3,0,0,1,30,37.66Zm.08-.66a.5.5,0,0,0,.37-.16,1.68,1.68,0,0,0,.29-.44,4.2,4.2,0,0,0,.21-.6,5.13,5.13,0,0,0,.13-.66,4.54,4.54,0,0,0,.05-.6,1.4,1.4,0,0,0-.05-.38.57.57,0,0,0-.14-.24.36.36,0,0,0-.23-.08.51.51,0,0,0-.38.18,1.64,1.64,0,0,0-.29.47,3.76,3.76,0,0,0-.21.62,5.13,5.13,0,0,0-.13.66c0,.21,0,.4,0,.55a1,1,0,0,0,.11.51A.34.34,0,0,0,30.11,37Z" transform="translate(-4.72 -5.82)"/><path class="cls-4" d="M32.1,37.59,33,33.27h.77L33.41,35h1l.37-1.75h.77l-.92,4.32H33.9l.41-1.91H33.26l-.4,1.91Z" transform="translate(-4.72 -5.82)"/><path class="cls-4" d="M36.61,37.66a.74.74,0,0,1-.46-.14,1,1,0,0,1-.29-.42,1.83,1.83,0,0,1-.1-.66,4.62,4.62,0,0,1,.07-.79,5.46,5.46,0,0,1,.2-.87,3.76,3.76,0,0,1,.34-.79,2.06,2.06,0,0,1,.49-.59,1,1,0,0,1,.63-.22.88.88,0,0,1,.33.07.79.79,0,0,1,.24.21.87.87,0,0,1,.16.35h0l.19-.54h.66l-.92,4.32h-.62l0-.6h0a2.82,2.82,0,0,1-.28.36,1.08,1.08,0,0,1-.31.23A.75.75,0,0,1,36.61,37.66Zm.3-.66a.54.54,0,0,0,.42-.21,1.67,1.67,0,0,0,.3-.53c.08-.21.14-.42.2-.64s.11-.47.14-.66a3.08,3.08,0,0,0,0-.51A.74.74,0,0,0,37.9,34a.32.32,0,0,0-.29-.16.48.48,0,0,0-.36.18,1.4,1.4,0,0,0-.29.45,3.36,3.36,0,0,0-.22.61,5.18,5.18,0,0,0-.14.66,4.38,4.38,0,0,0,0,.59,1.21,1.21,0,0,0,.08.49A.29.29,0,0,0,36.91,37Z" transform="translate(-4.72 -5.82)"/><path class="cls-4" d="M39.06,37.64l-.2,0-.16,0V36.9l.12.05H39a.48.48,0,0,0,.23-.07.76.76,0,0,0,.2-.25,2.29,2.29,0,0,0,.19-.5c.06-.21.12-.47.19-.8a6.21,6.21,0,0,1,.25-.93,2.05,2.05,0,0,1,.35-.66,1.32,1.32,0,0,1,.51-.4,1.87,1.87,0,0,1,.71-.13l.46,0,.45,0-.9,4.3h-.77l.78-3.68h-.18a.58.58,0,0,0-.43.18,1.53,1.53,0,0,0-.3.55,8.51,8.51,0,0,0-.25,1c-.07.32-.15.6-.22.85a2.93,2.93,0,0,1-.28.64,1.2,1.2,0,0,1-.37.4A1,1,0,0,1,39.06,37.64Z" transform="translate(-4.72 -5.82)"/><path class="cls-4" d="M43.4,37.66a.88.88,0,0,1-.45-.1.59.59,0,0,1-.27-.29,1,1,0,0,1-.1-.48,2.24,2.24,0,0,1,0-.34c0-.12,0-.25.06-.36l.6-2.82H44l-.56,2.66c0,.13,0,.24-.07.36a1.8,1.8,0,0,0,0,.31.47.47,0,0,0,.08.28.29.29,0,0,0,.23.09.51.51,0,0,0,.38-.16,1.51,1.51,0,0,0,.29-.49,3.86,3.86,0,0,0,.22-.76l.49-2.29h.76l-.91,4.32h-.61l0-.54h0a1.49,1.49,0,0,1-.27.33,1.21,1.21,0,0,1-.31.21A.84.84,0,0,1,43.4,37.66Z" transform="translate(-4.72 -5.82)"/><path class="cls-4" d="M47.1,37.66a1.1,1.1,0,0,1-.59-.15.91.91,0,0,1-.36-.45,2,2,0,0,1-.13-.73,6,6,0,0,1,.07-.81,6.21,6.21,0,0,1,.21-.85,3.3,3.3,0,0,1,.38-.75,1.82,1.82,0,0,1,.54-.53,1.3,1.3,0,0,1,.73-.21,1.51,1.51,0,0,1,.44.06,1.56,1.56,0,0,1,.37.17l-.31.62a.9.9,0,0,0-.24-.12.8.8,0,0,0-.26,0,.68.68,0,0,0-.51.24,1.94,1.94,0,0,0-.35.62,5,5,0,0,0-.21.78,5.24,5.24,0,0,0-.07.74,1.25,1.25,0,0,0,.06.42.42.42,0,0,0,.16.25.39.39,0,0,0,.26.09,1,1,0,0,0,.33-.07,1.35,1.35,0,0,0,.37-.2v.67a1.35,1.35,0,0,1-.4.19A1.57,1.57,0,0,1,47.1,37.66Z" transform="translate(-4.72 -5.82)"/><path class="cls-4" d="M48.49,37.59l.91-4.32H50l-.07.54h0a1.76,1.76,0,0,1,.25-.34,1.26,1.26,0,0,1,.32-.21,1,1,0,0,1,.37-.08.82.82,0,0,1,.5.14.74.74,0,0,1,.26.42h0a1.31,1.31,0,0,1,.27-.3,1.18,1.18,0,0,1,.32-.19,1.16,1.16,0,0,1,.37-.07.74.74,0,0,1,.56.22.9.9,0,0,1,.21.64c0,.08,0,.17,0,.28a1.7,1.7,0,0,1-.06.31l-.63,3H52l.58-2.78a2,2,0,0,0,.06-.3c0-.09,0-.17,0-.23a.49.49,0,0,0-.08-.3.29.29,0,0,0-.23-.1A.42.42,0,0,0,52,34a.83.83,0,0,0-.21.24,1.66,1.66,0,0,0-.15.33,2.93,2.93,0,0,0-.1.37L51,37.59h-.76l.6-2.84a2.56,2.56,0,0,0,0-.27,1.62,1.62,0,0,0,0-.21.46.46,0,0,0-.07-.29.29.29,0,0,0-.23-.1.47.47,0,0,0-.32.12.93.93,0,0,0-.23.31,1.92,1.92,0,0,0-.17.44,4.05,4.05,0,0,0-.12.5l-.5,2.34Z" transform="translate(-4.72 -5.82)"/><path class="cls-4" d="M54.62,37.66a.88.88,0,0,1-.45-.1.59.59,0,0,1-.27-.29,1.14,1.14,0,0,1-.09-.48,2.12,2.12,0,0,1,0-.34c0-.12,0-.25.07-.36l.6-2.82h.76l-.56,2.66c0,.13-.05.24-.07.36a1.72,1.72,0,0,0,0,.31.47.47,0,0,0,.07.28.29.29,0,0,0,.23.09.53.53,0,0,0,.39-.16,1.71,1.71,0,0,0,.29-.49,4.77,4.77,0,0,0,.21-.76l.49-2.29h.77l-.91,4.32h-.62l0-.54h0a1.49,1.49,0,0,1-.27.33,1.06,1.06,0,0,1-.31.21A.84.84,0,0,1,54.62,37.66Z" transform="translate(-4.72 -5.82)"/><path class="cls-4" d="M58.39,37.59l.92-4.33h.62l-.06.56h0a1.8,1.8,0,0,1,.26-.34,1.08,1.08,0,0,1,.32-.22.94.94,0,0,1,.36-.08.91.91,0,0,1,.41.09.73.73,0,0,1,.3.28,1,1,0,0,1,.11.5,2.6,2.6,0,0,1,0,.36c0,.13,0,.27-.08.41L61,37.59h-.76L60.74,35c0-.13,0-.26.07-.39a1.42,1.42,0,0,0,0-.34.4.4,0,0,0-.08-.26.3.3,0,0,0-.24-.09.5.5,0,0,0-.38.17,1.39,1.39,0,0,0-.28.47,3.86,3.86,0,0,0-.22.76l-.49,2.3Z" transform="translate(-4.72 -5.82)"/><path class="cls-4" d="M63.15,37.66a1.11,1.11,0,0,1-.6-.15,1,1,0,0,1-.38-.46,1.82,1.82,0,0,1-.13-.74,5.14,5.14,0,0,1,.26-1.57,3.39,3.39,0,0,1,.36-.77,2,2,0,0,1,.55-.57,1.31,1.31,0,0,1,.74-.21,1,1,0,0,1,.59.16,1,1,0,0,1,.38.46,2,2,0,0,1,.13.74,6.05,6.05,0,0,1-.07.82,5.2,5.2,0,0,1-.22.84,3.33,3.33,0,0,1-.37.73,1.82,1.82,0,0,1-.54.53A1.29,1.29,0,0,1,63.15,37.66Zm.08-.66a.5.5,0,0,0,.36-.16,1.46,1.46,0,0,0,.29-.44,4.2,4.2,0,0,0,.21-.6c.06-.22.1-.44.14-.66a4.41,4.41,0,0,0,0-.6,1.4,1.4,0,0,0,0-.38.48.48,0,0,0-.14-.24.34.34,0,0,0-.23-.08.52.52,0,0,0-.38.18,1.64,1.64,0,0,0-.29.47,5,5,0,0,0-.21.62,5.09,5.09,0,0,0-.12.66,3.94,3.94,0,0,0,0,.55,1,1,0,0,0,.1.51A.34.34,0,0,0,63.23,37Z" transform="translate(-4.72 -5.82)"/><path class="cls-4" d="M66.57,37.59l.91-4.33h.62l-.06.56h0a1.84,1.84,0,0,1,.27-.34.87.87,0,0,1,.32-.22.86.86,0,0,1,.36-.08,1,1,0,0,1,.41.09.65.65,0,0,1,.29.28.91.91,0,0,1,.11.5,2.6,2.6,0,0,1,0,.36c0,.13,0,.27-.07.41l-.59,2.77h-.77L68.92,35c0-.13,0-.26.07-.39a2.14,2.14,0,0,0,0-.34A.4.4,0,0,0,69,34a.32.32,0,0,0-.24-.09.48.48,0,0,0-.38.17,1.4,1.4,0,0,0-.29.47,6,6,0,0,0-.22.76l-.48,2.3Z" transform="translate(-4.72 -5.82)"/><path class="cls-4" d="M69.61,39.46l1.3-6.19h.64l-.07.61h0a2.2,2.2,0,0,1,.3-.39,1.12,1.12,0,0,1,.32-.23.86.86,0,0,1,.36-.08.73.73,0,0,1,.45.14.85.85,0,0,1,.29.41,1.94,1.94,0,0,1,.1.69,4.75,4.75,0,0,1-.07.81,5.11,5.11,0,0,1-.2.86,4.39,4.39,0,0,1-.35.79,1.84,1.84,0,0,1-.49.57,1,1,0,0,1-.62.21.72.72,0,0,1-.33-.07.69.69,0,0,1-.25-.2,1.35,1.35,0,0,1-.15-.32h0a2.7,2.7,0,0,1-.06.41q0,.2-.06.36l-.35,1.62ZM71.48,37a.47.47,0,0,0,.36-.17,1.6,1.6,0,0,0,.3-.45,4.33,4.33,0,0,0,.22-.61,5.18,5.18,0,0,0,.14-.66,4.41,4.41,0,0,0,0-.6,1.06,1.06,0,0,0-.09-.5.27.27,0,0,0-.26-.16.48.48,0,0,0-.33.13,1.3,1.3,0,0,0-.27.36,3.26,3.26,0,0,0-.21.5,3.58,3.58,0,0,0-.16.56,4.31,4.31,0,0,0-.1.55,4.21,4.21,0,0,0,0,.45.79.79,0,0,0,.1.45A.34.34,0,0,0,71.48,37Z" transform="translate(-4.72 -5.82)"/><path class="cls-4" d="M74.86,37.66a1.32,1.32,0,0,1-.64-.15,1.08,1.08,0,0,1-.41-.46,1.68,1.68,0,0,1-.15-.74,5.06,5.06,0,0,1,.14-1.17,3.86,3.86,0,0,1,.39-1,2.23,2.23,0,0,1,.62-.7,1.31,1.31,0,0,1,.8-.25,1,1,0,0,1,.7.24.94.94,0,0,1,.26.7,1.56,1.56,0,0,1-.14.66,1.32,1.32,0,0,1-.4.48,1.82,1.82,0,0,1-.64.31,3.15,3.15,0,0,1-.85.1h-.06c0,.09,0,.18,0,.28a2.44,2.44,0,0,0,0,.27,1,1,0,0,0,.15.61A.55.55,0,0,0,75,37a1.51,1.51,0,0,0,.44-.06,2.73,2.73,0,0,0,.45-.2v.61a1.64,1.64,0,0,1-.51.22A2.53,2.53,0,0,1,74.86,37.66Zm-.27-2.55h0a2,2,0,0,0,.73-.11.81.81,0,0,0,.39-.33.94.94,0,0,0,.12-.47.47.47,0,0,0-.08-.28.32.32,0,0,0-.26-.11.55.55,0,0,0-.37.17,1.61,1.61,0,0,0-.31.45A3.59,3.59,0,0,0,74.59,35.11Z" transform="translate(-4.72 -5.82)"/><path class="cls-4" d="M76.65,37.59l.92-4.32h1v3.11h0L80,33.27H81l-.91,4.32h-.73l.47-2.22c0-.15.07-.31.1-.45s.07-.3.11-.45h0l-1.36,3.12h-.61l0-3.12h0c0,.14,0,.28-.08.41s0,.26-.07.4l-.5,2.31Z" transform="translate(-4.72 -5.82)"/><path class="cls-4" d="M82.38,37.66a1.32,1.32,0,0,1-.64-.15,1.08,1.08,0,0,1-.41-.46,1.68,1.68,0,0,1-.15-.74,5.06,5.06,0,0,1,.14-1.17,3.86,3.86,0,0,1,.39-1,2.34,2.34,0,0,1,.61-.7,1.36,1.36,0,0,1,.81-.25,1,1,0,0,1,.7.24.94.94,0,0,1,.26.7,1.56,1.56,0,0,1-.14.66,1.32,1.32,0,0,1-.4.48,1.82,1.82,0,0,1-.64.31,3.2,3.2,0,0,1-.85.1H82A2.36,2.36,0,0,0,82,36a2.44,2.44,0,0,0,0,.27,1,1,0,0,0,.15.61.55.55,0,0,0,.46.19A1.51,1.51,0,0,0,83,37a2.73,2.73,0,0,0,.45-.2v.61a1.75,1.75,0,0,1-.51.22A2.53,2.53,0,0,1,82.38,37.66Zm-.27-2.55h0a2,2,0,0,0,.73-.11.81.81,0,0,0,.39-.33.94.94,0,0,0,.12-.47.47.47,0,0,0-.08-.28.32.32,0,0,0-.26-.11.55.55,0,0,0-.37.17,1.61,1.61,0,0,0-.31.45A3.59,3.59,0,0,0,82.11,35.11Z" transform="translate(-4.72 -5.82)"/><path class="cls-4" d="M85.47,37.66a1.08,1.08,0,0,1-.59-.15.87.87,0,0,1-.37-.45,2,2,0,0,1-.12-.73,6,6,0,0,1,.06-.81,6.21,6.21,0,0,1,.21-.85,3.77,3.77,0,0,1,.38-.75,1.82,1.82,0,0,1,.54-.53,1.33,1.33,0,0,1,.74-.21,1.44,1.44,0,0,1,.43.06,1.63,1.63,0,0,1,.38.17l-.32.62a.9.9,0,0,0-.24-.12.74.74,0,0,0-.25,0,.65.65,0,0,0-.51.24,1.78,1.78,0,0,0-.36.62,5,5,0,0,0-.21.78,5.12,5.12,0,0,0-.06.74,1.27,1.27,0,0,0,0,.42.42.42,0,0,0,.16.25.4.4,0,0,0,.27.09,1.09,1.09,0,0,0,.33-.07,1.51,1.51,0,0,0,.37-.2v.67a1.48,1.48,0,0,1-.4.19A1.66,1.66,0,0,1,85.47,37.66Z" transform="translate(-4.72 -5.82)"/><path class="cls-4" d="M86.85,37.59l.91-4.32h.63l-.07.54h0a1.46,1.46,0,0,1,.26-.34,1.06,1.06,0,0,1,.31-.21,1,1,0,0,1,.37-.08.82.82,0,0,1,.5.14.69.69,0,0,1,.26.42h0a1.31,1.31,0,0,1,.27-.3,1.08,1.08,0,0,1,.68-.26.78.78,0,0,1,.57.22.94.94,0,0,1,.2.64c0,.08,0,.17,0,.28s0,.21,0,.31l-.63,3h-.77l.59-2.78c0-.11,0-.21,0-.3s0-.17,0-.23a.49.49,0,0,0-.08-.3.29.29,0,0,0-.23-.1.44.44,0,0,0-.27.09.83.83,0,0,0-.21.24,1.66,1.66,0,0,0-.15.33,2.93,2.93,0,0,0-.1.37l-.58,2.68H88.6l.6-2.84a2.56,2.56,0,0,0,0-.27,1.83,1.83,0,0,0,0-.21.46.46,0,0,0-.08-.29.29.29,0,0,0-.22-.1.45.45,0,0,0-.32.12,1,1,0,0,0-.24.31,2.52,2.52,0,0,0-.17.44,4.05,4.05,0,0,0-.12.5l-.5,2.34Z" transform="translate(-4.72 -5.82)"/><path class="cls-4" d="M93.4,37.66a1.47,1.47,0,0,1-.64-.14,1,1,0,0,1-.44-.46,1.6,1.6,0,0,1-.16-.77,4.56,4.56,0,0,1,.07-.8,4.68,4.68,0,0,1,.2-.84,3.07,3.07,0,0,1,.39-.74,2,2,0,0,1,.58-.53,1.69,1.69,0,0,1,.82-.2,1.32,1.32,0,0,1,.59.12.87.87,0,0,1,.39.34,1,1,0,0,1,.14.54,1.19,1.19,0,0,1-.11.54,1,1,0,0,1-.33.39,1.48,1.48,0,0,1-.54.24v0a.84.84,0,0,1,.44.28,1,1,0,0,1,.17.63,1.36,1.36,0,0,1-.18.68,1.28,1.28,0,0,1-.52.51A1.74,1.74,0,0,1,93.4,37.66Zm.1-.6a.6.6,0,0,0,.37-.11.76.76,0,0,0,.24-.29.86.86,0,0,0,.09-.39.81.81,0,0,0-.07-.33.43.43,0,0,0-.21-.21.69.69,0,0,0-.34-.07H93l0,.3c0,.1,0,.21,0,.32a.94.94,0,0,0,.15.61A.5.5,0,0,0,93.5,37.06Zm-.38-2h.57a.93.93,0,0,0,.45-.1.68.68,0,0,0,.3-.28.87.87,0,0,0,.1-.44.51.51,0,0,0-.1-.34.39.39,0,0,0-.31-.12.66.66,0,0,0-.44.16,1.58,1.58,0,0,0-.33.44A4.46,4.46,0,0,0,93.12,35.07Z" transform="translate(-4.72 -5.82)"/><path class="cls-4" d="M96.51,37.66a.72.72,0,0,1-.46-.14,1,1,0,0,1-.3-.42,2.08,2.08,0,0,1-.1-.66,5.91,5.91,0,0,1,.07-.79,5.46,5.46,0,0,1,.2-.87,3.76,3.76,0,0,1,.34-.79,2.06,2.06,0,0,1,.49-.59,1,1,0,0,1,.63-.22.84.84,0,0,1,.33.07.82.82,0,0,1,.25.21,1,1,0,0,1,.16.35h0l.19-.54H99l-.92,4.32h-.62l0-.6h0a2.14,2.14,0,0,1-.28.36,1.08,1.08,0,0,1-.31.23A.71.71,0,0,1,96.51,37.66ZM96.8,37a.51.51,0,0,0,.42-.21,1.67,1.67,0,0,0,.3-.53,4.75,4.75,0,0,0,.2-.64,5.66,5.66,0,0,0,.14-.66,3.08,3.08,0,0,0,0-.51.74.74,0,0,0-.1-.43.33.33,0,0,0-.3-.16.48.48,0,0,0-.36.18,1.59,1.59,0,0,0-.29.45,4.33,4.33,0,0,0-.22.61,5.18,5.18,0,0,0-.14.66,4.38,4.38,0,0,0,0,.59,1,1,0,0,0,.09.49A.27.27,0,0,0,96.8,37Z" transform="translate(-4.72 -5.82)"/><path class="cls-4" d="M99,37.59l.92-4.32h.77L100.26,35h1l.36-1.75h.77l-.92,4.32h-.76l.41-1.91h-1l-.4,1.91Z" transform="translate(-4.72 -5.82)"/><path class="cls-4" d="M103.82,37.66a1.29,1.29,0,0,1-.64-.15,1,1,0,0,1-.41-.46,1.68,1.68,0,0,1-.15-.74,5.06,5.06,0,0,1,.14-1.17,3.86,3.86,0,0,1,.39-1,2.21,2.21,0,0,1,.61-.7,1.36,1.36,0,0,1,.81-.25,1,1,0,0,1,.69.24.91.91,0,0,1,.26.7,1.56,1.56,0,0,1-.13.66,1.35,1.35,0,0,1-.41.48,1.69,1.69,0,0,1-.63.31,3.2,3.2,0,0,1-.85.1h-.06a2.36,2.36,0,0,0,0,.28,2.45,2.45,0,0,0,0,.27,1,1,0,0,0,.16.61A.54.54,0,0,0,104,37a1.44,1.44,0,0,0,.43-.06,2.73,2.73,0,0,0,.45-.2v.61a1.7,1.7,0,0,1-.5.22A2.53,2.53,0,0,1,103.82,37.66Zm-.27-2.55h0a2.12,2.12,0,0,0,.73-.11.81.81,0,0,0,.39-.33.94.94,0,0,0,.12-.47.47.47,0,0,0-.08-.28.33.33,0,0,0-.26-.11.55.55,0,0,0-.37.17,1.43,1.43,0,0,0-.31.45A3,3,0,0,0,103.55,35.11Z" transform="translate(-4.72 -5.82)"/></svg>