<?xml version="1.0" encoding="utf-8"?>
<!-- Generator: Adobe Illustrator 25.2.1, SVG Export Plug-In . SVG Version: 6.00 Build 0)  -->
<svg version="1.1" id="Layer_1" xmlns="http://www.w3.org/2000/svg" xmlns:xlink="http://www.w3.org/1999/xlink" x="0px" y="0px"
	 viewBox="0 0 6490 1508" style="enable-background:new 0 0 6490 1508;" xml:space="preserve">
<style type="text/css">
	.st0{fill:#930224;}
	.st1{fill:#114B7D;}
	.st2{fill:#FFFFFF;stroke:#000000;stroke-miterlimit:10;}
	.st3{stroke:#000000;stroke-miterlimit:10;}
	.st4{fill:#A8A8A8;}
	.st5{fill:#333333;stroke:#000000;stroke-width:3;stroke-miterlimit:10;}
	.st6{fill:#666666;stroke:#000000;stroke-miterlimit:10;}
	.st7{fill:#666666;stroke:#000000;stroke-width:5;stroke-miterlimit:10;}
	.st8{fill:#1A1A1A;}
	.st9{fill:#040404;}
	.st10{fill:#050505;}
	.st11{fill:#060606;}
	.st12{fill:#0F0F0F;}
	.st13{fill:#151515;}
	.st14{fill:#1F1F1F;}
	.st15{fill:#2A2A2A;stroke:#000000;stroke-miterlimit:10;}
	.st16{fill:#272727;stroke:#000000;stroke-miterlimit:10;}
	.st17{fill:#646464;stroke:#000000;stroke-miterlimit:10;}
	.st18{fill:#080808;stroke:#000000;stroke-miterlimit:10;}
	.st19{fill:#080707;}
	.st20{fill:#252525;stroke:#000000;stroke-miterlimit:10;}
	.st21{fill:#1E1E1E;}
	.st22{fill:none;}
	.st23{fill:#FFFFFF;}
	.st24{fill:#00788A;}
</style>
<g>
	<path d="M-2679.4-579c-61,0-110.6-49.6-110.6-110.6v-345.8c0-61,49.6-110.6,110.6-110.6h345.8c61,0,110.6,49.6,110.6,110.6v345.8
		c0,61-49.6,110.6-110.6,110.6H-2679.4z"/>
	<path d="M-2333.6-1144c59.9,0,108.6,48.7,108.6,108.6v345.8c0,59.9-48.7,108.6-108.6,108.6h-345.8c-59.9,0-108.6-48.7-108.6-108.6
		v-345.8c0-59.9,48.7-108.6,108.6-108.6H-2333.6 M-2333.6-1148h-345.8c-62.1,0-112.6,50.5-112.6,112.6v345.8
		c0,62.1,50.5,112.6,112.6,112.6h345.8c62.1,0,112.6-50.5,112.6-112.6v-345.8C-2221-1097.5-2271.5-1148-2333.6-1148L-2333.6-1148z"
		/>
</g>
<g>
	<path class="st0" d="M-2679.4-617c-40,0-72.6-32.6-72.6-72.6v-345.8c0-40,32.6-72.6,72.6-72.6h345.8c40,0,72.6,32.6,72.6,72.6
		v345.8c0,40-32.6,72.6-72.6,72.6H-2679.4z"/>
	<path d="M-2333.6-1106c38.9,0,70.6,31.7,70.6,70.6v345.8c0,38.9-31.7,70.6-70.6,70.6h-345.8c-38.9,0-70.6-31.7-70.6-70.6v-345.8
		c0-38.9,31.7-70.6,70.6-70.6H-2333.6 M-2333.6-1110h-345.8c-41.1,0-74.6,33.5-74.6,74.6v345.8c0,41.1,33.5,74.6,74.6,74.6h345.8
		c41.1,0,74.6-33.5,74.6-74.6v-345.8C-2259-1076.5-2292.5-1110-2333.6-1110L-2333.6-1110z"/>
</g>
<g>
	<g>
		<path class="st1" d="M-2679.4-591c-54.4,0-98.6-44.2-98.6-98.6v-345.8c0-54.4,44.2-98.6,98.6-98.6h345.8
			c54.4,0,98.6,44.2,98.6,98.6v345.8c0,54.4-44.2,98.6-98.6,98.6H-2679.4z"/>
		<path d="M-2333.6-1132c53.3,0,96.6,43.3,96.6,96.6v345.8c0,53.3-43.3,96.6-96.6,96.6h-345.8c-53.3,0-96.6-43.3-96.6-96.6v-345.8
			c0-53.3,43.3-96.6,96.6-96.6H-2333.6 M-2333.6-1136h-345.8c-55.5,0-100.6,45.1-100.6,100.6v345.8c0,55.5,45.1,100.6,100.6,100.6
			h345.8c55.5,0,100.6-45.1,100.6-100.6v-345.8C-2233-1090.9-2278.1-1136-2333.6-1136L-2333.6-1136z"/>
	</g>
</g>
<path class="st2" d="M-2542.3-690.8"/>
<g>
	<path class="st3" d="M-2413.7-788.9c0.4-1-0.1-0.6-0.2-0.6c-0.3,0.4-0.1,0.1-0.4,0.4c-1.4,1.7-1.6,2.8-2.1,4.5
		c-3.6,8.4-7.4,16.8-10.9,25.3c-1,2.4-2.3,3.6-5,3.9c-36.1,4.8-71.7,4.5-105.6-10.3c-3.4-1.5-6.7-3.3-9.5-5.6
		c-3.7-3-6.3-2.4-9.5,0.8c-13.9,13.6-25.6,28.9-38.6,43.1c-12.8,13.9-18.3,29.9-20.5,47.4c-0.7,5.7-2,11.4-3.2,17
		c-0.6,2.9-0.4,5.2,2.2,7.4c3.1,2.6,5.9,5.5,8.4,8.7c2.3,2.9,2.7,5.5-2.2,7.3c-14.8,5.4-29.6,9.5-46,9c-30.8-0.9-61.6-0.3-92.5-0.2
		c-4.2,0-5.3-0.6-4.6-4.9c2.2-13.9,2.7-28.2,6.2-41.9c5.9-22.9,15.2-44.8,23.7-66.9c18.1-47.1,40-92.7,62.5-138
		c5.3-10.7,11.1-21.3,16.6-32c0.6-1.1,0.9-2.3,1-3.7c-6.4,5.2-11.5,11.3-16.3,17.7c-5.8,8-11.7,15.9-17.5,23.9
		c-2.2,3.1-4.7,5.1-8.8,2.8c-16.6-9.3-32.6-19.4-41.8-36.2c-2.1-3.8-4-7.6-5.7-11.6c-3.5-8.2-5.1-15.9,5.5-21.3c3.9-2,6.5-6,9.9-8.8
		c4.1-3.3,8.4-6.2,5.4-12.5c-1.3-2.6,1.9-5,3.5-7.2c1.4-1.8,2.9-3.6,4.7-5.1c3-2.5,3.5-4.6,1.7-7.9c-4.1-7.5-3.6-10.2,2.6-16.4
		c11.6-11.8,22.1-24,30.2-38.4c7.6-13.5,20-23.9,31.4-34.8c3.1-3,6.5-2,9.9-0.7c24.8,9.2,45.9,23.4,64.3,41.2
		c9.5,9.2,19,18.5,28.5,27.7c3.6,3.5,16,4.7,20,2c1.8-1.2,1.6-2.9,1.7-4.5c0.6-20.7,7.9-39,21.1-55.7c6-7.6,16.2-13.7,27.2-9.5
		c3.8,1.4,5.8-0.2,7.6-3.2c8.3-13.6,19.9-23.3,36.4-27.5c6.9-1.8,13.7-1.3,20.7-0.5c29.8,3.5,56.2,15.2,81.1,30.2
		c18.2,10.9,35.8,22.6,51.2,37.1c23.6,22.2,25,48.6,6.9,74.8c-2.1,3-1.6,5.1,0.5,7.4c2.9,3.3,5.8,6.7,7,10.9
		c2.7,9.1-0.1,17-7.3,23.3c-11.4,10-23.1,19.9-34.4,29.6c10.9,10.5,21.9,21,32.9,31.6c1.7,1.6,3.3,3.2,4.9,4.9c4.7,5.1,5,8.3,1.1,14
		c-7.4,11-15,21.8-21.5,33.3c-3.1,5.5-3.3,10.5-0.5,15.9c5.6,10.7,10.9,21.4,16.9,31.9c7.7,13.4,7.5,27.8,7.9,42.3
		c0.6,21.5-3.9,42.5-7.3,63.6c-0.9,5.7-2,11.4-2.5,17.1c-0.3,2.9-1.5,3.5-4.4,3.5c-40.8,0.3-81.5,0.7-122.3,1
		c-1.7,0-3.8,0.8-4.8-1.2c-0.9-1.9,0-3.7,1.4-5.1c3.4-3.1,6.7-6.4,10.5-9.1c3.3-2.3,4-4.4,1.8-7.8c-18-27.9-26.1-59.1-34.1-90.2
		c-3.2-12.2-1.5-24.7,1.1-37"/>
	<path class="st4" d="M-2413.5-791.7"/>
	<path class="st5" d="M-2387.1-636.7c3.6-2.5,6.7-4.7,9.9-6.7c3.2-1.9,4.1-4.1,2.2-7.4c-4.8-8.5-9.3-17.2-14.1-25.7
		c-8.6-15.2-12.3-32-18-48.2c-8.2-23.5-7.2-47.2-1.8-70.9c0.4-1.7,1.8-4.1-0.2-5.1c-2.6-1.2-3.5,1.7-4.5,3.2
		c-6.8,9.7-11.9,20.1-15.2,31.2c-1.3,4.6-3.8,7.5-9.2,8c-28.4,2.7-56.3,1.3-83.7-6.6c-7.4-2.2-14.4-5.2-20.8-9.4
		c-5.7-3.7-6.3-6.7-2.2-12c12-15.5,23.2-31.4,33.3-48c2.4-4,2.4-4,1.5-8.1c-6.2,6.1-10.6,13.1-15.4,19.6
		c-11.5,15.6-22.3,31.6-33.7,47.2c-8.2,11.2-19.1,20.4-28.1,31c-15.1,17.8-31.1,35.1-43.9,54.6c-7.1,10.9-12.1,22.5-14.8,35
		c-1.5,6.9-1.5,6.9,3,18.8c-0.9,1.4-2.5,1-3.7,0.9c-31.4-2.2-62.8-0.8-94.2,0c-4.8,0.1-5.8-1.2-5.5-5.5c1.3-22.9,7.1-44.9,14-66.9
		c10.6-33.7,25.2-65.9,38.5-98.6c14.4-35.5,32.4-69.6,51.7-103c4.6-8,8.5-16.3,11.2-25.1c0.5-1.5,0.6-3.1,1-5.3
		c-5,1.4-6.8,5.1-9.5,7.9c-13.5,13.6-25.9,28-35.7,44.4c-5.8,9.7-6.5,9.3-17.1,4.4c-16.8-7.7-30-18.6-36.7-35.5
		c-0.2-0.5-0.5-1-0.7-1.5c-3.5-11.3-0.9-17.3,12.2-13.5c5.9,1.7,12.1,2.3,18,3.6c3.8,0.9,5.6-0.7,6.7-3.7c1.2-3.4-1.7-4.1-4-5
		c-5.4-1.9-10.8-3.8-16.2-5.6c-3.4-1.2-4.5-2.4-1.2-5.2c3.5-3,7.7-5.3,11.5-7.9c0.8-0.5,2-0.9,1.3-2c-0.3-0.5-1.6-0.9-1.9-0.7
		c-2.2,1.3-3.8,1.5-5.1-1.2c-1.3-2.5-1.3-4.7,0.7-6.7c3.8-3.8,7.6-7.6,11.5-11.3c3-2.8,5-4.8-1.1-6.6c-5.8-1.7-6.3-4-3.2-8.8
		c3.2-4.8,8.1-8.1,12.1-12.3c4.5-4.7,9.3-9.2,13.9-13.8c2.9-2.9,6.8-5.3,4.4-10.3c-0.9-1.9,0.5-3.9,1.9-5.6
		c6.1-7.6,11.7-15.4,18.5-22.5c4.1-4.2,8.8-7.4,14.6-9.3c4.4-1.5,8.5-1.4,12.5,0.9c24.9,14,49.3,28.6,67.8,50.2
		c4.8,5.6,9.9,11.2,14.6,16.9c2.8,3.4,6.1,4.6,10.4,3.5c28.2-6.7,49.6,5.3,68.3,22.7c13.8,12.9,23.4,28.8,33.4,44.4
		c2.7,4.3,5.8,8.4,8.5,12.7c2.1,3.2,2.9,5.9-1.7,8.7c-7.1,4.3-12.6,10.3-18.1,17.7c10.4-3.6,17.7-10.1,26.5-14.3
		c13-6.2,26.5-10.9,40.4-14.5c4.7-1.2,9.4-0.8,13.8,1.6c18.1,9.7,36.2,19.2,53.6,29.9c13.2,8.2,23.3,19.6,34.7,29.7
		c10.1,9,9.7,8.9,2.5,20.3c-6.6,10.5-12.7,21.4-18.8,32.2c-3.2,5.7-1.5,11.2,1.3,16.5c4.6,8.6,10,16.8,13.8,25.8
		c8.4,20.1,13.1,40.6,9.9,62.5c-2.8,18.7-4.2,37.7-6.1,56.5c-0.4,3.8-2.2,5.6-6.3,5.8c-36.9,1.9-73.9,2.4-110.9,2.3
		C-2385.3-636.1-2385.8-636.3-2387.1-636.7z"/>
	<path class="st6" d="M-2254.5-998.1c0.6,10.3-3.9,19.7-7.6,29.3c-1.4,3.8-4,2.8-7.1,1.6c-12.4-4.8-24.1-3.5-34.6,4.5
		c-1.8,1.4-3.4,3.1-4.9,4.9c-4.6,5.7-4.6,5.7-10.9,1c-14.6-11-30.3-20.1-48.3-25.7c-9.4-2.9-17.8-7.7-24.6-15
		c-12.6-13.3-29.6-20.9-46-29.2c-0.9-0.4-1.8-0.8-2.6-1.3c-7.7-3.9-7.7-3.9-4.4-11.6c5.1-11.7,2.8-22.7-4.9-32.6
		c-3.4-4.3-2.9-7.3,1-11c15.6-14.6,32.8-21.8,55.8-16.5c38,8.9,71,26,100.8,49.3c10.4,8.1,20.5,16.4,28.9,26.4
		C-2257.5-1016.4-2253.8-1008.1-2254.5-998.1z"/>
	<path class="st6" d="M-2465.8-1069.7c4.7,0.5,10.7-3.1,14.2,2.2c4.7,7.1,7,15,4.4,23.4c-1.1,3.6-2.8,7-5.5,9.8
		c-3.2,3.4-2.6,5.2,2,6.6c15.2,4.7,29.1,11.7,42,20.4c5.4,3.6,10.3,7.6,14.1,12.7c6,8.2,15.1,12.4,24.6,15.8
		c15.1,5.3,29.5,11.8,42.9,20.1c4.4,2.7,8.4,5.7,11.6,9.4c2.5,2.9,3.8,2.5,6-0.5c8.2-11.5,19.2-18,34.7-15.5
		c2.1,0.3,4.9,0.4,4.7,3.1c-0.2,2.2-2.7,2.2-4.7,2.4c-3.2,0.3-6.3,0.7-9.5,1c-11.4,1.1-19.8,6.1-24.2,16.3c-1.6,3.7-3.3,4.5-6.8,1.5
		c-8-6.7-16.3-13-24.4-19.6c-9.7-7.7-20.7-13.4-32.8-16.3c-11.6-2.7-20.9-7.9-27.9-16.6c-12.1-14.9-29.1-22.4-47-28.8
		c-4.8-1.7-9.9-2.8-14.1-5.8c-1.1-0.7-2.1-2.1-3.2,0c-0.8,1.4-1.3,2.9,0.6,3.9c1.5,0.8,3.2,1.4,5,1.8c22,5.4,41.3,15,56.8,30.9
		c3.7,3.8,8.6,6.6,10.9,11.6c0.6,1.3,1.9,2.2,3.7,2.4c18.6,2.6,34.4,10.8,49,21.3c8.3,6,17.2,11.4,23.5,19.5c2.4,3,5,2.6,7.2-0.3
		c1.7-2.3,3.2-4.7,4.7-7.1c7.7-11.9,23-15.8,36.2-9.3c10.5,5.2,13.6,17.6,5.8,26c-11.1,11.9-24.8,21.4-37.2,32.1
		c-2.7,2.3-6.2,1.9-8.8-0.2c-20.6-16.4-46.3-24.9-68.9-38.2c-30.9-18.1-62.3-35.4-93.5-53.2c-2.5-1.4-4.5-3.6-6.8-5.4
		c-7.9-6.2-17.1-9-27.3-10c-6.8-0.6-8.2-2.1-7.3-8.2c2.1-14.6,6-28.7,13.5-41.8C-2490.7-1064-2482.1-1072.9-2465.8-1069.7z"/>
	<path class="st7" d="M-2369.1-925.4c-7.8,4.2-14.6,3.5-20.9-0.3c-13.8-8.3-27.5-16.8-42.1-23.8c-7.5-3.6-11.6-10.5-17.1-16
		c-2.3-2.3-4.3-4.8-5.7-8.4C-2426.6-957.9-2398.3-941.9-2369.1-925.4z"/>
	<g>
		<path class="st1" d="M-2410-913.3c-1.3,0-2.4-0.7-3.6-1.9c-3.2-2.9-5.9-6.6-8.2-11.3c-3.7-7.7-8-14-13.3-19.3l0.3-0.4l47.2,26.3
			l-5.7,1.7c-5.5,1.7-10.5,3.2-15.6,4.7C-2409.2-913.3-2409.6-913.3-2410-913.3z"/>
		<g>
			<path d="M-2433.7-945.1l44.8,25l-4.6,1.4c-5.5,1.7-10.5,3.2-15.6,4.7c-0.4,0.1-0.7,0.2-1,0.2c-1.1,0-2.1-0.7-3.3-1.7
				c-3.2-2.9-5.8-6.5-8.1-11.2C-2424.8-933.9-2428.9-940-2433.7-945.1 M-2434.8-946.9c-0.3,0.4-0.6,0.7-0.9,1.1
				c5.7,5.8,10,12.4,13.5,19.5c2,4.2,4.7,8.2,8.3,11.5c1.2,1.1,2.4,2,4,2c0.4,0,0.8-0.1,1.3-0.2c7.1-2.1,14.2-4.3,22.4-6.8
				C-2403.2-929.2-2419-938-2434.8-946.9L-2434.8-946.9z"/>
		</g>
	</g>
	<path class="st8" d="M-2616.3-643.2c-6.4,1.3-11.8,2.3-17.1,3.6c-3.2,0.7-5-0.5-6.2-3c-1.9-3.9-2.5-7.9-0.5-11.8
		c5.7-11.3,11.5-22.6,18.4-33.6c-1.7,9.1-3,18.2-5.2,27.2c-1.7,6.7-2.1,12.1,6.6,14.3C-2619.2-646.2-2618.3-644.9-2616.3-643.2z"/>
	<path class="st6" d="M-2701.8-932.8c-7.1-1-13.9-3.7-20.9-5.6c-1-0.3-2.1-0.8-1.8-1.8c0.5-1.5,2.1-1.6,3.5-1.2
		c6.9,1.7,13.8,3.4,20.7,5.1c1.2,0.3,2.4,1,2.1,2.3C-2698.7-932.2-2700.4-932.9-2701.8-932.8z"/>
	<path class="st9" d="M-2560.3-941.5c2.8,29.3-55.2,97.2-72.5,95.2C-2598.7-871-2574-901.7-2560.3-941.5z"/>
	<path class="st10" d="M-2620.5-1002.2c2.8,0.8,4.5,3,6.5,4.7c7.1,5.9,6.9,5.9,3.4,14c-3.6,8.1-8.4,15.5-13.3,22.9
		c-0.6,0.9-0.9,2.3-2.4,2c-1.4-0.3-1.2-1.7-1.3-2.8c-1-7.9,1.5-15.5,2.4-23.2c0.6-4.8,1.5-9.5,2.3-14.3
		C-2622.8-1000.3-2622.7-1002-2620.5-1002.2z"/>
	<path class="st9" d="M-2676.6-979.1c-1.7-0.5-3.3-0.6-4.7-1.4c-3.1-1.8-7.7-2.9-7.2-7.2c0.5-4.2,5.2-3.3,8.2-4
		c5.2-1.2,10.5-1.8,15.8-2.7c2.2-0.4,4.1,0.1,5.1,1.9c1.2,2-0.7,3.1-2.1,4C-2666.3-985-2670.5-980.5-2676.6-979.1z"/>
	<path class="st11" d="M-2309-845.5c-13.4-15-30.5-25.1-50.7-31.9c4.2-2.7,7.8-1.7,10.8-0.6c16.2,6.3,29.5,16.3,39.9,29.5
		c0.4,0.5,0.6,1.3,0.9,1.9C-2308.4-846.2-2308.7-845.8-2309-845.5z"/>
	<path class="st8" d="M-2603.1-1040.6c-18.4-10.4-22.6,4.1-29.2,13.7c-2.2-0.3-1.7-1.7-1.9-2.6c-1.2-6.6,9.6-20.1,16.6-20.8
		C-2610.4-1050.9-2606.6-1046.3-2603.1-1040.6z"/>
	<path class="st12" d="M-2595.1-852.7c19.8-14.6,33.1-32.6,41.5-53.8C-2555-889.2-2581.2-854.9-2595.1-852.7z"/>
	<path class="st13" d="M-2478.3-777.9c-15.8-0.7-34.8-5.3-42.3-10.9c16,3.6,30.3,8.4,45.3,9.8
		C-2475.4-776.7-2477.1-777.9-2478.3-777.9z"/>
	<path class="st14" d="M-2478.3-777.9c1-0.4,2-0.8,3-1.1c10.8,0,21.7,0,32.5,0c0,0.7,0,1.3,0,2
		C-2454.6-774.7-2466.4-775.7-2478.3-777.9z"/>
	<path class="st15" d="M-2326.8-989.4c-0.1-11,15.2-30.6,28.1-35.9C-2312.2-1016.2-2320.6-1003.6-2326.8-989.4z"/>
	<path class="st16" d="M-2379.6-1060c-5.7,12.5-13.8,23.2-27,29.7c10.6-8.8,20.4-18.2,26-30.8
		C-2379.5-1061.3-2379.1-1061-2379.6-1060z"/>
	<path class="st17" d="M-2379.6-1060c-0.3-0.4-0.7-0.8-1-1.1c0.9-2.7,1.8-5.4,2.7-8.1C-2377-1065.9-2377.4-1062.7-2379.6-1060z"/>
	<path class="st18" d="M-2467.5-1059.9c-17.7,11.3-21.7,29-27.5,45.9c-1.3-8.3,1.7-19,8.7-31.3c1.5-2.6,3-5.2,4.5-7.8
		C-2478.3-1059.3-2475.6-1060.7-2467.5-1059.9z"/>
	<path class="st19" d="M-2310.2-909.9c16.7-8.6,33.5-16.2,41.4-34.1c2.2,4.2,2.7,8.1-0.9,11.4c-10.4,9.5-21.4,18.1-35.4,22.6
		C-2306.8-909.5-2308.3-909.5-2310.2-909.9z"/>
	<path class="st20" d="M-2456.2-1012.2c12,14.4,27.3,22.9,44.8,29.2C-2422-981.1-2452.9-1001.1-2456.2-1012.2z"/>
	<path class="st21" d="M-2332.5-936.6c-18.6-4.1-33.4-13.9-45.5-27.7C-2364.8-952.1-2349.6-942.9-2332.5-936.6z"/>
	<path class="st6" d="M-2619.9-998.5c8.6,7,8.6,7,3.9,15.1c-2.5,4.2-4.8,8.4-8,12.3C-2622.7-980-2621.3-988.9-2619.9-998.5z"/>
	<path class="st6" d="M-2680.4-986.3c3.5-0.9,6.8-1.7,10.4-2.7C-2672.7-982.1-2675.1-981.5-2680.4-986.3z"/>
</g>
<g>
	<g>
		<path d="M426.3,1503c-58.2,0-114.7-11.1-167.9-33.1c-51.4-21.2-97.5-51.6-137.1-90.4c-39.6-38.7-70.7-83.8-92.4-134
			C6.4,1193.6-5,1138.4-5,1081.5V454.5c0-56.9,11.4-112.1,33.9-164.1c21.7-50.2,52.8-95.3,92.4-134c39.6-38.7,85.7-69.1,137.1-90.4
			C311.6,44.1,368,33,426.3,33h641.3c58.2,0,114.7,11.1,167.9,33.1c51.4,21.2,97.5,51.6,137.1,90.4c39.6,38.7,70.7,83.8,92.4,134
			c22.5,52,33.9,107.2,33.9,164.1v626.9c0,56.9-11.4,112.1-33.9,164.1c-21.7,50.2-52.8,95.3-92.4,134
			c-39.6,38.7-85.7,69.1-137.1,90.4c-53.2,22-109.7,33.1-167.9,33.1H426.3z"/>
		<path d="M1067.5,35c58,0,114.2,11.1,167.1,33c51.1,21.1,97,51.4,136.4,89.9c39.4,38.5,70.4,83.4,92,133.4
			c22.4,51.7,33.7,106.6,33.7,163.3v626.9c0,56.6-11.3,111.6-33.7,163.3c-21.6,50-52.6,94.8-92,133.4
			c-39.4,38.5-85.3,68.8-136.4,89.9c-52.9,21.9-109.2,33-167.1,33H426.3c-58,0-114.2-11.1-167.1-33c-51.1-21.1-97-51.4-136.4-89.9
			c-39.4-38.5-70.4-83.4-92-133.4C8.3,1193-3,1138.1-3,1081.5V454.5C-3,397.9,8.3,343,30.7,291.3c21.6-50,52.6-94.8,92-133.4
			C162.1,119.4,208,89.1,259.1,68c52.9-21.9,109.2-33,167.1-33H1067.5 M1067.5,31H426.3C187,31-7,220.6-7,454.5v626.9
			c0,233.9,194,423.5,433.3,423.5h641.3c239.3,0,433.3-189.6,433.3-423.5V454.5C1500.8,220.6,1306.8,31,1067.5,31L1067.5,31z"/>
	</g>
	<g>
		<path class="st0" d="M426.3,1404.9c-88.4,0-171.5-33.7-234-94.8c-62.5-61.1-96.9-142.3-96.9-228.7V454.5
			c0-86.4,34.4-167.6,96.9-228.7c62.5-61.1,145.6-94.8,234-94.8h641.3c88.4,0,171.5,33.7,234,94.8c62.5,61.1,96.9,142.3,96.9,228.7
			v626.9c0,86.4-34.4,167.6-96.9,228.7c-62.5,61.1-145.6,94.8-234,94.8H426.3z"/>
		<path d="M1067.5,133.1c44.4,0,87.5,8.5,128.1,25.3c39.2,16.2,74.3,39.4,104.6,68.9c30.2,29.5,53.9,63.9,70.5,102.2
			c17.1,39.6,25.8,81.7,25.8,125.1v626.9c0,43.4-8.7,85.5-25.8,125.1c-16.6,38.3-40.3,72.7-70.5,102.2
			c-30.2,29.5-65.4,52.7-104.6,68.9c-40.6,16.8-83.6,25.3-128.1,25.3H426.3c-44.4,0-87.5-8.5-128.1-25.3
			c-39.2-16.2-74.3-39.4-104.6-68.9c-30.2-29.5-53.9-63.9-70.5-102.2c-17.1-39.6-25.8-81.7-25.8-125.1V454.5
			c0-43.4,8.7-85.5,25.8-125.1c16.6-38.3,40.3-72.7,70.5-102.2c30.2-29.5,65.4-52.7,104.6-68.9c40.6-16.8,83.6-25.3,128.1-25.3
			H1067.5 M1067.5,129.1H426.3c-183.9,0-332.9,145.7-332.9,325.5v626.9c0,179.7,149.1,325.5,332.9,325.5h641.3
			c183.9,0,332.9-145.7,332.9-325.5V454.5C1400.5,274.8,1251.4,129.1,1067.5,129.1L1067.5,129.1z"/>
	</g>
	<g>
		<g>
			<path class="st1" d="M426.3,1472c-53.9,0-106.3-10.3-155.5-30.7c-47.6-19.7-90.3-47.8-127-83.7c-36.7-35.9-65.5-77.6-85.6-124.1
				c-20.8-48.1-31.4-99.3-31.4-152V454.5c0-52.7,10.6-103.9,31.4-152c20.1-46.5,48.9-88.3,85.6-124.1c36.7-35.9,79.4-64,127-83.7
				C320,74.3,372.3,64,426.3,64h641.3c53.9,0,106.3,10.3,155.5,30.7c47.6,19.7,90.3,47.8,127,83.7c36.7,35.9,65.5,77.6,85.6,124.1
				c20.8,48.1,31.4,99.3,31.4,152v626.9c0,52.7-10.6,103.9-31.4,152c-20.1,46.5-48.9,88.3-85.6,124.1c-36.7,35.9-79.4,64-127,83.7
				c-49.3,20.4-101.6,30.7-155.5,30.7H426.3z"/>
			<path d="M1067.5,66c53.7,0,105.8,10.3,154.8,30.5c47.3,19.6,89.9,47.6,126.4,83.3c36.5,35.7,65.2,77.2,85.2,123.5
				c20.7,47.9,31.2,98.8,31.2,151.2v626.9c0,52.4-10.5,103.3-31.2,151.2c-20,46.3-48.7,87.8-85.2,123.5
				c-36.5,35.7-79,63.7-126.4,83.3c-49,20.3-101.1,30.5-154.8,30.5H426.3c-53.7,0-105.8-10.3-154.8-30.5
				c-47.3-19.6-89.9-47.6-126.4-83.3c-36.5-35.7-65.2-77.2-85.2-123.5c-20.7-47.9-31.2-98.8-31.2-151.2V454.5
				c0-52.4,10.5-103.3,31.2-151.2c20-46.3,48.7-87.8,85.2-123.5c36.5-35.7,79-63.7,126.4-83.3C320.5,76.3,372.6,66,426.3,66H1067.5
				 M1067.5,62H426.3C204.5,62,24.7,237.7,24.7,454.5v626.9c0,216.8,179.8,392.6,401.6,392.6h641.3c221.8,0,401.6-175.8,401.6-392.6
				V454.5C1469.1,237.7,1289.3,62,1067.5,62L1067.5,62z"/>
		</g>
	</g>
</g>
<path class="st2" d="M-1866.3-729.7"/>
<g>
	<path class="st3" d="M967.3,938.3c1-2.4-0.3-1.6-0.5-1.4c-0.8,0.9-0.3,0.3-1,1.1c-3.5,4.2-4,6.9-5.4,11.1
		c-9.1,21-18.5,41.8-27.1,62.9c-2.4,6-5.7,8.9-12.4,9.8c-90.1,12-178.7,11.1-263.3-25.7c-8.4-3.7-16.7-8.3-23.8-13.9
		c-9.3-7.5-15.7-5.9-23.7,1.9c-34.6,33.9-63.8,71.9-96.3,107.4c-31.9,34.7-45.5,74.4-51.1,118.2c-1.8,14.2-4.9,28.3-7.9,42.3
		c-1.6,7.3-1,13.1,5.6,18.5c7.7,6.5,14.7,13.8,20.9,21.6c5.7,7.3,6.6,13.8-5.4,18.1c-37,13.4-73.7,23.7-114.7,22.5
		c-76.7-2.3-153.6-0.8-230.4-0.5c-10.4,0-13.1-1.6-11.5-12.1c5.5-34.8,6.7-70.2,15.6-104.4c14.8-57,37.9-111.6,59.1-166.7
		c45-117.4,99.6-231.1,155.8-344c13.3-26.8,27.6-53.1,41.4-79.7c1.4-2.8,2.3-5.8,2.4-9.3c-16,12.9-28.7,28.1-40.5,44.2
		c-14.6,19.8-29.2,39.6-43.5,59.6c-5.6,7.8-11.8,12.8-22,7.1c-41.4-23.3-81.3-48.2-104.2-90.1c-5.2-9.4-10.1-19-14.2-28.9
		c-8.7-20.5-12.6-39.6,13.8-53.1c9.6-4.9,16.1-14.9,24.7-21.8c10.3-8.3,21.1-15.3,13.4-31c-3.1-6.4,4.7-12.6,8.7-17.8
		c3.4-4.5,7.1-8.9,11.6-12.6c7.4-6.1,8.8-11.6,4.3-19.7c-10.2-18.7-8.9-25.4,6.4-40.9c28.8-29.3,55.1-59.7,75.2-95.6
		c18.9-33.6,49.9-59.6,78.4-86.6c7.8-7.5,16.1-5,24.6-1.8c61.8,22.9,114.3,58.4,160.3,102.7c23.8,22.9,47.4,46.1,71.1,69
		c9,8.7,39.9,11.7,49.9,5.1c4.4-2.9,4-7.1,4.1-11.3c1.4-51.6,19.8-97.3,52.5-138.8c14.9-18.9,40.5-34.2,67.9-23.7
		c9.4,3.6,14.5-0.4,19.1-7.9c20.6-33.9,49.7-58,90.7-68.6c17.2-4.4,34.3-3.2,51.5-1.2c74.4,8.6,140,38,202.1,75.2
		c45.4,27.2,89.3,56.4,127.6,92.4c58.8,55.3,62.3,121,17.1,186.4c-5.2,7.5-3.9,12.6,1.3,18.5c7.3,8.2,14.4,16.6,17.5,27.1
		c6.6,22.8-0.2,42.3-18.2,58.1c-28.5,25-57.5,49.5-85.8,73.7c27.2,26.1,54.6,52.4,82,78.7c4.1,4,8.3,8,12.2,12.2
		c11.7,12.8,12.5,20.6,2.8,35c-18.5,27.3-37.4,54.4-53.6,83c-7.7,13.7-8.3,26.2-1.4,39.6c13.8,26.5,27,53.4,42,79.4
		c19.2,33.3,18.7,69.3,19.7,105.4c1.5,53.6-9.7,105.9-18.3,158.5c-2.3,14.2-4.9,28.3-6.2,42.6c-0.7,7.3-3.8,8.7-11,8.8
		c-101.6,0.7-203.2,1.6-304.8,2.4c-4.2,0-9.5,1.9-11.9-3.1c-2.3-4.8,0-9.3,3.6-12.7c8.4-7.8,16.7-16,26.1-22.6
		c8.3-5.9,10-10.9,4.5-19.5c-44.8-69.5-65-147.3-85.1-224.9c-7.9-30.4-3.8-61.6,2.8-92.2"/>
	<path class="st4" d="M967.8,931.3"/>
	<path class="st5" d="M1033.6,1317.7c9.1-6.1,16.6-11.8,24.7-16.6c8.1-4.8,10.2-10.1,5.5-18.4c-12-21.2-23.2-42.8-35.2-64
		c-21.6-37.9-30.7-79.7-44.7-120c-20.4-58.6-17.9-117.5-4.4-176.8c1-4.2,4.6-10.3-0.6-12.7c-6.5-2.9-8.7,4.3-11.3,8.1
		c-16.9,24.1-29.6,50.1-37.8,77.9c-3.4,11.4-9.4,18.8-22.9,20.1c-70.7,6.7-140.4,3.3-208.6-16.5c-18.5-5.4-35.9-13.1-51.8-23.5
		c-14.3-9.3-15.7-16.7-5.5-29.9c29.9-38.6,57.8-78.4,83.1-119.7c6.1-10,6.1-10,3.8-20.2c-15.6,15.2-26.4,32.6-38.4,49
		c-28.6,38.8-55.5,78.7-83.9,117.7c-20.4,28-47.5,50.8-70,77.3c-37.8,44.5-77.6,87.5-109.5,136.1c-17.8,27.1-30.1,56-36.9,87.1
		c-3.7,17.2-3.6,17.2,7.5,46.7c-2.3,3.4-6.2,2.4-9.3,2.2c-78.3-5.4-156.5-1.9-234.8,0c-12,0.3-14.4-2.9-13.8-13.6
		c3.2-57.2,17.6-111.8,34.9-166.7c26.4-84,62.9-164.2,96-245.6c36-88.5,80.7-173.5,128.9-256.8c11.5-20,21.2-40.6,27.9-62.5
		c1.2-3.8,1.5-7.8,2.5-13.1c-12.5,3.5-17,12.8-23.7,19.6c-33.7,33.9-64.4,69.9-88.9,110.6c-14.5,24.1-16.2,23.2-42.6,11.1
		c-42-19.1-74.7-46.5-91.4-88.4c-0.5-1.3-1.2-2.5-1.6-3.8c-8.8-28.1-2.3-43,30.3-33.7c14.6,4.2,30,5.7,44.9,9
		c9.4,2.1,14-1.7,16.6-9.2c3-8.5-4.2-10.3-10-12.5c-13.3-4.8-26.8-9.3-40.3-13.9c-8.6-2.9-11.1-6-3-12.9
		c8.8-7.6,19.1-13.1,28.6-19.8c1.9-1.3,4.9-2.3,3.3-5.1c-0.7-1.1-3.9-2.3-4.8-1.7c-5.6,3.4-9.4,3.6-12.8-2.9
		c-3.2-6.2-3.2-11.7,1.7-16.7c9.4-9.5,18.9-18.9,28.8-28.1c7.4-6.9,12.6-11.9-2.6-16.5c-14.4-4.3-15.8-9.9-7.9-21.8
		c7.9-12,20.3-20.2,30.1-30.5c11.1-11.8,23.1-22.9,34.6-34.4c7.2-7.2,16.9-13.2,11.1-25.8c-2.2-4.7,1.3-9.8,4.7-14
		c15.1-18.9,29.3-38.4,46.2-56c10.1-10.5,21.9-18.4,36.3-23.2c11.1-3.7,21.1-3.4,31.2,2.3c62.1,34.8,122.8,71.4,168.9,125.1
		c12.1,14.1,24.6,27.8,36.3,42.2c6.9,8.4,15.2,11.4,25.9,8.8c70.2-16.7,123.6,13.1,170.1,56.5c34.4,32,58.4,71.8,83.2,110.6
		c6.8,10.7,14.4,21,21.2,31.7c5.2,8.1,7.3,14.7-4.2,21.6c-17.7,10.7-31.4,25.7-45,44.1c26-8.9,44.1-25.1,65.9-35.5
		c32.3-15.4,66-27.1,100.7-36.2c11.8-3.1,23.3-2,34.4,3.9c45,24.1,90.3,47.9,133.6,74.6c32.9,20.4,58.1,48.8,86.5,73.9
		c25.2,22.3,24.2,22.3,6.3,50.7c-16.5,26.2-31.6,53.3-46.9,80.1c-8,14.1-3.7,27.9,3.3,41.1c11.4,21.5,25,41.9,34.3,64.4
		c20.9,50.2,32.6,101.3,24.6,155.9c-6.9,46.7-10.5,93.9-15.2,140.9c-1,9.6-5.5,13.9-15.8,14.4c-92.1,4.8-184.2,5.9-276.4,5.6
		C1038.3,1319.2,1037,1318.6,1033.6,1317.7z"/>
	<path class="st6" d="M1364.2,417c1.6,25.8-9.8,49.2-18.9,73.1c-3.6,9.5-10,7-17.8,4c-30.9-11.9-60-8.7-86.3,11.3
		c-4.6,3.5-8.6,7.7-12.2,12.1c-11.6,14.3-11.3,14.2-27.1,2.5c-36.5-27.3-75.5-50.2-120.4-64c-23.5-7.2-44.3-19.2-61.4-37.3
		c-31.4-33.2-73.9-52-114.7-72.8c-2.2-1.1-4.4-2.1-6.6-3.2c-19.3-9.7-19.2-9.7-10.8-28.9c12.6-29.2,7-56.5-12.2-81.3
		c-8.4-10.8-7.3-18.2,2.5-27.4c38.8-36.4,81.8-54.4,139-41c94.8,22.1,176.9,64.7,251.1,122.8c25.9,20.3,51.2,40.8,72.1,65.7
		C1356.8,371.5,1365.9,392.1,1364.2,417z"/>
	<path class="st6" d="M837.6,238.6c11.8,1.2,26.8-7.7,35.5,5.4c11.8,17.7,17.4,37.3,10.9,58.3c-2.8,8.9-7.1,17.4-13.6,24.4
		c-7.9,8.4-6.5,12.9,5.1,16.4c37.8,11.6,72.4,29.2,104.8,50.8c13.4,8.9,25.6,18.9,35.1,31.6c15.1,20.4,37.6,31,61.3,39.5
		c37.5,13.3,73.4,29.5,107,50.1c10.9,6.7,20.9,14.2,29,23.5c6.2,7.1,9.5,6.3,14.9-1.3c20.4-28.8,47.9-44.9,86.5-38.7
		c5.4,0.8,12.3,0.9,11.7,7.8c-0.5,5.5-6.8,5.6-11.8,6.1c-7.9,0.8-15.7,1.7-23.6,2.4c-28.5,2.7-49.4,15.2-60.3,40.5
		c-4,9.2-8.1,11.2-16.9,3.8c-19.9-16.7-40.6-32.5-60.9-48.7c-24.1-19.2-51.6-33.5-81.8-40.6c-28.8-6.8-52-19.7-69.6-41.4
		c-30.1-37.1-72.6-55.9-117.2-71.8c-11.9-4.3-24.6-7.1-35.1-14.4c-2.7-1.9-5.1-5.3-7.9-0.1c-1.9,3.6-3.2,7.3,1.4,9.6
		c3.8,2,8.1,3.5,12.3,4.5c54.7,13.5,102.9,37.5,141.5,76.9c9.3,9.5,21.4,16.5,27.2,29c1.5,3.3,4.7,5.4,9.2,6
		c46.2,6.4,85.8,26.8,122.1,53c20.6,14.9,42.7,28.4,58.6,48.6c5.9,7.5,12.6,6.6,18-0.7c4.2-5.7,8-11.7,11.8-17.6
		c19.3-29.6,57.4-39.4,90.3-23.1c26.2,13,33.8,43.9,14.4,64.7c-27.7,29.8-61.8,53.3-92.7,80c-6.8,5.9-15.5,4.7-21.9-0.4
		c-51.4-40.9-115.3-62.1-171.8-95.1c-77-45.1-155.3-88.3-232.9-132.5c-6.2-3.6-11.2-9-16.9-13.5c-19.6-15.4-42.7-22.5-67.9-24.9
		c-16.9-1.6-20.3-5.3-18.1-20.4c5.3-36.4,14.9-71.6,33.7-104.2C775.6,252.8,797,230.6,837.6,238.6z"/>
	<path class="st7" d="M1078.5,598.2c-19.5,10.6-36.4,8.8-52.2-0.8c-34.4-20.8-68.6-41.8-105-59.4c-18.7-9-28.9-26.1-42.5-40
		c-5.6-5.7-10.8-11.9-14.3-20.9C935.1,517.1,1005.6,557,1078.5,598.2z"/>
	<g>
		<path class="st1" d="M976.6,629.1c-3.9,0-6.8-2.4-9.5-4.8c-8.2-7.4-14.9-16.7-20.5-28.4c-9.3-19.4-20.2-35.2-33.3-48.5l1.6-2.1
			l119.6,66.8l-16,4.9c-13.6,4.1-26.1,7.9-38.7,11.7C978.6,629,977.6,629.1,976.6,629.1z"/>
		<g>
			<path d="M915,545.9l101,56.4l17.2,9.6c-5.1,1.5-9.9,3-14.7,4.5c-13.5,4.1-26.3,8-38.9,11.8c-1,0.3-2,0.5-2.9,0.5
				c-3.3,0-6-1.8-9.2-4.7c-8.1-7.3-14.8-16.6-20.4-28.3c-9.3-19.2-20.1-35.1-33.1-48.3L915,545.9 M914.7,544.6
				c-0.7,0.9-1.4,1.9-2.2,2.8c14.3,14.4,25,30.8,33.6,48.7c5,10.4,11.6,20.4,20.7,28.6c3,2.7,6,5,9.9,5c1,0,2.1-0.2,3.2-0.5
				c17.7-5.3,35.4-10.7,55.9-16.9C993.6,588.7,954.1,566.6,914.7,544.6L914.7,544.6z"/>
		</g>
	</g>
	<path class="st8" d="M462.4,1301.3c-15.9,3.3-29.4,5.8-42.7,8.9c-7.9,1.8-12.4-1.3-15.3-7.4c-4.7-9.6-6.2-19.7-1.3-29.5
		c14.1-28.2,28.7-56.2,45.8-83.7c-4.2,22.6-7.4,45.5-13,67.8c-4.2,16.7-5.1,30.1,16.5,35.7C455.2,1293.9,457.4,1297.1,462.4,1301.3z
		"/>
	<path class="st6" d="M249.3,579.6c-17.7-2.4-34.6-9.3-52.2-13.9c-2.5-0.7-5.3-2-4.5-4.5c1.2-3.9,5.1-3.9,8.7-3
		c17.2,4.2,34.4,8.4,51.6,12.7c3,0.7,5.9,2.4,5.3,5.7C257.2,581.2,253,579.4,249.3,579.6z"/>
	<path class="st9" d="M602.1,558c6.9,73-137.7,242.2-180.6,237.1C506.4,733.7,567.8,657.1,602.1,558z"/>
	<path class="st10" d="M452,406.8c6.9,2.1,11.1,7.5,16.2,11.7c17.7,14.7,17.2,14.7,8.4,34.8c-8.9,20.2-20.9,38.6-33.1,57
		c-1.5,2.3-2.3,5.8-6.1,4.9c-3.6-0.8-3-4.4-3.4-7c-2.6-19.6,3.6-38.5,5.9-57.7c1.4-11.9,3.7-23.7,5.7-35.6
		C446.4,411.4,446.6,407.4,452,406.8z"/>
	<path class="st9" d="M312.1,464.4c-4.2-1.2-8.3-1.6-11.6-3.4c-7.8-4.4-19.2-7.3-18-17.9c1.2-10.5,12.9-8.2,20.5-9.8
		c13-2.9,26.2-4.5,39.3-6.8c5.5-1,10.2,0.3,12.8,4.7c2.9,4.9-1.8,7.7-5.2,10.1C337.8,449.7,327.5,460.8,312.1,464.4z"/>
	<path class="st11" d="M1228.3,797.3c-33.5-37.5-76.1-62.4-126.2-79.6c10.5-6.7,19.5-4.3,27-1.4c40.5,15.8,73.6,40.5,99.5,73.6
		c1.1,1.3,1.4,3.1,2.1,4.7C1229.9,795.6,1229.1,796.5,1228.3,797.3z"/>
	<path class="st8" d="M495.4,311.1c-45.8-26-56.3,10.3-72.8,34.2c-5.4-0.7-4.3-4.3-4.7-6.5c-2.9-16.3,24-50.2,41.4-51.7
		C477.2,285.5,486.6,296.8,495.4,311.1z"/>
	<path class="st12" d="M515.3,779.3c49.5-36.5,82.5-81.3,103.5-134.2C615.2,688.3,550,773.9,515.3,779.3z"/>
	<path class="st13" d="M806.5,965.8C767,964,719.7,952.5,701,938.7c39.8,9,75.4,21,113,24.3C813.6,968.7,809.4,965.9,806.5,965.8z"
		/>
	<path class="st14" d="M806.5,965.8c2.5-0.9,5-1.9,7.5-2.8c27,0,54,0,81,0c0,1.6,0,3.3,0,4.9C865.5,973.8,836,971.1,806.5,965.8z"/>
	<path class="st15" d="M1184,438.7c-0.2-27.5,37.8-76.2,70.1-89.5C1220.4,372,1199.5,403.3,1184,438.7z"/>
	<path class="st16" d="M1052.5,262.7c-14.2,31.2-34.3,57.7-67.3,73.9c26.4-22,50.8-45.4,64.8-76.7
		C1052.6,259.4,1053.6,260.2,1052.5,262.7z"/>
	<path class="st17" d="M1052.5,262.7c-0.8-0.9-1.7-1.9-2.5-2.8c2.3-6.8,4.5-13.5,6.8-20.3C1058.9,248.1,1057.9,255.9,1052.5,262.7z"
		/>
	<path class="st18" d="M833.4,262.9c-44.1,28.1-54,72.2-68.5,114.3c-3.4-20.6,4.1-47.4,21.7-78.1c3.7-6.5,7.5-13,11.1-19.5
		C806.3,264.4,813.1,261,833.4,262.9z"/>
	<path class="st19" d="M1225.4,636.7c41.6-21.4,83.6-40.4,103.1-84.9c5.5,10.4,6.6,20.3-2.3,28.4c-25.9,23.6-53.4,45-88.3,56.4
		C1233.9,637.8,1230.1,637.7,1225.4,636.7z"/>
	<path class="st20" d="M861.4,381.9c30,35.9,67.9,56.9,111.7,72.8C946.7,459.3,869.6,409.4,861.4,381.9z"/>
	<path class="st21" d="M1169.9,570.2c-46.4-10.2-83.3-34.7-113.5-69.1C1089.2,531.6,1127.1,554.5,1169.9,570.2z"/>
	<path class="st6" d="M453.6,415.9c21.5,17.5,21.5,17.5,9.6,37.7c-6.1,10.4-12,20.9-19.9,30.8C446.6,462.2,449.9,440,453.6,415.9z"
		/>
	<path class="st6" d="M302.7,446.4c8.7-2.2,16.9-4.4,25.9-6.7C322,456.8,316,458.2,302.7,446.4z"/>
</g>
<g>
	<g>
		<path d="M-1096.7-548c-84.8,0-164.4-33-224.4-92.9c-59.9-59.9-92.9-139.6-92.9-224.4s33-164.4,92.9-224.4
			c59.9-59.9,139.6-92.9,224.4-92.9s164.4,33,224.4,92.9s92.9,139.6,92.9,224.4c0,84.8-33,164.4-92.9,224.4S-1011.9-548-1096.7-548z
			"/>
		<path d="M-1096.7-1180.6c42.6,0,83.9,8.3,122.7,24.8c37.5,15.9,71.3,38.6,100.2,67.6c29,29,51.7,62.7,67.6,100.2
			c16.4,38.9,24.8,80.2,24.8,122.7c0,42.6-8.3,83.9-24.8,122.7c-15.9,37.5-38.6,71.3-67.6,100.2c-29,29-62.7,51.7-100.2,67.6
			c-38.9,16.4-80.2,24.8-122.7,24.8c-42.6,0-83.9-8.3-122.7-24.8c-37.5-15.9-71.3-38.6-100.2-67.6c-29-29-51.7-62.7-67.6-100.2
			c-16.4-38.9-24.8-80.2-24.8-122.7c0-42.6,8.3-83.9,24.8-122.7c15.9-37.5,38.6-71.3,67.6-100.2c29-29,62.7-51.7,100.2-67.6
			C-1180.5-1172.3-1139.3-1180.6-1096.7-1180.6 M-1096.7-1184.6L-1096.7-1184.6c-176.3,0-319.3,143-319.3,319.3v0
			c0,176.3,143,319.3,319.3,319.3h0c176.3,0,319.3-143,319.3-319.3v0C-777.4-1041.6-920.3-1184.6-1096.7-1184.6L-1096.7-1184.6z"/>
	</g>
	<g>
		<path class="st0" d="M-1096.7-590.5c-73.4,0-142.4-28.6-194.3-80.5c-51.9-51.9-80.5-120.9-80.5-194.3s28.6-142.4,80.5-194.3
			c51.9-51.9,120.9-80.5,194.3-80.5s142.4,28.6,194.3,80.5s80.5,120.9,80.5,194.3c0,73.4-28.6,142.4-80.5,194.3
			C-954.3-619.1-1023.3-590.5-1096.7-590.5z"/>
		<path d="M-1096.7-1138.1c36.8,0,72.6,7.2,106.2,21.4c32.5,13.7,61.7,33.4,86.7,58.5c25.1,25.1,44.7,54.2,58.5,86.7
			c14.2,33.6,21.4,69.4,21.4,106.2c0,36.8-7.2,72.6-21.4,106.2c-13.7,32.5-33.4,61.7-58.5,86.7c-25.1,25.1-54.2,44.7-86.7,58.5
			c-33.6,14.2-69.4,21.4-106.2,21.4c-36.8,0-72.6-7.2-106.2-21.4c-32.5-13.7-61.7-33.4-86.7-58.5c-25.1-25.1-44.7-54.2-58.5-86.7
			c-14.2-33.6-21.4-69.4-21.4-106.2c0-36.8,7.2-72.6,21.4-106.2c13.7-32.5,33.4-61.7,58.5-86.7c25.1-25.1,54.2-44.7,86.7-58.5
			C-1169.2-1130.9-1133.5-1138.1-1096.7-1138.1 M-1096.7-1142.1L-1096.7-1142.1c-152.9,0-276.8,123.9-276.8,276.8v0
			c0,152.9,123.9,276.8,276.8,276.8h0c152.9,0,276.8-123.9,276.8-276.8v0C-819.9-1018.2-943.8-1142.1-1096.7-1142.1L-1096.7-1142.1z
			"/>
	</g>
	<g>
		<g>
			<path class="st1" d="M-1096.7-561.4c-81.2,0-157.5-31.6-214.9-89c-57.4-57.4-89-133.7-89-214.9s31.6-157.5,89-214.9
				c57.4-57.4,133.7-89,214.9-89s157.5,31.6,214.9,89c57.4,57.4,89,133.7,89,214.9c0,81.2-31.6,157.5-89,214.9
				C-939.2-593-1015.5-561.4-1096.7-561.4z"/>
			<path d="M-1096.7-1167.2c40.8,0,80.3,8,117.5,23.7c35.9,15.2,68.2,37,96,64.7c27.7,27.7,49.5,60,64.7,96
				c15.7,37.2,23.7,76.7,23.7,117.5c0,40.8-8,80.3-23.7,117.5c-15.2,35.9-37,68.2-64.7,96c-27.7,27.7-60,49.5-96,64.7
				c-37.2,15.7-76.7,23.7-117.5,23.7c-40.8,0-80.3-8-117.5-23.7c-35.9-15.2-68.2-37-96-64.7c-27.7-27.7-49.5-60-64.7-96
				c-15.7-37.2-23.7-76.7-23.7-117.5c0-40.8,8-80.3,23.7-117.5c15.2-35.9,37-68.2,64.7-96c27.7-27.7,60-49.5,96-64.7
				C-1177-1159.2-1137.4-1167.2-1096.7-1167.2 M-1096.7-1171.2L-1096.7-1171.2c-168.9,0-305.9,136.9-305.9,305.9v0
				c0,168.9,136.9,305.9,305.9,305.9h0c168.9,0,305.9-136.9,305.9-305.9v0C-790.8-1034.2-927.8-1171.2-1096.7-1171.2L-1096.7-1171.2
				z"/>
		</g>
	</g>
</g>
<g>
	<path class="st3" d="M-1009.5-822.7c0.4-1-0.1-0.6-0.2-0.5c-0.3,0.4-0.1,0.1-0.4,0.4c-1.4,1.7-1.6,2.7-2.1,4.4
		c-3.6,8.2-7.3,16.4-10.6,24.8c-1,2.4-2.2,3.5-4.9,3.9c-35.4,4.7-70.3,4.4-103.5-10.1c-3.3-1.4-6.6-3.3-9.3-5.5
		c-3.7-2.9-6.2-2.3-9.3,0.7c-13.6,13.3-25.1,28.3-37.9,42.2c-12.5,13.7-17.9,29.3-20.1,46.5c-0.7,5.6-1.9,11.1-3.1,16.7
		c-0.6,2.9-0.4,5.1,2.2,7.3c3,2.5,5.8,5.4,8.2,8.5c2.3,2.9,2.6,5.4-2.1,7.1c-14.5,5.3-29,9.3-45.1,8.9c-30.2-0.9-60.4-0.3-90.6-0.2
		c-4.1,0-5.2-0.6-4.5-4.8c2.2-13.7,2.6-27.6,6.1-41.1c5.8-22.4,14.9-43.9,23.2-65.6c17.7-46.2,39.2-90.9,61.3-135.3
		c5.2-10.5,10.9-20.9,16.3-31.3c0.6-1.1,0.9-2.3,1-3.7c-6.3,5.1-11.3,11.1-15.9,17.4c-5.7,7.8-11.5,15.6-17.1,23.4
		c-2.2,3.1-4.6,5-8.7,2.8c-16.3-9.2-32-19-41-35.4c-2-3.7-4-7.5-5.6-11.4c-3.4-8.1-4.9-15.6,5.4-20.9c3.8-1.9,6.3-5.9,9.7-8.6
		c4.1-3.3,8.3-6,5.3-12.2c-1.2-2.5,1.9-4.9,3.4-7c1.4-1.8,2.8-3.5,4.6-5c2.9-2.4,3.4-4.6,1.7-7.7c-4-7.3-3.5-10,2.5-16.1
		c11.3-11.5,21.7-23.5,29.6-37.6c7.4-13.2,19.6-23.4,30.8-34.1c3.1-2.9,6.3-2,9.7-0.7c24.3,9,44.9,23,63,40.4
		c9.4,9,18.6,18.1,28,27.1c3.5,3.4,15.7,4.6,19.6,2c1.7-1.1,1.6-2.8,1.6-4.4c0.6-20.3,7.8-38.3,20.7-54.6
		c5.8-7.4,15.9-13.5,26.7-9.3c3.7,1.4,5.7-0.2,7.5-3.1c8.1-13.3,19.5-22.8,35.7-27c6.8-1.7,13.5-1.3,20.3-0.5
		c29.3,3.4,55.1,14.9,79.5,29.6c17.8,10.7,35.1,22.2,50.2,36.4c23.1,21.7,24.5,47.6,6.7,73.3c-2,2.9-1.5,5,0.5,7.3
		c2.9,3.2,5.7,6.5,6.9,10.7c2.6,9-0.1,16.6-7.2,22.9c-11.2,9.8-22.6,19.5-33.7,29c10.7,10.3,21.5,20.6,32.3,31
		c1.6,1.6,3.3,3.1,4.8,4.8c4.6,5,4.9,8.1,1.1,13.8c-7.3,10.7-14.7,21.4-21.1,32.7c-3,5.4-3.3,10.3-0.5,15.6
		c5.4,10.4,10.6,21,16.5,31.2c7.5,13.1,7.4,27.2,7.8,41.4c0.6,21.1-3.8,41.6-7.2,62.3c-0.9,5.6-1.9,11.2-2.4,16.8
		c-0.3,2.9-1.5,3.4-4.3,3.5c-40,0.3-79.9,0.6-119.9,1c-1.6,0-3.8,0.7-4.7-1.2c-0.9-1.9,0-3.7,1.4-5c3.3-3.1,6.6-6.3,10.3-8.9
		c3.3-2.3,3.9-4.3,1.8-7.7c-17.6-27.3-25.6-57.9-33.5-88.5c-3.1-12-1.5-24.2,1.1-36.3"/>
	<path class="st4" d="M-1009.3-825.5"/>
	<path class="st5" d="M-983.4-673.5c3.6-2.4,6.5-4.6,9.7-6.5c3.2-1.9,4-4,2.2-7.3c-4.7-8.3-9.1-16.8-13.9-25.2
		c-8.5-14.9-12.1-31.4-17.6-47.2c-8-23-7.1-46.2-1.7-69.5c0.4-1.7,1.8-4.1-0.2-5c-2.5-1.2-3.4,1.7-4.4,3.2
		c-6.6,9.5-11.6,19.7-14.9,30.6c-1.3,4.5-3.7,7.4-9,7.9c-27.8,2.6-55.2,1.3-82.1-6.5c-7.3-2.1-14.1-5.1-20.4-9.2
		c-5.6-3.7-6.2-6.6-2.2-11.7c11.8-15.2,22.7-30.8,32.7-47.1c2.4-3.9,2.4-3.9,1.5-7.9c-6.1,6-10.4,12.8-15.1,19.3
		c-11.2,15.3-21.8,31-33,46.3c-8,11-18.7,20-27.5,30.4c-14.8,17.5-30.5,34.4-43.1,53.5c-7,10.6-11.9,22-14.5,34.3
		c-1.5,6.8-1.4,6.8,2.9,18.4c-0.9,1.3-2.4,0.9-3.6,0.8c-30.8-2.1-61.6-0.8-92.3,0c-4.7,0.1-5.7-1.1-5.4-5.4
		c1.3-22.5,6.9-44,13.7-65.6c10.4-33,24.7-64.6,37.8-96.6c14.1-34.8,31.7-68.2,50.7-101c4.5-7.8,8.3-16,11-24.6
		c0.5-1.5,0.6-3.1,1-5.2c-4.9,1.4-6.7,5-9.3,7.7c-13.3,13.4-25.3,27.5-35,43.5c-5.7,9.5-6.4,9.1-16.8,4.4
		c-16.5-7.5-29.4-18.3-36-34.8c-0.2-0.5-0.5-1-0.6-1.5c-3.5-11.1-0.9-16.9,11.9-13.3c5.7,1.6,11.8,2.2,17.7,3.6
		c3.7,0.8,5.5-0.7,6.5-3.6c1.2-3.4-1.6-4.1-3.9-4.9c-5.2-1.9-10.5-3.7-15.8-5.4c-3.4-1.1-4.4-2.3-1.2-5.1c3.5-3,7.5-5.2,11.3-7.8
		c0.7-0.5,1.9-0.9,1.3-2c-0.3-0.4-1.5-0.9-1.9-0.7c-2.2,1.3-3.7,1.4-5-1.1c-1.3-2.4-1.2-4.6,0.7-6.6c3.7-3.8,7.4-7.4,11.3-11
		c2.9-2.7,4.9-4.7-1-6.5c-5.7-1.7-6.2-3.9-3.1-8.6c3.1-4.7,8-7.9,11.9-12c4.4-4.6,9.1-9,13.6-13.5c2.8-2.8,6.6-5.2,4.4-10.1
		c-0.9-1.9,0.5-3.9,1.8-5.5c5.9-7.4,11.5-15.1,18.2-22c4-4.1,8.6-7.2,14.3-9.1c4.4-1.5,8.3-1.3,12.3,0.9
		c24.4,13.7,48.3,28.1,66.4,49.2c4.8,5.5,9.7,11,14.3,16.6c2.7,3.3,6,4.5,10.2,3.5c27.6-6.6,48.6,5.2,66.9,22.2
		c13.5,12.6,23,28.2,32.7,43.5c2.7,4.2,5.7,8.3,8.3,12.5c2,3.2,2.9,5.8-1.6,8.5c-6.9,4.2-12.4,10.1-17.7,17.3
		c10.2-3.5,17.3-9.9,25.9-14c12.7-6.1,25.9-10.7,39.6-14.2c4.6-1.2,9.2-0.8,13.5,1.6c17.7,9.5,35.5,18.8,52.5,29.4
		c12.9,8,22.9,19.2,34,29.1c9.9,8.8,9.5,8.8,2.5,19.9c-6.5,10.3-12.4,20.9-18.5,31.5c-3.2,5.5-1.5,11,1.3,16.2
		c4.5,8.5,9.8,16.5,13.5,25.3c8.2,19.7,12.8,39.8,9.7,61.3c-2.7,18.4-4.1,36.9-6,55.4c-0.4,3.8-2.1,5.5-6.2,5.7
		c-36.2,1.9-72.4,2.3-108.7,2.2C-981.6-672.9-982.1-673.2-983.4-673.5z"/>
	<path class="st6" d="M-853.4-1027.8c0.6,10.1-3.9,19.3-7.4,28.7c-1.4,3.7-4,2.7-7,1.6c-12.2-4.7-23.6-3.4-33.9,4.4
		c-1.8,1.4-3.4,3-4.8,4.8c-4.6,5.6-4.5,5.6-10.6,1c-14.3-10.7-29.7-19.7-47.4-25.2c-9.2-2.8-17.4-7.6-24.1-14.7
		c-12.4-13.1-29.1-20.5-45.1-28.6c-0.9-0.4-1.7-0.8-2.6-1.3c-7.6-3.8-7.5-3.8-4.3-11.4c5-11.5,2.8-22.2-4.8-32
		c-3.3-4.3-2.9-7.1,1-10.8c15.3-14.3,32.2-21.4,54.7-16.1c37.3,8.7,69.6,25.4,98.8,48.3c10.2,8,20.1,16,28.4,25.8
		C-856.4-1045.6-852.7-1037.5-853.4-1027.8z"/>
	<path class="st6" d="M-1060.5-1097.9c4.6,0.5,10.5-3,13.9,2.1c4.6,7,6.8,14.7,4.3,22.9c-1.1,3.5-2.8,6.8-5.4,9.6
		c-3.1,3.3-2.5,5.1,2,6.5c14.9,4.6,28.5,11.5,41.2,20c5.3,3.5,10.1,7.4,13.8,12.4c5.9,8,14.8,12.2,24.1,15.5
		c14.8,5.2,28.9,11.6,42.1,19.7c4.3,2.6,8.2,5.6,11.4,9.3c2.4,2.8,3.7,2.5,5.9-0.5c8-11.3,18.8-17.6,34-15.2
		c2.1,0.3,4.8,0.4,4.6,3.1c-0.2,2.2-2.7,2.2-4.6,2.4c-3.1,0.3-6.2,0.7-9.3,0.9c-11.2,1.1-19.4,6-23.7,15.9c-1.6,3.6-3.2,4.4-6.7,1.5
		c-7.8-6.6-16-12.8-23.9-19.2c-9.5-7.6-20.3-13.2-32.2-16c-11.3-2.7-20.5-7.8-27.4-16.3c-11.8-14.6-28.5-22-46.1-28.3
		c-4.7-1.7-9.7-2.8-13.8-5.7c-1.1-0.7-2-2.1-3.1,0c-0.7,1.4-1.3,2.9,0.5,3.8c1.5,0.8,3.2,1.4,4.9,1.8c21.5,5.3,40.5,14.7,55.6,30.2
		c3.6,3.7,8.4,6.5,10.7,11.4c0.6,1.3,1.8,2.1,3.6,2.4c18.2,2.5,33.8,10.5,48,20.9c8.1,5.9,16.8,11.2,23,19.1
		c2.3,2.9,4.9,2.6,7.1-0.3c1.7-2.2,3.1-4.6,4.7-6.9c7.6-11.6,22.6-15.5,35.5-9.1c10.3,5.1,13.3,17.3,5.7,25.5
		c-10.9,11.7-24.3,21-36.4,31.5c-2.7,2.3-6.1,1.8-8.6-0.2c-20.2-16.1-45.4-24.4-67.6-37.4c-30.3-17.7-61.1-34.7-91.6-52.1
		c-2.5-1.4-4.4-3.5-6.7-5.3c-7.7-6.1-16.8-8.8-26.7-9.8c-6.6-0.6-8-2.1-7.1-8c2.1-14.3,5.9-28.2,13.2-41
		C-1084.9-1092.3-1076.5-1101.1-1060.5-1097.9z"/>
	<path class="st7" d="M-965.8-956.5c-7.7,4.2-14.3,3.5-20.5-0.3c-13.5-8.2-27-16.4-41.3-23.4c-7.4-3.6-11.4-10.3-16.7-15.7
		c-2.2-2.3-4.2-4.7-5.6-8.2C-1022.2-988.4-994.4-972.7-965.8-956.5z"/>
	<g>
		<path class="st1" d="M-1005.9-944.6c-1.3,0-2.3-0.7-3.5-1.8c-3.2-2.9-5.8-6.5-8-11.1c-3.6-7.5-7.9-13.8-13-19l0.3-0.4l46.2,25.8
			l-5.4,1.6c-5.4,1.6-10.4,3.2-15.4,4.7C-1005.1-944.7-1005.5-944.6-1005.9-944.6z"/>
		<g>
			<path d="M-1029-975.7l12.5,7l31.3,17.4l-4.4,1.3c-5.4,1.6-10.3,3.1-15.3,4.6c-0.3,0.1-0.7,0.2-1,0.2c-1.1,0-2.1-0.6-3.2-1.7
				c-3.1-2.8-5.7-6.4-7.9-10.9C-1020.4-964.8-1024.3-970.7-1029-975.7 M-1030.2-977.6c-0.3,0.4-0.6,0.7-0.8,1.1
				c5.6,5.7,9.8,12.1,13.2,19.1c2,4.1,4.6,8,8.1,11.2c1.2,1.1,2.4,2,3.9,2c0.4,0,0.8-0.1,1.3-0.2c7-2.1,13.9-4.2,22-6.7
				C-999.2-960.2-1014.7-968.9-1030.2-977.6L-1030.2-977.6z"/>
		</g>
	</g>
	<path class="st8" d="M-1208.1-679.9c-6.2,1.3-11.6,2.3-16.8,3.5c-3.1,0.7-4.9-0.5-6-2.9c-1.8-3.8-2.4-7.8-0.5-11.6
		c5.6-11.1,11.3-22.1,18-32.9c-1.7,8.9-2.9,17.9-5.1,26.7c-1.6,6.6-2,11.8,6.5,14C-1210.9-682.9-1210.1-681.6-1208.1-679.9z"/>
	<path class="st6" d="M-1291.9-963.8c-7-1-13.6-3.6-20.5-5.5c-1-0.3-2.1-0.8-1.8-1.8c0.5-1.5,2-1.5,3.4-1.2c6.8,1.6,13.5,3.3,20.3,5
		c1.2,0.3,2.3,1,2.1,2.2C-1288.8-963.1-1290.5-963.9-1291.9-963.8z"/>
	<path class="st9" d="M-1153.2-972.3c2.7,28.7-54.2,95.3-71,93.3C-1190.8-903.2-1166.7-933.3-1153.2-972.3z"/>
	<path class="st10" d="M-1212.2-1031.8c2.7,0.8,4.4,2.9,6.4,4.6c7,5.8,6.8,5.8,3.3,13.7c-3.5,7.9-8.2,15.2-13,22.4
		c-0.6,0.9-0.9,2.3-2.4,1.9c-1.4-0.3-1.2-1.7-1.3-2.7c-1-7.7,1.4-15.1,2.3-22.7c0.5-4.7,1.4-9.3,2.3-14
		C-1214.4-1029.9-1214.3-1031.5-1212.2-1031.8z"/>
	<path class="st9" d="M-1267.2-1009.1c-1.6-0.5-3.3-0.6-4.6-1.3c-3.1-1.7-7.6-2.9-7.1-7c0.5-4.1,5.1-3.2,8.1-3.9
		c5.1-1.1,10.3-1.8,15.5-2.7c2.2-0.4,4,0.1,5,1.8c1.1,1.9-0.7,3-2,4C-1257.1-1014.9-1261.2-1010.5-1267.2-1009.1z"/>
	<path class="st11" d="M-906.9-878.2c-13.2-14.7-29.9-24.6-49.6-31.3c4.1-2.6,7.7-1.7,10.6-0.6c15.9,6.2,29,15.9,39.2,29
		c0.4,0.5,0.6,1.2,0.8,1.9C-906.3-878.8-906.6-878.5-906.9-878.2z"/>
	<path class="st8" d="M-1195.1-1069.4c-18-10.2-22.2,4.1-28.6,13.5c-2.1-0.3-1.7-1.7-1.9-2.5c-1.1-6.4,9.4-19.7,16.3-20.3
		C-1202.3-1079.5-1198.6-1075-1195.1-1069.4z"/>
	<path class="st12" d="M-1187.3-885.3c19.5-14.3,32.4-32,40.7-52.8C-1148-921.1-1173.6-887.4-1187.3-885.3z"/>
	<path class="st13" d="M-1072.8-811.9c-15.5-0.7-34.1-5.2-41.5-10.7c15.7,3.6,29.7,8.3,44.4,9.6
		C-1070-810.8-1071.6-811.9-1072.8-811.9z"/>
	<path class="st14" d="M-1072.8-811.9c1-0.4,2-0.7,2.9-1.1c10.6,0,21.2,0,31.9,0c0,0.6,0,1.3,0,1.9
		C-1049.6-808.8-1061.2-809.8-1072.8-811.9z"/>
	<path class="st15" d="M-924.3-1019.2c-0.1-10.8,14.9-30,27.6-35.2C-910-1045.5-918.2-1033.1-924.3-1019.2z"/>
	<path class="st16" d="M-976-1088.4c-5.6,12.3-13.5,22.7-26.5,29.1c10.4-8.7,20-17.9,25.5-30.2C-976-1089.7-975.6-1089.4-976-1088.4
		z"/>
	<path class="st17" d="M-976-1088.4c-0.3-0.4-0.7-0.7-1-1.1c0.9-2.7,1.8-5.3,2.7-8C-973.5-1094.2-973.9-1091.1-976-1088.4z"/>
	<path class="st18" d="M-1062.2-1088.3c-17.3,11.1-21.2,28.4-26.9,45c-1.3-8.1,1.6-18.6,8.5-30.7c1.5-2.6,2.9-5.1,4.4-7.7
		C-1072.8-1087.8-1070.2-1089.1-1062.2-1088.3z"/>
	<path class="st19" d="M-908-941.3c16.4-8.4,32.9-15.9,40.5-33.4c2.2,4.1,2.6,8-0.9,11.2c-10.2,9.3-21,17.7-34.7,22.2
		C-904.7-940.9-906.2-941-908-941.3z"/>
	<path class="st20" d="M-1051.2-1041.5c11.8,14.1,26.7,22.4,43.9,28.6C-1017.6-1011.1-1048-1030.7-1051.2-1041.5z"/>
	<path class="st21" d="M-929.9-967.5c-18.3-4-32.8-13.6-44.6-27.2C-961.6-982.7-946.7-973.7-929.9-967.5z"/>
	<path class="st6" d="M-1211.6-1028.2c8.5,6.9,8.4,6.9,3.8,14.8c-2.4,4.1-4.7,8.2-7.8,12.1C-1214.3-1010-1213-1018.7-1211.6-1028.2z
		"/>
	<path class="st6" d="M-1270.9-1016.2c3.4-0.9,6.7-1.7,10.2-2.6C-1263.3-1012.1-1265.7-1011.5-1270.9-1016.2z"/>
</g>
<g>
	<path d="M-3018.5-1109c-84.8,0-164.4-33-224.4-92.9c-59.9-59.9-92.9-139.6-92.9-224.4s33-164.4,92.9-224.4
		c59.9-59.9,139.6-92.9,224.4-92.9s164.4,33,224.4,92.9s92.9,139.6,92.9,224.4c0,84.8-33,164.4-92.9,224.4S-2933.8-1109-3018.5-1109
		z"/>
	<path d="M-3018.5-1741.6c42.6,0,83.9,8.3,122.7,24.8c37.5,15.9,71.3,38.6,100.2,67.6s51.7,62.7,67.6,100.2
		c16.4,38.9,24.8,80.2,24.8,122.7c0,42.6-8.3,83.9-24.8,122.7c-15.9,37.5-38.6,71.3-67.6,100.2s-62.7,51.7-100.2,67.6
		c-38.9,16.4-80.2,24.8-122.7,24.8c-42.6,0-83.9-8.3-122.7-24.8c-37.5-15.9-71.3-38.6-100.2-67.6c-29-29-51.7-62.7-67.6-100.2
		c-16.4-38.9-24.8-80.2-24.8-122.7s8.3-83.9,24.8-122.7c15.9-37.5,38.6-71.3,67.6-100.2c29-29,62.7-51.7,100.2-67.6
		C-3102.4-1733.3-3061.1-1741.6-3018.5-1741.6 M-3018.5-1745.6L-3018.5-1745.6c-176.3,0-319.3,143-319.3,319.3v0
		c0,176.3,143,319.3,319.3,319.3h0c176.3,0,319.3-143,319.3-319.3v0C-2699.2-1602.6-2842.2-1745.6-3018.5-1745.6L-3018.5-1745.6z"/>
</g>
<g>
	<g>
		<path class="st1" d="M-3018.5-1122.4c-81.2,0-157.5-31.6-214.9-89c-57.4-57.4-89-133.7-89-214.9s31.6-157.5,89-214.9
			c57.4-57.4,133.7-89,214.9-89s157.5,31.6,214.9,89c57.4,57.4,89,133.7,89,214.9c0,81.2-31.6,157.5-89,214.9
			C-2861.1-1154-2937.4-1122.4-3018.5-1122.4z"/>
		<path d="M-3018.5-1728.2c40.8,0,80.3,8,117.5,23.7c35.9,15.2,68.2,37,96,64.7c27.7,27.7,49.5,60,64.7,96
			c15.7,37.2,23.7,76.7,23.7,117.5c0,40.8-8,80.3-23.7,117.5c-15.2,35.9-37,68.2-64.7,96c-27.7,27.7-60,49.5-96,64.7
			c-37.2,15.7-76.7,23.7-117.5,23.7c-40.8,0-80.3-8-117.5-23.7c-35.9-15.2-68.2-37-96-64.7s-49.5-60-64.7-96
			c-15.7-37.2-23.7-76.7-23.7-117.5c0-40.8,8-80.3,23.7-117.5c15.2-35.9,37-68.2,64.7-96c27.7-27.7,60-49.5,96-64.7
			C-3098.8-1720.2-3059.3-1728.2-3018.5-1728.2 M-3018.5-1732.2L-3018.5-1732.2c-168.9,0-305.9,136.9-305.9,305.9v0
			c0,168.9,136.9,305.9,305.9,305.9h0c168.9,0,305.9-136.9,305.9-305.9v0C-2712.6-1595.2-2849.6-1732.2-3018.5-1732.2
			L-3018.5-1732.2z"/>
	</g>
</g>
<g>
	<path class="st3" d="M-2924.4-1372.7c0.4-1-0.1-0.6-0.2-0.5c-0.3,0.4-0.1,0.1-0.4,0.4c-1.4,1.7-1.6,2.7-2.1,4.4
		c-3.6,8.2-7.3,16.4-10.6,24.8c-1,2.4-2.2,3.5-4.9,3.9c-35.4,4.7-70.3,4.4-103.5-10.1c-3.3-1.4-6.6-3.3-9.3-5.5
		c-3.7-2.9-6.2-2.3-9.3,0.7c-13.6,13.3-25.1,28.3-37.9,42.2c-12.5,13.7-17.9,29.3-20.1,46.5c-0.7,5.6-1.9,11.1-3.1,16.7
		c-0.6,2.9-0.4,5.1,2.2,7.3c3,2.5,5.8,5.4,8.2,8.5c2.3,2.9,2.6,5.4-2.1,7.1c-14.5,5.3-29,9.3-45.1,8.9c-30.2-0.9-60.4-0.3-90.6-0.2
		c-4.1,0-5.2-0.6-4.5-4.8c2.2-13.7,2.6-27.6,6.1-41.1c5.8-22.4,14.9-43.9,23.2-65.6c17.7-46.2,39.2-90.9,61.3-135.3
		c5.2-10.5,10.9-20.9,16.3-31.3c0.6-1.1,0.9-2.3,1-3.7c-6.3,5.1-11.3,11.1-15.9,17.4c-5.7,7.8-11.5,15.6-17.1,23.4
		c-2.2,3.1-4.6,5-8.7,2.8c-16.3-9.2-32-19-41-35.4c-2-3.7-4-7.5-5.6-11.4c-3.4-8.1-4.9-15.6,5.4-20.9c3.8-1.9,6.3-5.9,9.7-8.6
		c4.1-3.3,8.3-6,5.3-12.2c-1.2-2.5,1.9-4.9,3.4-7c1.4-1.8,2.8-3.5,4.6-5c2.9-2.4,3.4-4.6,1.7-7.7c-4-7.3-3.5-10,2.5-16.1
		c11.3-11.5,21.7-23.5,29.6-37.6c7.4-13.2,19.6-23.4,30.8-34.1c3.1-2.9,6.3-2,9.7-0.7c24.3,9,44.9,23,63,40.4
		c9.4,9,18.6,18.1,28,27.1c3.5,3.4,15.7,4.6,19.6,2c1.7-1.1,1.6-2.8,1.6-4.4c0.6-20.3,7.8-38.3,20.7-54.6
		c5.8-7.4,15.9-13.5,26.7-9.3c3.7,1.4,5.7-0.2,7.5-3.1c8.1-13.3,19.5-22.8,35.7-27c6.8-1.7,13.5-1.3,20.3-0.5
		c29.3,3.4,55.1,14.9,79.5,29.6c17.8,10.7,35.1,22.2,50.2,36.4c23.1,21.7,24.5,47.6,6.7,73.3c-2,2.9-1.5,5,0.5,7.3
		c2.9,3.2,5.7,6.5,6.9,10.7c2.6,9-0.1,16.6-7.2,22.9c-11.2,9.8-22.6,19.5-33.7,29c10.7,10.3,21.5,20.6,32.3,31
		c1.6,1.6,3.3,3.1,4.8,4.8c4.6,5,4.9,8.1,1.1,13.8c-7.3,10.7-14.7,21.4-21.1,32.7c-3,5.4-3.3,10.3-0.5,15.6
		c5.4,10.4,10.6,21,16.5,31.2c7.5,13.1,7.4,27.2,7.8,41.4c0.6,21.1-3.8,41.6-7.2,62.3c-0.9,5.6-1.9,11.2-2.4,16.8
		c-0.3,2.9-1.5,3.4-4.3,3.5c-40,0.3-79.9,0.6-119.9,1c-1.6,0-3.8,0.7-4.7-1.2c-0.9-1.9,0-3.7,1.4-5c3.3-3.1,6.6-6.3,10.3-8.9
		c3.3-2.3,3.9-4.3,1.8-7.7c-17.6-27.3-25.6-57.9-33.5-88.5c-3.1-12-1.5-24.2,1.1-36.3"/>
	<path class="st4" d="M-2924.2-1375.5"/>
	<path class="st5" d="M-2898.3-1223.5c3.6-2.4,6.5-4.6,9.7-6.5c3.2-1.9,4-4,2.2-7.3c-4.7-8.3-9.1-16.8-13.9-25.2
		c-8.5-14.9-12.1-31.4-17.6-47.2c-8-23-7.1-46.2-1.7-69.5c0.4-1.7,1.8-4.1-0.2-5c-2.5-1.2-3.4,1.7-4.4,3.2
		c-6.6,9.5-11.6,19.7-14.9,30.6c-1.3,4.5-3.7,7.4-9,7.9c-27.8,2.6-55.2,1.3-82.1-6.5c-7.3-2.1-14.1-5.1-20.4-9.2
		c-5.6-3.7-6.2-6.6-2.2-11.7c11.8-15.2,22.7-30.8,32.7-47.1c2.4-3.9,2.4-3.9,1.5-7.9c-6.1,6-10.4,12.8-15.1,19.3
		c-11.2,15.3-21.8,31-33,46.3c-8,11-18.7,20-27.5,30.4c-14.8,17.5-30.5,34.4-43.1,53.5c-7,10.6-11.9,22-14.5,34.3
		c-1.5,6.8-1.4,6.8,2.9,18.4c-0.9,1.3-2.4,0.9-3.6,0.8c-30.8-2.1-61.6-0.8-92.3,0c-4.7,0.1-5.7-1.1-5.4-5.4
		c1.3-22.5,6.9-44,13.7-65.6c10.4-33,24.7-64.6,37.8-96.6c14.1-34.8,31.7-68.2,50.7-101c4.5-7.8,8.3-16,11-24.6
		c0.5-1.5,0.6-3.1,1-5.2c-4.9,1.4-6.7,5-9.3,7.7c-13.3,13.4-25.3,27.5-35,43.5c-5.7,9.5-6.4,9.1-16.8,4.4
		c-16.5-7.5-29.4-18.3-36-34.8c-0.2-0.5-0.5-1-0.6-1.5c-3.5-11.1-0.9-16.9,11.9-13.3c5.7,1.6,11.8,2.2,17.7,3.6
		c3.7,0.8,5.5-0.7,6.5-3.6c1.2-3.4-1.6-4.1-3.9-4.9c-5.2-1.9-10.5-3.7-15.8-5.4c-3.4-1.1-4.4-2.3-1.2-5.1c3.5-3,7.5-5.2,11.3-7.8
		c0.7-0.5,1.9-0.9,1.3-2c-0.3-0.4-1.5-0.9-1.9-0.7c-2.2,1.3-3.7,1.4-5-1.1c-1.3-2.4-1.2-4.6,0.7-6.6c3.7-3.8,7.4-7.4,11.3-11
		c2.9-2.7,4.9-4.7-1-6.5c-5.7-1.7-6.2-3.9-3.1-8.6c3.1-4.7,8-7.9,11.9-12c4.4-4.6,9.1-9,13.6-13.5c2.8-2.8,6.6-5.2,4.4-10.1
		c-0.9-1.9,0.5-3.9,1.8-5.5c5.9-7.4,11.5-15.1,18.2-22c4-4.1,8.6-7.2,14.3-9.1c4.4-1.5,8.3-1.3,12.3,0.9
		c24.4,13.7,48.3,28.1,66.4,49.2c4.8,5.5,9.7,11,14.3,16.6c2.7,3.3,6,4.5,10.2,3.5c27.6-6.6,48.6,5.2,66.9,22.2
		c13.5,12.6,23,28.2,32.7,43.5c2.7,4.2,5.7,8.3,8.3,12.5c2,3.2,2.9,5.8-1.6,8.5c-6.9,4.2-12.4,10.1-17.7,17.3
		c10.2-3.5,17.3-9.9,25.9-14c12.7-6.1,25.9-10.7,39.6-14.2c4.6-1.2,9.2-0.8,13.5,1.6c17.7,9.5,35.5,18.8,52.5,29.4
		c12.9,8,22.9,19.2,34,29.1c9.9,8.8,9.5,8.8,2.5,19.9c-6.5,10.3-12.4,20.9-18.5,31.5c-3.2,5.5-1.5,11,1.3,16.2
		c4.5,8.5,9.8,16.5,13.5,25.3c8.2,19.7,12.8,39.8,9.7,61.3c-2.7,18.4-4.1,36.9-6,55.4c-0.4,3.8-2.1,5.5-6.2,5.7
		c-36.2,1.9-72.4,2.3-108.7,2.2C-2896.5-1222.9-2897-1223.2-2898.3-1223.5z"/>
	<path class="st6" d="M-2768.3-1577.8c0.6,10.1-3.9,19.3-7.4,28.7c-1.4,3.7-4,2.7-7,1.6c-12.2-4.7-23.6-3.4-33.9,4.4
		c-1.8,1.4-3.4,3-4.8,4.8c-4.6,5.6-4.5,5.6-10.6,1c-14.3-10.7-29.7-19.7-47.4-25.2c-9.2-2.8-17.4-7.6-24.1-14.7
		c-12.4-13.1-29.1-20.5-45.1-28.6c-0.9-0.4-1.7-0.8-2.6-1.3c-7.6-3.8-7.5-3.8-4.3-11.4c5-11.5,2.8-22.2-4.8-32
		c-3.3-4.3-2.9-7.1,1-10.8c15.3-14.3,32.2-21.4,54.7-16.1c37.3,8.7,69.6,25.4,98.8,48.3c10.2,8,20.1,16,28.4,25.8
		C-2771.2-1595.6-2767.6-1587.5-2768.3-1577.8z"/>
	<path class="st6" d="M-2975.4-1647.9c4.6,0.5,10.5-3,13.9,2.1c4.6,7,6.8,14.7,4.3,22.9c-1.1,3.5-2.8,6.8-5.4,9.6
		c-3.1,3.3-2.5,5.1,2,6.5c14.9,4.6,28.5,11.5,41.2,20c5.3,3.5,10.1,7.4,13.8,12.4c5.9,8,14.8,12.2,24.1,15.5
		c14.8,5.2,28.9,11.6,42.1,19.7c4.3,2.6,8.2,5.6,11.4,9.3c2.4,2.8,3.7,2.5,5.9-0.5c8-11.3,18.8-17.6,34-15.2
		c2.1,0.3,4.8,0.4,4.6,3.1c-0.2,2.2-2.7,2.2-4.6,2.4c-3.1,0.3-6.2,0.7-9.3,0.9c-11.2,1.1-19.4,6-23.7,15.9c-1.6,3.6-3.2,4.4-6.7,1.5
		c-7.8-6.6-16-12.8-23.9-19.2c-9.5-7.6-20.3-13.2-32.2-16c-11.3-2.7-20.5-7.8-27.4-16.3c-11.8-14.6-28.5-22-46.1-28.3
		c-4.7-1.7-9.7-2.8-13.8-5.7c-1.1-0.7-2-2.1-3.1,0c-0.7,1.4-1.3,2.9,0.5,3.8c1.5,0.8,3.2,1.4,4.9,1.8c21.5,5.3,40.5,14.7,55.6,30.2
		c3.6,3.7,8.4,6.5,10.7,11.4c0.6,1.3,1.8,2.1,3.6,2.4c18.2,2.5,33.8,10.5,48,20.9c8.1,5.9,16.8,11.2,23,19.1
		c2.3,2.9,4.9,2.6,7.1-0.3c1.7-2.2,3.1-4.6,4.7-6.9c7.6-11.6,22.6-15.5,35.5-9.1c10.3,5.1,13.3,17.3,5.7,25.5
		c-10.9,11.7-24.3,21-36.4,31.5c-2.7,2.3-6.1,1.8-8.6-0.2c-20.2-16.1-45.4-24.4-67.6-37.4c-30.3-17.7-61.1-34.7-91.6-52.1
		c-2.5-1.4-4.4-3.5-6.7-5.3c-7.7-6.1-16.8-8.8-26.7-9.8c-6.6-0.6-8-2.1-7.1-8c2.1-14.3,5.9-28.2,13.2-41
		C-2999.8-1642.3-2991.4-1651.1-2975.4-1647.9z"/>
	<path class="st7" d="M-2880.6-1506.5c-7.7,4.2-14.3,3.5-20.5-0.3c-13.5-8.2-27-16.4-41.3-23.4c-7.4-3.6-11.4-10.3-16.7-15.7
		c-2.2-2.3-4.2-4.7-5.6-8.2C-2937-1538.4-2909.3-1522.7-2880.6-1506.5z"/>
	<g>
		<path class="st1" d="M-2920.7-1494.6c-1.3,0-2.3-0.7-3.5-1.8c-3.2-2.9-5.8-6.5-8-11.1c-3.6-7.5-7.9-13.8-13-19l0.3-0.4l46.2,25.8
			l-5.4,1.6c-5.4,1.6-10.4,3.2-15.5,4.7C-2920-1494.7-2920.3-1494.6-2920.7-1494.6z"/>
		<g>
			<path d="M-2943.8-1525.7l25.9,14.5l17.9,10l-4.4,1.3c-5.4,1.6-10.3,3.1-15.3,4.6c-0.3,0.1-0.7,0.2-1,0.2c-1.1,0-2.1-0.6-3.2-1.7
				c-3.1-2.8-5.7-6.4-7.9-10.9C-2935.2-1514.8-2939.1-1520.7-2943.8-1525.7 M-2945.1-1527.6c-0.3,0.4-0.6,0.7-0.8,1.1
				c5.6,5.7,9.8,12.1,13.2,19.1c2,4.1,4.6,8,8.1,11.2c1.2,1.1,2.4,2,3.9,2c0.4,0,0.8-0.1,1.3-0.2c7-2.1,13.9-4.2,22-6.7
				C-2914-1510.2-2929.6-1518.9-2945.1-1527.6L-2945.1-1527.6z"/>
		</g>
	</g>
	<path class="st8" d="M-3123-1229.9c-6.2,1.3-11.6,2.3-16.8,3.5c-3.1,0.7-4.9-0.5-6-2.9c-1.8-3.8-2.4-7.8-0.5-11.6
		c5.6-11.1,11.3-22.1,18-32.9c-1.7,8.9-2.9,17.9-5.1,26.7c-1.6,6.6-2,11.8,6.5,14C-3125.8-1232.9-3124.9-1231.6-3123-1229.9z"/>
	<path class="st6" d="M-3206.8-1513.8c-7-1-13.6-3.6-20.5-5.5c-1-0.3-2.1-0.8-1.8-1.8c0.5-1.5,2-1.5,3.4-1.2
		c6.8,1.6,13.5,3.3,20.3,5c1.2,0.3,2.3,1,2.1,2.2C-3203.6-1513.1-3205.3-1513.9-3206.8-1513.8z"/>
	<path class="st9" d="M-3068-1522.3c2.7,28.7-54.2,95.3-71,93.3C-3105.6-1453.2-3081.5-1483.3-3068-1522.3z"/>
	<path class="st10" d="M-3127.1-1581.8c2.7,0.8,4.4,2.9,6.4,4.6c7,5.8,6.8,5.8,3.3,13.7c-3.5,7.9-8.2,15.2-13,22.4
		c-0.6,0.9-0.9,2.3-2.4,1.9c-1.4-0.3-1.2-1.7-1.3-2.7c-1-7.7,1.4-15.1,2.3-22.7c0.5-4.7,1.4-9.3,2.3-14
		C-3129.3-1579.9-3129.2-1581.5-3127.1-1581.8z"/>
	<path class="st9" d="M-3182.1-1559.1c-1.6-0.5-3.3-0.6-4.6-1.3c-3.1-1.7-7.6-2.9-7.1-7c0.5-4.1,5.1-3.2,8.1-3.9
		c5.1-1.1,10.3-1.8,15.5-2.7c2.2-0.4,4,0.1,5,1.8c1.1,1.9-0.7,3-2,4C-3172-1564.9-3176-1560.5-3182.1-1559.1z"/>
	<path class="st11" d="M-2821.7-1428.2c-13.2-14.7-29.9-24.6-49.6-31.3c4.1-2.6,7.7-1.7,10.6-0.6c15.9,6.2,29,15.9,39.2,29
		c0.4,0.5,0.6,1.2,0.8,1.9C-2821.1-1428.8-2821.4-1428.5-2821.7-1428.2z"/>
	<path class="st8" d="M-3110-1619.4c-18-10.2-22.2,4.1-28.6,13.5c-2.1-0.3-1.7-1.7-1.9-2.5c-1.1-6.4,9.4-19.7,16.3-20.3
		C-3117.1-1629.5-3113.4-1625-3110-1619.4z"/>
	<path class="st12" d="M-3102.1-1435.3c19.5-14.3,32.4-32,40.7-52.8C-3062.9-1471.1-3088.5-1437.4-3102.1-1435.3z"/>
	<path class="st13" d="M-2987.6-1361.9c-15.5-0.7-34.1-5.2-41.5-10.7c15.7,3.6,29.7,8.3,44.4,9.6
		C-2984.8-1360.8-2986.5-1361.9-2987.6-1361.9z"/>
	<path class="st14" d="M-2987.6-1361.9c1-0.4,2-0.7,2.9-1.1c10.6,0,21.2,0,31.9,0c0,0.6,0,1.3,0,1.9
		C-2964.4-1358.8-2976-1359.8-2987.6-1361.9z"/>
	<path class="st15" d="M-2839.1-1569.2c-0.1-10.8,14.9-30,27.6-35.2C-2824.8-1595.5-2833.1-1583.1-2839.1-1569.2z"/>
	<path class="st16" d="M-2890.9-1638.4c-5.6,12.3-13.5,22.7-26.5,29.1c10.4-8.7,20-17.9,25.5-30.2
		C-2890.8-1639.7-2890.4-1639.4-2890.9-1638.4z"/>
	<path class="st17" d="M-2890.9-1638.4c-0.3-0.4-0.7-0.7-1-1.1c0.9-2.7,1.8-5.3,2.7-8C-2888.3-1644.2-2888.7-1641.1-2890.9-1638.4z"
		/>
	<path class="st18" d="M-2977.1-1638.3c-17.3,11.1-21.2,28.4-26.9,45c-1.3-8.1,1.6-18.6,8.5-30.7c1.5-2.6,2.9-5.1,4.4-7.7
		C-2987.7-1637.8-2985-1639.1-2977.1-1638.3z"/>
	<path class="st19" d="M-2822.9-1491.3c16.4-8.4,32.9-15.9,40.5-33.4c2.2,4.1,2.6,8-0.9,11.2c-10.2,9.3-21,17.7-34.7,22.2
		C-2819.5-1490.9-2821-1491-2822.9-1491.3z"/>
	<path class="st20" d="M-2966-1591.5c11.8,14.1,26.7,22.4,43.9,28.6C-2932.5-1561.1-2962.8-1580.7-2966-1591.5z"/>
	<path class="st21" d="M-2844.7-1517.5c-18.3-4-32.8-13.6-44.6-27.2C-2876.4-1532.7-2861.5-1523.7-2844.7-1517.5z"/>
	<path class="st6" d="M-3126.4-1578.2c8.5,6.9,8.4,6.9,3.8,14.8c-2.4,4.1-4.7,8.2-7.8,12.1
		C-3129.2-1560-3127.9-1568.7-3126.4-1578.2z"/>
	<path class="st6" d="M-3185.8-1566.2c3.4-0.9,6.7-1.7,10.2-2.6C-3178.2-1562.1-3180.5-1561.5-3185.8-1566.2z"/>
</g>
<g>
	<rect x="1559.3" y="947.3" class="st22" width="5904.7" height="1115.7"/>
	<path class="st23" d="M1610.9,977.9c25.8-5.4,66.6-9.5,108.1-9.5c59.2,0,97.2,10.2,125.8,33.3c23.8,17.7,38.1,44.9,38.1,80.9
		c0,44.2-29.2,83-77.5,100.6v1.4c43.5,10.9,94.5,46.9,94.5,114.9c0,39.4-15.6,69.4-38.8,91.8c-32,29.2-83.6,42.8-158.4,42.8
		c-40.8,0-72.1-2.7-91.8-5.4V977.9z M1670.1,1165.5h53.7c62.6,0,99.3-32.6,99.3-76.8c0-53.7-40.8-74.8-100.6-74.8
		c-27.2,0-42.8,2-52.4,4.1V1165.5z M1670.1,1385.2c11.6,2,28.6,2.7,49.6,2.7c61.2,0,117.6-22.4,117.6-89.1
		c0-62.6-53.7-88.4-118.3-88.4h-49V1385.2z"/>
	<path class="st23" d="M2216.8,971.7V1243c0,102.7,45.6,146.2,106.8,146.2c68,0,111.5-44.9,111.5-146.2V971.7h59.8V1239
		c0,140.8-74.1,198.6-173.4,198.6c-93.8,0-164.6-53.7-164.6-195.8v-270H2216.8z"/>
	<path class="st23" d="M2775.8,971.7h59.2v408.7h195.8v49.6h-255V971.7z"/>
	<path class="st23" d="M3597.2,1409.6c-26.5,9.5-78.9,25.2-140.8,25.2c-69.4,0-126.5-17.7-171.4-60.5
		c-39.4-38.1-63.9-99.3-63.9-170.7c0.7-136.7,94.5-236.6,248.2-236.6c53,0,94.5,11.6,114.2,21.1l-14.3,48.3
		c-24.5-10.9-55.1-19.7-101.3-19.7c-111.5,0-184.3,69.4-184.3,184.3c0,116.3,70,185,176.8,185c38.8,0,65.3-5.4,78.9-12.2v-136.7
		h-93.2v-47.6h151V1409.6z"/>
	<path class="st23" d="M3939.9,1285.9l-47.6,144.2h-61.2l155.7-458.3h71.4l156.4,458.3h-63.2l-49-144.2H3939.9z M4090.2,1239.7
		l-44.9-131.9c-10.2-29.9-17-57.1-23.8-83.6h-1.4c-6.8,27.2-14.3,55.1-23.1,83l-44.9,132.6H4090.2z"/>
	<path class="st23" d="M4460.1,977.9c29.9-6.1,72.8-9.5,113.6-9.5c63.2,0,104,11.6,132.6,37.4c23.1,20.4,36,51.7,36,87
		c0,60.5-38.1,100.6-86.4,117v2c35.4,12.2,56.4,44.9,67.3,92.5c15,63.9,25.8,108.1,35.4,125.8h-61.2c-7.5-12.9-17.7-52.4-30.6-109.5
		c-13.6-63.2-38.1-87-91.8-89.1h-55.8V1430h-59.2V977.9z M4519.3,1186.6h60.5c63.2,0,103.4-34.7,103.4-87c0-59.2-42.8-85-105.4-85.7
		c-28.6,0-49,2.7-58.5,5.4V1186.6z"/>
	<path class="st23" d="M5063.3,971.7V1430h-59.2V971.7H5063.3z"/>
	<path class="st23" d="M5418.9,1285.9l-47.6,144.2h-61.2l155.7-458.3h71.4l156.4,458.3h-63.2l-49-144.2H5418.9z M5569.2,1239.7
		l-44.9-131.9c-10.2-29.9-17-57.1-23.8-83.6h-1.4c-6.8,27.2-14.3,55.1-23.1,83l-44.9,132.6H5569.2z"/>
</g>
<rect x="-1032" y="2839" class="st23" width="6835" height="4416"/>
<g>
	<rect x="-935.7" y="3470" class="st22" width="4280.7" height="245"/>
	<path class="st24" d="M-885.7,3481v86.6h100.1V3481h27V3688h-27v-97h-100.1v97h-26.7V3481H-885.7z"/>
	<path class="st24" d="M-687.1,3481v87.2c0,32.8-0.6,59.9-2.5,87.5l0.6,0.3c10.4-21.5,23.3-43.9,38.4-68.5l66.9-106.5h26.7V3688
		h-25.2v-88.1c0-33.5,0.3-58,2.5-84.1l-0.9-0.3c-10.1,22.7-24.3,46.7-38.4,69.7l-64.8,102.8h-28.6V3481H-687.1z"/>
	<path class="st24" d="M-403.1,3591h-80.4v74.6h89.6v22.4h-116.4V3481h111.8v22.4h-85v65.4h80.4V3591z"/>
	<path class="st24" d="M-119.7,3597.1c-1.5-28.9-3.4-63.6-3.1-89.3h-0.9c-7.1,24.3-15.7,50-26.1,78.6l-36.5,100.4h-20.3l-33.5-98.5
		c-9.8-29.2-18.1-55.9-23.9-80.4h-0.6c-0.6,25.8-2.1,60.5-4,91.5l-5.5,88.7h-25.5l14.4-206.9h34.1l35.3,100.1
		c8.6,25.5,15.7,48.2,20.9,69.7h0.9c5.2-20.9,12.6-43.6,21.8-69.7l36.8-100.1h34.1l12.9,206.9h-26.1L-119.7,3597.1z"/>
	<path class="st24" d="M59.9,3591h-80.4v74.6h89.6v22.4H-47.3V3481H64.5v22.4h-85v65.4h80.4V3591z"/>
	<path class="st24" d="M248.3,3681.2c-9.8,4.9-29.5,9.8-54.6,9.8c-58.3,0-102.2-36.8-102.2-104.7c0-64.8,43.9-108.7,108.1-108.7
		c25.8,0,42.1,5.5,49.1,9.2l-6.4,21.8c-10.1-4.9-24.6-8.6-41.8-8.6c-48.5,0-80.7,31-80.7,85.3c0,50.7,29.2,83.2,79.5,83.2
		c16.3,0,32.8-3.4,43.6-8.6L248.3,3681.2z"/>
	<path class="st24" d="M331.8,3503.8h-62.9V3481h153.2v22.7h-63.2V3688h-27V3503.8z"/>
	<path class="st24" d="M470.3,3481v87.2c0,32.8-0.6,59.9-2.5,87.5l0.6,0.3c10.4-21.5,23.3-43.9,38.4-68.5l66.9-106.5h26.7V3688
		h-25.2v-88.1c0-33.5,0.3-58,2.5-84.1l-0.9-0.3c-10.1,22.7-24.3,46.7-38.4,69.7L473.7,3688h-28.6V3481H470.3z"/>
	<path class="st24" d="M821.5,3597.1c-1.5-28.9-3.4-63.6-3.1-89.3h-0.9c-7.1,24.3-15.7,50-26.1,78.6l-36.5,100.4h-20.3l-33.5-98.5
		c-9.8-29.2-18.1-55.9-23.9-80.4h-0.6c-0.6,25.8-2.1,60.5-4,91.5l-5.5,88.7h-25.5L656,3481h34.1l35.3,100.1
		c8.6,25.5,15.7,48.2,20.9,69.7h0.9c5.2-20.9,12.6-43.6,21.8-69.7l36.8-100.1h34.1l12.9,206.9h-26.1L821.5,3597.1z"/>
	<path class="st24" d="M959,3483.8c11.7-2.5,30.1-4.3,48.8-4.3c26.7,0,43.9,4.6,56.8,15c10.7,8,17.2,20.3,17.2,36.5
		c0,20-13.2,37.5-35,45.4v0.6c19.6,4.9,42.7,21.2,42.7,51.9c0,17.8-7.1,31.3-17.5,41.4c-14.4,13.2-37.8,19.3-71.5,19.3
		c-18.4,0-32.5-1.2-41.4-2.5V3483.8z M985.7,3568.5h24.3c28.2,0,44.8-14.7,44.8-34.7c0-24.3-18.4-33.8-45.4-33.8
		c-12.3,0-19.3,0.9-23.6,1.8V3568.5z M985.7,3667.7c5.2,0.9,12.9,1.2,22.4,1.2c27.6,0,53.1-10.1,53.1-40.2
		c0-28.2-24.3-39.9-53.4-39.9h-22.1V3667.7z"/>
	<path class="st24" d="M1150.6,3481v87.2c0,32.8-0.6,59.9-2.5,87.5l0.6,0.3c10.4-21.5,23.3-43.9,38.4-68.5l66.9-106.5h26.7V3688
		h-25.2v-88.1c0-33.5,0.3-58,2.5-84.1l-0.9-0.3c-10.1,22.7-24.3,46.7-38.4,69.7L1154,3688h-28.6V3481H1150.6z"/>
	<path class="st24" d="M1434.6,3591h-80.4v74.6h89.6v22.4h-116.4V3481h111.8v22.4h-85v65.4h80.4V3591z"/>
	<path class="st24" d="M1688.1,3681.2c-9.8,4.9-29.5,9.8-54.6,9.8c-58.3,0-102.2-36.8-102.2-104.7c0-64.8,43.9-108.7,108.1-108.7
		c25.8,0,42.1,5.5,49.1,9.2l-6.4,21.8c-10.1-4.9-24.6-8.6-41.8-8.6c-48.5,0-80.7,31-80.7,85.3c0,50.7,29.2,83.2,79.5,83.2
		c16.3,0,32.8-3.4,43.6-8.6L1688.1,3681.2z"/>
	<path class="st24" d="M1871.1,3481V3688h-26.7v-184.5h-96.1V3688h-26.7V3481H1871.1z"/>
	<path class="st24" d="M2024.9,3591h-80.4v74.6h89.6v22.4h-116.4V3481h111.8v22.4h-85v65.4h80.4V3591z"/>
	<path class="st24" d="M2213.4,3681.2c-9.8,4.9-29.5,9.8-54.6,9.8c-58.3,0-102.2-36.8-102.2-104.7c0-64.8,43.9-108.7,108.1-108.7
		c25.8,0,42.1,5.5,49.1,9.2l-6.4,21.8c-10.1-4.9-24.6-8.6-41.8-8.6c-48.5,0-80.7,31-80.7,85.3c0,50.7,29.2,83.2,79.5,83.2
		c16.3,0,32.8-3.4,43.6-8.6L2213.4,3681.2z"/>
	<path class="st24" d="M2296.9,3503.8H2234V3481h153.2v22.7h-63.2V3688h-27V3503.8z"/>
	<path class="st24" d="M2389.9,3688c3.1-5.5,5.8-12,8.3-18.7c8.9-23.6,14.4-52.5,31.3-69.4c4.9-4.9,11.1-8.6,17.2-10.4v-0.9
		c-25.5-4.3-45.7-22.7-45.7-51c0-18.1,7.4-32.5,19-42.1c12.9-10.4,33.2-16,59.3-16c17.5,0,35.9,1.5,49.4,4.3V3688H2502v-89.6h-19.6
		c-12.9,0-22.4,2.8-29.8,10.1c-14.1,14.4-20,44.8-27.3,64.5c-2.1,5.2-3.7,9.5-6.8,15H2389.9z M2502,3502.5
		c-4.6-0.9-13.2-2.5-25.2-2.5c-26.4,0-48.8,10.1-48.8,38.7c0,24.9,22.1,39.3,51.3,39.3c8.9,0,17.5,0,22.7-0.3V3502.5z"/>
	<path class="st24" d="M2575.4,3483.8c11.7-2.5,30.1-4.3,48.8-4.3c26.7,0,43.9,4.6,56.8,15c10.7,8,17.2,20.3,17.2,36.5
		c0,20-13.2,37.5-35,45.4v0.6c19.6,4.9,42.7,21.2,42.7,51.9c0,17.8-7.1,31.3-17.5,41.4c-14.4,13.2-37.8,19.3-71.5,19.3
		c-18.4,0-32.5-1.2-41.4-2.5V3483.8z M2602.1,3568.5h24.3c28.2,0,44.8-14.7,44.8-34.7c0-24.3-18.4-33.8-45.4-33.8
		c-12.3,0-19.3,0.9-23.6,1.8V3568.5z M2602.1,3667.7c5.2,0.9,12.9,1.2,22.4,1.2c27.6,0,53.1-10.1,53.1-40.2
		c0-28.2-24.3-39.9-53.4-39.9h-22.1V3667.7z"/>
	<path class="st24" d="M2775.2,3622.9l-21.5,65.1h-27.6l70.3-206.9h32.2l70.6,206.9h-28.6l-22.1-65.1H2775.2z M2843.1,3602
		l-20.3-59.6c-4.6-13.5-7.7-25.8-10.7-37.8h-0.6c-3.1,12.3-6.4,24.9-10.4,37.5l-20.3,59.9H2843.1z"/>
	<path class="st24" d="M2955.4,3503.8h-62.9V3481h153.2v22.7h-63.2V3688h-27V3503.8z"/>
	<path class="st24" d="M3175.8,3591h-80.4v74.6h89.6v22.4h-116.4V3481h111.8v22.4h-85v65.4h80.4V3591z"/>
</g>
<g>
	<rect x="-935.7" y="3800" class="st22" width="6642.7" height="245"/>
	<path class="st24" d="M-885.7,3811v86.6h100.1V3811h27V4018h-27v-97h-100.1v97h-26.7V3811H-885.7z"/>
	<path class="st24" d="M-678.8,3952.9l-21.5,65.1h-27.6l70.3-206.9h32.2l70.6,206.9h-28.6l-22.1-65.1H-678.8z M-610.9,3932
		l-20.3-59.6c-4.6-13.5-7.7-25.8-10.7-37.8h-0.6c-3.1,12.3-6.4,24.9-10.4,37.5l-20.3,59.9H-610.9z"/>
	<path class="st24" d="M-498,3811v184.5h67.2V3811h26.4v184.5h66.9V3811h26.7V4018h-213.7V3811H-498z"/>
	<path class="st24" d="M-239.2,3811v87.2c0,32.8-0.6,59.9-2.5,87.5l0.6,0.3c10.4-21.5,23.3-43.9,38.4-68.5l66.9-106.5h26.7V4018
		h-25.2v-88.1c0-33.5,0.3-58,2.5-84.1l-0.9-0.3c-10.1,22.7-24.3,46.7-38.4,69.7l-64.8,102.8h-28.6V3811H-239.2z"/>
	<path class="st24" d="M-81.1,4018c3.1-5.5,5.8-12,8.3-18.7c8.9-23.6,14.4-52.5,31.3-69.4c4.9-4.9,11.1-8.6,17.2-10.4v-0.9
		c-25.5-4.3-45.7-22.7-45.7-51c0-18.1,7.4-32.5,19-42.1c12.9-10.4,33.2-16,59.3-16c17.5,0,35.9,1.5,49.4,4.3V4018H31v-89.6H11.4
		c-12.9,0-22.4,2.8-29.8,10.1c-14.1,14.4-20,44.8-27.3,64.5c-2.1,5.2-3.7,9.5-6.8,15H-81.1z M31,3832.5c-4.6-0.9-13.2-2.5-25.2-2.5
		c-26.4,0-48.8,10.1-48.8,38.7c0,24.9,22.1,39.3,51.3,39.3c8.9,0,17.5,0,22.7-0.3V3832.5z"/>
	<path class="st24" d="M143.7,3833.8H80.7V3811h153.2v22.7h-63.2V4018h-27V3833.8z"/>
	<path class="st24" d="M498.9,3912.4c0,71.2-43.3,109-96.1,109c-54.6,0-93-42.4-93-105c0-65.7,40.8-108.7,96.1-108.7
		C462.3,3807.7,498.9,3851,498.9,3912.4z M338.3,3915.7c0,44.2,23.9,83.8,66,83.8c42.4,0,66.3-39,66.3-86c0-41.1-21.5-84.1-66-84.1
		C360.4,3829.5,338.3,3870.3,338.3,3915.7z"/>
	<path class="st24" d="M683.1,3811V4018h-26.7v-184.5h-96.1V4018h-26.7V3811H683.1z"/>
	<path class="st24" d="M754.9,3811v87.2c0,32.8-0.6,59.9-2.5,87.5l0.6,0.3c10.4-21.5,23.3-43.9,38.4-68.5l66.9-106.5h26.7V4018
		h-25.2v-88.1c0-33.5,0.3-58,2.5-84.1l-0.9-0.3c-10.1,22.7-24.3,46.7-38.4,69.7L758.3,4018h-28.6V3811H754.9z"/>
	<path class="st24" d="M971,3833.8h-62.9V3811h153.2v22.7H998V4018h-27V3833.8z"/>
	<path class="st24" d="M1084.3,3813.8c11.7-2.5,30.1-4.3,48.8-4.3c26.7,0,43.9,4.6,56.8,15c10.7,8,17.2,20.3,17.2,36.5
		c0,20-13.2,37.5-35,45.4v0.6c19.6,4.9,42.7,21.2,42.7,51.9c0,17.8-7.1,31.3-17.5,41.4c-14.4,13.2-37.8,19.3-71.5,19.3
		c-18.4,0-32.5-1.2-41.4-2.5V3813.8z M1111,3898.5h24.3c28.2,0,44.8-14.7,44.8-34.7c0-24.3-18.4-33.8-45.4-33.8
		c-12.3,0-19.3,0.9-23.6,1.8V3898.5z M1111,3997.7c5.2,0.9,12.9,1.2,22.4,1.2c27.6,0,53.1-10.1,53.1-40.2
		c0-28.2-24.3-39.9-53.4-39.9H1111V3997.7z"/>
	<path class="st24" d="M1284.2,3952.9l-21.5,65.1H1235l70.3-206.9h32.2l70.6,206.9h-28.6l-22.1-65.1H1284.2z M1352,3932l-20.3-59.6
		c-4.6-13.5-7.7-25.8-10.7-37.8h-0.6c-3.1,12.3-6.4,24.9-10.4,37.5l-20.3,59.9H1352z"/>
	<path class="st24" d="M1464.4,3833.8h-62.9V3811h153.2v22.7h-63.2V4018h-27V3833.8z"/>
	<path class="st24" d="M1642.7,3813.8c11.7-2.5,30.1-4.3,48.8-4.3c26.7,0,43.9,4.6,56.8,15c10.7,8,17.2,20.3,17.2,36.5
		c0,20-13.2,37.5-35,45.4v0.6c19.6,4.9,42.7,21.2,42.7,51.9c0,17.8-7.1,31.3-17.5,41.4c-14.4,13.2-37.8,19.3-71.5,19.3
		c-18.4,0-32.5-1.2-41.4-2.5V3813.8z M1669.4,3898.5h24.3c28.2,0,44.8-14.7,44.8-34.7c0-24.3-18.4-33.8-45.4-33.8
		c-12.3,0-19.3,0.9-23.6,1.8V3898.5z M1669.4,3997.7c5.2,0.9,12.9,1.2,22.4,1.2c27.6,0,53.1-10.1,53.1-40.2
		c0-28.2-24.3-39.9-53.4-39.9h-22.1V3997.7z"/>
	<path class="st24" d="M1842.6,3952.9l-21.5,65.1h-27.6l70.3-206.9h32.2l70.6,206.9h-28.6l-22.1-65.1H1842.6z M1910.4,3932
		l-20.3-59.6c-4.6-13.5-7.7-25.8-10.7-37.8h-0.6c-3.1,12.3-6.4,24.9-10.4,37.5l-20.3,59.9H1910.4z"/>
	<path class="st24" d="M2023.4,3811v184.5h67.2V3811h26.4v184.5h66.9V3811h26.7V4018H1997V3811H2023.4z"/>
	<path class="st24" d="M2364.2,3921h-80.4v74.6h89.6v22.4H2257V3811h111.8v22.4h-85v65.4h80.4V3921z"/>
	<path class="st24" d="M2622.7,3811V4018H2596v-184.5h-96.1V4018h-26.7V3811H2622.7z"/>
	<path class="st24" d="M2669.3,3813.5c12.9-2.1,29.8-4,51.3-4c26.4,0,45.7,6.1,58,17.2c11.4,9.8,18.1,24.9,18.1,43.3
		c0,18.7-5.5,33.5-16,44.2c-14.1,15-37.1,22.7-63.2,22.7c-8,0-15.3-0.3-21.5-1.8v82.9h-26.7V3813.5z M2696,3913.3
		c5.8,1.5,13.2,2.1,22.1,2.1c32.2,0,51.9-15.7,51.9-44.2c0-27.3-19.3-40.5-48.8-40.5c-11.7,0-20.6,0.9-25.2,2.1V3913.3z"/>
	<path class="st24" d="M2939.8,3921h-80.4v74.6h89.6v22.4h-116.4V3811h111.8v22.4h-85v65.4h80.4V3921z"/>
	<path class="st24" d="M3131.4,3811v185.1l18.1,0.6l-1.8,70.9h-20.9l-1.8-49.7h-130.5l-1.8,49.7h-20.9l-1.8-70.9l15.7-0.6
		c7.7-14.1,15.4-29.2,20.3-45.4c7.1-23.9,9.8-51.6,9.8-87.2V3811H3131.4z M3040.5,3872.1c0,33.2-3.1,61.1-10.4,84.4
		c-4.3,14.4-10.7,28.2-16.9,39.3h91.5v-162.7h-64.2V3872.1z"/>
	<path class="st24" d="M3208.4,3811v87.2c0,32.8-0.6,59.9-2.5,87.5l0.6,0.3c10.4-21.5,23.3-43.9,38.4-68.5l66.9-106.5h26.7V4018
		h-25.2v-88.1c0-33.5,0.3-58,2.5-84.1l-0.9-0.3c-10.1,22.7-24.3,46.7-38.4,69.7l-64.8,102.8h-28.6V3811H3208.4z"/>
	<path class="st24" d="M3559.6,3927.1c-1.5-28.9-3.4-63.6-3.1-89.3h-0.9c-7.1,24.3-15.7,50-26.1,78.6l-36.5,100.4h-20.3l-33.5-98.5
		c-9.8-29.2-18.1-55.9-23.9-80.4h-0.6c-0.6,25.8-2.1,60.5-4,91.5l-5.5,88.7h-25.5l14.4-206.9h34.1l35.3,100.1
		c8.6,25.5,15.7,48.2,20.9,69.7h0.9c5.2-20.9,12.6-43.6,21.8-69.7L3544,3811h34.1l12.9,206.9h-26.1L3559.6,3927.1z"/>
	<path class="st24" d="M3776.7,4011.2c-9.8,4.9-29.5,9.8-54.6,9.8c-58.3,0-102.2-36.8-102.2-104.7c0-64.8,43.9-108.7,108.1-108.7
		c25.8,0,42.1,5.5,49.1,9.2l-6.4,21.8c-10.1-4.9-24.6-8.6-41.8-8.6c-48.5,0-80.7,31-80.7,85.3c0,50.7,29.2,83.2,79.5,83.2
		c16.3,0,32.8-3.4,43.6-8.6L3776.7,4011.2z"/>
	<path class="st24" d="M3860.2,3833.8h-62.9V3811h153.2v22.7h-63.2V4018h-27V3833.8z"/>
	<path class="st24" d="M3973.4,3813.8c11.7-2.5,30.1-4.3,48.8-4.3c26.7,0,43.9,4.6,56.8,15c10.7,8,17.2,20.3,17.2,36.5
		c0,20-13.2,37.5-35,45.4v0.6c19.6,4.9,42.7,21.2,42.7,51.9c0,17.8-7.1,31.3-17.5,41.4c-14.4,13.2-37.8,19.3-71.5,19.3
		c-18.4,0-32.5-1.2-41.4-2.5V3813.8z M4000.1,3898.5h24.3c28.2,0,44.8-14.7,44.8-34.7c0-24.3-18.4-33.8-45.4-33.8
		c-12.3,0-19.3,0.9-23.6,1.8V3898.5z M4000.1,3997.7c5.2,0.9,12.9,1.2,22.4,1.2c27.6,0,53.1-10.1,53.1-40.2
		c0-28.2-24.3-39.9-53.4-39.9h-22.1V3997.7z"/>
	<path class="st24" d="M4314.2,3912.4c0,71.2-43.3,109-96.1,109c-54.6,0-93-42.4-93-105c0-65.7,40.8-108.7,96.1-108.7
		C4277.7,3807.7,4314.2,3851,4314.2,3912.4z M4153.6,3915.7c0,44.2,23.9,83.8,66,83.8c42.4,0,66.3-39,66.3-86
		c0-41.1-21.5-84.1-66-84.1C4175.7,3829.5,4153.6,3870.3,4153.6,3915.7z"/>
</g>
<g>
	<rect x="-935.7" y="4288" class="st22" width="6642.7" height="245"/>
	<path class="st24" d="M-873.1,4321.8H-936V4299h153.2v22.7h-63.2V4506h-27V4321.8z"/>
	<path class="st24" d="M-759.8,4301.5c12.9-2.1,29.8-4,51.3-4c26.4,0,45.7,6.1,58,17.2c11.4,9.8,18.1,24.9,18.1,43.3
		c0,18.7-5.5,33.5-16,44.2c-14.1,15-37.1,22.7-63.2,22.7c-8,0-15.3-0.3-21.5-1.8v82.9h-26.7V4301.5z M-733.1,4401.3
		c5.8,1.5,13.2,2.1,22.1,2.1c32.2,0,51.9-15.7,51.9-44.2c0-27.3-19.3-40.5-48.8-40.5c-11.7,0-20.6,0.9-25.2,2.1V4401.3z"/>
	<path class="st24" d="M-588.8,4440.9l-21.5,65.1h-27.6l70.3-206.9h32.2l70.6,206.9h-28.6l-22.1-65.1H-588.8z M-521,4420l-20.3-59.6
		c-4.6-13.5-7.7-25.8-10.7-37.8h-0.6c-3.1,12.3-6.4,24.9-10.4,37.5l-20.3,59.9H-521z"/>
	<path class="st24" d="M-284.9,4299v185.1l18.1,0.6l-1.8,70.9h-20.9l-1.8-49.7h-130.5l-1.8,49.7h-20.9l-1.8-70.9l15.7-0.6
		c7.7-14.1,15.4-29.2,20.3-45.4c7.1-23.9,9.8-51.6,9.8-87.2V4299H-284.9z M-375.8,4360.1c0,33.2-3.1,61.1-10.4,84.4
		c-4.3,14.4-10.7,28.2-16.9,39.3h91.5v-162.7h-64.2V4360.1z"/>
	<path class="st24" d="M-207.8,4299v87.2c0,32.8-0.6,59.9-2.5,87.5l0.6,0.3c10.4-21.5,23.3-43.9,38.4-68.5l66.9-106.5h26.7V4506
		h-25.2v-88.1c0-33.5,0.3-58,2.5-84.1l-0.9-0.3c-10.1,22.7-24.3,46.7-38.4,69.7l-64.8,102.8H-233V4299H-207.8z"/>
	<path class="st24" d="M-4.3,4299v184.5h94.9V4299h27v185.1l18.1,0.6l-1.8,70.9h-21.2l-1.8-49.7H-31V4299H-4.3z"/>
	<path class="st24" d="M194.3,4299v87.2c0,32.8-0.6,59.9-2.5,87.5l0.6,0.3c10.4-21.5,23.3-43.9,38.4-68.5l66.9-106.5h26.7V4506
		h-25.2v-88.1c0-33.5,0.3-58,2.5-84.1l-0.9-0.3c-10.1,22.7-24.3,46.7-38.4,69.7L197.7,4506h-28.6V4299H194.3z"/>
	<path class="st24" d="M352.4,4506c3.1-5.5,5.8-12,8.3-18.7c8.9-23.6,14.4-52.5,31.3-69.4c4.9-4.9,11.1-8.6,17.2-10.4v-0.9
		c-25.5-4.3-45.7-22.7-45.7-51c0-18.1,7.4-32.5,19-42.1c12.9-10.4,33.2-16,59.3-16c17.5,0,35.9,1.5,49.4,4.3V4506h-26.7v-89.6h-19.6
		c-12.9,0-22.4,2.8-29.8,10.1c-14.1,14.4-20,44.8-27.3,64.5c-2.1,5.2-3.7,9.5-6.8,15H352.4z M464.5,4320.5
		c-4.6-0.9-13.2-2.5-25.2-2.5c-26.4,0-48.8,10.1-48.8,38.7c0,24.9,22.1,39.3,51.3,39.3c8.9,0,17.5,0,22.7-0.3V4320.5z"/>
	<path class="st24" d="M629.6,4299v86.6h100.1V4299h27V4506h-27v-97H629.6v97h-26.7V4299H629.6z"/>
	<path class="st24" d="M836.6,4440.9l-21.5,65.1h-27.6l70.3-206.9H890l70.6,206.9H932l-22.1-65.1H836.6z M904.4,4420l-20.3-59.6
		c-4.6-13.5-7.7-25.8-10.7-37.8h-0.6c-3.1,12.3-6.4,24.9-10.4,37.5l-20.3,59.9H904.4z"/>
	<path class="st24" d="M1197.6,4299v185.1l18.1,0.6l-1.8,70.9H1193l-1.8-49.7h-130.5l-1.8,49.7h-20.9l-1.8-70.9l15.7-0.6
		c7.7-14.1,15.4-29.2,20.3-45.4c7.1-23.9,9.8-51.6,9.8-87.2V4299H1197.6z M1106.7,4360.1c0,33.2-3.1,61.1-10.4,84.4
		c-4.3,14.4-10.7,28.2-16.9,39.3h91.5v-162.7h-64.2V4360.1z"/>
	<path class="st24" d="M1423.5,4400.4c0,71.2-43.3,109-96.1,109c-54.6,0-93-42.4-93-105c0-65.7,40.8-108.7,96.1-108.7
		C1387,4295.7,1423.5,4339,1423.5,4400.4z M1263,4403.7c0,44.2,23.9,83.8,66,83.8c42.4,0,66.3-39,66.3-86c0-41.1-21.5-84.1-66-84.1
		C1285.1,4317.5,1263,4358.3,1263,4403.7z"/>
	<path class="st24" d="M1458.2,4301.8c11.7-2.5,30.1-4.3,48.8-4.3c26.7,0,43.9,4.6,56.8,15c10.7,8,17.2,20.3,17.2,36.5
		c0,20-13.2,37.5-35,45.4v0.6c19.6,4.9,42.7,21.2,42.7,51.9c0,17.8-7.1,31.3-17.5,41.4c-14.4,13.2-37.8,19.3-71.5,19.3
		c-18.4,0-32.5-1.2-41.4-2.5V4301.8z M1484.9,4386.5h24.3c28.2,0,44.8-14.7,44.8-34.7c0-24.3-18.4-33.8-45.4-33.8
		c-12.3,0-19.3,0.9-23.6,1.8V4386.5z M1484.9,4485.7c5.2,0.9,12.9,1.2,22.4,1.2c27.6,0,53.1-10.1,53.1-40.2
		c0-28.2-24.3-39.9-53.4-39.9h-22.1V4485.7z"/>
	<path class="st24" d="M1731.8,4409h-80.4v74.6h89.6v22.4h-116.4V4299h111.8v22.4h-85v65.4h80.4V4409z"/>
	<path class="st24" d="M1775.7,4301.5c12.9-2.1,29.8-4,51.3-4c26.4,0,45.7,6.1,58,17.2c11.4,9.8,18.1,24.9,18.1,43.3
		c0,18.7-5.5,33.5-16,44.2c-14.1,15-37.1,22.7-63.2,22.7c-8,0-15.3-0.3-21.5-1.8v82.9h-26.7V4301.5z M1802.4,4401.3
		c5.8,1.5,13.2,2.1,22.1,2.1c32.2,0,51.9-15.7,51.9-44.2c0-27.3-19.3-40.5-48.8-40.5c-11.7,0-20.6,0.9-25.2,2.1V4401.3z"/>
	<path class="st24" d="M1964.2,4299v87.2c0,32.8-0.6,59.9-2.5,87.5l0.6,0.3c10.4-21.5,23.3-43.9,38.4-68.5l66.9-106.5h26.7V4506
		h-25.2v-88.1c0-33.5,0.3-58,2.5-84.1l-0.9-0.3c-10.1,22.7-24.3,46.7-38.4,69.7l-64.8,102.8H1939V4299H1964.2z"/>
	<path class="st24" d="M2248.1,4409h-80.4v74.6h89.6v22.4H2141V4299h111.8v22.4h-85v65.4h80.4V4409z"/>
	<path class="st24" d="M2301.5,4357.4l29.2,83.5c4.9,13.5,8.9,25.8,12,38.1h0.9c3.4-12.3,7.7-24.6,12.6-38.1l28.9-83.5h28.2
		L2355,4506h-25.8l-56.5-148.6H2301.5z"/>
</g>
<g>
	<rect x="-935.7" y="4888" class="st22" width="6642.7" height="245"/>
	<path class="st24" d="M-912.4,4901.8c11.7-2.5,30.1-4.3,48.8-4.3c26.7,0,43.9,4.6,56.8,15c10.7,8,17.2,20.3,17.2,36.5
		c0,20-13.2,37.5-35,45.4v0.6c19.6,4.9,42.7,21.2,42.7,51.9c0,17.8-7.1,31.3-17.5,41.4c-14.4,13.2-37.8,19.3-71.5,19.3
		c-18.4,0-32.5-1.2-41.4-2.5V4901.8z M-885.7,4986.5h24.3c28.2,0,44.8-14.7,44.8-34.7c0-24.3-18.4-33.8-45.4-33.8
		c-12.3,0-19.3,0.9-23.6,1.8V4986.5z M-885.7,5085.7c5.2,0.9,12.9,1.2,22.4,1.2c27.6,0,53.1-10.1,53.1-40.2
		c0-28.2-24.3-39.9-53.4-39.9h-22.1V5085.7z"/>
	<path class="st24" d="M-664.7,5106l-2.1-18.7h-0.9c-8.3,11.7-24.3,22.1-45.4,22.1c-30.1,0-45.4-21.2-45.4-42.7
		c0-35.9,31.9-55.6,89.3-55.3v-3.1c0-12.3-3.4-34.4-33.8-34.4c-13.8,0-28.2,4.3-38.7,11.1l-6.1-17.8c12.3-8,30.1-13.2,48.8-13.2
		c45.4,0,56.5,31,56.5,60.8v55.6c0,12.9,0.6,25.5,2.5,35.6H-664.7z M-668.6,5030.1c-29.5-0.6-62.9,4.6-62.9,33.5
		c0,17.5,11.7,25.8,25.5,25.8c19.3,0,31.6-12.3,35.9-24.9c0.9-2.8,1.5-5.8,1.5-8.6V5030.1z"/>
	<path class="st24" d="M-573.2,4957.4v127.4h51.9v-127.4h26.4v127.4h51.9v-127.4h26.7V5106h-183.3v-148.6H-573.2z"/>
	<path class="st24" d="M-347.5,4957.4v62.6c0,23.6-0.3,38.4-1.5,59.6l0.9,0.3c8.9-18.1,14.1-28.6,23.9-45.7l46.4-76.8h31.6V5106
		H-272V5043c0-24.3,0.6-36.8,1.8-60.8h-0.9c-9.5,19-16,31-24.6,46.1c-14.1,23-30.4,51.6-46.4,77.7h-31v-148.6H-347.5z"/>
	<path class="st24" d="M-92.7,5106h-26.7v-62.3h-20c-11.4,0-19,3.1-24.9,8.3c-11.1,8.9-15,27.3-20.9,41.8c-1.8,4.6-4,8.6-6.1,12.3
		h-28.9c3.4-4.9,6.4-10.4,9.2-16.9c6.4-14.4,10.1-33.8,23.3-44.8c4.6-4,10.1-7.4,16.9-8.6v-0.9c-19.3-2.1-39.3-14.1-39.3-36.8
		c0-15.3,8.3-25.8,19.6-32.2c12.3-7.1,30.4-10.1,49.7-10.1c17.8,0,35,1.5,47.9,3.1V5106z M-119.4,4975.2c-6.8-0.9-12.9-1.5-22.4-1.5
		c-18.4,0-40.2,5.2-40.2,25.8c0,19,23.6,25.8,39.6,25.8c11.1,0,16.9,0,23,0V4975.2z"/>
	<path class="st24" d="M50.6,4957.4v21.5H4.3V5106h-26.7v-127.1h-46.4v-21.5H50.6z"/>
	<path class="st24" d="M263.7,4957.4V5106h-27v-127.1h-69.1V5106h-26.7v-148.6H263.7z"/>
	<path class="st24" d="M389.9,5106l-2.1-18.7h-0.9c-8.3,11.7-24.3,22.1-45.4,22.1c-30.1,0-45.4-21.2-45.4-42.7
		c0-35.9,31.9-55.6,89.3-55.3v-3.1c0-12.3-3.4-34.4-33.8-34.4c-13.8,0-28.2,4.3-38.7,11.1l-6.1-17.8c12.3-8,30.1-13.2,48.8-13.2
		c45.4,0,56.5,31,56.5,60.8v55.6c0,12.9,0.6,25.5,2.5,35.6H389.9z M385.9,5030.1c-29.5-0.6-62.9,4.6-62.9,33.5
		c0,17.5,11.7,25.8,25.5,25.8c19.3,0,31.6-12.3,35.9-24.9c0.9-2.8,1.5-5.8,1.5-8.6V5030.1z"/>
	<path class="st24" d="M455.6,5005.9c0-19-0.6-34.4-1.2-48.5h24.3l1.2,25.5h0.6c11.1-18.1,28.6-28.9,52.8-28.9
		c35.9,0,62.9,30.4,62.9,75.5c0,53.4-32.5,79.8-67.5,79.8c-19.6,0-36.8-8.6-45.7-23.3h-0.6v80.7h-26.7V5005.9z M482.3,5045.5
		c0,4,0.6,7.7,1.2,11.1c4.9,18.7,21.2,31.6,40.5,31.6c28.6,0,45.1-23.3,45.1-57.4c0-29.8-15.7-55.3-44.2-55.3
		c-18.4,0-35.6,13.2-40.8,33.5c-0.9,3.4-1.8,7.4-1.8,11.1V5045.5z"/>
	<path class="st24" d="M728.2,4957.4v21.5h-46.4V5106h-26.7v-127.1h-46.4v-21.5H728.2z"/>
	<path class="st24" d="M777.9,4957.4v59.9h70.6v-59.9h26.7V5106h-26.7v-67.2h-70.6v67.2h-26.7v-148.6H777.9z"/>
	<path class="st24" d="M945.5,4957.4v50.3c6.1-1.2,16.6-1.5,24.6-1.5c33.5,0,68.8,10.4,68.8,50c0,15.3-6.1,26.1-15.7,34.1
		c-16.3,13.8-42.7,17.2-64.5,17.2c-15,0-28.9-0.9-39.9-2.1v-148H945.5z M945.5,5087.2c5.2,0.6,11.1,1.2,20,1.2
		c20.3,0,46.4-6.8,46.4-31.6c0-25.8-27-31.3-47-31.3c-7.1,0-13.2,0.6-19.3,1.5V5087.2z"/>
	<path class="st24" d="M1206.8,5030.4c0,55-38.1,78.9-74,78.9c-40.2,0-71.2-29.5-71.2-76.4c0-49.7,32.5-78.9,73.7-78.9
		C1177.9,4954,1206.8,4985,1206.8,5030.4z M1088.9,5032c0,32.5,18.7,57.1,45.1,57.1c25.8,0,45.1-24.3,45.1-57.7
		c0-25.2-12.6-57.1-44.5-57.1C1102.7,4974.3,1088.9,5003.7,1088.9,5032z"/>
	<path class="st24" d="M1240.9,5005.9c0-19-0.6-34.4-1.2-48.5h24.3l1.2,25.5h0.6c11.1-18.1,28.6-28.9,52.8-28.9
		c35.9,0,62.9,30.4,62.9,75.5c0,53.4-32.5,79.8-67.5,79.8c-19.6,0-36.8-8.6-45.7-23.3h-0.6v80.7h-26.7V5005.9z M1267.6,5045.5
		c0,4,0.6,7.7,1.2,11.1c4.9,18.7,21.2,31.6,40.5,31.6c28.6,0,45.1-23.3,45.1-57.4c0-29.8-15.7-55.3-44.2-55.3
		c-18.4,0-35.6,13.2-40.8,33.5c-0.9,3.4-1.8,7.4-1.8,11.1V5045.5z"/>
	<path class="st24" d="M1602.8,4957.4V5106h-27v-127.1h-69.1V5106H1480v-148.6H1602.8z"/>
	<path class="st24" d="M1781.2,5030.4c0,55-38.1,78.9-74,78.9c-40.2,0-71.2-29.5-71.2-76.4c0-49.7,32.5-78.9,73.7-78.9
		C1752.3,4954,1781.2,4985,1781.2,5030.4z M1663.3,5032c0,32.5,18.7,57.1,45.1,57.1c25.8,0,45.1-24.3,45.1-57.7
		c0-25.2-12.6-57.1-44.5-57.1C1677.1,4974.3,1663.3,5003.7,1663.3,5032z"/>
	<path class="st24" d="M2002.5,4957.4V5106h-27v-127.1h-69.1V5106h-26.7v-148.6H2002.5z"/>
	<path class="st24" d="M2046.4,5005.9c0-19-0.6-34.4-1.2-48.5h24.3l1.2,25.5h0.6c11.1-18.1,28.6-28.9,52.8-28.9
		c35.9,0,62.9,30.4,62.9,75.5c0,53.4-32.5,79.8-67.5,79.8c-19.6,0-36.8-8.6-45.7-23.3h-0.6v80.7h-26.7V5005.9z M2073.1,5045.5
		c0,4,0.6,7.7,1.2,11.1c4.9,18.7,21.2,31.6,40.5,31.6c28.6,0,45.1-23.3,45.1-57.4c0-29.8-15.7-55.3-44.2-55.3
		c-18.4,0-35.6,13.2-40.8,33.5c-0.9,3.4-1.8,7.4-1.8,11.1V5045.5z"/>
	<path class="st24" d="M2236.1,5036.6c0.6,36.5,23.9,51.6,51,51.6c19.3,0,31-3.4,41.1-7.7l4.6,19.3c-9.5,4.3-25.8,9.2-49.4,9.2
		c-45.7,0-73.1-30.1-73.1-74.9s26.4-80.1,69.7-80.1c48.5,0,61.4,42.7,61.4,70c0,5.5-0.6,9.8-0.9,12.6H2236.1z M2315.3,5017.2
		c0.3-17.2-7.1-43.9-37.5-43.9c-27.3,0-39.3,25.2-41.4,43.9H2315.3z"/>
	<path class="st24" d="M2376.4,4957.4h33.2l27,74.9c3.7,11.1,10.1,29.2,13.5,40.8h0.6c3.4-11.1,11.7-34.7,17.5-51l23.9-64.8h33.5
		l10.4,148.6h-25.8l-3.4-70.9c-0.9-16-2.1-35-2.8-53.1h-0.9c-4,13.5-8,25.5-16.3,48.2l-28.6,74.9h-19.6l-26.4-73.4
		c-4.6-14.1-11.1-35.6-14.7-49.4h-1.2c-0.6,17.5-1.5,37.1-2.5,53.4l-3.7,70.3h-24.9L2376.4,4957.4z"/>
	<path class="st24" d="M2586.1,5036.6c0.6,36.5,23.9,51.6,51,51.6c19.3,0,31-3.4,41.1-7.7l4.6,19.3c-9.5,4.3-25.8,9.2-49.4,9.2
		c-45.7,0-73.1-30.1-73.1-74.9s26.4-80.1,69.7-80.1c48.5,0,61.4,42.7,61.4,70c0,5.5-0.6,9.8-0.9,12.6H2586.1z M2665.3,5017.2
		c0.3-17.2-7.1-43.9-37.5-43.9c-27.3,0-39.3,25.2-41.4,43.9H2665.3z"/>
	<path class="st24" d="M2830.8,5100.4c-7.1,3.7-22.7,8.6-42.7,8.6c-44.8,0-74-30.4-74-75.8c0-45.7,31.3-78.9,79.8-78.9
		c16,0,30.1,4,37.5,7.7l-6.1,20.9c-6.4-3.7-16.6-7.1-31.3-7.1c-34.1,0-52.5,25.2-52.5,56.2c0,34.4,22.1,55.6,51.6,55.6
		c15.3,0,25.5-4,33.2-7.4L2830.8,5100.4z"/>
	<path class="st24" d="M2967.7,4957.4v21.5h-46.4V5106h-26.7v-127.1h-46.4v-21.5H2967.7z"/>
	<path class="st24" d="M2990.7,4959.2c10.4-1.8,29.8-3.4,47.3-3.4c24.9,0,66,4,66,37.1c0,18.4-14.1,29.8-31,33.5v0.6
		c21.8,3.1,37.8,15.4,37.8,36.8c0,39-49.1,43.9-78.3,43.9c-16.6,0-33.8-1.2-41.8-1.8V4959.2z M3016.2,5088.2
		c7.7,0.9,13.2,1.2,21.8,1.2c18.1,0,45.1-4.3,45.1-25.8c0-21.5-21.5-26.1-47.3-26.1h-19.6V5088.2z M3016.5,5019.7h20.3
		c20,0,40.5-5.8,40.5-23.3c0-14.7-12.9-21.8-39.9-21.8c-8.9,0-14.4,0.6-20.9,1.2V5019.7z"/>
	<path class="st24" d="M3227.1,5106l-2.1-18.7h-0.9c-8.3,11.7-24.3,22.1-45.4,22.1c-30.1,0-45.4-21.2-45.4-42.7
		c0-35.9,31.9-55.6,89.3-55.3v-3.1c0-12.3-3.4-34.4-33.8-34.4c-13.8,0-28.2,4.3-38.7,11.1l-6.1-17.8c12.3-8,30.1-13.2,48.8-13.2
		c45.4,0,56.5,31,56.5,60.8v55.6c0,12.9,0.6,25.5,2.5,35.6H3227.1z M3223.1,5030.1c-29.5-0.6-62.9,4.6-62.9,33.5
		c0,17.5,11.7,25.8,25.5,25.8c19.3,0,31.6-12.3,35.9-24.9c0.9-2.8,1.5-5.8,1.5-8.6V5030.1z"/>
	<path class="st24" d="M3318.9,4957.4v59.9h70.6v-59.9h26.7V5106h-26.7v-67.2h-70.6v67.2h-26.7v-148.6H3318.9z"/>
	<path class="st24" d="M3475.5,5036.6c0.6,36.5,23.9,51.6,51,51.6c19.3,0,31-3.4,41.1-7.7l4.6,19.3c-9.5,4.3-25.8,9.2-49.4,9.2
		c-45.7,0-73.1-30.1-73.1-74.9s26.4-80.1,69.7-80.1c48.5,0,61.4,42.7,61.4,70c0,5.5-0.6,9.8-0.9,12.6H3475.5z M3554.7,5017.2
		c0.3-17.2-7.1-43.9-37.5-43.9c-27.3,0-39.3,25.2-41.4,43.9H3554.7z"/>
</g>
<g>
	<rect x="-935.7" y="5222" class="st22" width="6642.7" height="245"/>
	<path class="st24" d="M-738,5349.1c-1.5-28.9-3.4-63.6-3.1-89.3h-0.9c-7.1,24.3-15.7,50-26.1,78.6l-36.5,100.4h-20.3l-33.5-98.5
		c-9.8-29.2-18.1-55.9-23.9-80.4h-0.6c-0.6,25.8-2.1,60.5-4,91.5l-5.5,88.7h-25.5l14.4-206.9h34.1l35.3,100.1
		c8.6,25.5,15.7,48.2,20.9,69.7h0.9c5.2-20.9,12.6-43.6,21.8-69.7l36.8-100.1h34.1l12.9,206.9h-26.1L-738,5349.1z"/>
	<path class="st24" d="M-488.7,5334.4c0,71.2-43.3,109-96.1,109c-54.6,0-93-42.4-93-105c0-65.7,40.8-108.7,96.1-108.7
		C-525.3,5229.7-488.7,5273-488.7,5334.4z M-649.3,5337.7c0,44.2,23.9,83.8,66,83.8c42.4,0,66.3-39,66.3-86
		c0-41.1-21.5-84.1-66-84.1C-627.2,5251.5-649.3,5292.3-649.3,5337.7z"/>
	<path class="st24" d="M-427.7,5233v184.5h67.2V5233h26.4v184.5h66.9V5233h26.7v185.1l18.1,0.6l-1.8,70.9h-21.2l-1.5-49.7h-207.2
		V5233H-427.7z"/>
	<path class="st24" d="M-99.8,5291.4v62.6c0,23.6-0.3,38.4-1.5,59.6l0.9,0.3c8.9-18.1,14.1-28.6,23.9-45.7l46.4-76.8H1.5V5440h-25.8
		V5377c0-24.3,0.6-36.8,1.8-60.8h-0.9c-9.5,19-16,31-24.6,46.1c-14.1,23-30.4,51.6-46.4,77.7h-31v-148.6H-99.8z"/>
	<path class="st24" d="M256,5433.2c-9.8,4.9-29.5,9.8-54.6,9.8c-58.3,0-102.2-36.8-102.2-104.7c0-64.8,43.9-108.7,108.1-108.7
		c25.8,0,42.1,5.5,49.1,9.2l-6.4,21.8c-10.1-4.9-24.6-8.6-41.8-8.6c-48.5,0-80.7,31-80.7,85.3c0,50.7,29.2,83.2,79.5,83.2
		c16.3,0,32.8-3.4,43.6-8.6L256,5433.2z"/>
	<path class="st24" d="M314.7,5233v87.2c0,32.8-0.6,59.9-2.5,87.5l0.6,0.3c10.4-21.5,23.3-43.9,38.4-68.5l66.9-106.5h26.7V5440
		h-25.2v-88.1c0-33.5,0.3-58,2.5-84.1l-0.9-0.3c-10.1,22.7-24.3,46.7-38.4,69.7L318,5440h-28.6V5233H314.7z"/>
	<path class="st24" d="M628.4,5233V5440h-27v-184.5h-68.5v62.6c0,44.8-1.8,94.9-31,114.5c-7.7,4.9-19.6,9.8-31.6,9.8l-3.4-21.5
		c8.3-1.5,16.9-6.4,21.8-11.1c16.6-16.3,18.1-56.5,18.1-89.6V5233H628.4z"/>
	<path class="st24" d="M708.2,5374.9l-21.5,65.1h-27.6l70.3-206.9h32.2l70.6,206.9h-28.6l-22.1-65.1H708.2z M776.1,5354l-20.3-59.6
		c-4.6-13.5-7.7-25.8-10.7-37.8h-0.6c-3.1,12.3-6.4,24.9-10.4,37.5l-20.3,59.9H776.1z"/>
</g>
<g>
	<rect x="-935.7" y="5490" class="st22" width="6642.7" height="245"/>
	<path class="st24" d="M-799.1,5708l-26.4-45.7c-10.7-17.5-17.5-28.9-23.9-40.8h-0.6c-5.8,12-11.7,23-22.4,41.1l-24.9,45.4h-30.7
		l63.2-104.7l-60.8-102.2h31l27.3,48.5c7.7,13.5,13.5,23.9,19,35h0.9c5.8-12.3,11.1-21.8,18.7-35l28.2-48.5h30.7l-62.9,100.7
		l64.5,106.2H-799.1z"/>
	<path class="st24" d="M-630,5611h-80.4v74.6h89.6v22.4h-116.4V5501h111.8v22.4h-85v65.4h80.4V5611z"/>
	<path class="st24" d="M-586.1,5503.5c12.9-2.1,29.8-4,51.3-4c26.4,0,45.7,6.1,58,17.2c11.4,9.8,18.1,24.9,18.1,43.3
		c0,18.7-5.5,33.5-16,44.2c-14.1,15-37.1,22.7-63.2,22.7c-8,0-15.3-0.3-21.5-1.8v82.9h-26.7V5503.5z M-559.4,5603.3
		c5.8,1.5,13.2,2.1,22.1,2.1c32.2,0,51.9-15.7,51.9-44.2c0-27.3-19.3-40.5-48.8-40.5c-11.7,0-20.6,0.9-25.2,2.1V5603.3z"/>
	<path class="st24" d="M-396.3,5501v91.8h8.3l70.9-91.8h32.2l-78.3,94.9c34.1,4.6,47.3,25.5,58,53.4c7.7,21.2,13.5,40.2,22.7,58.6
		h-28.9c-7.4-14.1-13.2-32.5-18.7-48.8c-9.5-27.3-22.7-46.1-57.7-46.1h-8.6v94.9h-26.4V5501H-396.3z"/>
	<path class="st24" d="M-242.8,5501l41.1,88.1c5.2,12.3,10.1,24.3,15,36.5h0.6c3.7-10.7,7.7-22.7,12.9-37.5l32.2-87.2h28.2
		l-43.3,106.2c-11.4,27.6-24.3,59.3-38.7,78.6c-13.5,16.9-28.6,25.5-47,25.5c-6.8,0-11.7-0.6-15-1.8l2.8-21.8
		c2.1,0.6,5.2,0.9,9.8,0.9c21.5-0.3,34.1-20.9,40.5-35.6c2.1-4.6,1.5-7.7-0.9-12.6l-68.8-139.4H-242.8z"/>
	<path class="st24" d="M40.5,5501V5708h-27v-184.5H-55v62.6c0,44.8-1.8,94.9-31,114.5c-7.7,4.9-19.6,9.8-31.6,9.8l-3.4-21.5
		c8.3-1.5,16.9-6.4,21.8-11.1c16.6-16.3,18.1-56.5,18.1-89.6V5501H40.5z"/>
	<path class="st24" d="M194,5611h-80.4v74.6h89.6v22.4H86.9V5501h111.8v22.4h-85v65.4H194V5611z"/>
	<path class="st24" d="M382.5,5701.2c-9.8,4.9-29.5,9.8-54.6,9.8c-58.3,0-102.2-36.8-102.2-104.7c0-64.8,43.9-108.7,108.1-108.7
		c25.8,0,42.1,5.5,49.1,9.2l-6.4,21.8c-10.1-4.9-24.6-8.6-41.8-8.6c-48.5,0-80.7,31-80.7,85.3c0,50.7,29.2,83.2,79.5,83.2
		c16.3,0,32.8-3.4,43.6-8.6L382.5,5701.2z"/>
	<path class="st24" d="M630.6,5501V5708h-26.7v-184.5h-96.1V5708h-26.7V5501H630.6z"/>
	<path class="st24" d="M710.7,5642.9l-21.5,65.1h-27.6l70.3-206.9h32.2l70.6,206.9h-28.6l-22.1-65.1H710.7z M778.5,5622l-20.3-59.6
		c-4.6-13.5-7.7-25.8-10.7-37.8h-0.6c-3.1,12.3-6.4,24.9-10.4,37.5l-20.3,59.9H778.5z"/>
	<path class="st24" d="M1005.1,5701.2c-9.8,4.9-29.5,9.8-54.6,9.8c-58.3,0-102.2-36.8-102.2-104.7c0-64.8,43.9-108.7,108.1-108.7
		c25.8,0,42.1,5.5,49.1,9.2l-6.4,21.8c-10.1-4.9-24.6-8.6-41.8-8.6c-48.5,0-80.7,31-80.7,85.3c0,50.7,29.2,83.2,79.5,83.2
		c16.3,0,32.8-3.4,43.6-8.6L1005.1,5701.2z"/>
	<path class="st24" d="M1088.6,5523.8h-62.9V5501h153.2v22.7h-63.2V5708h-27V5523.8z"/>
	<path class="st24" d="M1227,5501v87.2c0,32.8-0.6,59.9-2.5,87.5l0.6,0.3c10.4-21.5,23.3-43.9,38.4-68.5l66.9-106.5h26.7V5708H1332
		v-88.1c0-33.5,0.3-58,2.5-84.1l-0.9-0.3c-10.1,22.7-24.3,46.7-38.4,69.7l-64.8,102.8h-28.6V5501H1227z"/>
	<path class="st24" d="M1610.5,5501v185.1l18.1,0.6l-1.8,70.9h-20.9l-1.8-49.7h-130.5l-1.8,49.7h-20.9l-1.8-70.9l15.7-0.6
		c7.7-14.1,15.4-29.2,20.3-45.4c7.1-23.9,9.8-51.6,9.8-87.2V5501H1610.5z M1519.6,5562.1c0,33.2-3.1,61.1-10.4,84.4
		c-4.3,14.4-10.7,28.2-16.9,39.3h91.5v-162.7h-64.2V5562.1z"/>
	<path class="st24" d="M1696.7,5642.9l-21.5,65.1h-27.6l70.3-206.9h32.2l70.6,206.9h-28.6l-22.1-65.1H1696.7z M1764.6,5622
		l-20.3-59.6c-4.6-13.5-7.7-25.8-10.7-37.8h-0.6c-3.1,12.3-6.4,24.9-10.4,37.5l-20.3,59.9H1764.6z"/>
	<path class="st24" d="M1897.5,5708c3.1-5.5,5.8-12,8.3-18.7c8.9-23.6,14.4-52.5,31.3-69.4c4.9-4.9,11.1-8.6,17.2-10.4v-0.9
		c-25.5-4.3-45.7-22.7-45.7-51c0-18.1,7.4-32.5,19-42.1c12.9-10.4,33.2-16,59.3-16c17.5,0,35.9,1.5,49.4,4.3V5708h-26.7v-89.6h-19.6
		c-12.9,0-22.4,2.8-29.8,10.1c-14.1,14.4-20,44.8-27.3,64.5c-2.1,5.2-3.7,9.5-6.8,15H1897.5z M2009.6,5522.5
		c-4.6-0.9-13.2-2.5-25.2-2.5c-26.4,0-48.8,10.1-48.8,38.7c0,24.9,22.1,39.3,51.3,39.3c8.9,0,17.5,0,22.7-0.3V5522.5z"/>
	<path class="st24" d="M2224.5,5501v185.1l18.1,0.6l-1.8,70.9h-20.9l-1.8-49.7h-130.5l-1.8,49.7h-20.9l-1.8-70.9l15.7-0.6
		c7.7-14.1,15.4-29.2,20.3-45.4c7.1-23.9,9.8-51.6,9.8-87.2V5501H2224.5z M2133.6,5562.1c0,33.2-3.1,61.1-10.4,84.4
		c-4.3,14.4-10.7,28.2-16.9,39.3h91.5v-162.7h-64.2V5562.1z"/>
	<path class="st24" d="M2383.5,5611h-80.4v74.6h89.6v22.4h-116.4V5501h111.8v22.4h-85v65.4h80.4V5611z"/>
</g>
<g>
	<rect x="1538.3" y="85" class="st22" width="5002.7" height="1090"/>
	<path class="st1" d="M2482.4,77.4v822.2h-216.3V576.7L2046.7,886h-1.5l-219.8-309.3v322.9h-216.3V77.4h86.9l349.7,479.1
		l349.7-479.1H2482.4z"/>
	<path class="st1" d="M2588.5,493.3c0-244.6,194.1-430.1,447.3-430.1c253.2,0,447.3,185.5,447.3,430.1c0,242.6-194.1,427-447.8,427
		C2782.1,920.4,2588.5,735.9,2588.5,493.3z M3264.2,491.8c0-125.8-99.1-222.9-228.4-222.9s-228.4,97-228.4,222.9
		c0,125.3,99.1,221.9,228.4,221.9S3264.2,617.2,3264.2,491.8z"/>
	<path class="st1" d="M4302.7,85l-375.5,823.2h-98L3455.2,85h234l188,441.2L4065.7,85H4302.7z"/>
	<path class="st1" d="M4597.9,286.1v113.7h258.8v180.4h-258.8V697h314.3v202.7h-528.1V85h528.1v201.1H4597.9z"/>
	<path class="st1" d="M5230.6,476.7L4986,85h247.6l124.8,215.3L5482.8,85h247.6l-245.6,391.2L5744,899.7h-249.1l-137-240.6
		l-136.5,240.6h-249.1L5230.6,476.7z"/>
</g>
<g>
</g>
<g>
</g>
<g>
</g>
<g>
</g>
<g>
</g>
<g>
</g>
<g>
</g>
<g>
</g>
<g>
</g>
<g>
</g>
<g>
</g>
<g>
</g>
<g>
</g>
<g>
</g>
<g>
</g>
</svg>
