<?xml version="1.0" encoding="utf-8"?>
<!-- Generator: Adobe Illustrator 25.2.1, SVG Export Plug-In . SVG Version: 6.00 Build 0)  -->
<svg version="1.1" id="Layer_1" xmlns="http://www.w3.org/2000/svg" xmlns:xlink="http://www.w3.org/1999/xlink" x="0px" y="0px"
	 viewBox="0 0 6471 2127" style="enable-background:new 0 0 6471 2127;" xml:space="preserve">
<style type="text/css">
	.st0{fill:#930224;}
	.st1{fill:#114B7D;}
	.st2{fill:#FFFFFF;stroke:#000000;stroke-miterlimit:10;}
	.st3{stroke:#000000;stroke-miterlimit:10;}
	.st4{fill:#A8A8A8;}
	.st5{fill:#333333;stroke:#000000;stroke-width:3;stroke-miterlimit:10;}
	.st6{fill:#666666;stroke:#000000;stroke-miterlimit:10;}
	.st7{fill:#666666;stroke:#000000;stroke-width:5;stroke-miterlimit:10;}
	.st8{fill:#1A1A1A;}
	.st9{fill:#040404;}
	.st10{fill:#050505;}
	.st11{fill:#060606;}
	.st12{fill:#0F0F0F;}
	.st13{fill:#151515;}
	.st14{fill:#1F1F1F;}
	.st15{fill:#2A2A2A;stroke:#000000;stroke-miterlimit:10;}
	.st16{fill:#272727;stroke:#000000;stroke-miterlimit:10;}
	.st17{fill:#646464;stroke:#000000;stroke-miterlimit:10;}
	.st18{fill:#080808;stroke:#000000;stroke-miterlimit:10;}
	.st19{fill:#080707;}
	.st20{fill:#252525;stroke:#000000;stroke-miterlimit:10;}
	.st21{fill:#1E1E1E;}
	.st22{fill:none;}
	.st23{fill:#114B7D;stroke:#114B7D;stroke-width:83;stroke-miterlimit:10;}
	.st24{fill:#FFFFFF;}
	.st25{fill:#00788A;}
</style>
<g>
	<g>
		<path d="M841.3,1495c-54.6,0-107.5-10.7-157.4-31.8c-48.1-20.4-91.4-49.5-128.5-86.6c-37.1-37.1-66.3-80.4-86.6-128.5
			c-21.1-49.8-31.8-102.8-31.8-157.4V489.3c0-54.6,10.7-107.5,31.8-157.4c20.4-48.1,49.5-91.4,86.6-128.5
			c37.1-37.1,80.4-66.3,128.5-86.6C733.8,95.7,786.7,85,841.3,85h601.4c54.6,0,107.5,10.7,157.4,31.8
			c48.1,20.4,91.4,49.5,128.5,86.6c37.1,37.1,66.3,80.4,86.6,128.5c21.1,49.8,31.8,102.8,31.8,157.4v601.4
			c0,54.6-10.7,107.5-31.8,157.4c-20.4,48.1-49.5,91.4-86.6,128.5c-37.1,37.1-80.4,66.3-128.5,86.6
			c-49.8,21.1-102.8,31.8-157.4,31.8H841.3z"/>
		<path d="M1442.7,87c54.3,0,107,10.6,156.6,31.6c47.9,20.3,90.9,49.3,127.9,86.2c36.9,36.9,66,80,86.2,127.9
			c21,49.6,31.6,102.3,31.6,156.6v601.4c0,54.3-10.6,107-31.6,156.6c-20.3,47.9-49.3,90.9-86.2,127.9c-36.9,36.9-80,66-127.9,86.2
			c-49.6,21-102.3,31.6-156.6,31.6H841.3c-54.3,0-107-10.6-156.6-31.6c-47.9-20.3-90.9-49.3-127.9-86.2s-66-80-86.2-127.9
			c-21-49.6-31.6-102.3-31.6-156.6V489.3c0-54.3,10.6-107,31.6-156.6c20.3-47.9,49.3-90.9,86.2-127.9s80-66,127.9-86.2
			C734.3,97.6,787,87,841.3,87H1442.7 M1442.7,83H841.3C616.9,83,435,264.9,435,489.3v601.4c0,224.4,181.9,406.3,406.3,406.3h601.4
			c224.4,0,406.3-181.9,406.3-406.3V489.3C1849,264.9,1667.1,83,1442.7,83L1442.7,83z"/>
	</g>
	<g>
		<path class="st0" d="M841.3,1400.9c-82.9,0-160.8-32.3-219.3-90.9s-90.9-136.5-90.9-219.3V489.3c0-82.9,32.3-160.8,90.9-219.3
			s136.5-90.9,219.3-90.9h601.4c82.9,0,160.8,32.3,219.3,90.9s90.9,136.5,90.9,219.3v601.4c0,82.9-32.3,160.8-90.9,219.3
			s-136.5,90.9-219.3,90.9H841.3z"/>
		<path d="M1442.7,181.1c41.6,0,82,8.1,120,24.2c36.7,15.5,69.7,37.7,98,66.1c28.3,28.3,50.5,61.3,66.1,98
			c16.1,38,24.2,78.4,24.2,120v601.4c0,41.6-8.1,82-24.2,120c-15.5,36.7-37.7,69.7-66.1,98s-61.3,50.5-98,66.1
			c-38,16.1-78.4,24.2-120,24.2H841.3c-41.6,0-82-8.1-120-24.2c-36.7-15.5-69.7-37.7-98-66.1s-50.5-61.3-66.1-98
			c-16.1-38-24.2-78.4-24.2-120V489.3c0-41.6,8.1-82,24.2-120c15.5-36.7,37.7-69.7,66.1-98c28.3-28.3,61.3-50.5,98-66.1
			c38-16.1,78.4-24.2,120-24.2H1442.7 M1442.7,177.1H841.3c-172.4,0-312.2,139.8-312.2,312.2v601.4c0,172.4,139.8,312.2,312.2,312.2
			h601.4c172.4,0,312.2-139.8,312.2-312.2V489.3C1754.9,316.9,1615.1,177.1,1442.7,177.1L1442.7,177.1z"/>
	</g>
	<g>
		<g>
			<path class="st1" d="M841.3,1465.3c-50.6,0-99.6-9.9-145.8-29.4c-44.6-18.9-84.7-45.9-119.1-80.3s-61.4-74.5-80.3-119.1
				c-19.5-46.2-29.4-95.2-29.4-145.8V489.3c0-50.6,9.9-99.6,29.4-145.8c18.9-44.6,45.9-84.7,80.3-119.1s74.5-61.4,119.1-80.3
				c46.2-19.5,95.2-29.4,145.8-29.4h601.4c50.6,0,99.6,9.9,145.8,29.4c44.6,18.9,84.7,45.9,119.1,80.3s61.4,74.5,80.3,119.1
				c19.5,46.2,29.4,95.2,29.4,145.8v601.4c0,50.6-9.9,99.6-29.4,145.8c-18.9,44.6-45.9,84.7-80.3,119.1s-74.5,61.4-119.1,80.3
				c-46.2,19.5-95.2,29.4-145.8,29.4H841.3z"/>
			<path d="M1442.7,116.7c50.3,0,99.1,9.9,145,29.3c44.4,18.8,84.2,45.6,118.4,79.9c34.2,34.2,61.1,74.1,79.9,118.4
				c19.4,45.9,29.3,94.7,29.3,145v601.4c0,50.3-9.9,99.1-29.3,145c-18.8,44.4-45.6,84.2-79.9,118.4c-34.2,34.2-74.1,61.1-118.4,79.9
				c-45.9,19.4-94.7,29.3-145,29.3H841.3c-50.3,0-99.1-9.9-145-29.3c-44.4-18.8-84.2-45.6-118.4-79.9
				c-34.2-34.2-61.1-74.1-79.9-118.4c-19.4-45.9-29.3-94.7-29.3-145V489.3c0-50.3,9.9-99.1,29.3-145c18.8-44.4,45.6-84.2,79.9-118.4
				c34.2-34.2,74.1-61.1,118.4-79.9c45.9-19.4,94.7-29.3,145-29.3H1442.7 M1442.7,112.7H841.3c-208,0-376.6,168.6-376.6,376.6v601.4
				c0,208,168.6,376.6,376.6,376.6h601.4c208,0,376.6-168.6,376.6-376.6V489.3C1819.3,281.3,1650.7,112.7,1442.7,112.7L1442.7,112.7
				z"/>
		</g>
	</g>
</g>
<g>
	<path class="st3" d="M1357.4,935.4c1-2.3-0.3-1.5-0.4-1.3c-0.8,0.8-0.3,0.3-0.9,1c-3.3,4-3.8,6.5-5,10.4
		c-8.5,19.7-17.4,39.3-25.5,59.2c-2.3,5.6-5.3,8.4-11.7,9.3c-84.8,11.3-168.2,10.5-247.7-24.2c-7.9-3.5-15.7-7.8-22.4-13.1
		c-8.8-7-14.8-5.5-22.3,1.8c-32.5,31.9-60,67.7-90.6,101c-30,32.7-42.8,70-48.1,111.2c-1.7,13.4-4.6,26.6-7.4,39.8
		c-1.5,6.9-0.9,12.3,5.3,17.5c7.2,6.1,13.9,13,19.7,20.3c5.4,6.8,6.2,12.9-5,17c-34.8,12.6-69.3,22.3-107.9,21.2
		c-72.2-2.2-144.6-0.8-216.8-0.4c-9.8,0-12.4-1.5-10.8-11.4c5.2-32.7,6.3-66.1,14.6-98.2c13.9-53.6,35.7-105,55.6-156.9
		c42.3-110.5,93.7-217.4,146.6-323.7c12.5-25.2,26-50,38.9-75c1.4-2.6,2.2-5.5,2.3-8.8c-15.1,12.1-27,26.5-38.1,41.6
		c-13.7,18.6-27.4,37.3-40.9,56c-5.3,7.3-11.1,12.1-20.7,6.7c-39-21.9-76.5-45.4-98.1-84.8c-4.9-8.9-9.5-17.9-13.4-27.2
		c-8.2-19.3-11.8-37.2,13-49.9c9-4.6,15.2-14,23.3-20.5c9.7-7.8,19.8-14.4,12.6-29.2c-2.9-6,4.4-11.8,8.2-16.8
		c3.2-4.3,6.7-8.4,10.9-11.9c7-5.8,8.2-10.9,4.1-18.5c-9.6-17.6-8.4-23.9,6-38.5c27.1-27.6,51.8-56.2,70.8-89.9
		c17.7-31.6,46.9-56,73.7-81.5c7.4-7,15.2-4.7,23.2-1.7c58.1,21.5,107.5,54.9,150.8,96.7c22.4,21.6,44.6,43.3,66.9,65
		c8.5,8.2,37.6,11,47,4.8c4.1-2.7,3.8-6.7,3.9-10.6c1.4-48.5,18.6-91.6,49.4-130.6c14-17.8,38.1-32.2,63.9-22.3
		c8.8,3.4,13.6-0.4,17.9-7.4c19.4-31.9,46.8-54.6,85.4-64.6c16.2-4.2,32.2-3,48.5-1.1c70,8.1,131.8,35.7,190.1,70.8
		c42.7,25.6,84,53.1,120.1,87c55.3,52,58.6,113.9,16.1,175.4c-4.9,7-3.7,11.9,1.2,17.4c6.8,7.7,13.6,15.6,16.5,25.5
		c6.2,21.4-0.2,39.8-17.1,54.7c-26.8,23.6-54.1,46.6-80.7,69.3c25.6,24.6,51.4,49.3,77.2,74.1c3.9,3.7,7.8,7.5,11.4,11.5
		c11,12,11.8,19.4,2.6,32.9c-17.4,25.7-35.2,51.1-50.4,78.1c-7.3,12.9-7.8,24.7-1.3,37.3c13,25,25.4,50.3,39.5,74.7
		c18,31.3,17.6,65.2,18.6,99.2c1.4,50.5-9.1,99.6-17.2,149.1c-2.2,13.3-4.6,26.7-5.8,40.1c-0.6,6.9-3.6,8.2-10.3,8.3
		c-95.6,0.6-191.2,1.5-286.8,2.3c-3.9,0-9,1.8-11.2-2.9c-2.1-4.5,0-8.8,3.4-11.9c7.9-7.4,15.7-15,24.6-21.3
		c7.8-5.5,9.4-10.3,4.2-18.3c-42.2-65.4-61.2-138.6-80.1-211.6c-7.4-28.6-3.6-58,2.6-86.8"/>
	<path class="st5" d="M1419.8,1292.4c8.5-5.8,15.6-11.1,23.3-15.6c7.6-4.5,9.6-9.5,5.2-17.4c-11.3-19.9-21.8-40.3-33.1-60.2
		c-20.3-35.7-28.9-75-42.1-113c-19.2-55.1-16.9-110.6-4.1-166.3c0.9-4,4.3-9.7-0.5-11.9c-6.1-2.8-8.2,4.1-10.6,7.6
		c-15.9,22.7-27.8,47.1-35.5,73.3c-3.2,10.7-8.8,17.7-21.5,18.9c-66.5,6.3-132.1,3.1-196.3-15.5c-17.4-5.1-33.8-12.3-48.7-22.1
		c-13.4-8.8-14.8-15.7-5.2-28.1c28.2-36.3,54.4-73.7,78.2-112.7c5.7-9.4,5.7-9.4,3.6-19c-14.6,14.3-24.9,30.7-36.2,46.1
		c-26.9,36.5-52.2,74.1-78.9,110.7c-19.2,26.3-44.7,47.8-65.8,72.7c-35.5,41.8-73,82.3-103,128.1c-16.7,25.5-28.4,52.7-34.7,82
		c-3.5,16.2-3.4,16.2,7.1,44c-2.2,3.2-5.8,2.2-8.7,2c-73.6-5.1-147.3-1.8-220.9,0c-11.3,0.3-13.5-2.7-13-12.8
		c3-53.8,16.6-105.2,32.8-156.9c24.8-79,59.2-154.5,90.3-231.1c33.8-83.3,75.9-163.2,121.2-241.6c10.9-18.8,20-38.2,26.2-58.8
		c1.1-3.6,1.4-7.4,2.4-12.3c-11.7,3.3-16,12.1-22.3,18.4c-31.7,31.9-60.6,65.8-83.6,104c-13.7,22.7-15.2,21.8-40.1,10.4
		c-39.5-18-70.3-43.7-86.1-83.2c-0.5-1.2-1.2-2.4-1.5-3.6C609,602,615,588,645.8,596.7c13.7,3.9,28.3,5.3,42.3,8.5
		c8.8,2,13.1-1.6,15.6-8.7c2.8-8-3.9-9.7-9.4-11.7c-12.6-4.5-25.2-8.8-37.9-13c-8.1-2.7-10.5-5.6-2.9-12.2
		c8.3-7.2,18-12.3,26.9-18.6c1.8-1.2,4.7-2.2,3.1-4.8c-0.6-1.1-3.6-2.2-4.5-1.6c-5.3,3.2-8.9,3.4-12-2.8c-3-5.9-3-11,1.6-15.7
		c8.8-9,17.8-17.8,27.1-26.4c7-6.5,11.8-11.2-2.5-15.5c-13.6-4.1-14.8-9.3-7.4-20.5c7.5-11.3,19.1-19,28.4-28.7
		c10.5-11.1,21.7-21.6,32.6-32.4c6.8-6.8,15.9-12.4,10.4-24.2c-2-4.4,1.2-9.2,4.4-13.2c14.2-17.8,27.6-36.2,43.5-52.7
		c9.5-9.9,20.6-17.3,34.2-21.8c10.4-3.5,19.9-3.2,29.3,2.1c58.5,32.8,115.6,67.1,159,117.7c11.4,13.2,23.1,26.2,34.2,39.7
		c6.5,7.9,14.3,10.7,24.4,8.3c66.1-15.7,116.3,12.4,160.1,53.2c32.3,30.1,55,67.5,78.3,104.1c6.4,10.1,13.5,19.8,20,29.8
		c4.9,7.6,6.8,13.8-3.9,20.3c-16.6,10.1-29.6,24.2-42.3,41.5c24.5-8.3,41.5-23.7,62-33.4c30.4-14.5,62.1-25.5,94.8-34
		c11.1-2.9,22-1.9,32.4,3.7c42.4,22.7,85,45,125.7,70.2c31,19.2,54.7,45.9,81.4,69.6c23.7,21,22.8,21,5.9,47.7
		c-15.6,24.7-29.8,50.1-44.2,75.4c-7.6,13.3-3.5,26.3,3.1,38.7c10.7,20.2,23.5,39.5,32.3,60.6c19.7,47.2,30.7,95.3,23.2,146.7
		c-6.5,44-9.9,88.3-14.3,132.6c-0.9,9-5.1,13.1-14.9,13.6c-86.6,4.5-173.3,5.6-260.1,5.3C1424.2,1293.9,1423,1293.3,1419.8,1292.4z"
		/>
	<path class="st6" d="M1730.9,444.9c1.5,24.3-9.2,46.3-17.8,68.7c-3.4,8.9-9.5,6.6-16.7,3.8c-29.1-11.2-56.5-8.1-81.2,10.6
		c-4.3,3.3-8.1,7.3-11.4,11.4c-10.9,13.4-10.7,13.4-25.5,2.3c-34.3-25.7-71-47.2-113.3-60.2c-22.1-6.8-41.7-18.1-57.7-35.1
		c-29.6-31.2-69.5-48.9-107.9-68.5c-2-1-4.1-2-6.2-3c-18.1-9.2-18-9.1-10.2-27.2c11.9-27.5,6.6-53.2-11.5-76.5
		c-7.9-10.2-6.9-17.1,2.4-25.7c36.5-34.3,77-51.2,130.8-38.6c89.2,20.8,166.5,60.9,236.3,115.6c24.3,19.1,48.1,38.4,67.9,61.8
		C1723.9,402.1,1732.5,421.5,1730.9,444.9z"/>
	<path class="st6" d="M1235.3,277c11.1,1.1,25.2-7.2,33.4,5.1c11.1,16.7,16.4,35.1,10.2,54.9c-2.6,8.4-6.6,16.3-12.8,23
		c-7.4,7.9-6.1,12.1,4.8,15.5c35.6,10.9,68.2,27.5,98.6,47.8c12.6,8.4,24.1,17.7,33,29.8c14.2,19.2,35.4,29.2,57.7,37.1
		c35.3,12.5,69.1,27.7,100.7,47.2c10.2,6.3,19.6,13.3,27.3,22.2c5.8,6.7,8.9,6,14.1-1.3c19.2-27.1,45.1-42.2,81.4-36.5
		c5,0.8,11.6,0.9,11,7.3c-0.5,5.2-6.4,5.3-11.1,5.7c-7.4,0.7-14.8,1.6-22.2,2.3c-26.8,2.5-46.5,14.3-56.7,38.1
		c-3.7,8.7-7.6,10.6-15.9,3.6c-18.7-15.7-38.2-30.6-57.3-45.9c-22.6-18.1-48.5-31.5-77-38.3c-27.1-6.4-49-18.6-65.5-38.9
		c-28.3-34.9-68.3-52.6-110.3-67.6c-11.2-4-23.1-6.7-33-13.6c-2.5-1.8-4.8-5-7.4-0.1c-1.8,3.4-3,6.8,1.3,9.1
		c3.6,1.9,7.6,3.2,11.6,4.2c51.5,12.7,96.8,35.3,133.1,72.4c8.7,8.9,20.1,15.6,25.6,27.2c1.5,3.1,4.4,5.1,8.7,5.7
		c43.5,6.1,80.8,25.2,114.9,49.9c19.4,14,40.2,26.8,55.1,45.7c5.5,7,11.8,6.2,17-0.7c4-5.3,7.5-11,11.1-16.5
		c18.1-27.9,54.1-37.1,84.9-21.8c24.6,12.2,31.8,41.3,13.6,60.9c-26.1,28-58.1,50.1-87.2,75.3c-6.4,5.5-14.6,4.4-20.6-0.4
		c-48.4-38.5-108.5-58.4-161.6-89.5c-72.5-42.4-146.2-83.1-219.2-124.7c-5.9-3.4-10.6-8.5-15.9-12.7c-18.5-14.5-40.2-21.2-63.9-23.4
		c-15.9-1.5-19.1-5-17-19.2c5-34.2,14-67.4,31.7-98.1C1177,290.4,1197.1,269.4,1235.3,277z"/>
	<path class="st7" d="M1462.1,615.4c-18.3,10-34.2,8.3-49.1-0.7c-32.3-19.5-64.5-39.3-98.8-55.9c-17.6-8.5-27.2-24.6-40-37.6
		c-5.3-5.4-10.1-11.2-13.4-19.7C1327.1,539.1,1393.5,576.7,1462.1,615.4z"/>
	<g>
		<path class="st1" d="M1366.2,644.5c-3.6,0-6.4-2.2-9-4.6c-7.7-6.9-14-15.7-19.3-26.7c-8.8-18.2-19-33.1-31.4-45.6l1.5-1.9
			l112.5,62.8l-15,4.6c-12.8,3.9-24.6,7.5-36.4,11C1368.1,644.3,1367.1,644.5,1366.2,644.5z"/>
		<g>
			<path d="M1308.2,566.3l48.6,27.1l62.5,34.9c-4.7,1.4-9.3,2.8-13.7,4.2c-12.7,3.9-24.7,7.5-36.6,11.1c-0.9,0.3-1.9,0.4-2.7,0.4
				c-3.1,0-5.6-1.7-8.6-4.4c-7.6-6.9-13.9-15.6-19.2-26.6c-8.7-18.1-18.9-33-31.2-45.4L1308.2,566.3 M1307.9,565
				c-0.7,0.9-1.4,1.8-2,2.6c13.5,13.5,23.5,29,31.6,45.8c4.7,9.8,10.9,19.2,19.4,26.9c2.8,2.5,5.6,4.7,9.3,4.7c1,0,2-0.1,3-0.5
				c16.7-5,33.3-10.1,52.6-15.9C1382.1,606.4,1345,585.7,1307.9,565L1307.9,565z"/>
		</g>
	</g>
	<path class="st8" d="M882.2,1277c-14.9,3.1-27.6,5.4-40.2,8.3c-7.4,1.7-11.7-1.3-14.4-7c-4.4-9-5.8-18.6-1.2-27.7
		c13.3-26.5,27-52.9,43.1-78.8c-4,21.3-7,42.8-12.3,63.8c-3.9,15.7-4.8,28.3,15.6,33.6C875.6,1270,877.6,1273.1,882.2,1277z"/>
	<path class="st6" d="M681.7,597.9c-16.7-2.3-32.6-8.7-49.1-13.1c-2.4-0.6-5-1.9-4.2-4.3c1.2-3.6,4.8-3.7,8.2-2.9
		c16.2,3.9,32.4,7.9,48.5,11.9c2.8,0.7,5.5,2.3,5,5.3C689.2,599.4,685.2,597.7,681.7,597.9z"/>
	<path class="st9" d="M1013.8,577.6c6.5,68.7-129.6,227.9-170,223.2C923.7,742.9,981.5,670.8,1013.8,577.6z"/>
	<path class="st10" d="M872.5,435.3c6.5,1.9,10.5,7,15.3,11c16.7,13.8,16.2,13.8,7.9,32.8c-8.3,19-19.6,36.3-31.1,53.7
		c-1.4,2.2-2.1,5.5-5.7,4.6c-3.3-0.8-2.8-4.1-3.2-6.6c-2.4-18.5,3.4-36.2,5.6-54.3c1.3-11.2,3.5-22.3,5.4-33.5
		C867.2,439.7,867.4,435.8,872.5,435.3z"/>
	<path class="st9" d="M740.8,489.5c-3.9-1.1-7.9-1.5-10.9-3.2c-7.3-4.1-18.1-6.8-17-16.8c1.1-9.8,12.2-7.7,19.3-9.3
		c12.2-2.7,24.7-4.2,37-6.4c5.2-0.9,9.6,0.3,12.1,4.4c2.7,4.6-1.7,7.3-4.9,9.5C765,475.7,755.3,486.1,740.8,489.5z"/>
	<path class="st11" d="M1603,802.8c-31.5-35.3-71.6-58.8-118.8-74.9c9.9-6.3,18.3-4.1,25.4-1.3c38.1,14.8,69.3,38.1,93.7,69.3
		c1,1.3,1.4,3,2,4.5C1604.5,801.2,1603.7,802,1603,802.8z"/>
	<path class="st8" d="M913.3,345.2c-43.1-24.5-53,9.7-68.5,32.2c-5.1-0.7-4.1-4-4.5-6.1c-2.7-15.4,22.6-47.2,39-48.7
		C896.3,321.1,905.1,331.8,913.3,345.2z"/>
	<path class="st12" d="M932.1,785.8c46.5-34.3,77.6-76.5,97.4-126.3C1026.1,700.1,964.7,780.8,932.1,785.8z"/>
	<path class="st13" d="M1206.1,961.3c-37.1-1.7-81.7-12.5-99.3-25.5c37.5,8.5,71,19.8,106.3,22.9
		C1212.7,964.1,1208.9,961.4,1206.1,961.3z"/>
	<path class="st14" d="M1206.1,961.3c2.3-0.9,4.7-1.8,7-2.6c25.4,0,50.8,0,76.2,0c0,1.5,0,3.1,0,4.6
		C1261.6,968.8,1233.9,966.3,1206.1,961.3z"/>
	<path class="st15" d="M1561.3,465.3c-0.2-25.9,35.6-71.7,66-84.2C1595.6,402.5,1575.9,432,1561.3,465.3z"/>
	<path class="st16" d="M1437.5,299.7c-13.4,29.4-32.3,54.3-63.3,69.5c24.8-20.7,47.8-42.8,61-72.2
		C1437.7,296.6,1438.7,297.3,1437.5,299.7z"/>
	<path class="st17" d="M1437.5,299.7c-0.8-0.9-1.6-1.8-2.4-2.6c2.1-6.4,4.2-12.7,6.4-19.1C1443.6,286,1442.7,293.3,1437.5,299.7z"/>
	<path class="st18" d="M1231.4,299.9c-41.5,26.5-50.8,68-64.4,107.6c-3.2-19.4,3.9-44.6,20.4-73.5c3.5-6.1,7-12.2,10.5-18.4
		C1205.9,301.2,1212.3,298.1,1231.4,299.9z"/>
	<path class="st19" d="M1600.2,651.6c39.2-20.2,78.6-38,97-79.9c5.2,9.8,6.2,19.1-2.2,26.7c-24.3,22.2-50.3,42.4-83.1,53.1
		C1608.3,652.7,1604.7,652.5,1600.2,651.6z"/>
	<path class="st20" d="M1257.7,411.9c28.2,33.7,63.9,53.6,105.1,68.5C1338,484.7,1265.4,437.8,1257.7,411.9z"/>
	<path class="st21" d="M1548,589c-43.7-9.6-78.4-32.7-106.8-65C1472.1,552.7,1507.8,574.2,1548,589z"/>
	<path class="st6" d="M874,443.9c20.2,16.5,20.2,16.5,9,35.5c-5.7,9.8-11.3,19.7-18.8,28.9C867.4,487.4,870.6,466.5,874,443.9z"/>
	<path class="st6" d="M732,472.6c8.2-2.1,15.9-4.1,24.4-6.3C750.2,482.3,744.5,483.7,732,472.6z"/>
</g>
<g>
	<rect x="2021.3" y="425" class="st22" width="4944.7" height="1017"/>
	<path class="st23" d="M2112.4,425h156.9l232.9,673.3L2735.1,425H2892v865.7h-116.4V627.5l-232.9,663.2h-81l-232.9-663.2v663.2
		h-116.4V425z"/>
	<path class="st23" d="M3154.7,521.2c70.9-70.9,156.9-106.3,258.2-106.3s187.3,35.4,258.2,106.3c81,81,121.5,192.4,121.5,334.1
		s-40.5,253.1-121.5,334.1c-70.9,70.9-156.9,106.3-258.2,106.3s-187.3-35.4-258.2-106.3c-81-81-121.5-192.4-121.5-334.1
		S3073.7,602.2,3154.7,521.2z M3240.7,587c-57.4,57.4-86.1,146.8-86.1,268.3s28.7,210.9,86.1,268.3c50.6,50.6,108,75.9,172.1,75.9
		s121.5-25.3,172.1-75.9c57.4-57.4,86.1-146.8,86.1-268.3S3642.3,644.4,3585,587c-50.6-50.6-108-75.9-172.1-75.9
		S3291.3,536.4,3240.7,587z"/>
	<path class="st23" d="M3867.9,419.9h121.5l268.3,703.7L4526,419.9h121.5l-344.2,875.8h-91.1L3867.9,419.9z"/>
	<path class="st23" d="M4727.9,425h556.9v96.2h-440.4v268.3h410.1v96.2h-410.1v308.8h465.8v96.2h-582.2V425z"/>
	<path class="st23" d="M5679,840.1L5405.6,425h131.6l202.5,318.9L5942.3,425h131.6l-273.4,415.1l298.7,450.6h-131.6l-227.8-354.4
		L5512,1290.7h-131.6L5679,840.1z"/>
</g>
<g>
	<rect x="435.3" y="1670" class="st22" width="5859.7" height="681"/>
	<path class="st24" d="M505.4,1685.5v121.3h140.2v-121.3h37.8v289.8h-37.8v-135.9H505.4v135.9h-37.4v-289.8H505.4z"/>
	<path class="st24" d="M783.6,1685.5v122.1c0,46-0.9,83.8-3.4,122.5l0.9,0.4c14.6-30.1,32.7-61.5,53.8-95.9l93.7-149.2h37.4v289.8
		h-35.3v-123.4c0-46.9,0.4-81.3,3.4-117.8l-1.3-0.4c-14.2,31.8-34,65.4-53.7,97.6l-90.7,144h-40v-289.8H783.6z"/>
	<path class="st24" d="M1181.3,1839.4h-112.7v104.5h125.6v31.4h-163v-289.8h156.5v31.4h-119.1v91.6h112.7V1839.4z"/>
	<path class="st24" d="M1578.2,1848c-2.1-40.4-4.7-89-4.3-125.1h-1.3c-9.9,34-21.9,70.1-36.5,110.1l-51.2,140.6h-28.4l-46.9-138
		c-13.8-40.8-25.4-78.3-33.5-112.7h-0.9c-0.9,36.1-3,84.7-5.6,128.1l-7.7,124.3h-35.7l20.2-289.8h47.7l49.4,140.2
		c12,35.7,21.9,67.5,29.2,97.6h1.3c7.3-29.2,17.6-61.1,30.5-97.6l51.6-140.2h47.7l18.1,289.8h-36.5L1578.2,1848z"/>
	<path class="st24" d="M1829.7,1839.4h-112.7v104.5h125.6v31.4h-163v-289.8h156.5v31.4h-119.1v91.6h112.7V1839.4z"/>
	<path class="st24" d="M2093.7,1965.8c-13.8,6.9-41.3,13.8-76.5,13.8c-81.7,0-143.2-51.6-143.2-146.6c0-90.7,61.5-152.2,151.4-152.2
		c36.1,0,58.9,7.7,68.8,12.9l-9,30.5c-14.2-6.9-34.4-12-58.5-12c-67.9,0-113.1,43.4-113.1,119.5c0,70.9,40.8,116.5,111.4,116.5
		c22.8,0,46-4.7,61.1-12L2093.7,1965.8z"/>
	<path class="st24" d="M2210.7,1717.3h-88.1v-31.8h214.6v31.8h-88.6v258h-37.8V1717.3z"/>
	<path class="st24" d="M2404.6,1685.5v122.1c0,46-0.9,83.8-3.4,122.5l0.9,0.4c14.6-30.1,32.7-61.5,53.7-95.9l93.7-149.2h37.4v289.8
		h-35.3v-123.4c0-46.9,0.4-81.3,3.4-117.8l-1.3-0.4c-14.2,31.8-34,65.4-53.7,97.6l-90.7,144h-40v-289.8H2404.6z"/>
	<path class="st24" d="M2896.5,1848c-2.1-40.4-4.7-89-4.3-125.1h-1.3c-9.9,34-21.9,70.1-36.5,110.1l-51.2,140.6h-28.4l-46.9-138
		c-13.8-40.8-25.4-78.3-33.5-112.7h-0.9c-0.9,36.1-3,84.7-5.6,128.1l-7.7,124.3h-35.7l20.2-289.8h47.7l49.4,140.2
		c12,35.7,21.9,67.5,29.2,97.6h1.3c7.3-29.2,17.6-61.1,30.5-97.6l51.6-140.2h47.7l18.1,289.8h-36.5L2896.5,1848z"/>
	<path class="st24" d="M3089.2,1689.4c16.3-3.4,42.1-6,68.4-6c37.4,0,61.5,6.4,79.5,21.1c15,11.2,24.1,28.4,24.1,51.2
		c0,27.9-18.5,52.5-49,63.6v0.9c27.5,6.9,59.8,29.7,59.8,72.7c0,24.9-9.9,43.9-24.5,58c-20.2,18.5-52.9,27.1-100.2,27.1
		c-25.8,0-45.6-1.7-58-3.4V1689.4z M3126.6,1808h34c39.6,0,62.8-20.6,62.8-48.6c0-34-25.8-47.3-63.6-47.3c-17.2,0-27.1,1.3-33.1,2.6
		V1808z M3126.6,1946.9c7.3,1.3,18.1,1.7,31.4,1.7c38.7,0,74.4-14.2,74.4-56.3c0-39.6-34-55.9-74.8-55.9h-31V1946.9z"/>
	<path class="st24" d="M3357.5,1685.5v122.1c0,46-0.9,83.8-3.4,122.5l0.9,0.4c14.6-30.1,32.7-61.5,53.8-95.9l93.7-149.2h37.4v289.8
		h-35.3v-123.4c0-46.9,0.4-81.3,3.4-117.8l-1.3-0.4c-14.2,31.8-34,65.4-53.7,97.6l-90.7,144h-40v-289.8H3357.5z"/>
	<path class="st24" d="M3755.2,1839.4h-112.7v104.5h125.6v31.4h-163v-289.8h156.5v31.4h-119.1v91.6h112.7V1839.4z"/>
	<path class="st24" d="M4110.4,1965.8c-13.8,6.9-41.3,13.8-76.5,13.8c-81.7,0-143.2-51.6-143.2-146.6c0-90.7,61.5-152.2,151.4-152.2
		c36.1,0,58.9,7.7,68.8,12.9l-9,30.5c-14.2-6.9-34.4-12-58.5-12c-67.9,0-113.1,43.4-113.1,119.5c0,70.9,40.8,116.5,111.4,116.5
		c22.8,0,46-4.7,61.1-12L4110.4,1965.8z"/>
	<path class="st24" d="M4366.7,1685.5v289.8h-37.4v-258.4h-134.6v258.4h-37.4v-289.8H4366.7z"/>
	<path class="st24" d="M4582.1,1839.4h-112.7v104.5H4595v31.4h-163v-289.8h156.5v31.4h-119.1v91.6h112.7V1839.4z"/>
	<path class="st24" d="M4846.1,1965.8c-13.8,6.9-41.3,13.8-76.5,13.8c-81.7,0-143.2-51.6-143.2-146.6c0-90.7,61.5-152.2,151.4-152.2
		c36.1,0,58.9,7.7,68.8,12.9l-9,30.5c-14.2-6.9-34.4-12-58.5-12c-67.9,0-113.1,43.4-113.1,119.5c0,70.9,40.8,116.5,111.4,116.5
		c22.8,0,46-4.7,61.1-12L4846.1,1965.8z"/>
	<path class="st24" d="M4963.1,1717.3h-88.1v-31.8h214.6v31.8h-88.6v258h-37.8V1717.3z"/>
	<path class="st24" d="M5093.4,1975.3c4.3-7.7,8.2-16.8,11.6-26.2c12.5-33.1,20.2-73.5,43.9-97.2c6.9-6.9,15.5-12,24.1-14.6v-1.3
		c-35.7-6-64.1-31.8-64.1-71.4c0-25.4,10.3-45.6,26.7-58.9c18.1-14.6,46.4-22.4,83-22.4c24.5,0,50.3,2.1,69.2,6v285.9h-37.4v-125.6
		h-27.5c-18.1,0-31.4,3.9-41.7,14.2c-19.8,20.2-27.9,62.8-38.3,90.3c-3,7.3-5.2,13.3-9.5,21.1H5093.4z M5250.3,1715.6
		c-6.5-1.3-18.5-3.4-35.3-3.4c-37,0-68.4,14.2-68.4,54.2c0,34.8,31,55,71.8,55c12.5,0,24.5,0,31.8-0.4V1715.6z"/>
	<path class="st24" d="M5353.1,1689.4c16.3-3.4,42.1-6,68.4-6c37.4,0,61.5,6.4,79.5,21.1c15,11.2,24.1,28.4,24.1,51.2
		c0,27.9-18.5,52.5-49,63.6v0.9c27.5,6.9,59.8,29.7,59.8,72.7c0,24.9-9.9,43.9-24.5,58c-20.2,18.5-52.9,27.1-100.2,27.1
		c-25.8,0-45.6-1.7-58-3.4V1689.4z M5390.5,1808h34c39.6,0,62.8-20.6,62.8-48.6c0-34-25.8-47.3-63.6-47.3c-17.2,0-27.1,1.3-33.1,2.6
		V1808z M5390.5,1946.9c7.3,1.3,18.1,1.7,31.4,1.7c38.7,0,74.4-14.2,74.4-56.3c0-39.6-34-55.9-74.8-55.9h-31V1946.9z"/>
	<path class="st24" d="M5633,1884.1l-30.1,91.2h-38.7l98.5-289.8h45.1l98.9,289.8h-40l-31-91.2H5633z M5728,1854.9l-28.4-83.4
		c-6.4-18.9-10.8-36.1-15-52.9h-0.9c-4.3,17.2-9,34.8-14.6,52.5l-28.4,83.8H5728z"/>
	<path class="st24" d="M5885.4,1717.3h-88.1v-31.8h214.6v31.8h-88.6v258h-37.8V1717.3z"/>
	<path class="st24" d="M6194.2,1839.4h-112.7v104.5h125.6v31.4h-163v-289.8h156.5v31.4h-119.1v91.6h112.7V1839.4z"/>
</g>
</svg>
