<?xml version="1.0" encoding="utf-8"?>
<!-- Generator: Adobe Illustrator 25.2.1, SVG Export Plug-In . SVG Version: 6.00 Build 0)  -->
<svg version="1.1" id="Layer_1" xmlns="http://www.w3.org/2000/svg" xmlns:xlink="http://www.w3.org/1999/xlink" x="0px" y="0px"
	 viewBox="0 0 7285 2635" style="enable-background:new 0 0 7285 2635;" xml:space="preserve">
<style type="text/css">
	.st0{fill:#930224;}
	.st1{fill:#114B7D;}
	.st2{fill:#FFFFFF;stroke:#000000;stroke-miterlimit:10;}
	.st3{stroke:#000000;stroke-miterlimit:10;}
	.st4{fill:#A8A8A8;}
	.st5{fill:#333333;stroke:#000000;stroke-width:3;stroke-miterlimit:10;}
	.st6{fill:#666666;stroke:#000000;stroke-miterlimit:10;}
	.st7{fill:#666666;stroke:#000000;stroke-width:5;stroke-miterlimit:10;}
	.st8{fill:#1A1A1A;}
	.st9{fill:#040404;}
	.st10{fill:#050505;}
	.st11{fill:#060606;}
	.st12{fill:#0F0F0F;}
	.st13{fill:#151515;}
	.st14{fill:#1F1F1F;}
	.st15{fill:#2A2A2A;stroke:#000000;stroke-miterlimit:10;}
	.st16{fill:#272727;stroke:#000000;stroke-miterlimit:10;}
	.st17{fill:#646464;stroke:#000000;stroke-miterlimit:10;}
	.st18{fill:#080808;stroke:#000000;stroke-miterlimit:10;}
	.st19{fill:#080707;}
	.st20{fill:#252525;stroke:#000000;stroke-miterlimit:10;}
	.st21{fill:#1E1E1E;}
	.st22{fill:none;}
	.st23{fill:#FFFFFF;}
</style>
<g>
	<g>
		<path d="M797.9,1495c-48.7,0-96-9.5-140.5-28.4c-43-18.2-81.6-44.2-114.7-77.3s-59.2-71.7-77.3-114.7
			c-18.8-44.5-28.4-91.8-28.4-140.5V596.9c0-48.7,9.5-96,28.4-140.5c18.2-43,44.2-81.6,77.3-114.7s71.7-59.2,114.7-77.3
			c44.5-18.8,91.8-28.4,140.5-28.4h537.2c48.7,0,96,9.5,140.5,28.4c43,18.2,81.6,44.2,114.7,77.3s59.2,71.7,77.3,114.7
			c18.8,44.5,28.4,91.8,28.4,140.5v537.2c0,48.7-9.5,96-28.4,140.5c-18.2,43-44.2,81.6-77.3,114.7s-71.7,59.2-114.7,77.3
			c-44.5,18.8-91.8,28.4-140.5,28.4H797.9z"/>
		<path d="M1335.1,238c48.5,0,95.5,9.5,139.7,28.2c42.7,18.1,81.1,44,114.1,76.9s58.8,71.3,76.9,114.1
			c18.7,44.2,28.2,91.2,28.2,139.7v537.2c0,48.5-9.5,95.5-28.2,139.7c-18.1,42.7-44,81.1-76.9,114.1s-71.3,58.8-114.1,76.9
			c-44.2,18.7-91.2,28.2-139.7,28.2H797.9c-48.5,0-95.5-9.5-139.7-28.2c-42.7-18.1-81.1-44-114.1-76.9s-58.8-71.3-76.9-114.1
			c-18.7-44.2-28.2-91.2-28.2-139.7V596.9c0-48.5,9.5-95.5,28.2-139.7c18.1-42.7,44-81.1,76.9-114.1s71.3-58.8,114.1-76.9
			c44.2-18.7,91.2-28.2,139.7-28.2H1335.1 M1335.1,234H797.9C597.5,234,435,396.5,435,596.9v537.2c0,200.4,162.5,362.9,362.9,362.9
			h537.2c200.4,0,362.9-162.5,362.9-362.9V596.9C1698,396.5,1535.5,234,1335.1,234L1335.1,234z"/>
	</g>
	<g>
		<path class="st0" d="M797.9,1410.9c-74,0-143.5-28.8-195.8-81.1c-52.3-52.3-81.1-121.8-81.1-195.8V596.9
			c0-74,28.8-143.5,81.1-195.8c52.3-52.3,121.8-81.1,195.8-81.1h537.2c74,0,143.5,28.8,195.8,81.1c52.3,52.3,81.1,121.8,81.1,195.8
			v537.2c0,74-28.8,143.5-81.1,195.8c-52.3,52.3-121.8,81.1-195.8,81.1H797.9z"/>
		<path d="M1335.1,322.1c37.1,0,73.1,7.3,107,21.6c32.7,13.8,62.1,33.7,87.4,58.9s45.1,54.6,58.9,87.4c14.3,33.9,21.6,69.9,21.6,107
			v537.2c0,37.1-7.3,73.1-21.6,107c-13.8,32.7-33.7,62.1-58.9,87.4s-54.6,45.1-87.4,58.9c-33.9,14.3-69.9,21.6-107,21.6H797.9
			c-37.1,0-73.1-7.3-107-21.6c-32.7-13.8-62.1-33.7-87.4-58.9s-45.1-54.6-58.9-87.4c-14.3-33.9-21.6-69.9-21.6-107V596.9
			c0-37.1,7.3-73.1,21.6-107c13.8-32.7,33.7-62.1,58.9-87.4s54.6-45.1,87.4-58.9c33.9-14.3,69.9-21.6,107-21.6H1335.1 M1335.1,318.1
			H797.9c-154,0-278.9,124.9-278.9,278.9v537.2c0,154,124.9,278.9,278.9,278.9h537.2c154,0,278.9-124.9,278.9-278.9V596.9
			C1613.9,442.9,1489.1,318.1,1335.1,318.1L1335.1,318.1z"/>
	</g>
	<g>
		<g>
			<path class="st1" d="M797.9,1468.5c-89.3,0-173.3-34.8-236.4-97.9c-63.2-63.2-97.9-147.1-97.9-236.4V596.9
				c0-89.3,34.8-173.3,97.9-236.4c63.2-63.2,147.1-97.9,236.4-97.9h537.2c89.3,0,173.3,34.8,236.4,97.9
				c63.2,63.2,97.9,147.1,97.9,236.4v537.2c0,89.3-34.8,173.3-97.9,236.4c-63.2,63.2-147.1,97.9-236.4,97.9H797.9z"/>
			<path d="M1335.1,264.5c44.9,0,88.4,8.8,129.4,26.1c39.6,16.7,75.1,40.7,105.7,71.2s54.5,66.1,71.2,105.7
				c17.3,41,26.1,84.5,26.1,129.4v537.2c0,44.9-8.8,88.4-26.1,129.4c-16.7,39.6-40.7,75.1-71.2,105.7s-66.1,54.5-105.7,71.2
				c-41,17.3-84.5,26.1-129.4,26.1H797.9c-44.9,0-88.4-8.8-129.4-26.1c-39.6-16.7-75.1-40.7-105.7-71.2s-54.5-66.1-71.2-105.7
				c-17.3-41-26.1-84.5-26.1-129.4V596.9c0-44.9,8.8-88.4,26.1-129.4c16.7-39.6,40.7-75.1,71.2-105.7s66.1-54.5,105.7-71.2
				c41-17.3,84.5-26.1,129.4-26.1H1335.1 M1335.1,260.5H797.9c-185.8,0-336.4,150.6-336.4,336.4v537.2
				c0,185.8,150.6,336.4,336.4,336.4h537.2c185.8,0,336.4-150.6,336.4-336.4V596.9C1671.5,411.1,1520.9,260.5,1335.1,260.5
				L1335.1,260.5z"/>
		</g>
	</g>
</g>
<g>
	<path class="st3" d="M1258.9,995.4c0.9-2-0.2-1.3-0.4-1.2c-0.7,0.8-0.2,0.2-0.8,0.9c-3,3.5-3.4,5.8-4.5,9.3
		c-7.6,17.6-15.5,35.1-22.7,52.9c-2,5-4.8,7.5-10.4,8.3c-75.7,10.1-150.2,9.4-221.3-21.6c-7.1-3.1-14.1-7-20-11.7
		c-7.8-6.3-13.2-4.9-19.9,1.6c-29,28.5-53.6,60.5-80.9,90.2c-26.8,29.2-38.3,62.5-42.9,99.3c-1.5,11.9-4.1,23.8-6.7,35.6
		c-1.3,6.2-0.8,11,4.7,15.6c6.5,5.4,12.4,11.6,17.6,18.1c4.8,6.1,5.6,11.6-4.5,15.2c-31.1,11.2-61.9,20-96.4,18.9
		c-64.5-1.9-129.1-0.7-193.7-0.4c-8.7,0-11-1.3-9.6-10.2c4.6-29.2,5.6-59,13.1-87.7c12.4-47.9,31.9-93.8,49.6-140.1
		c37.8-98.7,83.7-194.2,131-289.2c11.2-22.5,23.2-44.6,34.8-67c1.2-2.3,1.9-4.9,2.1-7.8c-13.4,10.8-24.1,23.7-34.1,37.1
		c-12.2,16.7-24.5,33.3-36.6,50.1c-4.7,6.5-9.9,10.8-18.5,5.9c-34.8-19.6-68.3-40.5-87.6-75.7c-4.3-7.9-8.5-16-12-24.3
		c-7.3-17.2-10.6-33.3,11.6-44.6c8.1-4.1,13.6-12.5,20.8-18.3c8.7-7,17.7-12.9,11.3-26.1c-2.6-5.4,4-10.6,7.3-15
		c2.9-3.8,6-7.5,9.8-10.6c6.2-5.2,7.4-9.7,3.6-16.5c-8.6-15.7-7.5-21.3,5.3-34.4c24.2-24.6,46.3-50.2,63.2-80.3
		c15.8-28.3,41.9-50.1,65.9-72.8c6.6-6.3,13.5-4.2,20.7-1.5c51.9,19.2,96.1,49.1,134.7,86.3c20,19.3,39.8,38.7,59.8,58
		c7.6,7.3,33.6,9.8,42,4.3c3.7-2.4,3.4-6,3.5-9.5c1.2-43.4,16.6-81.8,44.1-116.7c12.5-15.9,34-28.8,57-19.9c7.9,3,12.2-0.3,16-6.6
		c17.3-28.5,41.8-48.8,76.3-57.7c14.5-3.7,28.8-2.7,43.3-1c62.5,7.2,117.7,31.9,169.8,63.2c38.1,22.9,75,47.4,107.2,77.7
		c49.4,46.5,52.4,101.7,14.4,156.7c-4.4,6.3-3.3,10.6,1.1,15.6c6.1,6.9,12.1,14,14.7,22.8c5.6,19.1-0.2,35.6-15.3,48.8
		c-23.9,21-48.4,41.6-72.1,61.9c22.9,21.9,45.9,44,68.9,66.2c3.5,3.3,7,6.7,10.2,10.2c9.9,10.7,10.5,17.3,2.3,29.4
		c-15.5,23-31.4,45.7-45,69.8c-6.5,11.5-7,22.1-1.1,33.3c11.6,22.3,22.7,44.9,35.3,66.7c16.1,28,15.8,58.2,16.6,88.6
		c1.2,45.1-8.1,89-15.4,133.2c-1.9,11.9-4.1,23.8-5.2,35.8c-0.6,6.2-3.2,7.3-9.2,7.4c-85.4,0.6-170.8,1.4-256.2,2
		c-3.5,0-8,1.6-10-2.6c-1.9-4,0-7.8,3-10.6c7.1-6.6,14-13.4,21.9-19c7-4.9,8.4-9.2,3.8-16.4c-37.7-58.4-54.6-123.8-71.5-189
		c-6.6-25.6-3.2-51.8,2.3-77.5"/>
	<path class="st5" d="M1314.7,1314.3c7.6-5.2,14-9.9,20.8-13.9c6.8-4.1,8.6-8.5,4.6-15.5c-10.1-17.8-19.5-36-29.6-53.8
		c-18.1-31.8-25.8-67-37.6-100.9c-17.1-49.2-15.1-98.8-3.7-148.6c0.8-3.6,3.9-8.7-0.5-10.7c-5.4-2.5-7.3,3.6-9.5,6.8
		c-14.2,20.2-24.9,42.1-31.7,65.4c-2.8,9.6-7.9,15.8-19.2,16.9c-59.4,5.6-118,2.8-175.4-13.9c-15.5-4.5-30.2-11-43.5-19.7
		c-12-7.8-13.2-14.1-4.6-25.1c25.1-32.4,48.6-65.9,69.8-100.6c5.1-8.4,5.1-8.4,3.2-17c-13.1,12.8-22.2,27.4-32.3,41.1
		c-24,32.6-46.6,66.2-70.5,98.9c-17.1,23.5-39.9,42.7-58.8,64.9c-31.7,37.4-65.2,73.5-92,114.4c-14.9,22.7-25.3,47.1-31,73.2
		c-3.1,14.5-3.1,14.5,6.3,39.3c-1.9,2.8-5.2,2-7.8,1.8c-65.8-4.6-131.6-1.6-197.3,0c-10.1,0.3-12.1-2.4-11.6-11.4
		c2.7-48.1,14.8-94,29.3-140.1c22.2-70.6,52.9-138,80.7-206.5C702.9,885,740.5,813.6,781,743.5c9.7-16.8,17.8-34.2,23.4-52.5
		c1-3.2,1.3-6.6,2.1-11c-10.5,2.9-14.3,10.8-20,16.4c-28.3,28.5-54.2,58.7-74.7,92.9c-12.2,20.3-13.6,19.5-35.8,9.3
		c-35.3-16.1-62.8-39.1-76.9-74.3c-0.4-1.1-1-2.1-1.4-3.2c-7.4-23.7-2-36.2,25.5-28.3c12.3,3.5,25.3,4.8,37.8,7.6
		c7.9,1.8,11.7-1.4,13.9-7.8c2.5-7.2-3.5-8.7-8.4-10.5c-11.2-4.1-22.5-7.9-33.9-11.6c-7.2-2.4-9.4-5-2.5-10.9
		c7.4-6.4,16.1-11,24-16.6c1.6-1.1,4.2-1.9,2.8-4.3c-0.6-1-3.3-1.9-4-1.5c-4.7,2.8-7.9,3-10.7-2.5c-2.7-5.2-2.7-9.9,1.4-14
		c7.9-8,15.9-15.9,24.2-23.6c6.2-5.8,10.6-10-2.2-13.9c-12.1-3.6-13.2-8.3-6.6-18.3c6.7-10.1,17.1-16.9,25.3-25.7
		c9.4-9.9,19.4-19.3,29.1-28.9c6.1-6,14.2-11.1,9.3-21.7c-1.8-4,1.1-8.3,3.9-11.8c12.7-15.9,24.6-32.3,38.9-47.1
		c8.5-8.8,18.4-15.4,30.5-19.5c9.3-3.1,17.7-2.8,26.2,1.9c52.2,29.3,103.2,60,142,105.2c10.2,11.8,20.7,23.4,30.5,35.4
		c5.8,7.1,12.8,9.5,21.8,7.4c59-14.1,103.9,11,143,47.5c28.9,26.9,49.1,60.3,70,92.9c5.8,9,12.1,17.7,17.8,26.6
		c4.3,6.8,6.1,12.3-3.5,18.2c-14.8,9-26.4,21.6-37.8,37c21.8-7.4,37.1-21.1,55.4-29.9c27.1-12.9,55.4-22.8,84.7-30.4
		c9.9-2.6,19.6-1.7,28.9,3.3c37.8,20.3,75.9,40.2,112.3,62.7c27.6,17.1,48.9,41,72.7,62.1c21.2,18.8,20.3,18.7,5.3,42.6
		c-13.9,22-26.6,44.8-39.4,67.4c-6.8,11.9-3.1,23.5,2.8,34.6c9.5,18.1,21,35.3,28.9,54.1c17.6,42.2,27.4,85.1,20.7,131
		c-5.8,39.3-8.8,78.9-12.8,118.4c-0.8,8-4.6,11.7-13.3,12.1c-77.4,4.1-154.8,5-232.3,4.7C1318.5,1315.6,1317.5,1315,1314.7,1314.3z"
		/>
	<path class="st6" d="M1592.5,557.2c1.3,21.7-8.3,41.3-15.9,61.4c-3,8-8.4,5.9-14.9,3.4c-26-10-50.4-7.3-72.5,9.5
		c-3.8,2.9-7.2,6.5-10.2,10.2c-9.7,12-9.5,12-22.7,2.1c-30.7-23-63.5-42.2-101.2-53.8c-19.7-6.1-37.2-16.2-51.6-31.3
		c-26.4-27.9-62.1-43.7-96.4-61.2c-1.8-0.9-3.7-1.8-5.5-2.7c-16.2-8.2-16.1-8.2-9.1-24.3c10.6-24.6,5.9-47.5-10.2-68.3
		c-7.1-9.1-6.1-15.3,2.1-23c32.6-30.6,68.7-45.7,116.9-34.5c79.7,18.6,148.7,54.4,211.1,103.3c21.7,17,43,34.3,60.6,55.2
		C1586.2,519,1594,536.3,1592.5,557.2z"/>
	<path class="st6" d="M1149.9,407.3c9.9,1,22.5-6.4,29.8,4.6c9.9,14.9,14.6,31.3,9.1,49c-2.3,7.5-5.9,14.6-11.5,20.5
		c-6.6,7-5.4,10.8,4.3,13.8c31.8,9.7,60.9,24.6,88.1,42.7c11.2,7.5,21.6,15.8,29.5,26.6c12.7,17.1,31.6,26.1,51.6,33.2
		c31.5,11.2,61.7,24.8,89.9,42.1c9.1,5.6,17.5,11.9,24.4,19.8c5.2,6,8,5.3,12.6-1.1c17.2-24.2,40.2-37.7,72.7-32.6
		c4.5,0.7,10.3,0.8,9.8,6.5c-0.4,4.6-5.7,4.7-9.9,5.1c-6.6,0.6-13.2,1.4-19.9,2c-23.9,2.2-41.5,12.8-50.7,34.1
		c-3.3,7.7-6.8,9.4-14.2,3.2c-16.7-14-34.1-27.3-51.2-41c-20.2-16.2-43.3-28.1-68.7-34.2c-24.2-5.7-43.7-16.6-58.5-34.8
		c-25.3-31.2-61-47-98.5-60.4c-10-3.6-20.7-6-29.5-12.1c-2.2-1.6-4.3-4.4-6.6-0.1c-1.6,3-2.7,6.1,1.2,8.1c3.2,1.7,6.8,2.9,10.4,3.8
		c46,11.4,86.5,31.5,118.9,64.6c7.8,8,18,13.9,22.8,24.3c1.3,2.8,3.9,4.5,7.8,5.1c38.9,5.4,72.1,22.5,102.6,44.6
		c17.3,12.5,35.9,23.9,49.2,40.8c4.9,6.3,10.6,5.5,15.2-0.6c3.6-4.8,6.7-9.8,9.9-14.8c16.2-24.9,48.3-33.1,75.9-19.4
		c22,10.9,28.4,36.9,12.1,54.4c-23.3,25-51.9,44.8-77.9,67.2c-5.7,4.9-13,3.9-18.4-0.3c-43.2-34.4-96.9-52.2-144.4-80
		c-64.8-37.9-130.6-74.2-195.8-111.4c-5.2-3-9.4-7.6-14.2-11.3c-16.5-13-35.9-18.9-57.1-20.9c-14.2-1.3-17.1-4.4-15.2-17.1
		c4.4-30.6,12.5-60.2,28.3-87.6C1097.8,419.2,1115.7,400.5,1149.9,407.3z"/>
	<path class="st7" d="M1352.4,709.6c-16.4,8.9-30.6,7.4-43.9-0.6c-28.9-17.5-57.6-35.1-88.2-49.9c-15.7-7.6-24.3-21.9-35.7-33.6
		c-4.7-4.8-9-10-12-17.6C1231.8,641.4,1291.1,674.9,1352.4,709.6z"/>
	<g>
		<path class="st1" d="M1266.7,735.4c-3.2,0-5.7-2-8-4.1c-6.9-6.2-12.5-14-17.2-23.9c-7.8-16.2-17-29.6-28-40.7l1.3-1.7l100.3,56
			l-13.4,4.1c-11.4,3.5-21.9,6.7-32.5,9.8C1268.4,735.3,1267.6,735.4,1266.7,735.4z"/>
		<g>
			<path d="M1215,665.8l79.3,44.3l19.6,11c-4.1,1.3-8.1,2.5-12,3.7c-11.3,3.4-22,6.7-32.6,9.9c-0.8,0.3-1.6,0.4-2.4,0.4
				c-2.7,0-4.9-1.5-7.6-3.9c-6.8-6.1-12.4-13.9-17.1-23.7c-7.8-16.1-16.9-29.4-27.8-40.5L1215,665.8 M1214.7,664.5
				c-0.6,0.8-1.2,1.6-1.8,2.4c12,12.1,21,25.9,28.2,40.9c4.2,8.8,9.8,17.1,17.4,24c2.5,2.2,5,4.2,8.3,4.2c0.8,0,1.7-0.1,2.7-0.4
				c14.9-4.5,29.7-9,46.9-14.2C1281,701.5,1247.8,683,1214.7,664.5L1214.7,664.5z"/>
		</g>
	</g>
	<path class="st8" d="M834.5,1300.5c-13.3,2.7-24.7,4.8-35.9,7.5c-6.6,1.5-10.4-1.1-12.9-6.2c-3.9-8.1-5.2-16.6-1.1-24.8
		c11.9-23.7,24.2-47.2,38.5-70.4c-3.6,19-6.2,38.2-11,57c-3.5,14.1-4.3,25.3,13.9,30C828.5,1294.3,830.3,1297,834.5,1300.5z"/>
	<path class="st6" d="M655.4,693.9c-14.9-2-29.1-7.8-43.9-11.7c-2.1-0.6-4.4-1.7-3.8-3.8c1-3.2,4.3-3.3,7.3-2.6
		c14.5,3.5,28.9,7,43.3,10.7c2.5,0.6,4.9,2,4.4,4.8C662.1,695.3,658.5,693.8,655.4,693.9z"/>
	<path class="st9" d="M952,675.8c5.8,61.4-115.7,203.6-151.8,199.3C871.5,823.4,923.1,759.1,952,675.8z"/>
	<path class="st10" d="M825.8,548.6c5.8,1.7,9.4,6.3,13.6,9.8c14.9,12.4,14.5,12.3,7,29.3c-7.4,16.9-17.5,32.5-27.8,47.9
		c-1.3,1.9-1.9,4.9-5.1,4.1c-3-0.7-2.5-3.7-2.8-5.9c-2.1-16.5,3.1-32.4,5-48.5c1.2-10,3.1-20,4.8-29.9
		C821,552.6,821.2,549.1,825.8,548.6z"/>
	<path class="st9" d="M708.2,597.1c-3.5-1-7-1.3-9.8-2.9c-6.5-3.7-16.2-6.1-15.1-15c1-8.8,10.9-6.9,17.2-8.3c10.9-2.4,22-3.8,33-5.7
		c4.6-0.8,8.6,0.2,10.8,3.9c2.4,4.1-1.5,6.5-4.4,8.5C729.8,584.7,721.1,594.1,708.2,597.1z"/>
	<path class="st11" d="M1478.3,876.9c-28.2-31.5-64-52.5-106.1-66.9c8.8-5.6,16.4-3.6,22.7-1.2c34,13.2,61.9,34.1,83.7,61.9
		c0.9,1.1,1.2,2.6,1.8,4C1479.6,875.5,1478.9,876.2,1478.3,876.9z"/>
	<path class="st8" d="M862.2,468.2c-38.5-21.9-47.3,8.7-61.2,28.8c-4.6-0.6-3.7-3.6-4-5.4c-2.4-13.7,20.2-42.2,34.8-43.5
		C847,446.7,854.9,456.2,862.2,468.2z"/>
	<path class="st12" d="M879,861.7c41.6-30.7,69.3-68.3,87-112.8C962.9,785.2,908.2,857.2,879,861.7z"/>
	<path class="st13" d="M1123.8,1018.5c-33.2-1.5-73-11.2-88.7-22.8c33.5,7.6,63.4,17.7,95,20.4
		C1129.7,1021,1126.2,1018.6,1123.8,1018.5z"/>
	<path class="st14" d="M1123.8,1018.5c2.1-0.8,4.2-1.6,6.3-2.4c22.7,0,45.4,0,68.1,0c0,1.4,0,2.7,0,4.1
		C1173.3,1025.2,1148.5,1023,1123.8,1018.5z"/>
	<path class="st15" d="M1441,575.5c-0.2-23.1,31.8-64,59-75.2C1471.7,519.4,1454.1,545.8,1441,575.5z"/>
	<path class="st16" d="M1330.5,427.6c-12,26.3-28.9,48.5-56.6,62.1c22.2-18.5,42.7-38.2,54.4-64.5
		C1330.6,424.8,1331.5,425.4,1330.5,427.6z"/>
	<path class="st17" d="M1330.5,427.6c-0.7-0.8-1.4-1.6-2.1-2.4c1.9-5.7,3.8-11.4,5.7-17C1335.9,415.3,1335.1,421.8,1330.5,427.6z"/>
	<path class="st18" d="M1146.3,427.8c-37.1,23.6-45.4,60.7-57.5,96.1c-2.8-17.3,3.5-39.8,18.2-65.6c3.1-5.5,6.3-10.9,9.4-16.4
		C1123.6,428.9,1129.3,426.1,1146.3,427.8z"/>
	<path class="st19" d="M1475.8,741.9c35-18,70.2-34,86.6-71.4c4.6,8.8,5.6,17-1.9,23.9c-21.7,19.8-44.9,37.8-74.2,47.4
		C1483,742.8,1479.8,742.7,1475.8,741.9z"/>
	<path class="st20" d="M1169.9,527.8c25.2,30.1,57.1,47.9,93.9,61.2C1241.6,592.8,1176.8,550.9,1169.9,527.8z"/>
	<path class="st21" d="M1429.2,686c-39-8.6-70-29.2-95.4-58C1361.3,653.6,1393.2,672.8,1429.2,686z"/>
	<path class="st6" d="M827.1,556.3c18.1,14.7,18,14.7,8.1,31.7c-5.1,8.7-10.1,17.6-16.8,25.8C821.2,595.2,824.1,576.5,827.1,556.3z"
		/>
	<path class="st6" d="M700.3,582c7.3-1.9,14.2-3.7,21.8-5.6C716.5,590.7,711.5,591.9,700.3,582z"/>
</g>
<g>
	<rect x="2002.3" y="428" class="st22" width="4944.7" height="1017"/>
	<path class="st1" d="M2093.4,428h156.9l232.9,673.3L2716.1,428H2873v865.7h-116.4V630.5l-232.9,663.2h-81l-232.9-663.2v663.2
		h-116.4V428z"/>
	<path class="st1" d="M3161.6,524.2c70.9-70.9,156.9-106.3,258.2-106.3s187.3,35.4,258.2,106.3c81,81,121.5,192.4,121.5,334.1
		s-40.5,253.1-121.5,334.1c-70.9,70.9-156.9,106.3-258.2,106.3s-187.3-35.4-258.2-106.3c-81-81-121.5-192.4-121.5-334.1
		S3080.6,605.2,3161.6,524.2z M3247.6,590c-57.4,57.4-86.1,146.8-86.1,268.3s28.7,210.9,86.1,268.3c50.6,50.6,108,75.9,172.1,75.9
		s121.5-25.3,172.1-75.9c57.4-57.4,86.1-146.8,86.1-268.3s-28.7-210.9-86.1-268.3c-50.6-50.6-108-75.9-172.1-75.9
		S3298.3,539.4,3247.6,590z"/>
	<path class="st1" d="M3900.7,422.9h121.5l268.3,703.7l268.3-703.7h121.5l-344.2,875.8H4245L3900.7,422.9z"/>
	<path class="st1" d="M4786.6,428h556.9v96.2h-440.4v268.3h410.1v96.2h-410.1v308.8h465.8v96.2h-582.2V428z"/>
	<path class="st1" d="M5763.7,843.1L5490.3,428H5622l202.5,318.9L6027,428h131.6l-273.4,415.1l298.7,450.6h-131.6l-227.8-354.4
		l-227.8,354.4H5465L5763.7,843.1z"/>
</g>
<g>
	<rect x="435.3" y="1670" class="st22" width="5747.7" height="245"/>
	<path class="st23" d="M608.1,1681V1888h-26.7v-184.5h-96.1V1888h-26.7V1681H608.1z"/>
	<path class="st23" d="M654.8,1683.5c12.9-2.1,29.8-4,51.3-4c26.4,0,45.7,6.1,58,17.2c11.4,9.8,18.1,24.9,18.1,43.3
		c0,18.7-5.5,33.5-16,44.2c-14.1,15-37.1,22.7-63.2,22.7c-8,0-15.3-0.3-21.5-1.8v82.9h-26.7V1683.5z M681.5,1783.3
		c5.8,1.5,13.2,2.1,22.1,2.1c32.2,0,51.9-15.7,51.9-44.2c0-27.3-19.3-40.5-48.8-40.5c-11.7,0-20.6,0.9-25.2,2.1V1783.3z"/>
	<path class="st23" d="M992.5,1782.4c0,71.2-43.3,109-96.1,109c-54.6,0-93-42.4-93-105c0-65.7,40.8-108.7,96.1-108.7
		C955.9,1677.7,992.5,1721,992.5,1782.4z M831.9,1785.7c0,44.2,23.9,83.8,66,83.8c42.4,0,66.3-39,66.3-86c0-41.1-21.5-84.1-66-84.1
		C854,1699.5,831.9,1740.3,831.9,1785.7z"/>
	<path class="st23" d="M1128.2,1672.8v18.4c43.6,1.8,87.2,28.2,87.2,93.3s-43.6,90-87.5,92.4v19.3h-25.8v-19.3
		c-43.3-2.8-87.2-25.8-87.2-91.2c0-67.8,47.9-92.1,87.8-94.6v-18.4H1128.2z M1102.4,1710.5c-27,1.5-59.9,20.3-59.9,74
		c0,49.4,29.5,70.3,59.9,73.4V1710.5z M1127.9,1857.9c29.8-2.5,59.9-22.4,59.9-73.7c0-53.1-30.1-72.1-59.9-73.7V1857.9z"/>
	<path class="st23" d="M1356.9,1791h-80.4v74.6h89.6v22.4h-116.4V1681h111.8v22.4h-85v65.4h80.4V1791z"/>
	<path class="st23" d="M1545.4,1881.2c-9.8,4.9-29.5,9.8-54.6,9.8c-58.3,0-102.2-36.8-102.2-104.7c0-64.8,43.9-108.7,108.1-108.7
		c25.8,0,42.1,5.5,49.1,9.2l-6.4,21.8c-10.1-4.9-24.6-8.6-41.8-8.6c-48.5,0-80.7,31-80.7,85.3c0,50.7,29.2,83.2,79.5,83.2
		c16.3,0,32.8-3.4,43.6-8.6L1545.4,1881.2z"/>
	<path class="st23" d="M1604,1681v87.2c0,32.8-0.6,59.9-2.5,87.5l0.6,0.3c10.4-21.5,23.3-43.9,38.4-68.5l66.9-106.5h26.7V1888H1709
		v-88.1c0-33.5,0.3-58,2.5-84.1l-0.9-0.3c-10.1,22.7-24.3,46.7-38.4,69.7l-64.8,102.8h-28.6V1681H1604z"/>
	<path class="st23" d="M1957.7,1782.4c0,71.2-43.3,109-96.1,109c-54.6,0-93-42.4-93-105c0-65.7,40.8-108.7,96.1-108.7
		C1921.1,1677.7,1957.7,1721,1957.7,1782.4z M1797.1,1785.7c0,44.2,23.9,83.8,66,83.8c42.4,0,66.3-39,66.3-86
		c0-41.1-21.5-84.1-66-84.1C1819.2,1699.5,1797.1,1740.3,1797.1,1785.7z"/>
	<path class="st23" d="M2019.1,1681v86.6h100.1V1681h27V1888h-27v-97h-100.1v97h-26.7V1681H2019.1z"/>
	<path class="st23" d="M2226,1822.9l-21.5,65.1h-27.6l70.3-206.9h32.2L2350,1888h-28.6l-22.1-65.1H2226z M2293.8,1802l-20.3-59.6
		c-4.6-13.5-7.7-25.8-10.7-37.8h-0.6c-3.1,12.3-6.4,24.9-10.4,37.5l-20.3,59.9H2293.8z"/>
	<path class="st23" d="M2526.8,1681V1888h-27v-184.5h-68.5v62.6c0,44.8-1.8,94.9-31,114.5c-7.7,4.9-19.6,9.8-31.6,9.8l-3.4-21.5
		c8.3-1.5,16.9-6.4,21.8-11.1c16.6-16.3,18.1-56.5,18.1-89.6V1681H2526.8z"/>
	<path class="st23" d="M2598.4,1681v87.2c0,32.8-0.6,59.9-2.5,87.5l0.6,0.3c10.4-21.5,23.3-43.9,38.4-68.5l66.9-106.5h26.7V1888
		h-25.2v-88.1c0-33.5,0.3-58,2.5-84.1l-0.9-0.3c-10.1,22.7-24.3,46.7-38.4,69.7l-64.8,102.8h-28.6V1681H2598.4z"/>
	<path class="st23" d="M2919.8,1881.2c-9.8,4.9-29.5,9.8-54.6,9.8c-58.3,0-102.2-36.8-102.2-104.7c0-64.8,43.9-108.7,108.1-108.7
		c25.8,0,42.1,5.5,49.1,9.2l-6.4,21.8c-10.1-4.9-24.6-8.6-41.8-8.6c-48.5,0-80.7,31-80.7,85.3c0,50.7,29.2,83.2,79.5,83.2
		c16.3,0,32.8-3.4,43.6-8.6L2919.8,1881.2z"/>
	<path class="st23" d="M3003.3,1703.8h-62.9V1681h153.2v22.7h-63.2V1888h-27V1703.8z"/>
	<path class="st23" d="M3141.7,1681v87.2c0,32.8-0.6,59.9-2.5,87.5l0.6,0.3c10.4-21.5,23.3-43.9,38.4-68.5l66.9-106.5h26.7V1888
		h-25.2v-88.1c0-33.5,0.3-58,2.5-84.1l-0.9-0.3c-10.1,22.7-24.3,46.7-38.4,69.7l-64.8,102.8h-28.6V1681H3141.7z"/>
	<path class="st23" d="M3533.2,1681V1888h-26.7v-184.5h-96.1V1888h-26.7V1681H3533.2z"/>
	<path class="st23" d="M3756.7,1782.4c0,71.2-43.3,109-96.1,109c-54.6,0-93-42.4-93-105c0-65.7,40.8-108.7,96.1-108.7
		C3720.1,1677.7,3756.7,1721,3756.7,1782.4z M3596.1,1785.7c0,44.2,23.9,83.8,66,83.8c42.4,0,66.3-39,66.3-86
		c0-41.1-21.5-84.1-66-84.1C3618.2,1699.5,3596.1,1740.3,3596.1,1785.7z"/>
	<path class="st23" d="M4005.9,1681V1888h-26.7v-184.5h-96.1V1888h-26.7V1681H4005.9z"/>
	<path class="st23" d="M4052.6,1683.5c12.9-2.1,29.8-4,51.3-4c26.4,0,45.7,6.1,58,17.2c11.4,9.8,18.1,24.9,18.1,43.3
		c0,18.7-5.5,33.5-16,44.2c-14.1,15-37.1,22.7-63.2,22.7c-8,0-15.3-0.3-21.5-1.8v82.9h-26.7V1683.5z M4079.3,1783.3
		c5.8,1.5,13.2,2.1,22.1,2.1c32.2,0,51.9-15.7,51.9-44.2c0-27.3-19.3-40.5-48.8-40.5c-11.7,0-20.6,0.9-25.2,2.1V1783.3z"/>
	<path class="st23" d="M4323.1,1791h-80.4v74.6h89.6v22.4h-116.4V1681h111.8v22.4h-85v65.4h80.4V1791z"/>
	<path class="st23" d="M4541.3,1797.1c-1.5-28.9-3.4-63.6-3.1-89.3h-0.9c-7.1,24.3-15.7,50-26.1,78.6l-36.5,100.4h-20.3l-33.5-98.5
		c-9.8-29.2-18.1-55.9-23.9-80.4h-0.6c-0.6,25.8-2.1,60.5-4,91.5l-5.5,88.7h-25.5l14.4-206.9h34.1l35.3,100.1
		c8.6,25.5,15.7,48.2,20.9,69.7h0.9c5.2-20.9,12.6-43.6,21.8-69.7l36.8-100.1h34.1l12.9,206.9h-26.1L4541.3,1797.1z"/>
	<path class="st23" d="M4720.9,1791h-80.4v74.6h89.6v22.4h-116.4V1681h111.8v22.4h-85v65.4h80.4V1791z"/>
	<path class="st23" d="M4909.4,1881.2c-9.8,4.9-29.5,9.8-54.6,9.8c-58.3,0-102.2-36.8-102.2-104.7c0-64.8,43.9-108.7,108.1-108.7
		c25.8,0,42.1,5.5,49.1,9.2l-6.4,21.8c-10.1-4.9-24.6-8.6-41.8-8.6c-48.5,0-80.7,31-80.7,85.3c0,50.7,29.2,83.2,79.5,83.2
		c16.3,0,32.8-3.4,43.6-8.6L4909.4,1881.2z"/>
	<path class="st23" d="M4992.9,1703.8H4930V1681h153.2v22.7h-63.2V1888h-27V1703.8z"/>
	<path class="st23" d="M5106.2,1683.8c11.7-2.5,30.1-4.3,48.8-4.3c26.7,0,43.9,4.6,56.8,15c10.7,8,17.2,20.3,17.2,36.5
		c0,20-13.2,37.5-35,45.4v0.6c19.6,4.9,42.7,21.2,42.7,51.9c0,17.8-7.1,31.3-17.5,41.4c-14.4,13.2-37.8,19.3-71.5,19.3
		c-18.4,0-32.5-1.2-41.4-2.5V1683.8z M5132.9,1768.5h24.3c28.2,0,44.8-14.7,44.8-34.7c0-24.3-18.4-33.8-45.4-33.8
		c-12.3,0-19.3,0.9-23.6,1.8V1768.5z M5132.9,1867.7c5.2,0.9,12.9,1.2,22.4,1.2c27.6,0,53.1-10.1,53.1-40.2
		c0-28.2-24.3-39.9-53.4-39.9h-22.1V1867.7z"/>
	<path class="st23" d="M5306.1,1822.9l-21.5,65.1h-27.6l70.3-206.9h32.2l70.6,206.9h-28.6l-22.1-65.1H5306.1z M5373.9,1802
		l-20.3-59.6c-4.6-13.5-7.7-25.8-10.7-37.8h-0.6c-3.1,12.3-6.4,24.9-10.4,37.5l-20.3,59.9H5373.9z"/>
	<path class="st23" d="M5487.2,1681v86.6h100.1V1681h27V1888h-27v-97h-100.1v97h-26.7V1681H5487.2z"/>
	<path class="st23" d="M5767.8,1791h-80.4v74.6h89.6v22.4h-116.4V1681h111.8v22.4h-85v65.4h80.4V1791z"/>
	<path class="st23" d="M5852.5,1703.8h-62.9V1681h153.2v22.7h-63.2V1888h-27V1703.8z"/>
	<path class="st23" d="M6131.9,1782.4c0,71.2-43.3,109-96.1,109c-54.6,0-93-42.4-93-105c0-65.7,40.8-108.7,96.1-108.7
		C6095.3,1677.7,6131.9,1721,6131.9,1782.4z M5971.3,1785.7c0,44.2,23.9,83.8,66,83.8c42.4,0,66.3-39,66.3-86
		c0-41.1-21.5-84.1-66-84.1C5993.4,1699.5,5971.3,1740.3,5971.3,1785.7z"/>
</g>
</svg>
