<?xml version="1.0" encoding="utf-8"?>
<!-- Generator: Adobe Illustrator 25.2.1, SVG Export Plug-In . SVG Version: 6.00 Build 0)  -->
<svg version="1.1" id="Layer_1" xmlns="http://www.w3.org/2000/svg" xmlns:xlink="http://www.w3.org/1999/xlink" x="0px" y="0px"
	 viewBox="0 0 6490 1508" style="enable-background:new 0 0 6490 1508;" xml:space="preserve">
<style type="text/css">
	.st0{fill:#930224;}
	.st1{fill:#114B7D;}
	.st2{fill:#FFFFFF;stroke:#000000;stroke-miterlimit:10;}
	.st3{stroke:#000000;stroke-miterlimit:10;}
	.st4{fill:#A8A8A8;}
	.st5{fill:#333333;stroke:#000000;stroke-width:3;stroke-miterlimit:10;}
	.st6{fill:#666666;stroke:#000000;stroke-miterlimit:10;}
	.st7{fill:#666666;stroke:#000000;stroke-width:5;stroke-miterlimit:10;}
	.st8{fill:#1A1A1A;}
	.st9{fill:#040404;}
	.st10{fill:#050505;}
	.st11{fill:#060606;}
	.st12{fill:#0F0F0F;}
	.st13{fill:#151515;}
	.st14{fill:#1F1F1F;}
	.st15{fill:#2A2A2A;stroke:#000000;stroke-miterlimit:10;}
	.st16{fill:#272727;stroke:#000000;stroke-miterlimit:10;}
	.st17{fill:#646464;stroke:#000000;stroke-miterlimit:10;}
	.st18{fill:#080808;stroke:#000000;stroke-miterlimit:10;}
	.st19{fill:#080707;}
	.st20{fill:#252525;stroke:#000000;stroke-miterlimit:10;}
	.st21{fill:#1E1E1E;}
	.st22{fill:none;}
	.st23{fill:#FFFFFF;}
	.st24{fill:#00788A;}
</style>
<g>
	<g>
		<path d="M457,1437c-53.7,0-105.8-10.5-154.9-31.3c-47.4-20-90-48.7-126.5-85.3c-36.6-36.6-65.2-79.1-85.3-126.5
			C69.5,1144.9,59,1092.7,59,1039V447c0-53.7,10.5-105.8,31.3-154.9c20-47.4,48.7-90,85.3-126.5c36.6-36.6,79.1-65.2,126.5-85.3
			C351.1,59.5,403.3,49,457,49h592c53.7,0,105.8,10.5,154.9,31.3c47.4,20,90,48.7,126.5,85.3c36.6,36.6,65.2,79.1,85.3,126.5
			c20.8,49.1,31.3,101.2,31.3,154.9v592c0,53.7-10.5,105.8-31.3,154.9c-20,47.4-48.7,90-85.3,126.5s-79.1,65.2-126.5,85.3
			c-49.1,20.8-101.2,31.3-154.9,31.3H457z"/>
		<path d="M1049,51c53.5,0,105.3,10.5,154.1,31.1c47.2,19.9,89.5,48.5,125.9,84.9c36.4,36.4,64.9,78.7,84.9,125.9
			c20.6,48.8,31.1,100.7,31.1,154.1v592c0,53.5-10.5,105.3-31.1,154.1c-19.9,47.2-48.5,89.5-84.9,125.9
			c-36.4,36.4-78.7,64.9-125.9,84.9c-48.8,20.6-100.7,31.1-154.1,31.1H457c-53.5,0-105.3-10.5-154.1-31.1
			c-47.2-19.9-89.5-48.5-125.9-84.9c-36.4-36.4-64.9-78.7-84.9-125.9C71.5,1144.3,61,1092.5,61,1039V447
			c0-53.5,10.5-105.3,31.1-154.1c19.9-47.2,48.5-89.5,84.9-125.9c36.4-36.4,78.7-64.9,125.9-84.9C351.7,61.5,403.5,51,457,51H1049
			 M1049,47H457C236.1,47,57,226.1,57,447v592c0,220.9,179.1,400,400,400h592c220.9,0,400-179.1,400-400V447
			C1449,226.1,1269.9,47,1049,47L1049,47z"/>
	</g>
	<g>
		<path class="st0" d="M457,1344.4c-81.6,0-158.2-31.8-215.9-89.4c-57.7-57.7-89.4-134.4-89.4-215.9V447
			c0-81.6,31.8-158.2,89.4-215.9c57.7-57.7,134.4-89.4,215.9-89.4h592c81.6,0,158.2,31.8,215.9,89.4
			c57.7,57.7,89.4,134.4,89.4,215.9v592c0,81.6-31.8,158.2-89.4,215.9c-57.7,57.7-134.4,89.4-215.9,89.4H457z"/>
		<path d="M1049,143.6c41,0,80.7,8,118.1,23.8c36.1,15.3,68.6,37.2,96.4,65c27.9,27.9,49.7,60.3,65,96.4
			c15.8,37.4,23.8,77.1,23.8,118.1v592c0,41-8,80.7-23.8,118.1c-15.3,36.1-37.2,68.6-65,96.4c-27.9,27.9-60.3,49.7-96.4,65
			c-37.4,15.8-77.1,23.8-118.1,23.8H457c-41,0-80.7-8-118.1-23.8c-36.1-15.3-68.6-37.2-96.4-65c-27.9-27.9-49.7-60.3-65-96.4
			c-15.8-37.4-23.8-77.1-23.8-118.1V447c0-41,8-80.7,23.8-118.1c15.3-36.1,37.2-68.6,65-96.4c27.9-27.9,60.3-49.7,96.4-65
			c37.4-15.8,77.1-23.8,118.1-23.8H1049 M1049,139.6H457c-169.7,0-307.3,137.6-307.3,307.3v592c0,169.7,137.6,307.3,307.3,307.3h592
			c169.7,0,307.3-137.6,307.3-307.3V447C1356.4,277.2,1218.8,139.6,1049,139.6L1049,139.6z"/>
	</g>
	<g>
		<g>
			<path class="st1" d="M457,1407.7c-49.8,0-98.1-9.7-143.5-29c-43.9-18.6-83.3-45.2-117.2-79s-60.5-73.3-79-117.2
				c-19.2-45.5-29-93.7-29-143.5V447c0-49.8,9.7-98.1,29-143.5c18.6-43.9,45.2-83.3,79-117.2s73.3-60.5,117.2-79
				c45.5-19.2,93.7-29,143.5-29h592c49.8,0,98.1,9.7,143.5,29c43.9,18.6,83.3,45.2,117.2,79s60.5,73.3,79,117.2
				c19.2,45.5,29,93.7,29,143.5v592c0,49.8-9.7,98.1-29,143.5c-18.6,43.9-45.2,83.3-79,117.2s-73.3,60.5-117.2,79
				c-45.5,19.2-93.7,29-143.5,29H457z"/>
			<path d="M1049,80.3c49.5,0,97.5,9.7,142.7,28.8c43.7,18.5,82.9,44.9,116.6,78.6c33.7,33.7,60.1,72.9,78.6,116.6
				c19.1,45.2,28.8,93.2,28.8,142.7v592c0,49.5-9.7,97.5-28.8,142.7c-18.5,43.7-44.9,82.9-78.6,116.6
				c-33.7,33.7-72.9,60.1-116.6,78.6c-45.2,19.1-93.2,28.8-142.7,28.8H457c-49.5,0-97.5-9.7-142.7-28.8
				c-43.7-18.5-82.9-44.9-116.6-78.6c-33.7-33.7-60.1-72.9-78.6-116.6c-19.1-45.2-28.8-93.2-28.8-142.7V447
				c0-49.5,9.7-97.5,28.8-142.7c18.5-43.7,44.9-82.9,78.6-116.6c33.7-33.7,72.9-60.1,116.6-78.6c45.2-19.1,93.2-28.8,142.7-28.8
				H1049 M1049,76.3H457c-204.7,0-370.7,166-370.7,370.7v592c0,204.7,166,370.7,370.7,370.7h592c204.7,0,370.7-166,370.7-370.7V447
				C1419.7,242.2,1253.8,76.3,1049,76.3L1049,76.3z"/>
		</g>
	</g>
</g>
<g>
	<path class="st3" d="M977.9,873.4c1-2.2-0.3-1.5-0.4-1.3c-0.7,0.8-0.3,0.2-0.9,1c-3.3,3.9-3.7,6.4-5,10.3
		c-8.4,19.4-17.1,38.7-25.1,58.3c-2.3,5.6-5.2,8.3-11.5,9.1c-83.5,11.2-165.6,10.3-243.9-23.8c-7.8-3.4-15.5-7.7-22-12.9
		c-8.6-6.9-14.6-5.4-21.9,1.8c-32,31.4-59.1,66.6-89.2,99.5c-29.5,32.2-42.2,68.9-47.3,109.5c-1.7,13.2-4.5,26.2-7.3,39.2
		c-1.5,6.8-0.9,12.1,5.2,17.2c7.1,6,13.7,12.8,19.4,20c5.3,6.7,6.1,12.7-5,16.8c-34.3,12.4-68.2,22-106.3,20.9
		c-71.1-2.1-142.3-0.8-213.5-0.4c-9.6,0-12.2-1.5-10.6-11.2c5.1-32.2,6.2-65,14.4-96.7c13.7-52.8,35.2-103.4,54.7-154.4
		c41.7-108.8,92.2-214,144.4-318.7c12.4-24.8,25.6-49.2,38.3-73.8c1.3-2.6,2.1-5.4,2.3-8.6c-14.8,11.9-26.6,26.1-37.5,40.9
		c-13.5,18.4-27,36.7-40.3,55.2c-5.2,7.2-10.9,11.9-20.4,6.6C310.1,656,273.2,632.8,252,594c-4.8-8.7-9.3-17.6-13.2-26.8
		c-8.1-19-11.7-36.7,12.8-49.2c8.9-4.6,14.9-13.8,22.9-20.2c9.6-7.7,19.5-14.2,12.4-28.8c-2.9-5.9,4.4-11.6,8.1-16.5
		c3.2-4.2,6.6-8.3,10.8-11.7c6.9-5.7,8.1-10.7,4-18.2c-9.5-17.3-8.3-23.5,5.9-37.9c26.7-27.1,51-55.3,69.7-88.5
		c17.5-31.1,46.2-55.2,72.6-80.2c7.3-6.9,14.9-4.6,22.8-1.7c57.2,21.2,105.9,54.1,148.5,95.2c22,21.2,43.9,42.7,65.9,63.9
		c8.3,8.1,37,10.8,46.2,4.7c4.1-2.7,3.7-6.6,3.8-10.4c1.3-47.8,18.3-90.1,48.6-128.6c13.8-17.5,37.5-31.7,62.9-21.9
		c8.7,3.3,13.4-0.4,17.7-7.3c19.1-31.4,46-53.8,84.1-63.5c16-4.1,31.7-3,47.7-1.1c68.9,8,129.7,35.2,187.2,69.7
		c42,25.2,82.7,52.3,118.2,85.6c54.5,51.2,57.7,112.1,15.8,172.7c-4.8,6.9-3.6,11.7,1.2,17.2c6.7,7.6,13.4,15.4,16.2,25.1
		c6.1,21.1-0.2,39.2-16.8,53.8c-26.4,23.2-53.3,45.8-79.5,68.2c25.2,24.2,50.6,48.5,76,72.9c3.8,3.7,7.7,7.4,11.3,11.3
		c10.9,11.8,11.6,19.1,2.6,32.4c-17.1,25.3-34.6,50.3-49.6,76.9c-7.2,12.7-7.7,24.3-1.3,36.7c12.8,24.6,25.1,49.5,38.9,73.6
		c17.8,30.9,17.4,64.2,18.3,97.6c1.4,49.7-9,98.1-16.9,146.8c-2.1,13.1-4.5,26.3-5.7,39.5c-0.6,6.8-3.5,8.1-10.2,8.1
		c-94.1,0.6-188.2,1.5-282.3,2.3c-3.9,0-8.8,1.8-11-2.9c-2.1-4.4,0-8.7,3.3-11.7c7.8-7.3,15.5-14.8,24.2-20.9
		c7.7-5.4,9.3-10.1,4.2-18c-41.5-64.4-60.2-136.4-78.8-208.3c-7.3-28.2-3.5-57.1,2.5-85.4"/>
	<path class="st5" d="M1039.3,1224.8c8.4-5.7,15.4-10.9,22.9-15.4c7.5-4.5,9.5-9.4,5.1-17.1c-11.1-19.6-21.5-39.7-32.6-59.3
		c-20-35.1-28.5-73.9-41.5-111.2c-18.9-54.2-16.6-108.9-4.1-163.8c0.9-3.9,4.2-9.6-0.5-11.7c-6-2.7-8,4-10.5,7.5
		c-15.7,22.3-27.4,46.4-35,72.1c-3.1,10.6-8.7,17.4-21.2,18.6c-65.5,6.2-130.1,3.1-193.3-15.3c-17.1-5-33.2-12.1-48-21.8
		c-13.2-8.6-14.6-15.5-5.1-27.7c27.7-35.7,53.5-72.6,77-110.9c5.6-9.2,5.6-9.2,3.5-18.7c-14.4,14.1-24.5,30.2-35.6,45.4
		c-26.5,36-51.4,72.9-77.7,109c-18.9,25.9-44,47.1-64.8,71.6c-35,41.2-71.9,81.1-101.4,126.1c-16.5,25.1-27.9,51.9-34.2,80.7
		c-3.5,16-3.4,16,6.9,43.3c-2.1,3.1-5.7,2.2-8.6,2c-72.5-5-145-1.8-217.5,0c-11.1,0.3-13.3-2.7-12.8-12.6
		c3-53,16.3-103.6,32.3-154.4c24.4-77.8,58.3-152.1,88.9-227.6c33.3-82,74.8-160.7,119.4-237.9c10.7-18.5,19.6-37.6,25.8-57.9
		c1.1-3.5,1.4-7.2,2.3-12.1c-11.5,3.2-15.8,11.9-22,18.1c-31.2,31.4-59.7,64.7-82.3,102.4c-13.4,22.4-15,21.5-39.5,10.3
		c-38.9-17.7-69.2-43-84.7-81.9c-0.5-1.2-1.1-2.3-1.5-3.6c-8.2-26.1-2.2-39.9,28.1-31.2c13.5,3.9,27.8,5.2,41.6,8.4
		c8.7,2,12.9-1.5,15.4-8.6c2.7-7.9-3.9-9.6-9.3-11.5c-12.4-4.5-24.8-8.7-37.3-12.8c-8-2.7-10.3-5.5-2.8-12
		c8.2-7,17.7-12.1,26.5-18.3c1.7-1.2,4.6-2.1,3-4.7c-0.6-1-3.6-2.1-4.4-1.6c-5.2,3.1-8.7,3.4-11.8-2.7c-3-5.8-2.9-10.9,1.6-15.4
		c8.7-8.8,17.5-17.5,26.6-26c6.9-6.4,11.7-11.1-2.4-15.3c-13.4-4-14.6-9.2-7.3-20.2c7.3-11.1,18.8-18.7,27.9-28.3
		c10.3-10.9,21.4-21.2,32.1-31.9c6.7-6.7,15.6-12.2,10.2-23.9c-2-4.4,1.2-9.1,4.3-13c14-17.5,27.1-35.6,42.8-51.9
		c9.4-9.7,20.3-17,33.6-21.5c10.3-3.4,19.5-3.1,28.9,2.1C554.1,263.1,610.3,297,653,346.7c11.2,13,22.8,25.8,33.6,39.1
		c6.4,7.8,14.1,10.5,24,8.1c65-15.5,114.5,12.2,157.6,52.3c31.8,29.7,54.1,66.5,77.1,102.4c6.3,9.9,13.3,19.5,19.7,29.4
		c4.8,7.5,6.7,13.6-3.9,20c-16.4,9.9-29.1,23.8-41.7,40.8c24.1-8.2,40.9-23.3,61.1-32.9c29.9-14.3,61.1-25.1,93.3-33.5
		c10.9-2.8,21.6-1.8,31.8,3.7c41.7,22.3,83.6,44.3,123.7,69.1c30.5,18.9,53.8,45.2,80.1,68.5c23.4,20.7,22.4,20.7,5.8,47
		c-15.3,24.3-29.3,49.3-43.5,74.2c-7.4,13.1-3.4,25.9,3,38.1c10.5,19.9,23.1,38.9,31.8,59.6c19.4,46.5,30.2,93.8,22.8,144.4
		c-6.4,43.3-9.7,87-14.1,130.5c-0.9,8.9-5.1,12.9-14.6,13.4c-85.3,4.5-170.6,5.5-256,5.2C1043.6,1226.2,1042.4,1225.6,1039.3,1224.8
		z"/>
	<path class="st6" d="M1345.5,390.4c1.5,23.9-9.1,45.5-17.5,67.7c-3.3,8.8-9.3,6.5-16.4,3.7c-28.7-11-55.6-8-79.9,10.4
		c-4.2,3.2-8,7.2-11.3,11.2c-10.7,13.2-10.5,13.2-25.1,2.3c-33.8-25.3-69.9-46.5-111.6-59.3c-21.7-6.7-41-17.8-56.8-34.6
		c-29.1-30.7-68.5-48.2-106.2-67.4c-2-1-4.1-2-6.1-3c-17.9-9-17.7-9-10-26.8c11.7-27.1,6.5-52.3-11.3-75.3
		c-7.8-10-6.8-16.8,2.3-25.3c36-33.7,75.8-50.4,128.8-38c87.8,20.5,163.9,59.9,232.6,113.8c24,18.8,47.4,37.8,66.8,60.9
		C1338.6,348.3,1347.1,367.4,1345.5,390.4z"/>
	<path class="st6" d="M857.7,225.2c10.9,1.1,24.8-7.1,32.9,5c10.9,16.4,16.1,34.5,10.1,54c-2.6,8.3-6.5,16.1-12.6,22.6
		c-7.3,7.8-6,11.9,4.7,15.2c35.1,10.7,67.1,27.1,97.1,47.1c12.4,8.3,23.8,17.5,32.5,29.3c14,18.9,34.8,28.7,56.8,36.5
		c34.8,12.3,68,27.3,99.1,46.4c10.1,6.2,19.3,13.1,26.9,21.8c5.7,6.6,8.8,5.9,13.8-1.2c18.9-26.6,44.4-41.6,80.1-35.9
		c5,0.8,11.4,0.9,10.8,7.2c-0.4,5.1-6.3,5.2-10.9,5.6c-7.3,0.7-14.6,1.5-21.9,2.2c-26.4,2.5-45.7,14.1-55.9,37.5
		c-3.7,8.5-7.5,10.4-15.7,3.5c-18.4-15.4-37.6-30.1-56.4-45.2c-22.3-17.8-47.8-31-75.8-37.7c-26.7-6.3-48.2-18.3-64.5-38.3
		c-27.8-34.4-67.2-51.8-108.6-66.5c-11.1-4-22.8-6.6-32.5-13.4c-2.5-1.7-4.7-4.9-7.3-0.1c-1.8,3.3-3,6.7,1.3,8.9
		c3.6,1.8,7.5,3.2,11.4,4.2c50.7,12.5,95.3,34.7,131.1,71.2c8.6,8.8,19.8,15.3,25.2,26.8c1.4,3,4.3,5,8.6,5.6
		c42.8,6,79.5,24.8,113.1,49.1c19.1,13.8,39.6,26.4,54.3,45c5.4,6.9,11.6,6.1,16.7-0.7c3.9-5.2,7.4-10.8,11-16.3
		c17.9-27.4,53.2-36.5,83.6-21.4c24.3,12,31.3,40.7,13.4,59.9c-25.7,27.6-57.2,49.4-85.8,74.1c-6.3,5.4-14.3,4.3-20.3-0.4
		c-47.6-37.9-106.8-57.5-159.1-88.1c-71.4-41.8-143.9-81.8-215.8-122.8c-5.8-3.3-10.4-8.3-15.7-12.5c-18.2-14.3-39.6-20.8-62.9-23
		c-15.6-1.5-18.8-4.9-16.8-18.9c4.9-33.7,13.8-66.4,31.2-96.5C800.3,238.4,820.1,217.7,857.7,225.2z"/>
	<path class="st7" d="M1080.9,558.4c-18.1,9.8-33.7,8.1-48.3-0.7c-31.8-19.2-63.5-38.7-97.3-55c-17.3-8.4-26.8-24.2-39.4-37
		c-5.2-5.3-10-11-13.2-19.4C948,483.2,1013.4,520.2,1080.9,558.4z"/>
	<g>
		<path class="st1" d="M986.5,586.9c-3.6,0-6.3-2.2-8.8-4.5c-7.6-6.8-13.8-15.4-19-26.3c-8.6-17.9-18.7-32.6-30.9-44.9l1.5-1.9
			l110.7,61.8l-14.7,4.5c-12.6,3.8-24.2,7.4-35.9,10.9C988.4,586.8,987.4,586.9,986.5,586.9z"/>
		<g>
			<path d="M929.4,510l74.7,41.7l34.6,19.3c-4.6,1.4-9.1,2.8-13.5,4.1c-12.5,3.8-24.3,7.4-36,10.9c-0.9,0.3-1.8,0.4-2.7,0.4
				c-3,0-5.5-1.7-8.5-4.3c-7.5-6.8-13.7-15.3-18.9-26.2c-8.6-17.8-18.6-32.5-30.7-44.7L929.4,510 M929.1,508.7
				c-0.7,0.9-1.3,1.7-2,2.6c13.3,13.3,23.1,28.5,31.1,45.1c4.6,9.7,10.7,18.9,19.1,26.5c2.7,2.5,5.5,4.6,9.1,4.6
				c0.9,0,1.9-0.1,3-0.5c16.4-4.9,32.8-9.9,51.7-15.7C1002.2,549.5,965.7,529.1,929.1,508.7L929.1,508.7z"/>
		</g>
	</g>
	<path class="st8" d="M510.1,1209.7c-14.7,3-27.2,5.3-39.6,8.2c-7.3,1.7-11.5-1.2-14.2-6.8c-4.3-8.9-5.7-18.3-1.2-27.3
		c13.1-26.1,26.6-52.1,42.4-77.5c-3.9,21-6.9,42.1-12.1,62.8c-3.9,15.5-4.7,27.9,15.3,33.1C503.5,1202.7,505.5,1205.8,510.1,1209.7z
		"/>
	<path class="st6" d="M312.7,541.1c-16.4-2.3-32.1-8.6-48.4-12.9c-2.3-0.6-4.9-1.9-4.1-4.2c1.1-3.6,4.7-3.6,8-2.8
		c15.9,3.9,31.9,7.8,47.8,11.7c2.8,0.7,5.4,2.2,4.9,5.3C320.1,542.6,316.1,540.9,312.7,541.1z"/>
	<path class="st9" d="M639.6,521.1c6.4,67.6-127.5,224.4-167.3,219.7C550.9,683.8,607.8,612.9,639.6,521.1z"/>
	<path class="st10" d="M500.5,381c6.4,1.9,10.3,6.9,15,10.8c16.4,13.6,16,13.6,7.8,32.3c-8.2,18.7-19.3,35.8-30.6,52.8
		c-1.4,2.1-2.1,5.4-5.6,4.5c-3.3-0.8-2.8-4-3.1-6.4c-2.4-18.2,3.4-35.7,5.5-53.5c1.3-11,3.4-22,5.3-33
		C495.3,385.3,495.5,381.5,500.5,381z"/>
	<path class="st9" d="M370.9,434.4c-3.9-1.1-7.7-1.5-10.8-3.2c-7.2-4-17.8-6.7-16.7-16.6c1.1-9.7,12-7.6,19-9.1
		c12-2.7,24.3-4.1,36.4-6.3c5.1-0.9,9.5,0.3,11.9,4.3c2.7,4.5-1.7,7.1-4.8,9.3C394.7,420.7,385.1,431,370.9,434.4z"/>
	<path class="st11" d="M1219.6,742.8c-31-34.7-70.5-57.8-116.9-73.7c9.7-6.2,18-4,25-1.3c37.5,14.6,68.2,37.5,92.2,68.2
		c1,1.2,1.3,2.9,2,4.4C1221.1,741.2,1220.4,742,1219.6,742.8z"/>
	<path class="st8" d="M540.7,292.3c-42.4-24.1-52.2,9.6-67.4,31.7c-5-0.7-4-4-4.4-6c-2.7-15.1,22.2-46.5,38.4-47.9
		C523.9,268.6,532.6,279.1,540.7,292.3z"/>
	<path class="st12" d="M559.1,726c45.8-33.8,76.4-75.3,95.9-124.3C651.7,641.7,591.3,721.1,559.1,726z"/>
	<path class="st13" d="M828.9,898.9c-36.6-1.7-80.4-12.3-97.7-25.1c36.9,8.4,69.9,19.5,104.7,22.5
		C835.4,901.6,831.6,898.9,828.9,898.9z"/>
	<path class="st14" d="M828.9,898.9c2.3-0.9,4.6-1.7,6.9-2.6c25,0,50,0,75.1,0c0,1.5,0,3,0,4.5C883.5,906.2,856.2,903.8,828.9,898.9
		z"/>
	<path class="st15" d="M1178.6,410.6c-0.2-25.5,35-70.6,65-82.9C1212.3,348.8,1192.9,377.8,1178.6,410.6z"/>
	<path class="st16" d="M1056.7,247.5c-13.2,28.9-31.8,53.5-62.3,68.5c24.4-20.4,47.1-42.1,60-71.1
		C1056.9,244.5,1057.8,245.2,1056.7,247.5z"/>
	<path class="st17" d="M1056.7,247.5c-0.8-0.9-1.5-1.7-2.3-2.6c2.1-6.3,4.2-12.5,6.3-18.8C1062.7,234,1061.8,241.2,1056.7,247.5z"/>
	<path class="st18" d="M853.8,247.7c-40.8,26.1-50,66.9-63.4,105.9c-3.1-19.1,3.8-43.9,20.1-72.3c3.4-6,6.9-12,10.3-18.1
		C828.7,249.1,835,246,853.8,247.7z"/>
	<path class="st19" d="M1216.9,594c38.6-19.9,77.4-37.4,95.5-78.7c5.1,9.7,6.1,18.8-2.1,26.3c-24,21.9-49.5,41.7-81.8,52.3
		C1224.8,595,1221.3,594.9,1216.9,594z"/>
	<path class="st20" d="M879.7,358c27.8,33.2,62.9,52.8,103.4,67.4C958.7,429.6,887.3,383.5,879.7,358z"/>
	<path class="st21" d="M1165.5,532.4c-43-9.5-77.2-32.1-105.1-64C1090.7,496.6,1125.9,517.8,1165.5,532.4z"/>
	<path class="st6" d="M502,389.5c19.9,16.2,19.9,16.2,8.9,34.9c-5.7,9.6-11.1,19.4-18.5,28.5C495.5,432.3,498.6,411.7,502,389.5z"/>
	<path class="st6" d="M362.2,417.7c8.1-2.1,15.7-4,24-6.2C380.1,427.3,374.5,428.7,362.2,417.7z"/>
</g>
<g>
	<rect x="1527.3" y="1152.3" class="st22" width="5904.7" height="286.7"/>
	<path class="st23" d="M1584.2,1164.8v98.4h113.8v-98.4h30.7V1400h-30.7v-110.3h-113.8V1400h-30.4v-235.2H1584.2z"/>
	<path class="st23" d="M1810,1164.8v99.1c0,37.3-0.7,68.1-2.8,99.5l0.7,0.3c11.9-24.4,26.5-49.9,43.6-77.8l76.1-121.1h30.4V1400
		h-28.6v-100.2c0-38,0.3-66,2.8-95.6l-1-0.3c-11.5,25.8-27.6,53-43.6,79.2l-73.6,116.9h-32.5v-235.2H1810z"/>
	<path class="st23" d="M2132.8,1289.8h-91.4v84.8h101.9v25.5H2011v-235.2h127v25.5h-96.7v74.3h91.4V1289.8z"/>
	<path class="st23" d="M2454.9,1296.7c-1.7-32.8-3.8-72.2-3.5-101.6h-1c-8,27.6-17.8,56.9-29.7,89.3l-41.5,114.1h-23l-38-112
		c-11.2-33.2-20.6-63.5-27.2-91.4h-0.7c-0.7,29.3-2.4,68.8-4.5,104l-6.3,100.9h-29l16.4-235.2h38.7l40.1,113.8
		c9.8,29,17.8,54.8,23.7,79.2h1c5.9-23.7,14.3-49.6,24.8-79.2l41.9-113.8h38.7l14.7,235.2h-29.7L2454.9,1296.7z"/>
	<path class="st23" d="M2659.1,1289.8h-91.4v84.8h101.9v25.5h-132.3v-235.2h127v25.5h-96.7v74.3h91.4V1289.8z"/>
	<path class="st23" d="M2873.3,1392.4c-11.2,5.6-33.5,11.2-62.1,11.2c-66.3,0-116.2-41.9-116.2-119c0-73.6,49.9-123.5,122.8-123.5
		c29.3,0,47.8,6.3,55.8,10.5l-7.3,24.8c-11.5-5.6-27.9-9.8-47.5-9.8c-55.1,0-91.8,35.2-91.8,97c0,57.6,33.2,94.6,90.4,94.6
		c18.5,0,37.3-3.8,49.6-9.8L2873.3,1392.4z"/>
	<path class="st23" d="M2968.3,1190.6h-71.5v-25.8h174.2v25.8H2999V1400h-30.7V1190.6z"/>
	<path class="st23" d="M3125.7,1164.8v99.1c0,37.3-0.7,68.1-2.8,99.5l0.7,0.3c11.9-24.4,26.5-49.9,43.6-77.8l76.1-121.1h30.4V1400
		H3245v-100.2c0-38,0.3-66,2.8-95.6l-1-0.3c-11.5,25.8-27.6,53-43.6,79.2l-73.6,116.9H3097v-235.2H3125.7z"/>
	<path class="st23" d="M3524.9,1296.7c-1.7-32.8-3.8-72.2-3.5-101.6h-1c-8,27.6-17.8,56.9-29.7,89.3l-41.5,114.1h-23l-38-112
		c-11.2-33.2-20.6-63.5-27.2-91.4h-0.7c-0.7,29.3-2.4,68.8-4.5,104l-6.3,100.9h-29l16.4-235.2h38.7l40.1,113.8
		c9.8,29,17.8,54.8,23.7,79.2h1c5.9-23.7,14.3-49.6,24.8-79.2l41.9-113.8h38.7l14.7,235.2h-29.7L3524.9,1296.7z"/>
	<path class="st23" d="M3681.2,1168c13.3-2.8,34.2-4.9,55.5-4.9c30.4,0,49.9,5.2,64.6,17.1c12.2,9.1,19.5,23,19.5,41.5
		c0,22.7-15,42.6-39.8,51.7v0.7c22.3,5.6,48.5,24.1,48.5,59c0,20.2-8,35.6-19.9,47.1c-16.4,15-42.9,22-81.3,22
		c-20.9,0-37-1.4-47.1-2.8V1168z M3711.6,1264.3h27.6c32.1,0,51-16.8,51-39.4c0-27.6-20.9-38.4-51.7-38.4c-14,0-22,1-26.9,2.1
		V1264.3z M3711.6,1377c5.9,1,14.7,1.4,25.5,1.4c31.4,0,60.4-11.5,60.4-45.7c0-32.1-27.6-45.4-60.7-45.4h-25.1V1377z"/>
	<path class="st23" d="M3899,1164.8v99.1c0,37.3-0.7,68.1-2.8,99.5l0.7,0.3c11.9-24.4,26.5-49.9,43.6-77.8l76.1-121.1h30.4V1400
		h-28.6v-100.2c0-38,0.3-66,2.8-95.6l-1-0.3c-11.5,25.8-27.6,53-43.6,79.2l-73.6,116.9h-32.5v-235.2H3899z"/>
	<path class="st23" d="M4221.8,1289.8h-91.4v84.8h101.9v25.5H4100v-235.2h127v25.5h-96.7v74.3h91.4V1289.8z"/>
	<path class="st23" d="M4510.1,1392.4c-11.2,5.6-33.5,11.2-62.1,11.2c-66.3,0-116.2-41.9-116.2-119c0-73.6,49.9-123.5,122.8-123.5
		c29.3,0,47.8,6.3,55.8,10.5l-7.3,24.8c-11.5-5.6-27.9-9.8-47.5-9.8c-55.1,0-91.8,35.2-91.8,97c0,57.6,33.2,94.6,90.4,94.6
		c18.5,0,37.3-3.8,49.6-9.8L4510.1,1392.4z"/>
	<path class="st23" d="M4718.1,1164.8V1400h-30.4v-209.7h-109.2V1400h-30.4v-235.2H4718.1z"/>
	<path class="st23" d="M4893,1289.8h-91.4v84.8h101.9v25.5h-132.3v-235.2h127v25.5h-96.7v74.3h91.4V1289.8z"/>
	<path class="st23" d="M5107.2,1392.4c-11.2,5.6-33.5,11.2-62.1,11.2c-66.3,0-116.2-41.9-116.2-119c0-73.6,49.9-123.5,122.8-123.5
		c29.3,0,47.8,6.3,55.8,10.5l-7.3,24.8c-11.5-5.6-27.9-9.8-47.5-9.8c-55.1,0-91.8,35.2-91.8,97c0,57.6,33.2,94.6,90.4,94.6
		c18.5,0,37.3-3.8,49.6-9.8L5107.2,1392.4z"/>
	<path class="st23" d="M5202.2,1190.6h-71.5v-25.8h174.2v25.8h-71.9V1400h-30.7V1190.6z"/>
	<path class="st23" d="M5307.9,1400c3.5-6.3,6.6-13.6,9.4-21.3c10.1-26.9,16.4-59.7,35.6-78.9c5.6-5.6,12.6-9.8,19.5-11.9v-1
		c-29-4.9-52-25.8-52-57.9c0-20.6,8.4-37,21.6-47.8c14.7-11.9,37.7-18.1,67.4-18.1c19.9,0,40.8,1.7,56.2,4.9V1400h-30.4v-101.9H5413
		c-14.7,0-25.5,3.1-33.9,11.5c-16.1,16.4-22.7,51-31.1,73.3c-2.4,5.9-4.2,10.8-7.7,17.1H5307.9z M5435.3,1189.2
		c-5.2-1-15-2.8-28.6-2.8c-30,0-55.5,11.5-55.5,44c0,28.3,25.1,44.7,58.3,44.7c10.1,0,19.9,0,25.8-0.3V1189.2z"/>
	<path class="st23" d="M5518.7,1168c13.3-2.8,34.2-4.9,55.5-4.9c30.4,0,49.9,5.2,64.6,17.1c12.2,9.1,19.5,23,19.5,41.5
		c0,22.7-15,42.6-39.8,51.7v0.7c22.3,5.6,48.5,24.1,48.5,59c0,20.2-8,35.6-19.9,47.1c-16.4,15-42.9,22-81.3,22
		c-20.9,0-37-1.4-47.1-2.8V1168z M5549.1,1264.3h27.6c32.1,0,51-16.8,51-39.4c0-27.6-20.9-38.4-51.7-38.4c-14,0-22,1-26.9,2.1
		V1264.3z M5549.1,1377c5.9,1,14.7,1.4,25.5,1.4c31.4,0,60.4-11.5,60.4-45.7c0-32.1-27.6-45.4-60.7-45.4h-25.1V1377z"/>
	<path class="st23" d="M5745.9,1326.1l-24.4,74h-31.4l79.9-235.2h36.6l80.3,235.2h-32.5l-25.1-74H5745.9z M5823,1302.3l-23-67.7
		c-5.2-15.4-8.7-29.3-12.2-42.9h-0.7c-3.5,14-7.3,28.3-11.9,42.6l-23,68.1H5823z"/>
	<path class="st23" d="M5950.8,1190.6h-71.5v-25.8h174.2v25.8h-71.9V1400h-30.7V1190.6z"/>
	<path class="st23" d="M6201.3,1289.8h-91.4v84.8h101.9v25.5h-132.3v-235.2h127v25.5h-96.7v74.3h91.4V1289.8z"/>
</g>
<g>
	<rect x="1487.3" y="120" class="st22" width="5002.7" height="1090"/>
	<path class="st1" d="M2575.5,111.3V1059h-249.3V686.8l-252.8,356.5h-1.7l-253.4-356.5V1059h-249.3V111.3h100.2l403.1,552.2
		l403.1-552.2H2575.5z"/>
	<path class="st1" d="M2697.8,590.7c0-281.9,223.7-495.7,515.5-495.7c291.8,0,515.5,213.8,515.5,495.7
		c0,279.6-223.7,492.2-516.1,492.2C2920.9,1082.9,2697.8,870.3,2697.8,590.7z M3476.6,588.9c0-145-114.2-256.9-263.3-256.9
		S2950,443.9,2950,588.9c0,144.5,114.2,255.7,263.3,255.7S3476.6,733.4,3476.6,588.9z"/>
	<path class="st1" d="M4673.7,120l-432.8,948.9h-113L3696.8,120h269.7l216.7,508.5L4400.5,120H4673.7z"/>
	<path class="st1" d="M5013.9,351.8v131.1h298.2v208h-298.2v134.6h362.3V1059h-608.7V120h608.7v231.8H5013.9z"/>
	<path class="st1" d="M5743.2,571.5L5461.3,120h285.4l143.9,248.2L6033.9,120h285.4l-283.1,450.9l298.8,488.2h-287.2L5890,781.7
		L5732.7,1059h-287.2L5743.2,571.5z"/>
</g>
</svg>
