<svg id="Layer_1" data-name="Layer 1" xmlns="http://www.w3.org/2000/svg" xmlns:xlink="http://www.w3.org/1999/xlink" viewBox="0 0 1534.6 868.67"><defs><style>.cls-1,.cls-11,.cls-13,.cls-15,.cls-3,.cls-4,.cls-6,.cls-7,.cls-8{fill:none;}.cls-12,.cls-2,.cls-5,.cls-9{isolation:isolate;}.cls-2{font-size:24.17px;}.cls-2,.cls-5{font-family:ArialMT, Arial;}.cls-13,.cls-14,.cls-15,.cls-3,.cls-4,.cls-6,.cls-7,.cls-8{stroke:#000;}.cls-13,.cls-3,.cls-6{stroke-linecap:round;}.cls-11,.cls-14,.cls-15,.cls-3,.cls-6,.cls-7,.cls-8{stroke-miterlimit:10;}.cls-3{stroke-width:8px;}.cls-4{stroke-miterlimit:10;stroke-width:7px;}.cls-5{font-size:30px;}.cls-6{stroke-width:4px;}.cls-7{stroke-width:2px;}.cls-14,.cls-8{stroke-width:1.5px;}.cls-9{font-size:33px;font-family:Mania-Oblique;font-style:oblique;}.cls-10{letter-spacing:-0.04em;}.cls-11{stroke:#fff;}.cls-13{stroke-linejoin:round;stroke-width:0.2px;}.cls-15{stroke-width:2.5px;}</style></defs><rect class="cls-1" x="-1330.83" y="505.52" width="72.3" height="31.8" transform="translate(1139.43 -269.16) rotate(-22)"/><text class="cls-2" transform="translate(101.3 713.88) rotate(-22)">временно</text><polyline class="cls-3" points="4 654.47 48.5 663.47 90.1 751.57"/><line class="cls-3" x1="187.5" y1="734.67" x2="115.6" y2="761.67"/><circle class="cls-3" cx="97.8" cy="769.37" r="17.8"/><rect class="cls-4" x="-1338.95" y="479.53" width="80.7" height="71.3" transform="translate(1141.48 -271.09) rotate(-22)"/><path d="M-1264,344a47,47,0,0,0-.2-5.5h3.2l.2,3.3h.1a7,7,0,0,1,6.4-3.7,6.07,6.07,0,0,1,5.8,4.1h.1a7.32,7.32,0,0,1,2.3-2.6,7.11,7.11,0,0,1,4.5-1.4c2.7,0,6.7,1.8,6.7,8.8v12h-3.6v-11.5c0-3.9-1.4-6.3-4.4-6.3a5,5,0,0,0-4.4,3.4,5.23,5.23,0,0,0-.3,1.8V359h-3.6v-12.2c0-3.2-1.4-5.6-4.2-5.6a5,5,0,0,0-4.6,3.7,5.23,5.23,0,0,0-.3,1.8V359h-3.6V344Z" transform="translate(1429.02 177.85)"/><path d="M-1210.62,348.52c0,7.5-5.2,10.8-10.1,10.8-5.5,0-9.7-4-9.7-10.5,0-6.8,4.5-10.8,10.1-10.8S-1210.62,342.32-1210.62,348.52Zm-16.1.2c0,4.5,2.6,7.8,6.2,7.8s6.2-3.3,6.2-7.9c0-3.4-1.7-7.8-6.1-7.8S-1226.72,344.82-1226.72,348.72Z" transform="translate(1429.02 177.85)"/><path d="M-1184.42,349.32c.1,5,3.3,7.1,7,7.1a15.16,15.16,0,0,0,5.6-1l.6,2.6a16.09,16.09,0,0,1-6.8,1.3c-6.3,0-10-4.1-10-10.2s3.6-11,9.5-11c6.6,0,8.4,5.8,8.4,9.6,0,.8-.1,1.3-.1,1.7h-14.2Zm10.8-2.6c0-2.4-1-6-5.1-6-3.7,0-5.4,3.4-5.7,6Z" transform="translate(1429.02 177.85)"/><path d="M-1163.82,338.52l2.9,4.4c.8,1.1,1.4,2.2,2.1,3.3h.1c.7-1.2,1.3-2.3,2-3.4l2.9-4.3h4l-6.9,9.8,7.1,10.5h-4.2l-3-4.6c-.8-1.2-1.5-2.3-2.2-3.5h-.1c-.7,1.2-1.4,2.3-2.1,3.5l-2.9,4.6h-4.1l7.2-10.4-6.9-10h4.1Z" transform="translate(1429.02 177.85)"/><path d="M-873.62,526.92a45.25,45.25,0,0,0-.2-5.4h3.2l.2,3.2h.1a6.81,6.81,0,0,1,6.2-3.6,5.74,5.74,0,0,1,5.6,4h.1a8.19,8.19,0,0,1,2.2-2.6,6.82,6.82,0,0,1,4.4-1.4c2.6,0,6.5,1.7,6.5,8.6v11.7h-3.5v-11.2c0-3.8-1.4-6.1-4.3-6.1a4.72,4.72,0,0,0-4.3,3.3,4.84,4.84,0,0,0-.3,1.8v12.3h-3.5v-11.9c0-3.2-1.4-5.5-4.1-5.5a5,5,0,0,0-4.5,3.6,4.84,4.84,0,0,0-.3,1.8v12h-3.5v-14.6Z" transform="translate(1429.02 177.85)"/><path d="M-815.82,521.62l3.9,11.2a37.18,37.18,0,0,1,1.6,5.1h.1c.5-1.6,1-3.3,1.7-5.1l3.9-11.2h3.8l-7.8,19.8H-812l-7.5-19.8Z" transform="translate(1429.02 177.85)"/><path d="M-795.92,532.12c.1,4.9,3.2,6.9,6.8,6.9a14.56,14.56,0,0,0,5.5-1l.6,2.6a15.69,15.69,0,0,1-6.6,1.2c-6.1,0-9.8-4-9.8-10s3.5-10.7,9.3-10.7c6.5,0,8.2,5.7,8.2,9.3,0,.7-.1,1.3-.1,1.7Zm10.6-2.6c0-2.3-.9-5.9-5-5.9-3.6,0-5.2,3.4-5.5,5.9Z" transform="translate(1429.02 177.85)"/><path d="M-775.82,521.62l2.8,4.3c.7,1.1,1.4,2.1,2,3.2h.1c.7-1.2,1.3-2.2,2-3.3l2.8-4.2h3.9l-6.8,9.6,7,10.2h-4.1l-2.9-4.5c-.8-1.1-1.4-2.3-2.1-3.4h-.1c-.7,1.2-1.4,2.3-2.1,3.4l-2.9,4.5h-4l7.1-10.1-6.7-9.7Z" transform="translate(1429.02 177.85)"/><rect class="cls-1" x="613.1" y="796.67" width="138.7" height="33.4"/><text class="cls-5" transform="translate(613.11 817.95)">временно</text><path class="cls-6" d="M-721,674.52h-99.3a5.59,5.59,0,0,1-5.6-5.6v-55.6a5.59,5.59,0,0,1,5.6-5.6H-721a5.59,5.59,0,0,1,5.6,5.6v55.6A5.59,5.59,0,0,1-721,674.52Z" transform="translate(1429.02 177.85)"/><circle class="cls-6" cx="634.5" cy="854.07" r="12.6"/><circle class="cls-6" cx="741" cy="854.07" r="12.6"/><path class="cls-6" d="M-663.42,647.52v20.2c0,4-2.8,7.2-6.3,7.2h-38.2c-3.5,0-6.3-3.2-6.3-7.2v-43.6c0-4,2.8-7.2,6.3-7.2h24.2l6.9,8.9" transform="translate(1429.02 177.85)"/><path class="cls-6" d="M-656.22,647.52" transform="translate(1429.02 177.85)"/><line class="cls-6" x1="765.6" y1="825.37" x2="762.7" y2="820.87"/><path class="cls-6" d="M-666.92,643h0a2.36,2.36,0,0,1-2.2,2.5h-26.7A2.36,2.36,0,0,1-698,643v-15.1a2.36,2.36,0,0,1,2.2-2.5h17.5a2.11,2.11,0,0,1,1.8,1.1l9.2,15.1A3.26,3.26,0,0,1-666.92,643Z" transform="translate(1429.02 177.85)"/><line class="cls-7" x1="603.1" y1="828.07" x2="713.6" y2="828.07"/><path d="M-1265.62,292.52a47,47,0,0,0-.2-5.5h3.2l.2,3.3h.1a7,7,0,0,1,6.4-3.7,6.07,6.07,0,0,1,5.8,4.1h.1a7.32,7.32,0,0,1,2.3-2.6,7.11,7.11,0,0,1,4.5-1.4c2.7,0,6.7,1.8,6.7,8.8v12h-3.6V296c0-3.9-1.4-6.3-4.4-6.3a5,5,0,0,0-4.4,3.4,5.23,5.23,0,0,0-.3,1.8v12.6h-3.6v-12.2c0-3.2-1.4-5.6-4.2-5.6a5,5,0,0,0-4.6,3.7,5.23,5.23,0,0,0-.3,1.8v12.3h-3.6v-15Z" transform="translate(1429.02 177.85)"/><path d="M-1212.12,297c0,7.5-5.2,10.8-10.1,10.8-5.5,0-9.7-4-9.7-10.5,0-6.8,4.5-10.8,10.1-10.8S-1212.12,290.82-1212.12,297Zm-16.2.2c0,4.5,2.6,7.8,6.2,7.8s6.2-3.3,6.2-7.9c0-3.4-1.7-7.8-6.1-7.8S-1228.32,293.42-1228.32,297.22Z" transform="translate(1429.02 177.85)"/><path d="M-1185.92,297.92c.1,5,3.3,7.1,7,7.1a15.16,15.16,0,0,0,5.6-1l.6,2.6a16.09,16.09,0,0,1-6.8,1.3c-6.3,0-10-4.1-10-10.2s3.6-11,9.5-11c6.6,0,8.4,5.8,8.4,9.6,0,.8-.1,1.3-.1,1.7h-14.2Zm10.8-2.7c0-2.4-1-6-5.1-6-3.7,0-5.4,3.4-5.7,6Z" transform="translate(1429.02 177.85)"/><path d="M-1165.42,287l2.9,4.4c.8,1.1,1.4,2.2,2.1,3.3h.1c.7-1.2,1.3-2.3,2-3.4l2.9-4.3h4l-6.9,9.8,7.1,10.5h-4.2l-3-4.6c-.8-1.2-1.5-2.3-2.2-3.5h-.1c-.7,1.2-1.4,2.3-2.1,3.5l-2.9,4.6h-4.1l7.2-10.4-6.9-10h4.1Z" transform="translate(1429.02 177.85)"/><path d="M-1247.42,229.62a11.62,11.62,0,0,1,4.2.8,11.05,11.05,0,0,1,3.4,2.2,8.56,8.56,0,0,1,2.3,3.3,11.09,11.09,0,0,1,.9,4v9.8a1.66,1.66,0,0,1-.5,1.2,1.66,1.66,0,0,1-1.2.5,1.66,1.66,0,0,1-1.2-.5,1.66,1.66,0,0,1-.5-1.2v-9.8a6.26,6.26,0,0,0-.6-2.7,6.91,6.91,0,0,0-1.6-2.2,9.74,9.74,0,0,0-2.4-1.5,7.1,7.1,0,0,0-2.9-.5,7.66,7.66,0,0,0-2.5.4,7,7,0,0,0-2.4,1.3,6.46,6.46,0,0,0-1.8,2.2,7.46,7.46,0,0,0-.8,3.1v9.7a1.66,1.66,0,0,1-.5,1.2,1.66,1.66,0,0,1-1.2.5,1.66,1.66,0,0,1-1.2-.5,1.66,1.66,0,0,1-.5-1.2v-9.9a5.19,5.19,0,0,0-.7-2.7,7.35,7.35,0,0,0-1.6-2.2,9.74,9.74,0,0,0-2.4-1.5,7.1,7.1,0,0,0-2.9-.5,6.72,6.72,0,0,0-2.4.4,7,7,0,0,0-2.4,1.3,8.17,8.17,0,0,0-1.9,2.2,6.21,6.21,0,0,0-.8,3.1v9.8a1.66,1.66,0,0,1-.5,1.2,1.66,1.66,0,0,1-1.2.5,2.08,2.08,0,0,1-1.2-.5,1.66,1.66,0,0,1-.5-1.2v-9.8a10.13,10.13,0,0,1,1.1-4.3,8.93,8.93,0,0,1,2.5-3.2,9.84,9.84,0,0,1,3.4-2,10.72,10.72,0,0,1,3.9-.7,10.67,10.67,0,0,1,5.3,1.3,11.23,11.23,0,0,1,3.9,3.6,9.53,9.53,0,0,1,4.1-3.6A10.53,10.53,0,0,1-1247.42,229.62Z" transform="translate(1429.02 177.85)"/><path d="M-1221.42,229.62a9.9,9.9,0,0,1,4.2.9,12,12,0,0,1,3.4,2.3,9.76,9.76,0,0,1,2.3,3.4,9.9,9.9,0,0,1,.9,4.2,9.9,9.9,0,0,1-.9,4.2,12,12,0,0,1-2.3,3.4,9.76,9.76,0,0,1-3.4,2.3,9.9,9.9,0,0,1-4.2.9,9.9,9.9,0,0,1-4.2-.9,12,12,0,0,1-3.4-2.3,9.76,9.76,0,0,1-2.3-3.4,9.9,9.9,0,0,1-.9-4.2,9.9,9.9,0,0,1,.9-4.2,12,12,0,0,1,2.3-3.4,9.76,9.76,0,0,1,3.4-2.3A9.9,9.9,0,0,1-1221.42,229.62Zm0,18.4a7.17,7.17,0,0,0,2.9-.6,7.76,7.76,0,0,0,2.4-1.6,7.76,7.76,0,0,0,1.6-2.4,7.17,7.17,0,0,0,.6-2.9,7.17,7.17,0,0,0-.6-2.9,7.76,7.76,0,0,0-1.6-2.4,7.76,7.76,0,0,0-2.4-1.6,7.17,7.17,0,0,0-2.9-.6,7.17,7.17,0,0,0-2.9.6,7.76,7.76,0,0,0-2.4,1.6,7.76,7.76,0,0,0-1.6,2.4,7.17,7.17,0,0,0-.6,2.9,7.17,7.17,0,0,0,.6,2.9,7.76,7.76,0,0,0,1.6,2.4,7.76,7.76,0,0,0,2.4,1.6A7.17,7.17,0,0,0-1221.42,248Z" transform="translate(1429.02 177.85)"/><path d="M-1160,248a2.08,2.08,0,0,1,1.2.5,1.66,1.66,0,0,1,.5,1.2,1.59,1.59,0,0,1-.4,1.2,1.66,1.66,0,0,1-1.2.5h-8.1a11.48,11.48,0,0,1-4.6-1,10.72,10.72,0,0,1-3.4-2.5,11.26,11.26,0,0,1-2.1-3.5,10.72,10.72,0,0,1-.7-3.9,9.9,9.9,0,0,1,.9-4.2,13.56,13.56,0,0,1,2.3-3.4,9.76,9.76,0,0,1,3.4-2.3,9.9,9.9,0,0,1,4.2-.9,9.67,9.67,0,0,1,2.9.4,13.07,13.07,0,0,1,2.7,1.2,13,13,0,0,1,2.3,1.8,7.33,7.33,0,0,1,1.6,2.3,1.67,1.67,0,0,1,.1,1.2,1.6,1.6,0,0,1-.7.9l-10.5,6.6a1.61,1.61,0,0,1-.9.3,1.6,1.6,0,0,1-1.4-.8,1.91,1.91,0,0,1-.2-1.3,1.45,1.45,0,0,1,.7-1l9-5.7a8.32,8.32,0,0,0-2.6-1.9,6.7,6.7,0,0,0-3.1-.7,5.92,5.92,0,0,0-2.9.7,7.76,7.76,0,0,0-2.4,1.6,7.76,7.76,0,0,0-1.6,2.4,7.17,7.17,0,0,0-.6,2.9,7.66,7.66,0,0,0,.4,2.5,7.22,7.22,0,0,0,1.4,2.4,6.33,6.33,0,0,0,2.4,1.8,7.42,7.42,0,0,0,3.4.8h6.3A11.56,11.56,0,0,1-1160,248Z" transform="translate(1429.02 177.85)"/><path d="M-1132.72,248a1.66,1.66,0,0,1,1.2.5,1.66,1.66,0,0,1,.5,1.2,2.08,2.08,0,0,1-.5,1.2,1.66,1.66,0,0,1-1.2.5h-1.2a10.86,10.86,0,0,1-5.6-1.6,10.36,10.36,0,0,1-3.7-3.8,11.18,11.18,0,0,1-3.7,3.8,11.15,11.15,0,0,1-5.6,1.6h-1.3a2.08,2.08,0,0,1-1.2-.5,1.66,1.66,0,0,1-.5-1.2,1.66,1.66,0,0,1,.5-1.2,1.66,1.66,0,0,1,1.2-.5h1.2a7.42,7.42,0,0,0,3.4-.8,8.76,8.76,0,0,0,2.4-1.9,7.22,7.22,0,0,0,1.4-2.4,7.51,7.51,0,0,0,.4-2.4,7.17,7.17,0,0,0-.6-2.9,7.76,7.76,0,0,0-1.6-2.4,7.76,7.76,0,0,0-2.4-1.6,7.17,7.17,0,0,0-2.9-.6h-1.2a2.08,2.08,0,0,1-1.2-.5,1.66,1.66,0,0,1-.5-1.2,1.66,1.66,0,0,1,.5-1.2,1.66,1.66,0,0,1,1.2-.5h1.2a10.58,10.58,0,0,1,5.5,1.5,12.11,12.11,0,0,1,3.9,3.9,11.2,11.2,0,0,1,3.9-3.9,10,10,0,0,1,5.4-1.5h1.3a1.66,1.66,0,0,1,1.2.5,1.66,1.66,0,0,1,.5,1.2,2.08,2.08,0,0,1-.5,1.2,1.66,1.66,0,0,1-1.2.5h-1.2a7.17,7.17,0,0,0-2.9.6,10,10,0,0,0-2.4,1.6,7.76,7.76,0,0,0-1.6,2.4,7.17,7.17,0,0,0-.6,2.9,6.72,6.72,0,0,0,.4,2.4,7.22,7.22,0,0,0,1.4,2.4,7.77,7.77,0,0,0,2.4,1.9,7.42,7.42,0,0,0,3.4.8Z" transform="translate(1429.02 177.85)"/><path d="M-1244.72,181.42a2.13,2.13,0,0,1,.3-1.2,5.72,5.72,0,0,1,.7-.8,3.11,3.11,0,0,0,.7-.9,2,2,0,0,0,.2-1.4l-.8-10.1a5.61,5.61,0,0,0-.5-2.3,1.27,1.27,0,0,0-1.3-.7,2.46,2.46,0,0,0-1.7.8,6.88,6.88,0,0,0-1.3,2.1,11.46,11.46,0,0,0-.8,2.8,15.26,15.26,0,0,0-.3,3v4.5a2.65,2.65,0,0,0,.3,1.4,5.5,5.5,0,0,0,.7.9c.2.3.5.5.7.8a2.13,2.13,0,0,1,.3,1.2c0,1.1-.7,1.7-2.1,1.7h-6.6c-1.4,0-2.1-.6-2.1-1.7a2.13,2.13,0,0,1,.3-1.2,2.7,2.7,0,0,1,.7-.8,7.05,7.05,0,0,0,.7-.9,2.65,2.65,0,0,0,.3-1.4v-10.1a4.5,4.5,0,0,0-.4-2.3,1.42,1.42,0,0,0-1.4-.7,2.46,2.46,0,0,0-1.7.8,6.88,6.88,0,0,0-1.3,2.1,11.46,11.46,0,0,0-.8,2.8,15.26,15.26,0,0,0-.3,3v4.5a2.65,2.65,0,0,0,.3,1.4,5.5,5.5,0,0,0,.7.9c.2.3.5.5.7.8a2.13,2.13,0,0,1,.3,1.2c0,1.1-.7,1.7-2.1,1.7h-6.6c-1.4,0-2.1-.6-2.1-1.7a2.13,2.13,0,0,1,.3-1.2,2.7,2.7,0,0,1,.7-.8,7.05,7.05,0,0,0,.7-.9,2.65,2.65,0,0,0,.3-1.4v-10.1a2.65,2.65,0,0,0-.3-1.4,2.7,2.7,0,0,0-.7-.8l-.7-.7a1.61,1.61,0,0,1-.3-1.1,1.9,1.9,0,0,1,.8-1.5,8.82,8.82,0,0,1,1.9-1.2,14.27,14.27,0,0,1,2.2-.8,6.75,6.75,0,0,1,1.7-.3,2.86,2.86,0,0,1,1.7.4,1.84,1.84,0,0,1,.6,1.6v3.3a10.24,10.24,0,0,1,1-2.1,11.51,11.51,0,0,1,1.4-1.7,4.9,4.9,0,0,1,2-1.1,6.77,6.77,0,0,1,2.6-.4,6.25,6.25,0,0,1,2.5.4,4.34,4.34,0,0,1,1.7,1.2,6.19,6.19,0,0,1,1.1,1.7,16,16,0,0,1,.5,2.1,10.24,10.24,0,0,1,1-2.1,6.07,6.07,0,0,1,1.4-1.7,6.66,6.66,0,0,1,2-1.2,7.1,7.1,0,0,1,2.6-.4,6.33,6.33,0,0,1,2.6.5,4.74,4.74,0,0,1,1.7,1.4,6.81,6.81,0,0,1,1,2.1,18.66,18.66,0,0,1,.4,2.5l.8,11.4a3.92,3.92,0,0,0,.4,1.4,5.5,5.5,0,0,0,.7.9c.2.3.4.5.6.8a2.13,2.13,0,0,1,.3,1.2c0,1.1-.7,1.7-2.1,1.7h-6.6C-1244,183.12-1244.72,182.52-1244.72,181.42Z" transform="translate(1429.02 177.85)"/><path d="M-1222.82,183.42a12.17,12.17,0,0,1-4.3-.8,8.14,8.14,0,0,1-3.4-2.4,9.53,9.53,0,0,1-2.2-3.8,16.23,16.23,0,0,1-.8-5.2,16,16,0,0,1,.8-5.1,10.87,10.87,0,0,1,2.2-3.8,11.65,11.65,0,0,1,3.4-2.4,11.76,11.76,0,0,1,4.3-.8,11.76,11.76,0,0,1,4.3.8,8.14,8.14,0,0,1,3.4,2.4,9.53,9.53,0,0,1,2.2,3.8,16,16,0,0,1,.8,5.1,16.69,16.69,0,0,1-.8,5.2,10.87,10.87,0,0,1-2.2,3.8,11.65,11.65,0,0,1-3.4,2.4A12.17,12.17,0,0,1-1222.82,183.42Zm-.9-21.3a1.57,1.57,0,0,0-1.3.7,3.8,3.8,0,0,0-.9,1.8,17.21,17.21,0,0,0-.5,2.9,25,25,0,0,0,.1,3.8,33.82,33.82,0,0,0,.6,3.8,16.28,16.28,0,0,0,1,2.9,5.23,5.23,0,0,0,1.3,1.8,2.33,2.33,0,0,0,1.4.7c1,0,1.7-.8,2.2-2.5a17.3,17.3,0,0,0,.4-6.7,33.82,33.82,0,0,0-.6-3.8,16.28,16.28,0,0,0-1-2.9,5.23,5.23,0,0,0-1.3-1.8A2.1,2.1,0,0,0-1223.72,162.12Z" transform="translate(1429.02 177.85)"/><path d="M-1169.92,176.82a5.34,5.34,0,0,1-.5,2,8.23,8.23,0,0,1-1.6,2.2,8.92,8.92,0,0,1-2.7,1.7,8.73,8.73,0,0,1-3.7.7,10.17,10.17,0,0,1-4.4-.9,10,10,0,0,1-3.3-2.4,9.89,9.89,0,0,1-2-3.8,15.91,15.91,0,0,1-.7-5,15.88,15.88,0,0,1,.8-5,10.87,10.87,0,0,1,2.2-3.8,10,10,0,0,1,3.4-2.4,10,10,0,0,1,4.3-.9,11.59,11.59,0,0,1,3.4.5,9.34,9.34,0,0,1,2.6,1.5,6,6,0,0,1,1.6,2.2,5.83,5.83,0,0,1,.6,2.6,5.79,5.79,0,0,1-2.9,5.2c-1.9,1.2-4.9,1.8-8.9,1.8a8.54,8.54,0,0,0,.9,2.7,5.86,5.86,0,0,0,1.3,1.7,5.07,5.07,0,0,0,1.6.9,5.08,5.08,0,0,0,1.7.3,4.32,4.32,0,0,0,2.2-.4,7.3,7.3,0,0,0,1.3-.9,7.64,7.64,0,0,0,.9-.9,1.22,1.22,0,0,1,.9-.4.55.55,0,0,1,.5.3C-1170.32,176.52-1169.92,176.62-1169.92,176.82Zm-9.1-14.7a2.11,2.11,0,0,0-1.3.5,3.77,3.77,0,0,0-.9,1.5,13.16,13.16,0,0,0-.5,2.3,24.58,24.58,0,0,0-.2,2.8v1.5a7.27,7.27,0,0,0,4.4-1.1,3.68,3.68,0,0,0,1.4-3.1,5.82,5.82,0,0,0-.3-1.9,4.58,4.58,0,0,0-.7-1.4,3.82,3.82,0,0,0-.9-.9C-1178.32,162.32-1178.62,162.12-1179,162.12Z" transform="translate(1429.02 177.85)"/><path d="M-1151.22,177.12a7.47,7.47,0,0,0,1.1,1.3c.4.3.7.7,1,.9a5.5,5.5,0,0,1,.7.9,2.13,2.13,0,0,1,.3,1.2,1.49,1.49,0,0,1-.6,1.3,2.12,2.12,0,0,1-1.4.4h-6.3a2.5,2.5,0,0,1-1.7-.4,1.43,1.43,0,0,1-.5-1.3,2,2,0,0,1,.3-1.1,3.13,3.13,0,0,0,.5-1,2,2,0,0,0,.1-1.1,4.91,4.91,0,0,0-.8-1.7l-1.9-2.8-2.3,2.8a5.42,5.42,0,0,0-.9,1.6,2,2,0,0,0,.1,1.1,4.67,4.67,0,0,0,.5,1,2.13,2.13,0,0,1,.3,1.2,1.58,1.58,0,0,1-.5,1.3,2.67,2.67,0,0,1-1.7.4h-2.7a2.12,2.12,0,0,1-1.4-.4,1.49,1.49,0,0,1-.6-1.3,2.13,2.13,0,0,1,.3-1.2,6.47,6.47,0,0,1,.8-.9,10.63,10.63,0,0,1,1.1-.9,7.69,7.69,0,0,0,1.2-1.3l4.2-5.4-4.2-6.2a7.47,7.47,0,0,0-1.1-1.3c-.4-.3-.7-.7-1-.9a5.5,5.5,0,0,1-.7-.9,2.13,2.13,0,0,1-.3-1.2,1.49,1.49,0,0,1,.6-1.3,2.12,2.12,0,0,1,1.4-.4h6.3a3,3,0,0,1,1.8.4,1.43,1.43,0,0,1,.5,1.3,2,2,0,0,1-.3,1.1,3.13,3.13,0,0,0-.5,1,2,2,0,0,0-.1,1.1,4.91,4.91,0,0,0,.8,1.7l1.6,2.4,1.9-2.4a5.42,5.42,0,0,0,.9-1.6,1.39,1.39,0,0,0-.2-1.1c-.2-.3-.3-.7-.5-1a2.13,2.13,0,0,1-.3-1.2,1.38,1.38,0,0,1,.6-1.3,3.87,3.87,0,0,1,1.7-.4h2.7a2.12,2.12,0,0,1,1.4.4,1.49,1.49,0,0,1,.6,1.3,2.66,2.66,0,0,1-.3,1.2,6.47,6.47,0,0,1-.8.9c-.3.3-.7.6-1.1,1a7.69,7.69,0,0,0-1.2,1.3l-3.9,5Z" transform="translate(1429.02 177.85)"/><path d="M-1253.22,78.62l3.4,20.1,10.3-20.1h7.4l-4.8,27.7h-5.6l1.4-7.9,2.7-12.3-10.6,20.2h-3.8l-3.7-20.9-1.8,13.7-1.3,7.3h-5.6l4.8-27.7h7.2Z" transform="translate(1429.02 177.85)"/><path d="M-1220.42,85.32a8.15,8.15,0,0,1,4.7,1.4,7.94,7.94,0,0,1,2.9,3.8,13.12,13.12,0,0,1,.7,5.3,12.75,12.75,0,0,1-3.4,8,10,10,0,0,1-7.4,3,7.84,7.84,0,0,1-4.6-1.4,7.68,7.68,0,0,1-2.9-3.7,12.88,12.88,0,0,1-.7-5.3,12.63,12.63,0,0,1,3.5-8.1A9.82,9.82,0,0,1-1220.42,85.32Zm-5.4,13a4.37,4.37,0,0,0,.9,2.9,2.71,2.71,0,0,0,2.3,1.1,4.09,4.09,0,0,0,3.9-2.3,10.6,10.6,0,0,0,1.3-6.2,5,5,0,0,0-.9-2.9,2.71,2.71,0,0,0-2.3-1.1,4,4,0,0,0-3.8,2.3A10.39,10.39,0,0,0-1225.82,98.32Z" transform="translate(1429.02 177.85)"/><path d="M-1182,106.72a9.56,9.56,0,0,1-4.8-1.3,8.33,8.33,0,0,1-3.1-3.6,9.3,9.3,0,0,1-.8-5l.1-.8a13.24,13.24,0,0,1,1.8-5.5,10.18,10.18,0,0,1,3.8-3.9,9.69,9.69,0,0,1,5.1-1.3c2.7.1,4.7,1,6,2.9a10,10,0,0,1,1.6,7.2l-.3,2.3h-12.6a4.27,4.27,0,0,0,1,3.2,3.7,3.7,0,0,0,2.9,1.2,6.14,6.14,0,0,0,5.1-2.3l2.5,3a7.11,7.11,0,0,1-3.4,2.7A9.86,9.86,0,0,1-1182,106.72Zm1.7-16.9a3.92,3.92,0,0,0-2.6.9,7.64,7.64,0,0,0-2.1,3.4h7.4l.1-.5a3.3,3.3,0,0,0,0-1.4,2.59,2.59,0,0,0-.9-1.7A2.94,2.94,0,0,0-1180.32,89.82Z" transform="translate(1429.02 177.85)"/><path d="M-1161.22,91.82l4.3-6.1h6l-7.5,10.4,4.2,10.2h-5.4l-2.5-6.4-4.6,6.4h-6.1l7.8-10.8-4-9.8h5.4Z" transform="translate(1429.02 177.85)"/><path d="M-868.72,42.52l5.1-17.6h-.2l-10.3,17.6h-5.3l-1.3-17.6h-.2l-4,17.6H-891l5.9-22.9h6.2c2.5,0,3.6,1.9,3.7,4.3l.5,10.1h.2l5.5-10.1c1.3-2.4,3.4-4.3,5.9-4.3h6.4l-5.9,22.9Z" transform="translate(1429.02 177.85)"/><path d="M-840.92,30a19.43,19.43,0,0,1-.8,4.5c-1.7,6.6-3.5,8.2-10.2,8.2-4.8,0-6.6-1-6.6-3.9a22.08,22.08,0,0,1,.7-4.3c1.7-6.6,3.4-8.2,10.1-8.2C-842.72,26.32-840.92,27-840.92,30Zm-11.5,4.5a7.88,7.88,0,0,0-.4,2.3c0,1,.7,1.2,2.3,1.2,2.4,0,2.8-.3,3.6-3.5a9.06,9.06,0,0,0,.4-2.3c0-1-.6-1.2-2.2-1.2C-851.22,31-851.62,31.42-852.42,34.52Z" transform="translate(1429.02 177.85)"/><path d="M-818.12,26.52H-807l-1,3.9h-9.7l-2.1,8.3h9.7l-1,3.9h-11.1a2.73,2.73,0,0,1-3-2.8,2.77,2.77,0,0,1,.1-.9l2.2-8.6A5.2,5.2,0,0,1-818.12,26.52Zm-.2,9.5v-3.2h8.3V36Z" transform="translate(1429.02 177.85)"/><path d="M-797.22,34l2.5,8.5h-6.2l-1-5.3-3.6,5.3h-6.3l7-8.5-2.1-7.6h6.1l.7,4.5,3.1-4.5h6.1Z" transform="translate(1429.02 177.85)"/><line class="cls-8" x1="520.1" y1="206.87" x2="538.5" y2="206.87"/><line class="cls-8" x1="534.8" y1="218.87" x2="502.1" y2="218.87"/><line class="cls-8" x1="510.2" y1="213.17" x2="536.4" y2="213.17"/><text class="cls-9" transform="translate(554.47 27.95)">Mo<tspan class="cls-10" x="50.13" y="0">ve</tspan><tspan x="81.18" y="0">x</tspan></text><line class="cls-8" x1="538.3" y1="14.47" x2="556.8" y2="14.47"/><line class="cls-8" x1="553" y1="26.47" x2="520.3" y2="26.47"/><line class="cls-8" x1="528.4" y1="20.67" x2="554.6" y2="20.67"/><path class="cls-11" d="M-818.52,13.62" transform="translate(1429.02 177.85)"/><path d="M-864.72-41.78l5.1-17.6h-.2l-10.3,17.6h-5.3l-1.3-17.6h-.2l-4,17.6H-887l5.9-22.9h6.2c2.5,0,3.6,1.9,3.7,4.3l.5,10.1h.2l5.5-10.1c1.3-2.4,3.4-4.3,5.9-4.3h6.4l-5.9,22.9Z" transform="translate(1429.02 177.85)"/><path d="M-836.92-54.28a19.43,19.43,0,0,1-.8,4.5c-1.7,6.6-3.5,8.2-10.2,8.2-4.8,0-6.6-1-6.6-3.9a22.08,22.08,0,0,1,.7-4.3c1.7-6.6,3.4-8.2,10.1-8.2C-838.72-58-836.92-57.28-836.92-54.28Zm-11.5,4.5a7.88,7.88,0,0,0-.4,2.3c0,1,.7,1.2,2.3,1.2,2.4,0,2.8-.3,3.6-3.5a9.06,9.06,0,0,0,.4-2.3c0-1-.6-1.2-2.2-1.2C-847.22-53.28-847.62-52.88-848.42-49.78Z" transform="translate(1429.02 177.85)"/><path d="M-814.12-57.88H-803l-1,3.9h-9.7l-2.1,8.3h9.7l-1,3.9h-11.1a2.73,2.73,0,0,1-3-2.8,2.77,2.77,0,0,1,.1-.9l2.2-8.6A5.2,5.2,0,0,1-814.12-57.88Zm-.2,9.6v-3.2h8.3v3.2Z" transform="translate(1429.02 177.85)"/><path d="M-793.32-50.28l2.5,8.5H-797l-1-5.3-3.6,5.3h-6.3l7-8.5-2.1-7.6h6.1l.7,4.5,3.1-4.5h6.1Z" transform="translate(1429.02 177.85)"/><line class="cls-8" x1="524" y1="122.57" x2="542.5" y2="122.57"/><line class="cls-8" x1="538.7" y1="134.57" x2="506" y2="134.57"/><line class="cls-8" x1="514.2" y1="128.77" x2="540.3" y2="128.77"/><circle cx="595.7" cy="162.17" r="3.2"/><path d="M-869.72,1l5.1-17.6h-.2L-875.12,1h-5.3l-1.3-17.6h-.2l-4,17.6H-892l5.9-22.9h6.2c2.5,0,3.6,1.9,3.7,4.3l.5,10.1h.2l5.5-10.1c1.3-2.4,3.4-4.3,5.9-4.3h6.4L-863.62,1Z" transform="translate(1429.02 177.85)"/><path d="M-841.92-11.48a19.43,19.43,0,0,1-.8,4.5c-1.7,6.6-3.5,8.2-10.2,8.2-4.8,0-6.6-1-6.6-3.9a22.08,22.08,0,0,1,.7-4.3c1.7-6.6,3.4-8.2,10.1-8.2C-843.82-15.18-841.92-14.48-841.92-11.48ZM-853.42-7a7.88,7.88,0,0,0-.4,2.3c0,1,.7,1.2,2.3,1.2,2.4,0,2.8-.3,3.6-3.5a9.06,9.06,0,0,0,.4-2.3c0-1-.6-1.2-2.2-1.2C-852.22-10.48-852.62-10.08-853.42-7Z" transform="translate(1429.02 177.85)"/><path d="M-819.12-15.08H-808l-1,3.9h-9.7l-2.1,8.3h9.7l-1,3.9h-11.1a2.73,2.73,0,0,1-3-2.8,2.77,2.77,0,0,1,.1-.9l2.2-8.6A5,5,0,0,1-819.12-15.08Zm-.3,9.6v-3.2h8.3v3.2Z" transform="translate(1429.02 177.85)"/><path d="M-798.32-7.48l2.5,8.5H-802l-1-5.3-3.6,5.3h-6.3l7-8.5-2.1-7.6h6.1l.7,4.5,3.1-4.5h6.1Z" transform="translate(1429.02 177.85)"/><line class="cls-8" x1="519" y1="165.37" x2="537.5" y2="165.37"/><line class="cls-8" x1="533.7" y1="177.37" x2="501" y2="177.37"/><line class="cls-8" x1="509.1" y1="171.57" x2="535.3" y2="171.57"/><image class="cls-12" width="512" height="512" transform="translate(592.12 76.72) scale(0.04)" xlink:href="../Downloads/home.png"/><path d="M-862.42-78.58l5.1-17.6h-.2l-10.4,17.6h-5.3l-1.3-17.6h-.2l-4,17.6h-6.1l5.9-22.9h6.2c2.5,0,3.6,1.9,3.7,4.3l.5,10.1h.2l5.5-10.1c1.3-2.4,3.4-4.3,5.9-4.3h6.4l-5.9,22.9Z" transform="translate(1429.02 177.85)"/><path d="M-834.62-91.08a19.43,19.43,0,0,1-.8,4.5c-1.7,6.6-3.5,8.2-10.2,8.2-4.8,0-6.6-1-6.6-3.9a22.08,22.08,0,0,1,.7-4.3c1.7-6.6,3.4-8.2,10.1-8.2C-836.42-94.78-834.62-94.08-834.62-91.08Zm-11.5,4.5a7.88,7.88,0,0,0-.4,2.3c0,1,.7,1.2,2.3,1.2,2.4,0,2.8-.3,3.6-3.5a9.06,9.06,0,0,0,.4-2.3c0-1-.6-1.2-2.2-1.2C-844.92-90.08-845.32-89.68-846.12-86.58Z" transform="translate(1429.02 177.85)"/><path d="M-811.82-94.68h11.1l-1,3.9h-9.7l-2.1,8.3h9.7l-1,3.9h-11.1a2.73,2.73,0,0,1-3-2.8,2.77,2.77,0,0,1,.1-.9l2.2-8.6A5.2,5.2,0,0,1-811.82-94.68Zm-.2,9.6v-3.2h8.3v3.2Z" transform="translate(1429.02 177.85)"/><path d="M-790.92-87.08l2.5,8.5h-6.2l-1-5.3-3.6,5.3h-6.3l7-8.5-2.1-7.6h6.1l.7,4.5,3.1-4.5h6.1Z" transform="translate(1429.02 177.85)"/><line class="cls-8" x1="526.4" y1="85.77" x2="544.8" y2="85.77"/><line class="cls-8" x1="541.1" y1="97.77" x2="508.4" y2="97.77"/><line class="cls-8" x1="516.5" y1="91.97" x2="542.7" y2="91.97"/><image class="cls-12" width="512" height="512" transform="translate(596.8 39.79) scale(0.05)" xlink:href="../Downloads/location.png"/><path d="M-855.32-114.38l5.1-17.6h-.2l-10.4,17.6h-5.3l-1.3-17.6h-.2l-4,17.6h-6.1l5.9-22.9h6.2c2.5,0,3.6,1.9,3.7,4.3l.5,10.1h.2l5.5-10.1c1.3-2.4,3.4-4.3,5.9-4.3h6.4l-5.9,22.9Z" transform="translate(1429.02 177.85)"/><path d="M-827.52-126.88a19.43,19.43,0,0,1-.8,4.5c-1.7,6.6-3.5,8.2-10.2,8.2-4.8,0-6.6-1-6.6-3.9a22.08,22.08,0,0,1,.7-4.3c1.7-6.6,3.4-8.2,10.1-8.2C-829.42-130.58-827.52-129.88-827.52-126.88Zm-11.5,4.5a7.88,7.88,0,0,0-.4,2.3c0,1,.7,1.2,2.3,1.2,2.4,0,2.8-.3,3.6-3.5a9.06,9.06,0,0,0,.4-2.3c0-1-.6-1.2-2.2-1.2C-837.92-125.88-838.22-125.48-839-122.38Z" transform="translate(1429.02 177.85)"/><path d="M-804.82-130.38h11.1l-1,3.9h-9.7l-2.1,8.3h9.7l-1,3.9h-11.1a2.73,2.73,0,0,1-3-2.8,2.77,2.77,0,0,1,.1-.9l2.2-8.6A5.2,5.2,0,0,1-804.82-130.38Zm-.2,9.5v-3.2h8.3v3.2Z" transform="translate(1429.02 177.85)"/><path d="M-783.92-122.88l2.5,8.5h-6.2l-1-5.3-3.6,5.3h-6.3l7-8.5-2.1-7.6h6.1l.7,4.5,3.1-4.5h6.1Z" transform="translate(1429.02 177.85)"/><line class="cls-8" x1="533.4" y1="49.97" x2="551.9" y2="49.97"/><line class="cls-8" x1="548.1" y1="61.97" x2="515.4" y2="61.97"/><line class="cls-8" x1="523.5" y1="56.27" x2="549.7" y2="56.27"/><path d="M-870.62,84.72l5.1-17.6h-.2l-10.4,17.6h-5.3l-1.3-17.6h-.2l-4,17.6H-893l5.9-22.9h6.2c2.5,0,3.6,1.9,3.7,4.3l.5,10.1h.2l5.5-10.1c1.3-2.4,3.4-4.3,5.9-4.3h6.4l-5.9,22.9Z" transform="translate(1429.02 177.85)"/><path d="M-842.82,72.22a19.43,19.43,0,0,1-.8,4.5c-1.7,6.6-3.5,8.2-10.2,8.2-4.8,0-6.6-1-6.6-3.9a22.08,22.08,0,0,1,.7-4.3c1.7-6.6,3.4-8.2,10.1-8.2C-844.72,68.52-842.82,69.22-842.82,72.22Zm-11.5,4.5a7.88,7.88,0,0,0-.4,2.3c0,1,.7,1.2,2.3,1.2,2.4,0,2.8-.3,3.6-3.5a9.06,9.06,0,0,0,.4-2.3c0-1-.6-1.2-2.2-1.2C-853.12,73.22-853.52,73.62-854.32,76.72Z" transform="translate(1429.02 177.85)"/><path d="M-820,68.72h11.1l-1,3.9h-9.7l-2.1,8.3h9.7l-1,3.9h-11.1a2.73,2.73,0,0,1-3-2.8,2.77,2.77,0,0,1,.1-.9l2.2-8.6A5,5,0,0,1-820,68.72Zm-.3,9.5V75h8.3v3.2Z" transform="translate(1429.02 177.85)"/><path d="M-799.22,76.22l2.5,8.5h-6.2l-1-5.3-3.6,5.3h-6.3l7-8.5-2.1-7.6h6.1l.7,4.5,3.1-4.5h6.1Z" transform="translate(1429.02 177.85)"/><line class="cls-8" x1="518.1" y1="249.07" x2="536.6" y2="249.07"/><line class="cls-8" x1="532.8" y1="261.07" x2="500.1" y2="261.07"/><line class="cls-8" x1="508.2" y1="255.27" x2="534.4" y2="255.27"/><path d="M-877.22,128.62l5.1-17.6h-.2l-10.4,17.6H-888l-1.3-17.6h-.2l-4,17.6h-6.1l5.9-22.9h6.2c2.5,0,3.6,1.9,3.7,4.3l.5,10.1h.2l5.5-10.1c1.3-2.4,3.4-4.3,5.9-4.3h6.4l-5.9,22.9Z" transform="translate(1429.02 177.85)"/><path d="M-849.42,116.12a19.43,19.43,0,0,1-.8,4.5c-1.7,6.6-3.5,8.2-10.2,8.2-4.8,0-6.6-1-6.6-3.9a22.08,22.08,0,0,1,.7-4.3c1.7-6.6,3.4-8.2,10.1-8.2C-851.22,112.42-849.42,113.12-849.42,116.12Zm-11.5,4.5a7.88,7.88,0,0,0-.4,2.3c0,1,.7,1.2,2.3,1.2,2.4,0,2.8-.3,3.6-3.5a9.06,9.06,0,0,0,.4-2.3c0-1-.6-1.2-2.2-1.2C-859.72,117.12-860.12,117.52-860.92,120.62Z" transform="translate(1429.02 177.85)"/><path d="M-826.62,112.52h11.1l-1,3.9h-9.7l-2.1,8.3h9.7l-1,3.9h-11.1a2.73,2.73,0,0,1-3-2.8,2.77,2.77,0,0,1,.1-.9l2.2-8.6A5.2,5.2,0,0,1-826.62,112.52Zm-.2,9.6v-3.2h8.3v3.2Z" transform="translate(1429.02 177.85)"/><path d="M-805.72,120.12l2.5,8.5h-6.2l-1-5.3-3.6,5.3h-6.3l7-8.5-2.1-7.6h6.1l.7,4.5,3.1-4.5h6.1Z" transform="translate(1429.02 177.85)"/><line class="cls-8" x1="511.6" y1="292.97" x2="530" y2="292.97"/><line class="cls-8" x1="526.2" y1="304.97" x2="493.5" y2="304.97"/><line class="cls-8" x1="501.7" y1="299.17" x2="527.9" y2="299.17"/><path d="M-879.32,167.52l5.1-17.6h-.2l-10.4,17.6h-5.3l-1.3-17.6h-.2l-4,17.6h-6.1l5.9-22.9h6.2c2.5,0,3.6,1.9,3.7,4.3l.5,10.1h.2l5.5-10.1c1.3-2.4,3.4-4.3,5.9-4.3h6.4l-5.9,22.9Z" transform="translate(1429.02 177.85)"/><path d="M-851.52,155a19.43,19.43,0,0,1-.8,4.5c-1.7,6.6-3.5,8.2-10.2,8.2-4.8,0-6.6-1-6.6-3.9a22.08,22.08,0,0,1,.7-4.3c1.7-6.6,3.4-8.2,10.1-8.2C-853.32,151.32-851.52,152-851.52,155Zm-11.5,4.5a7.88,7.88,0,0,0-.4,2.3c0,1,.7,1.2,2.3,1.2,2.4,0,2.8-.3,3.6-3.5a9.06,9.06,0,0,0,.4-2.3c0-1-.6-1.2-2.2-1.2C-861.82,156-862.22,156.42-863,159.52Z" transform="translate(1429.02 177.85)"/><path d="M-828.72,151.52h11.1l-1,3.9h-9.7l-2.1,8.3h9.7l-1,3.9h-11.1a2.73,2.73,0,0,1-3-2.8,2.77,2.77,0,0,1,.1-.9l2.2-8.6A5.08,5.08,0,0,1-828.72,151.52Zm-.2,9.5v-3.2h8.3V161Z" transform="translate(1429.02 177.85)"/><path d="M-807.82,159l2.5,8.5h-6.2l-1-5.3-3.6,5.3h-6.3l7-8.5-2.1-7.6h6.1l.7,4.5,3.1-4.5h6.1Z" transform="translate(1429.02 177.85)"/><line class="cls-8" x1="509.5" y1="331.87" x2="527.9" y2="331.87"/><line class="cls-8" x1="524.2" y1="343.87" x2="491.5" y2="343.87"/><line class="cls-8" x1="499.6" y1="338.07" x2="525.8" y2="338.07"/><path d="M-874.92,215.32l5.1-17.6h-.2l-10.4,17.6h-5.3l-1.3-17.6h-.2l-4,17.6h-6.1l5.9-22.9h6.2c2.5,0,3.6,1.9,3.7,4.3l.5,10.1h.2l5.5-10.1c1.3-2.4,3.4-4.3,5.9-4.3h6.4l-5.9,22.9Z" transform="translate(1429.02 177.85)"/><path d="M-847,202.82a19.43,19.43,0,0,1-.8,4.5c-1.7,6.6-3.5,8.2-10.2,8.2-4.8,0-6.6-1-6.6-3.9a22.08,22.08,0,0,1,.7-4.3c1.7-6.6,3.4-8.2,10.1-8.2C-848.92,199.12-847,199.92-847,202.82Zm-11.6,4.5a7.88,7.88,0,0,0-.4,2.3c0,1,.7,1.2,2.3,1.2,2.4,0,2.8-.3,3.6-3.5a9.06,9.06,0,0,0,.4-2.3c0-1-.6-1.2-2.2-1.2C-857.42,203.82-857.82,204.22-858.62,207.32Z" transform="translate(1429.02 177.85)"/><path d="M-824.32,199.32h11.1l-1,3.9h-9.7l-2.1,8.3h9.7l-1,3.9h-11.1a2.73,2.73,0,0,1-3-2.8,2.77,2.77,0,0,1,.1-.9l2.2-8.6A5.2,5.2,0,0,1-824.32,199.32Zm-.2,9.5v-3.2h8.3v3.2Z" transform="translate(1429.02 177.85)"/><path d="M-803.42,206.92l2.5,8.5h-6.2l-1-5.3-3.6,5.3H-818l7-8.5-2.1-7.6h6.1l.7,4.5,3.1-4.5h6.1Z" transform="translate(1429.02 177.85)"/><line class="cls-8" x1="513.9" y1="379.67" x2="532.4" y2="379.67"/><line class="cls-8" x1="528.6" y1="391.77" x2="495.9" y2="391.77"/><line class="cls-8" x1="504" y1="385.97" x2="530.2" y2="385.97"/><path class="cls-13" d="M-843.42,199.32l-6.1-1.2a2.57,2.57,0,0,1-2-3.2l.7-2.3" transform="translate(1429.02 177.85)"/><path class="cls-13" d="M-845.62,197l-2.1-.4a1.8,1.8,0,0,1-1.4-2.4l.4-1.3" transform="translate(1429.02 177.85)"/><path d="M-1034.32-53.38l5.1-17.6h-.2l-10.4,17.6h-5.3l-1.3-17.6h-.2l-4,17.6h-6.1l5.9-22.9h6.2c2.5,0,3.6,1.9,3.7,4.3l.5,10.1h.2l5.5-10.1c1.3-2.4,3.4-4.3,5.9-4.3h6.4l-5.9,22.9Z" transform="translate(1429.02 177.85)"/><path d="M-1006.42-65.88a19.43,19.43,0,0,1-.8,4.5c-1.7,6.6-3.5,8.2-10.2,8.2-4.8,0-6.6-1-6.6-3.9a22.08,22.08,0,0,1,.7-4.3c1.7-6.6,3.4-8.2,10.1-8.2C-1008.32-69.58-1006.42-68.78-1006.42-65.88Zm-11.6,4.5a7.88,7.88,0,0,0-.4,2.3c0,1,.7,1.2,2.3,1.2,2.4,0,2.8-.3,3.6-3.5a9.06,9.06,0,0,0,.4-2.3c0-1-.6-1.2-2.2-1.2C-1016.82-64.88-1017.22-64.48-1018-61.38Z" transform="translate(1429.02 177.85)"/><path d="M-983.72-69.38h11.1l-1,3.9h-9.7l-2.1,8.3h9.7l-1,3.9h-11.1a2.73,2.73,0,0,1-3-2.8,2.77,2.77,0,0,1,.1-.9l2.2-8.6A5.2,5.2,0,0,1-983.72-69.38Zm-.2,9.5v-3.2h8.3v3.2Z" transform="translate(1429.02 177.85)"/><path d="M-962.82-61.88l2.5,8.5h-6.2l-1-5.3-3.6,5.3h-6.3l7-8.5-2.1-7.6h6.1l.7,4.5,3.1-4.5h6.1Z" transform="translate(1429.02 177.85)"/><line class="cls-8" x1="358.2" y1="107.27" x2="379" y2="107.27"/><line class="cls-8" x1="374.8" y1="119.27" x2="338" y2="119.27"/><line class="cls-8" x1="347.1" y1="113.47" x2="376.6" y2="113.47"/><path d="M-1051.72,2.62l5.1-17.6h-.2l-10.3,17.6h-5.3l-1.3-17.6h-.2l-4,17.6h-6.1l5.9-22.9h6.2c2.5,0,3.6,1.9,3.7,4.3l.5,10.1h.2L-1052-16c1.3-2.4,3.4-4.3,5.9-4.3h6.4l-5.9,22.9Z" transform="translate(1429.02 177.85)"/><path d="M-1023.92-9.88a19.43,19.43,0,0,1-.8,4.5c-1.7,6.6-3.5,8.2-10.2,8.2-4.8,0-6.6-1-6.6-3.9a22.08,22.08,0,0,1,.7-4.3c1.7-6.6,3.4-8.2,10.1-8.2C-1025.72-13.58-1023.92-12.88-1023.92-9.88Zm-11.5,4.5a7.88,7.88,0,0,0-.4,2.3c0,1,.7,1.2,2.3,1.2,2.4,0,2.8-.3,3.6-3.5a9.06,9.06,0,0,0,.4-2.3c0-1-.6-1.2-2.2-1.2C-1034.22-8.88-1034.62-8.48-1035.42-5.38Z" transform="translate(1429.02 177.85)"/><path d="M-1001.12-13.38H-990l-1,3.9h-9.7l-2.1,8.3h9.7l-1,3.9h-11.1a2.73,2.73,0,0,1-3-2.8,2.77,2.77,0,0,1,.1-.9l2.2-8.6A5.08,5.08,0,0,1-1001.12-13.38Zm-.2,9.5v-3.2h8.3v3.2Z" transform="translate(1429.02 177.85)"/><path d="M-980.22-5.88l2.5,8.5h-6.2l-1-5.3-3.6,5.3h-6.3l7-8.5-2.1-7.6h6.1l.7,4.5,3.1-4.5h6.1Z" transform="translate(1429.02 177.85)"/><path class="cls-8" d="M69.18,13.82" transform="translate(1429.02 177.85)"/><path d="M-1178.72-103l5.1-17.6h-.2l-10.4,17.6h-5.3l-1.3-17.6h-.2l-4,17.6h-6.1l5.9-22.9h6.2c2.5,0,3.6,1.9,3.7,4.3l.5,10.1h.2l5.5-10.1c1.3-2.4,3.4-4.3,5.9-4.3h6.4l-5.9,22.9Z" transform="translate(1429.02 177.85)"/><path d="M-1150.92-115.48a19.43,19.43,0,0,1-.8,4.5c-1.7,6.6-3.5,8.2-10.2,8.2-4.8,0-6.6-1-6.6-3.9a22.08,22.08,0,0,1,.7-4.3c1.7-6.6,3.4-8.2,10.1-8.2C-1152.72-119.18-1150.92-118.48-1150.92-115.48Zm-11.5,4.5a7.88,7.88,0,0,0-.4,2.3c0,1,.7,1.2,2.3,1.2,2.4,0,2.8-.3,3.6-3.5a9.06,9.06,0,0,0,.4-2.3c0-1-.6-1.2-2.2-1.2C-1161.22-114.48-1161.62-114.08-1162.42-111Z" transform="translate(1429.02 177.85)"/><path d="M-1128.12-119.08h11.1l-1,3.9h-9.7l-2.1,8.3h9.7l-1,3.9h-11.1a2.73,2.73,0,0,1-3-2.8,2.77,2.77,0,0,1,.1-.9l2.2-8.6A5.2,5.2,0,0,1-1128.12-119.08Zm-.3,9.6v-3.2h8.3v3.2Z" transform="translate(1429.02 177.85)"/><path d="M-1107.32-111.48l2.5,8.5h-6.2l-1-5.3-3.6,5.3h-6.3l7-8.5-2.1-7.6h6.1l.7,4.5,3.1-4.5h6.1Z" transform="translate(1429.02 177.85)"/><polygon class="cls-14" points="205 55.77 210.3 55.77 210.3 56.77 202.6 56.77 205 55.77"/><line class="cls-15" x1="210.3" y1="56.27" x2="226.2" y2="56.27"/><polygon class="cls-14" points="194.6 62.47 202.2 62.47 202.2 63.47 191.2 63.47 194.6 62.47"/><line class="cls-15" x1="202.6" y1="62.97" x2="224.9" y2="62.97"/><line class="cls-15" x1="188.9" y1="71.37" x2="222.1" y2="71.37"/><polygon class="cls-14" points="180.5 70.77 188.2 70.77 188.2 71.87 177.1 71.87 180.5 70.77"/><path d="M-1201-92.28l.9-3.8h.6l-.1.5h0l.3-.3c.1-.1.2-.1.3-.2s.2-.1.4-.1a.6.6,0,0,1,.4.1c.1.1.2.1.3.2a.6.6,0,0,1,.1.4v.3a.76.76,0,0,1-.1.4l-.6,2.4h-.8l.5-2.3a.37.37,0,0,1,.1-.3v-.3c0-.1,0-.2-.1-.2s-.1-.1-.2-.1a.6.6,0,0,0-.4.1,1.38,1.38,0,0,0-.3.4,1.45,1.45,0,0,0-.2.7l-.5,2h-.6Z" transform="translate(1429.02 177.85)"/><path d="M-1197.92-90.68l1.3-5.4h.6l-.1.5h0l.3-.3c.1-.1.2-.2.3-.2s.2-.1.4-.1.3,0,.4.1a1.38,1.38,0,0,1,.3.4,1.27,1.27,0,0,1,.1.6,1.7,1.7,0,0,1-.1.7c-.1.2-.1.5-.2.8a4.88,4.88,0,0,1-.3.7,1.21,1.21,0,0,1-.5.5,1.42,1.42,0,0,1-.6.2.37.37,0,0,1-.3-.1.22.22,0,0,1-.2-.2c-.1-.1-.1-.2-.2-.3h0a.76.76,0,0,1-.1.4c-.1.2,0,.2-.1.3l-.3,1.4Zm1.8-2.1a.76.76,0,0,0,.4-.1,1.38,1.38,0,0,0,.3-.4c.1-.2.2-.3.2-.5a1.27,1.27,0,0,0,.1-.6v-.5c0-.2,0-.3-.1-.4s-.1-.1-.3-.1a.37.37,0,0,0-.3.1l-.3.3c-.1.1-.1.3-.2.4s-.1.3-.2.5a.9.9,0,0,0-.1.5v.4c0,.2,0,.3.1.4S-1196.22-92.78-1196.12-92.78Z" transform="translate(1429.02 177.85)"/><path d="M-1192.82-92.18a1.27,1.27,0,0,1-.6-.1.78.78,0,0,1-.4-.4,1.27,1.27,0,0,1-.1-.6,1.27,1.27,0,0,1,.1-.6,1.85,1.85,0,0,1,.2-.7,2.51,2.51,0,0,1,.4-.7,1.21,1.21,0,0,1,.5-.5,1.85,1.85,0,0,1,.7-.2,1.27,1.27,0,0,1,.6.1.78.78,0,0,1,.4.4,1.27,1.27,0,0,1,.1.6,1.7,1.7,0,0,1-.1.7c-.1.2-.1.5-.2.7s-.2.5-.4.6-.3.3-.5.5A1.85,1.85,0,0,1-1192.82-92.18Zm.1-.6a.6.6,0,0,0,.4-.1,1.38,1.38,0,0,0,.3-.4c.1-.2.2-.3.2-.5a1.27,1.27,0,0,0,.1-.6v-.8a.35.35,0,0,0-.1-.2c-.1,0-.1-.1-.2-.1a.76.76,0,0,0-.4.2,1.38,1.38,0,0,0-.3.4c-.1.2-.2.3-.2.5a1.27,1.27,0,0,0-.1.6v.5c0,.2,0,.3.1.4S-1192.92-92.78-1192.72-92.78Z" transform="translate(1429.02 177.85)"/><path d="M-1189.82-90.58l.4-1.6a.85.85,0,0,1-.6-.2,2.18,2.18,0,0,1-.4-.5,1.48,1.48,0,0,1-.1-.7,2,2,0,0,1,.1-.7,6.37,6.37,0,0,0,.2-.7,2.09,2.09,0,0,1,.4-.6,2.09,2.09,0,0,1,.6-.4,1.88,1.88,0,0,1,.8-.2l.4-1.5h.7l-.4,1.5a1.27,1.27,0,0,1,.9.4,1.33,1.33,0,0,1,.3,1,2,2,0,0,1-.1.7c-.1.2-.1.5-.2.7a2.09,2.09,0,0,1-.4.6,2.09,2.09,0,0,1-.6.4,1.88,1.88,0,0,1-.8.2l-.4,1.6Zm.5-2.2.6-2.7a.76.76,0,0,0-.5.2,2.18,2.18,0,0,0-.4.5,1.42,1.42,0,0,0-.2.6c0,.2-.1.4-.1.6a.76.76,0,0,0,.1.4.77.77,0,0,0,.2.3A.37.37,0,0,1-1189.32-92.78Zm.8,0a.52.52,0,0,0,.4-.2,1.38,1.38,0,0,0,.3-.4.76.76,0,0,0,.2-.5.9.9,0,0,0,.1-.5v-.4a.6.6,0,0,0-.1-.4c0-.1-.1-.2-.2-.3a.37.37,0,0,0-.3-.1Z" transform="translate(1429.02 177.85)"/><path d="M-1185-92.18c-.2,0-.5,0-.6-.1a.78.78,0,0,1-.4-.4,1.27,1.27,0,0,1-.1-.6,3.08,3.08,0,0,1,.1-1,3.55,3.55,0,0,1,.4-.9,1.7,1.7,0,0,1,.6-.6,1.88,1.88,0,0,1,.8-.2,1.45,1.45,0,0,1,.7.2.6.6,0,0,1,.3.6,1.27,1.27,0,0,1-.1.6.78.78,0,0,1-.4.4l-.6.3a2,2,0,0,1-.8.1h-.1v.4a.76.76,0,0,0,.2.5.76.76,0,0,0,.5.2c.2,0,.3,0,.4-.1a.76.76,0,0,0,.4-.2v.5c-.2.1-.3.2-.5.2A5.38,5.38,0,0,0-1185-92.18Zm-.3-2.3h0c.3,0,.6,0,.7-.1s.3-.2.4-.3a.6.6,0,0,0,.1-.4c0-.1,0-.2-.1-.2s-.1-.1-.3-.1a.76.76,0,0,0-.4.1c-.2.1-.2.2-.3.4A1.27,1.27,0,0,1-1185.32-94.48Z" transform="translate(1429.02 177.85)"/><path d="M-1182-92.18a1.27,1.27,0,0,1-.6-.1.78.78,0,0,1-.4-.4,1.27,1.27,0,0,1-.1-.6,1.7,1.7,0,0,1,.1-.7,1.45,1.45,0,0,1,.2-.7,2.51,2.51,0,0,1,.4-.7c.2-.2.3-.4.5-.5a1.85,1.85,0,0,1,.7-.2h.4c.1,0,.3.1.4.1l-.3.5a.35.35,0,0,1-.2-.1h-.3a.76.76,0,0,0-.5.2,2.18,2.18,0,0,0-.4.5,1.45,1.45,0,0,0-.2.7c0,.2-.1.5-.1.6s0,.3.1.4a.22.22,0,0,0,.2.2c.1,0,.2.1.3.1a.37.37,0,0,0,.3-.1c.1-.1.2-.1.4-.2v.6c-.1.1-.2.1-.4.2S-1181.82-92.18-1182-92.18Z" transform="translate(1429.02 177.85)"/><path d="M-1179.62-92.18c-.2,0-.3,0-.4-.1s-.2-.1-.3-.3a.76.76,0,0,1-.1-.4v-.3a.37.37,0,0,1,.1-.3l.6-2.5h.8l-.6,2.3c0,.1-.1.2-.1.3v.3c0,.1,0,.2.1.2s.1.1.2.1a.6.6,0,0,0,.4-.1,1.38,1.38,0,0,0,.3-.4,1.45,1.45,0,0,0,.2-.7l.5-2h.8l-.9,3.8h-.6v-.5h0l-.3.3c-.1.1-.2.1-.3.2A.6.6,0,0,1-1179.62-92.18Z" transform="translate(1429.02 177.85)"/><path d="M-1175.92-92.18a1.27,1.27,0,0,1-.6-.1.78.78,0,0,1-.4-.4,1.27,1.27,0,0,1-.1-.6,1.27,1.27,0,0,1,.1-.6,1.85,1.85,0,0,1,.2-.7,2.51,2.51,0,0,1,.4-.7,1.21,1.21,0,0,1,.5-.5,1.85,1.85,0,0,1,.7-.2,1.27,1.27,0,0,1,.6.1.78.78,0,0,1,.4.4,1.27,1.27,0,0,1,.1.6,1.7,1.7,0,0,1-.1.7c-.1.2-.1.5-.2.7s-.2.5-.4.6-.3.3-.5.5A1.45,1.45,0,0,1-1175.92-92.18Zm.1-.6a.6.6,0,0,0,.4-.1,1.38,1.38,0,0,0,.3-.4c.1-.2.2-.3.2-.5a1.27,1.27,0,0,0,.1-.6v-.8a.35.35,0,0,0-.1-.2c-.1,0-.1-.1-.2-.1a.76.76,0,0,0-.4.2,1.38,1.38,0,0,0-.3.4c-.1.2-.2.3-.2.5a1.27,1.27,0,0,0-.1.6v.5c0,.2,0,.3.1.4S-1176-92.78-1175.82-92.78Z" transform="translate(1429.02 177.85)"/><path d="M-1173.92-92.28l.9-3.8h.8l-.4,1.5h1l.4-1.5h.8l-.9,3.8h-.8l.4-1.7h-1l-.4,1.7Z" transform="translate(1429.02 177.85)"/><path d="M-1169.42-92.18a.9.9,0,0,1-.5-.1,1.38,1.38,0,0,1-.3-.4,1.27,1.27,0,0,1-.1-.6,2,2,0,0,1,.1-.7c.1-.3.1-.5.2-.8a4.88,4.88,0,0,1,.3-.7,1.21,1.21,0,0,1,.5-.5,1.42,1.42,0,0,1,.6-.2.37.37,0,0,1,.3.1c.1.1.2.1.2.2s.1.2.2.3h0l.2-.5h.7l-.9,3.8h-.6v-.5h0l-.3.3c-.1.1-.2.2-.3.2S-1169.32-92.18-1169.42-92.18Zm.3-.6a.52.52,0,0,0,.4-.2,2.19,2.19,0,0,0,.3-.5c.1-.2.1-.4.2-.6a1.27,1.27,0,0,0,.1-.6v-.4c0-.2,0-.3-.1-.4a.37.37,0,0,0-.3-.1c-.1,0-.2.1-.4.2a1.38,1.38,0,0,0-.3.4c-.1.2-.2.3-.2.5a1.27,1.27,0,0,0-.1.6v.5c0,.2,0,.3.1.4S-1169.22-92.78-1169.12-92.78Z" transform="translate(1429.02 177.85)"/><path d="M-1167-92.28h-.4v-.6h.2c.1,0,.2,0,.2-.1s.1-.1.2-.2.1-.2.2-.4a6.37,6.37,0,0,0,.2-.7,3.09,3.09,0,0,0,.2-.8c0-.2.2-.4.4-.6a.55.55,0,0,1,.5-.3,1.48,1.48,0,0,1,.7-.1h.9l-.9,3.8h-.8l.8-3.2h-.2a.52.52,0,0,0-.4.2,2.19,2.19,0,0,0-.3.5,4.65,4.65,0,0,0-.3.9,6.37,6.37,0,0,1-.2.7l-.3.6a.78.78,0,0,1-.4.4C-1166.92-92.08-1166.82-92.28-1167-92.28Z" transform="translate(1429.02 177.85)"/><path d="M-1162.72-92.18c-.2,0-.3,0-.4-.1s-.2-.1-.3-.3a.76.76,0,0,1-.1-.4v-.3a.37.37,0,0,1,.1-.3l.6-2.5h.8l-.6,2.3c0,.1-.1.2-.1.3v.3c0,.1,0,.2.1.2s.1.1.2.1a.6.6,0,0,0,.4-.1,1.38,1.38,0,0,0,.3-.4,1.45,1.45,0,0,0,.2-.7l.5-2h.8l-.9,3.8h-.6v-.5h0l-.3.3c-.1.1-.2.1-.3.2A.6.6,0,0,1-1162.72-92.18Z" transform="translate(1429.02 177.85)"/><path d="M-1159-92.18a1.27,1.27,0,0,1-.6-.1.78.78,0,0,1-.4-.4,1.27,1.27,0,0,1-.1-.6,1.7,1.7,0,0,1,.1-.7,1.45,1.45,0,0,1,.2-.7,2.51,2.51,0,0,1,.4-.7c.2-.2.3-.4.5-.5a1.85,1.85,0,0,1,.7-.2h.4c.1,0,.3.1.4.1l-.3.5a.35.35,0,0,1-.2-.1h-.3a.76.76,0,0,0-.5.2,2.18,2.18,0,0,0-.4.5,1.45,1.45,0,0,0-.2.7c0,.2-.1.5-.1.6s0,.3.1.4a.22.22,0,0,0,.2.2c.1,0,.2.1.3.1a.37.37,0,0,0,.3-.1c.1-.1.2-.1.4-.2v.6c-.1.1-.2.1-.4.2S-1158.82-92.18-1159-92.18Z" transform="translate(1429.02 177.85)"/><path d="M-1157.62-92.28l.9-3.8h.6l-.1.5h0l.3-.3c.1-.1.2-.1.3-.2s.2-.1.4-.1a.75.75,0,0,1,.5.1,1.38,1.38,0,0,1,.3.4h0l.3-.3c.1-.1.2-.1.3-.2s.2-.1.4-.1a1.42,1.42,0,0,1,.6.2.85.85,0,0,1,.2.6v.2a.49.49,0,0,1-.1.3l-.6,2.6h-.8l.6-2.4a.37.37,0,0,1,.1-.3v-.2a.37.37,0,0,0-.1-.3c-.1-.1-.1-.1-.2-.1a.37.37,0,0,0-.3.1l-.2.2c-.1.1-.1.2-.2.3s-.1.2-.1.3l-.6,2.3h-.8l.6-2.5v-.4a.37.37,0,0,0-.1-.3c-.1-.1-.1-.1-.2-.1a.37.37,0,0,0-.3.1c-.1.1-.2.2-.2.3s-.1.2-.2.4-.1.3-.1.4l-.5,2h-.7Z" transform="translate(1429.02 177.85)"/><path d="M-1151.62-92.18c-.2,0-.3,0-.4-.1s-.2-.1-.3-.3a.76.76,0,0,1-.1-.4v-.3a.37.37,0,0,1,.1-.3l.6-2.5h.8l-.6,2.3c0,.1-.1.2-.1.3v.3c0,.1,0,.2.1.2s.1.1.2.1a.6.6,0,0,0,.4-.1,1.38,1.38,0,0,0,.3-.4,1.45,1.45,0,0,0,.2-.7l.5-2h.8l-.9,3.8h-.6v-.5h0l-.3.3c-.1.1-.2.1-.3.2S-1151.42-92.18-1151.62-92.18Z" transform="translate(1429.02 177.85)"/><path d="M-1147.82-92.28l.9-3.8h.6l-.1.5h0l.3-.3c.1-.1.2-.1.3-.2s.2-.1.4-.1a.6.6,0,0,1,.4.1c.1.1.2.1.3.2a.6.6,0,0,1,.1.4v.3a.76.76,0,0,1-.1.4l-.6,2.4h-.8l.5-2.3a.37.37,0,0,1,.1-.3v-.3c0-.1,0-.2-.1-.2s-.1-.1-.2-.1a.6.6,0,0,0-.4.1,1.38,1.38,0,0,0-.3.4,1.45,1.45,0,0,0-.2.7l-.5,2h-.6Z" transform="translate(1429.02 177.85)"/><path d="M-1143.12-92.18a1.27,1.27,0,0,1-.6-.1.78.78,0,0,1-.4-.4,1.27,1.27,0,0,1-.1-.6,1.27,1.27,0,0,1,.1-.6,1.85,1.85,0,0,1,.2-.7,2.51,2.51,0,0,1,.4-.7,1.21,1.21,0,0,1,.5-.5,1.85,1.85,0,0,1,.7-.2,1.27,1.27,0,0,1,.6.1.78.78,0,0,1,.4.4,1.27,1.27,0,0,1,.1.6,1.7,1.7,0,0,1-.1.7c-.1.2-.1.5-.2.7s-.2.5-.4.6-.3.3-.5.5A1.85,1.85,0,0,1-1143.12-92.18Zm.1-.6a.6.6,0,0,0,.4-.1,1.38,1.38,0,0,0,.3-.4c.1-.2.2-.3.2-.5a1.27,1.27,0,0,0,.1-.6v-.8a.35.35,0,0,0-.1-.2c-.1,0-.1-.1-.2-.1a.76.76,0,0,0-.4.2,1.38,1.38,0,0,0-.3.4c-.1.2-.2.3-.2.5a1.27,1.27,0,0,0-.1.6v.5c0,.2,0,.3.1.4S-1143.22-92.78-1143-92.78Z" transform="translate(1429.02 177.85)"/><path d="M-1139.72-92.28l.9-3.8h.6l-.1.5h0l.3-.3c.1-.1.2-.1.3-.2s.2-.1.4-.1a.6.6,0,0,1,.4.1c.1.1.2.1.3.2a.6.6,0,0,1,.1.4v.3a.76.76,0,0,1-.1.4l-.6,2.4h-.8l.5-2.3a.37.37,0,0,1,.1-.3v-.3c0-.1,0-.2-.1-.2s-.1-.1-.2-.1a.6.6,0,0,0-.4.1,1.38,1.38,0,0,0-.3.4,1.45,1.45,0,0,0-.2.7l-.5,2h-.6Z" transform="translate(1429.02 177.85)"/><path d="M-1136.72-90.68l1.3-5.4h.6l-.1.5h0l.3-.3c.1-.1.2-.2.3-.2s.2-.1.4-.1.3,0,.4.1a1.38,1.38,0,0,1,.3.4,1.27,1.27,0,0,1,.1.6,1.7,1.7,0,0,1-.1.7c-.1.2-.1.5-.2.8a4.88,4.88,0,0,1-.3.7,1.21,1.21,0,0,1-.5.5,1.42,1.42,0,0,1-.6.2.37.37,0,0,1-.3-.1.22.22,0,0,1-.2-.2c-.1-.1-.1-.2-.2-.3h0a.76.76,0,0,1-.1.4c-.1.2,0,.2-.1.3l-.3,1.4Zm1.8-2.1a.76.76,0,0,0,.4-.1,1.38,1.38,0,0,0,.3-.4c.1-.2.2-.3.2-.5a1.27,1.27,0,0,0,.1-.6v-.5c0-.2,0-.3-.1-.4s-.1-.1-.3-.1a.37.37,0,0,0-.3.1l-.3.3c-.1.1-.1.3-.2.4s-.1.3-.2.5a.9.9,0,0,0-.1.5v.4c0,.2,0,.3.1.4S-1135-92.78-1134.92-92.78Z" transform="translate(1429.02 177.85)"/><path d="M-1131.52-92.18c-.2,0-.5,0-.6-.1a.78.78,0,0,1-.4-.4,1.27,1.27,0,0,1-.1-.6,3.08,3.08,0,0,1,.1-1,3.55,3.55,0,0,1,.4-.9,1.7,1.7,0,0,1,.6-.6,1.88,1.88,0,0,1,.8-.2,1.45,1.45,0,0,1,.7.2.6.6,0,0,1,.3.6,1.27,1.27,0,0,1-.1.6.78.78,0,0,1-.4.4l-.6.3a2,2,0,0,1-.8.1h-.1v.4a.76.76,0,0,0,.2.5.76.76,0,0,0,.5.2c.2,0,.3,0,.4-.1a.76.76,0,0,0,.4-.2v.5c-.2.1-.3.2-.5.2C-1131.12-92.28-1131.32-92.18-1131.52-92.18Zm-.3-2.3h0c.3,0,.6,0,.7-.1s.3-.2.4-.3a.6.6,0,0,0,.1-.4c0-.1,0-.2-.1-.2s-.1-.1-.3-.1a.76.76,0,0,0-.4.1c-.2.1-.2.2-.3.4A.66.66,0,0,1-1131.82-94.48Z" transform="translate(1429.02 177.85)"/><path d="M-1129.82-92.28l.9-3.8h1v2.7h0l1.3-2.7h1.1l-.9,3.8h-.7l.5-1.9c0-.1.1-.3.1-.4s.1-.3.1-.4h0l-1.3,2.7h-.6V-95h0c0,.1-.1.2-.1.4a.6.6,0,0,1-.1.4l-.5,2h-.8Z" transform="translate(1429.02 177.85)"/><path d="M-1124.12-92.18c-.2,0-.5,0-.6-.1a.78.78,0,0,1-.4-.4,1.27,1.27,0,0,1-.1-.6,3.08,3.08,0,0,1,.1-1,3.55,3.55,0,0,1,.4-.9,1.7,1.7,0,0,1,.6-.6,1.88,1.88,0,0,1,.8-.2,1.45,1.45,0,0,1,.7.2.6.6,0,0,1,.3.6,1.27,1.27,0,0,1-.1.6.78.78,0,0,1-.4.4l-.6.3a2,2,0,0,1-.8.1h-.1v.4a.76.76,0,0,0,.2.5.76.76,0,0,0,.5.2c.2,0,.3,0,.4-.1a.76.76,0,0,0,.4-.2v.5c-.2.1-.3.2-.5.2C-1123.72-92.28-1123.92-92.18-1124.12-92.18Zm-.2-2.3h0c.3,0,.6,0,.7-.1s.3-.2.4-.3a.6.6,0,0,0,.1-.4c0-.1,0-.2-.1-.2s-.1-.1-.3-.1a.76.76,0,0,0-.4.1c-.2.1-.2.2-.3.4S-1124.32-94.68-1124.32-94.48Z" transform="translate(1429.02 177.85)"/><path d="M-1121-92.18a1.27,1.27,0,0,1-.6-.1.78.78,0,0,1-.4-.4,1.27,1.27,0,0,1-.1-.6,1.7,1.7,0,0,1,.1-.7,1.45,1.45,0,0,1,.2-.7,2.51,2.51,0,0,1,.4-.7c.2-.2.3-.4.5-.5a1.85,1.85,0,0,1,.7-.2h.4c.1,0,.3.1.4.1l-.3.5a.35.35,0,0,1-.2-.1h-.3a.76.76,0,0,0-.5.2,2.18,2.18,0,0,0-.4.5,1.45,1.45,0,0,0-.2.7c0,.2-.1.5-.1.6s0,.3.1.4a.22.22,0,0,0,.2.2c.1,0,.2.1.3.1a.37.37,0,0,0,.3-.1c.1-.1.2-.1.4-.2v.6c-.1.1-.2.1-.4.2A1.69,1.69,0,0,1-1121-92.18Z" transform="translate(1429.02 177.85)"/><path d="M-1119.72-92.28l.9-3.8h.6l-.1.5h0l.3-.3c.1-.1.2-.1.3-.2s.2-.1.4-.1a.75.75,0,0,1,.5.1,1.38,1.38,0,0,1,.3.4h0l.3-.3c.1-.1.2-.1.3-.2s.2-.1.4-.1a1.42,1.42,0,0,1,.6.2.85.85,0,0,1,.2.6v.2a.49.49,0,0,1-.1.3l-.6,2.6h-.8l.6-2.4a.37.37,0,0,1,.1-.3v-.2a.37.37,0,0,0-.1-.3c-.1-.1-.1-.1-.2-.1a.37.37,0,0,0-.3.1l-.2.2c-.1.1-.1.2-.2.3s-.1.2-.1.3l-.6,2.3h-.8l.6-2.5v-.4a.37.37,0,0,0-.1-.3c-.1-.1-.1-.1-.2-.1a.37.37,0,0,0-.3.1c-.1.1-.2.2-.2.3s-.1.2-.2.4-.1.3-.1.4l-.5,2h-.7Z" transform="translate(1429.02 177.85)"/><path d="M-1113.22-92.18c-.2,0-.5,0-.6-.1a.78.78,0,0,1-.4-.4,1.45,1.45,0,0,1-.2-.7,1.7,1.7,0,0,1,.1-.7,1.85,1.85,0,0,1,.2-.7c.1-.2.2-.5.4-.6s.4-.3.6-.5a1.88,1.88,0,0,1,.8-.2,1.27,1.27,0,0,1,.6.1,1.38,1.38,0,0,1,.4.3.75.75,0,0,1,.1.5.9.9,0,0,1-.1.5c-.1.1-.2.3-.3.3a.76.76,0,0,1-.5.2h0a.52.52,0,0,1,.4.2.76.76,0,0,1,.2.5,1.42,1.42,0,0,1-.2.6,1,1,0,0,1-.5.4A1.69,1.69,0,0,1-1113.22-92.18Zm.1-.6a.6.6,0,0,0,.4-.1c.1-.1.2-.1.2-.3s.1-.2.1-.3a.37.37,0,0,0-.1-.3c0-.1-.1-.1-.2-.2s-.2-.1-.3-.1h-.6v.6c0,.3,0,.4.1.5A.76.76,0,0,0-1113.12-92.78Zm-.3-1.7h.6c.2,0,.3,0,.4-.1s.2-.1.3-.2.1-.2.1-.4a.37.37,0,0,0-.1-.3.37.37,0,0,0-.3-.1c-.2,0-.3,0-.4.1a1.38,1.38,0,0,0-.3.4A.86.86,0,0,0-1113.42-94.48Z" transform="translate(1429.02 177.85)"/><path d="M-1110.12-92.18a.9.9,0,0,1-.5-.1,1.38,1.38,0,0,1-.3-.4,1.27,1.27,0,0,1-.1-.6,2,2,0,0,1,.1-.7c.1-.3.1-.5.2-.8a4.88,4.88,0,0,1,.3-.7,1.21,1.21,0,0,1,.5-.5,1.42,1.42,0,0,1,.6-.2.37.37,0,0,1,.3.1c.1.1.2.1.2.2s.1.2.2.3h0l.2-.5h.7l-.9,3.8h-.6v-.5h0l-.3.3c-.1.1-.2.2-.3.2S-1110-92.18-1110.12-92.18Zm.3-.6a.52.52,0,0,0,.4-.2,2.19,2.19,0,0,0,.3-.5c.1-.2.1-.4.2-.6a1.27,1.27,0,0,0,.1-.6v-.4c0-.2,0-.3-.1-.4a.37.37,0,0,0-.3-.1c-.1,0-.2.1-.4.2a1.38,1.38,0,0,0-.3.4c-.1.2-.2.3-.2.5a1.27,1.27,0,0,0-.1.6v.5c0,.2,0,.3.1.4S-1109.92-92.78-1109.82-92.78Z" transform="translate(1429.02 177.85)"/><path d="M-1107.72-92.28l.9-3.8h.8l-.4,1.5h1l.4-1.5h.8l-.9,3.8h-.8l.4-1.7h-1l-.4,1.7Z" transform="translate(1429.02 177.85)"/><path d="M-1102.92-92.18c-.2,0-.5,0-.6-.1a.78.78,0,0,1-.4-.4,1.27,1.27,0,0,1-.1-.6,3.08,3.08,0,0,1,.1-1,3.55,3.55,0,0,1,.4-.9,1.7,1.7,0,0,1,.6-.6,1.88,1.88,0,0,1,.8-.2,1.45,1.45,0,0,1,.7.2.6.6,0,0,1,.3.6,1.27,1.27,0,0,1-.1.6.78.78,0,0,1-.4.4l-.6.3a2,2,0,0,1-.8.1h-.1v.4a.76.76,0,0,0,.2.5.76.76,0,0,0,.5.2c.2,0,.3,0,.4-.1a.76.76,0,0,0,.4-.2v.5c-.2.1-.3.2-.5.2C-1102.52-92.28-1102.72-92.18-1102.92-92.18Zm-.2-2.3h0c.3,0,.6,0,.7-.1s.3-.2.4-.3a.6.6,0,0,0,.1-.4c0-.1,0-.2-.1-.2s-.1-.1-.3-.1a.76.76,0,0,0-.4.1c-.2.1-.2.2-.3.4S-1103.12-94.68-1103.12-94.48Z" transform="translate(1429.02 177.85)"/><path d="M-1056.92-45.58l.9-3.8h.6l-.1.5h0l.3-.3c.1-.1.2-.1.3-.2s.2-.1.4-.1a.6.6,0,0,1,.4.1c.1.1.2.1.3.2a.6.6,0,0,1,.1.4v.3a.76.76,0,0,1-.1.4l-.6,2.4h-.8l.5-2.3a.37.37,0,0,1,.1-.3v-.3c0-.1,0-.2-.1-.2s-.1-.1-.2-.1a.6.6,0,0,0-.4.1,1.38,1.38,0,0,0-.3.4,1.45,1.45,0,0,0-.2.7l-.5,2h-.6Z" transform="translate(1429.02 177.85)"/><path d="M-1053.82-44l1.3-5.4h.6l-.1.5h0l.3-.3c.1-.1.2-.2.3-.2s.2-.1.4-.1.3,0,.4.1a1.38,1.38,0,0,1,.3.4,1.27,1.27,0,0,1,.1.6,1.7,1.7,0,0,1-.1.7c-.1.2-.1.5-.2.8a4.88,4.88,0,0,1-.3.7,1.21,1.21,0,0,1-.5.5,1.42,1.42,0,0,1-.6.2.37.37,0,0,1-.3-.1.22.22,0,0,1-.2-.2c-.1-.1-.1-.2-.2-.3h0a.76.76,0,0,1-.1.4c-.1.2,0,.2-.1.3l-.3,1.4Zm1.8-2.1a.76.76,0,0,0,.4-.1,1.38,1.38,0,0,0,.3-.4c.1-.2.2-.3.2-.5a1.27,1.27,0,0,0,.1-.6v-.5c0-.2,0-.3-.1-.4s-.1-.1-.3-.1a.37.37,0,0,0-.3.1l-.3.3c-.1.1-.1.3-.2.4s-.1.3-.2.5a.9.9,0,0,0-.1.5v.4c0,.2,0,.3.1.4S-1052.12-46.08-1052-46.08Z" transform="translate(1429.02 177.85)"/><path d="M-1048.72-45.58a1.27,1.27,0,0,1-.6-.1.78.78,0,0,1-.4-.4,1.27,1.27,0,0,1-.1-.6,1.27,1.27,0,0,1,.1-.6,1.85,1.85,0,0,1,.2-.7,2.51,2.51,0,0,1,.4-.7,1.21,1.21,0,0,1,.5-.5,1.85,1.85,0,0,1,.7-.2,1.27,1.27,0,0,1,.6.1.78.78,0,0,1,.4.4,1.27,1.27,0,0,1,.1.6,1.7,1.7,0,0,1-.1.7c-.1.2-.1.5-.2.7s-.2.5-.4.6-.3.3-.5.5A1,1,0,0,1-1048.72-45.58Zm.1-.5a.6.6,0,0,0,.4-.1,1.38,1.38,0,0,0,.3-.4c.1-.2.2-.3.2-.5a1.27,1.27,0,0,0,.1-.6v-.8a.35.35,0,0,0-.1-.2c-.1,0-.1-.1-.2-.1a.76.76,0,0,0-.4.2,1.38,1.38,0,0,0-.3.4c-.1.2-.2.3-.2.5a1.27,1.27,0,0,0-.1.6v.5c0,.2,0,.3.1.4S-1048.82-46.08-1048.62-46.08Z" transform="translate(1429.02 177.85)"/><path d="M-1045.72-43.88l.4-1.6a.85.85,0,0,1-.6-.2,2.18,2.18,0,0,1-.4-.5,1.48,1.48,0,0,1-.1-.7,2,2,0,0,1,.1-.7,6.37,6.37,0,0,0,.2-.7,2.09,2.09,0,0,1,.4-.6,2.09,2.09,0,0,1,.6-.4,1.88,1.88,0,0,1,.8-.2l.4-1.5h.7l-.4,1.5a1.27,1.27,0,0,1,.9.4,1.33,1.33,0,0,1,.3,1,2,2,0,0,1-.1.7c-.1.2-.1.5-.2.7a2.09,2.09,0,0,1-.4.6,2.09,2.09,0,0,1-.6.4,1.88,1.88,0,0,1-.8.2l-.4,1.6Zm.5-2.3.6-2.7a.76.76,0,0,0-.5.2,2.18,2.18,0,0,0-.4.5,1.42,1.42,0,0,0-.2.6c0,.2-.1.4-.1.6a.76.76,0,0,0,.1.4.77.77,0,0,0,.2.3A.37.37,0,0,0-1045.22-46.18Zm.8,0a.52.52,0,0,0,.4-.2,1.38,1.38,0,0,0,.3-.4.76.76,0,0,0,.2-.5.9.9,0,0,0,.1-.5v-.4a.6.6,0,0,0-.1-.4c0-.1-.1-.2-.2-.3a.37.37,0,0,0-.3-.1Z" transform="translate(1429.02 177.85)"/><path d="M-1040.92-45.58c-.2,0-.5,0-.6-.1a.78.78,0,0,1-.4-.4,1.27,1.27,0,0,1-.1-.6,3.08,3.08,0,0,1,.1-1,3.55,3.55,0,0,1,.4-.9,1.7,1.7,0,0,1,.6-.6,1.88,1.88,0,0,1,.8-.2,1.45,1.45,0,0,1,.7.2.6.6,0,0,1,.3.6,1.27,1.27,0,0,1-.1.6.78.78,0,0,1-.4.4l-.6.3a2,2,0,0,1-.8.1h-.1v.4a.76.76,0,0,0,.2.5.76.76,0,0,0,.5.2c.2,0,.3,0,.4-.1a.76.76,0,0,0,.4-.2v.5c-.2.1-.3.2-.5.2A3.22,3.22,0,0,1-1040.92-45.58Zm-.3-2.2h0c.3,0,.6,0,.7-.1s.3-.2.4-.3a.6.6,0,0,0,.1-.4c0-.1,0-.2-.1-.2s-.1-.1-.3-.1a.76.76,0,0,0-.4.1c-.2.1-.2.2-.3.4A1.27,1.27,0,0,1-1041.22-47.78Z" transform="translate(1429.02 177.85)"/><path d="M-1037.92-45.58a1.27,1.27,0,0,1-.6-.1.78.78,0,0,1-.4-.4,1.27,1.27,0,0,1-.1-.6,1.7,1.7,0,0,1,.1-.7,1.45,1.45,0,0,1,.2-.7,2.51,2.51,0,0,1,.4-.7c.2-.2.3-.4.5-.5a1.85,1.85,0,0,1,.7-.2h.4c.1,0,.3.1.4.1l-.3.5a.35.35,0,0,1-.2-.1h-.3a.76.76,0,0,0-.5.2,2.18,2.18,0,0,0-.4.5,1.45,1.45,0,0,0-.2.7c0,.2-.1.5-.1.6s0,.3.1.4a.22.22,0,0,0,.2.2c.1,0,.2.1.3.1a.37.37,0,0,0,.3-.1c.1-.1.2-.1.4-.2v.6c-.1.1-.2.1-.4.2A.55.55,0,0,1-1037.92-45.58Z" transform="translate(1429.02 177.85)"/><path d="M-1035.52-45.58c-.2,0-.3,0-.4-.1s-.2-.1-.3-.3a.76.76,0,0,1-.1-.4v-.3a.37.37,0,0,1,.1-.3l.6-2.5h.8l-.6,2.3c0,.1-.1.2-.1.3v.3c0,.1,0,.2.1.2s.1.1.2.1a.6.6,0,0,0,.4-.1,1.38,1.38,0,0,0,.3-.4,1.45,1.45,0,0,0,.2-.7l.5-2h.8l-.9,3.8h-.6v-.5h0l-.3.3c-.1.1-.2.1-.3.2A.6.6,0,0,1-1035.52-45.58Z" transform="translate(1429.02 177.85)"/><path d="M-1031.82-45.58a1.27,1.27,0,0,1-.6-.1.78.78,0,0,1-.4-.4,1.27,1.27,0,0,1-.1-.6,1.27,1.27,0,0,1,.1-.6,1.85,1.85,0,0,1,.2-.7,2.51,2.51,0,0,1,.4-.7,1.21,1.21,0,0,1,.5-.5,1.85,1.85,0,0,1,.7-.2,1.27,1.27,0,0,1,.6.1.78.78,0,0,1,.4.4,1.27,1.27,0,0,1,.1.6,1.7,1.7,0,0,1-.1.7c-.1.2-.1.5-.2.7s-.2.5-.4.6-.3.3-.5.5A.84.84,0,0,1-1031.82-45.58Zm.1-.5a.6.6,0,0,0,.4-.1,1.38,1.38,0,0,0,.3-.4c.1-.2.2-.3.2-.5a1.27,1.27,0,0,0,.1-.6v-.8a.35.35,0,0,0-.1-.2c-.1,0-.1-.1-.2-.1a.76.76,0,0,0-.4.2,1.38,1.38,0,0,0-.3.4c-.1.2-.2.3-.2.5a1.27,1.27,0,0,0-.1.6v.5c0,.2,0,.3.1.4S-1031.92-46.08-1031.72-46.08Z" transform="translate(1429.02 177.85)"/><path d="M-1029.82-45.58l.9-3.8h.8l-.4,1.5h1l.4-1.5h.8l-.9,3.8h-.8l.4-1.7h-1l-.4,1.7Z" transform="translate(1429.02 177.85)"/><path d="M-1025.32-45.58a.9.9,0,0,1-.5-.1,1.38,1.38,0,0,1-.3-.4,1.27,1.27,0,0,1-.1-.6,2,2,0,0,1,.1-.7c.1-.3.1-.5.2-.8a4.88,4.88,0,0,1,.3-.7,1.21,1.21,0,0,1,.5-.5,1.42,1.42,0,0,1,.6-.2.37.37,0,0,1,.3.1c.1.1.2.1.2.2s.1.2.2.3h0l.2-.5h.7l-.9,3.8h-.6v-.5h0l-.3.3c-.1.1-.2.2-.3.2S-1025.22-45.58-1025.32-45.58Zm.3-.5a.52.52,0,0,0,.4-.2,2.19,2.19,0,0,0,.3-.5c.1-.2.1-.4.2-.6a1.27,1.27,0,0,0,.1-.6v-.4c0-.2,0-.3-.1-.4a.37.37,0,0,0-.3-.1c-.1,0-.2.1-.4.2a1.38,1.38,0,0,0-.3.4c-.1.2-.2.3-.2.5a1.27,1.27,0,0,0-.1.6v.5c0,.2,0,.3.1.4S-1025.12-46.08-1025-46.08Z" transform="translate(1429.02 177.85)"/><path d="M-1022.92-45.58h-.4v-.6h.2c.1,0,.2,0,.2-.1s.1-.1.2-.2.1-.2.2-.4a6.37,6.37,0,0,0,.2-.7,3.09,3.09,0,0,0,.2-.8c0-.2.2-.4.4-.6a.55.55,0,0,1,.5-.3,1.48,1.48,0,0,1,.7-.1h.9l-.9,3.8h-.8l.8-3.2h-.2a.52.52,0,0,0-.4.2,2.19,2.19,0,0,0-.3.5,4.65,4.65,0,0,0-.3.9,6.37,6.37,0,0,1-.2.7l-.3.6a.78.78,0,0,1-.4.4C-1022.82-45.38-1022.72-45.58-1022.92-45.58Z" transform="translate(1429.02 177.85)"/><path d="M-1018.62-45.58c-.2,0-.3,0-.4-.1s-.2-.1-.3-.3a.76.76,0,0,1-.1-.4v-.3a.37.37,0,0,1,.1-.3l.6-2.5h.8l-.6,2.3c0,.1-.1.2-.1.3v.3c0,.1,0,.2.1.2s.1.1.2.1a.6.6,0,0,0,.4-.1,1.38,1.38,0,0,0,.3-.4,1.45,1.45,0,0,0,.2-.7l.5-2h.8l-.9,3.8h-.6v-.5h0l-.3.3c-.1.1-.2.1-.3.2A.6.6,0,0,1-1018.62-45.58Z" transform="translate(1429.02 177.85)"/><path d="M-1014.92-45.58a1.27,1.27,0,0,1-.6-.1.78.78,0,0,1-.4-.4,1.27,1.27,0,0,1-.1-.6,1.7,1.7,0,0,1,.1-.7,1.45,1.45,0,0,1,.2-.7,2.51,2.51,0,0,1,.4-.7c.2-.2.3-.4.5-.5a1.85,1.85,0,0,1,.7-.2h.4c.1,0,.3.1.4.1l-.3.5a.35.35,0,0,1-.2-.1h-.3a.76.76,0,0,0-.5.2,2.18,2.18,0,0,0-.4.5,1.45,1.45,0,0,0-.2.7c0,.2-.1.5-.1.6s0,.3.1.4a.22.22,0,0,0,.2.2c.1,0,.2.1.3.1a.37.37,0,0,0,.3-.1c.1-.1.2-.1.4-.2v.6c-.1.1-.2.1-.4.2A.55.55,0,0,1-1014.92-45.58Z" transform="translate(1429.02 177.85)"/><path d="M-1013.52-45.58l.9-3.8h.6l-.1.5h0l.3-.3c.1-.1.2-.1.3-.2s.2-.1.4-.1a.75.75,0,0,1,.5.1,1.38,1.38,0,0,1,.3.4h0l.3-.3c.1-.1.2-.1.3-.2s.2-.1.4-.1a1.42,1.42,0,0,1,.6.2.85.85,0,0,1,.2.6v.2a.49.49,0,0,1-.1.3l-.6,2.6h-.8l.6-2.4a.37.37,0,0,1,.1-.3v-.2a.37.37,0,0,0-.1-.3c-.1-.1-.1-.1-.2-.1a.37.37,0,0,0-.3.1l-.2.2c-.1.1-.1.2-.2.3s-.1.2-.1.3l-.6,2.3h-.8l.6-2.5v-.4a.37.37,0,0,0-.1-.3c-.1-.1-.1-.1-.2-.1a.37.37,0,0,0-.3.1c-.1.1-.2.2-.2.3s-.1.2-.2.4-.1.3-.1.4l-.5,2h-.7Z" transform="translate(1429.02 177.85)"/><path d="M-1007.52-45.58c-.2,0-.3,0-.4-.1s-.2-.1-.3-.3a.76.76,0,0,1-.1-.4v-.3a.37.37,0,0,1,.1-.3l.6-2.5h.8l-.6,2.3c0,.1-.1.2-.1.3v.3c0,.1,0,.2.1.2s.1.1.2.1a.6.6,0,0,0,.4-.1,1.38,1.38,0,0,0,.3-.4,1.45,1.45,0,0,0,.2-.7l.5-2h.8l-.9,3.8h-.6v-.5h0l-.3.3c-.1.1-.2.1-.3.2S-1007.32-45.58-1007.52-45.58Z" transform="translate(1429.02 177.85)"/><path d="M-1003.72-45.58l.9-3.8h.6l-.1.5h0l.3-.3c.1-.1.2-.1.3-.2s.2-.1.4-.1a.6.6,0,0,1,.4.1c.1.1.2.1.3.2a.6.6,0,0,1,.1.4v.3a.76.76,0,0,1-.1.4l-.6,2.4h-.8l.5-2.3a.37.37,0,0,1,.1-.3v-.3c0-.1,0-.2-.1-.2s-.1-.1-.2-.1a.6.6,0,0,0-.4.1,1.38,1.38,0,0,0-.3.4,1.45,1.45,0,0,0-.2.7l-.5,2h-.6Z" transform="translate(1429.02 177.85)"/><path d="M-999-45.58a1.27,1.27,0,0,1-.6-.1.78.78,0,0,1-.4-.4,1.27,1.27,0,0,1-.1-.6,1.27,1.27,0,0,1,.1-.6,1.85,1.85,0,0,1,.2-.7,2.51,2.51,0,0,1,.4-.7,1.21,1.21,0,0,1,.5-.5,1.85,1.85,0,0,1,.7-.2,1.27,1.27,0,0,1,.6.1.78.78,0,0,1,.4.4,1.27,1.27,0,0,1,.1.6,1.7,1.7,0,0,1-.1.7c-.1.2-.1.5-.2.7s-.2.5-.4.6-.3.3-.5.5A1,1,0,0,1-999-45.58Zm.1-.5a.6.6,0,0,0,.4-.1,1.38,1.38,0,0,0,.3-.4c.1-.2.2-.3.2-.5a1.27,1.27,0,0,0,.1-.6v-.8a.35.35,0,0,0-.1-.2c-.1,0-.1-.1-.2-.1a.76.76,0,0,0-.4.2,1.38,1.38,0,0,0-.3.4c-.1.2-.2.3-.2.5a1.27,1.27,0,0,0-.1.6v.5c0,.2,0,.3.1.4S-999.12-46.08-998.92-46.08Z" transform="translate(1429.02 177.85)"/><path d="M-995.62-45.58l.9-3.8h.6l-.1.5h0l.3-.3c.1-.1.2-.1.3-.2s.2-.1.4-.1a.6.6,0,0,1,.4.1c.1.1.2.1.3.2a.6.6,0,0,1,.1.4v.3a.76.76,0,0,1-.1.4l-.6,2.4h-.8l.5-2.3a.37.37,0,0,1,.1-.3v-.3c0-.1,0-.2-.1-.2s-.1-.1-.2-.1a.6.6,0,0,0-.4.1,1.38,1.38,0,0,0-.3.4,1.45,1.45,0,0,0-.2.7l-.5,2h-.6Z" transform="translate(1429.02 177.85)"/><path d="M-992.62-44l1.3-5.4h.6l-.1.5h0l.3-.3c.1-.1.2-.2.3-.2s.2-.1.4-.1.3,0,.4.1a1.38,1.38,0,0,1,.3.4,1.27,1.27,0,0,1,.1.6,1.7,1.7,0,0,1-.1.7c-.1.2-.1.5-.2.8a4.88,4.88,0,0,1-.3.7,1.21,1.21,0,0,1-.5.5,1.42,1.42,0,0,1-.6.2.37.37,0,0,1-.3-.1.22.22,0,0,1-.2-.2c-.1-.1-.1-.2-.2-.3h0a.76.76,0,0,1-.1.4c-.1.2,0,.2-.1.3l-.3,1.4Zm1.8-2.1a.76.76,0,0,0,.4-.1,1.38,1.38,0,0,0,.3-.4c.1-.2.2-.3.2-.5a1.27,1.27,0,0,0,.1-.6v-.5c0-.2,0-.3-.1-.4s-.1-.1-.3-.1a.37.37,0,0,0-.3.1l-.3.3c-.1.1-.1.3-.2.4s-.1.3-.2.5a.9.9,0,0,0-.1.5v.4c0,.2,0,.3.1.4S-990.92-46.08-990.82-46.08Z" transform="translate(1429.02 177.85)"/><path d="M-987.42-45.58c-.2,0-.5,0-.6-.1a.78.78,0,0,1-.4-.4,1.27,1.27,0,0,1-.1-.6,3.08,3.08,0,0,1,.1-1,3.55,3.55,0,0,1,.4-.9,1.7,1.7,0,0,1,.6-.6,1.88,1.88,0,0,1,.8-.2,1.45,1.45,0,0,1,.7.2.6.6,0,0,1,.3.6,1.27,1.27,0,0,1-.1.6.78.78,0,0,1-.4.4l-.6.3a2,2,0,0,1-.8.1h-.1v.4a.76.76,0,0,0,.2.5.76.76,0,0,0,.5.2c.2,0,.3,0,.4-.1a.76.76,0,0,0,.4-.2v.5c-.2.1-.3.2-.5.2A2.81,2.81,0,0,1-987.42-45.58Zm-.3-2.2h0c.3,0,.6,0,.7-.1s.3-.2.4-.3a.6.6,0,0,0,.1-.4c0-.1,0-.2-.1-.2s-.1-.1-.3-.1a.76.76,0,0,0-.4.1c-.2.1-.2.2-.3.4A1.27,1.27,0,0,1-987.72-47.78Z" transform="translate(1429.02 177.85)"/><path d="M-985.72-45.58l.9-3.8h1v2.7h0l1.3-2.7h1.1l-.9,3.8h-.7l.5-1.9c0-.1.1-.3.1-.4s.1-.3.1-.4h0l-1.3,2.7h-.6v-2.7h0c0,.1-.1.2-.1.4a.6.6,0,0,1-.1.4l-.5,2h-.8Z" transform="translate(1429.02 177.85)"/><path d="M-980-45.58c-.2,0-.5,0-.6-.1a.78.78,0,0,1-.4-.4,1.27,1.27,0,0,1-.1-.6,3.08,3.08,0,0,1,.1-1,3.55,3.55,0,0,1,.4-.9,1.7,1.7,0,0,1,.6-.6,1.88,1.88,0,0,1,.8-.2,1.45,1.45,0,0,1,.7.2.6.6,0,0,1,.3.6,1.27,1.27,0,0,1-.1.6.78.78,0,0,1-.4.4l-.6.3a2,2,0,0,1-.8.1h-.1v.4a.76.76,0,0,0,.2.5.76.76,0,0,0,.5.2c.2,0,.3,0,.4-.1a.76.76,0,0,0,.4-.2v.5c-.2.1-.3.2-.5.2A2.81,2.81,0,0,1-980-45.58Zm-.3-2.2h0c.3,0,.6,0,.7-.1s.3-.2.4-.3a.6.6,0,0,0,.1-.4c0-.1,0-.2-.1-.2s-.1-.1-.3-.1a.76.76,0,0,0-.4.1c-.2.1-.2.2-.3.4A.66.66,0,0,1-980.32-47.78Z" transform="translate(1429.02 177.85)"/><path d="M-976.92-45.58a1.27,1.27,0,0,1-.6-.1.78.78,0,0,1-.4-.4,1.27,1.27,0,0,1-.1-.6,1.7,1.7,0,0,1,.1-.7,1.45,1.45,0,0,1,.2-.7,2.51,2.51,0,0,1,.4-.7c.2-.2.3-.4.5-.5a1.85,1.85,0,0,1,.7-.2h.4c.1,0,.3.1.4.1l-.3.5a.35.35,0,0,1-.2-.1h-.3a.76.76,0,0,0-.5.2,2.18,2.18,0,0,0-.4.5,1.45,1.45,0,0,0-.2.7c0,.2-.1.5-.1.6s0,.3.1.4a.22.22,0,0,0,.2.2c.1,0,.2.1.3.1a.37.37,0,0,0,.3-.1c.1-.1.2-.1.4-.2v.6c-.1.1-.2.1-.4.2A.65.65,0,0,1-976.92-45.58Z" transform="translate(1429.02 177.85)"/><path d="M-975.62-45.58l.9-3.8h.6v.5h0l.3-.3c.1-.1.2-.1.3-.2s.2-.1.4-.1a.75.75,0,0,1,.5.1,1.38,1.38,0,0,1,.3.4h0l.3-.3c.1-.1.2-.1.3-.2s.2-.1.4-.1a1.42,1.42,0,0,1,.6.2.85.85,0,0,1,.2.6v.2a.49.49,0,0,1-.1.3l-.6,2.6h-.8l.6-2.4a.37.37,0,0,1,.1-.3v-.2a.37.37,0,0,0-.1-.3c-.1-.1-.1-.1-.2-.1a.37.37,0,0,0-.3.1l-.2.2c-.1.1-.1.2-.2.3s-.1.2-.1.3l-.6,2.3h-.8l.6-2.5v-.4a.37.37,0,0,0-.1-.3c-.1-.1-.1-.1-.2-.1a.37.37,0,0,0-.3.1c-.1.1-.2.2-.2.3s-.1.2-.2.4-.1.3-.1.4l-.5,2h-.8Z" transform="translate(1429.02 177.85)"/><path d="M-969.12-45.58c-.2,0-.5,0-.6-.1a.78.78,0,0,1-.4-.4,1.45,1.45,0,0,1-.2-.7,1.7,1.7,0,0,1,.1-.7,1.85,1.85,0,0,1,.2-.7c.1-.2.2-.5.4-.6s.4-.3.6-.5a1.88,1.88,0,0,1,.8-.2,1.27,1.27,0,0,1,.6.1,1.38,1.38,0,0,1,.4.3.75.75,0,0,1,.1.5.9.9,0,0,1-.1.5c-.1.1-.2.3-.3.3a.76.76,0,0,1-.5.2h0a.52.52,0,0,1,.4.2.76.76,0,0,1,.2.5,1.42,1.42,0,0,1-.2.6,1,1,0,0,1-.5.4A1.31,1.31,0,0,1-969.12-45.58Zm.1-.5a.6.6,0,0,0,.4-.1c.1-.1.2-.1.2-.3s.1-.2.1-.3a.37.37,0,0,0-.1-.3c0-.1-.1-.1-.2-.2s-.2-.1-.3-.1h-.6v.6c0,.3,0,.4.1.5A.76.76,0,0,0-969-46.08Zm-.4-1.7h.6c.2,0,.3,0,.4-.1s.2-.1.3-.2.1-.2.1-.4a.37.37,0,0,0-.1-.3.37.37,0,0,0-.3-.1c-.2,0-.3,0-.4.1a1.38,1.38,0,0,0-.3.4A3.33,3.33,0,0,0-969.42-47.78Z" transform="translate(1429.02 177.85)"/><path d="M-966-45.58a.9.9,0,0,1-.5-.1,1.38,1.38,0,0,1-.3-.4,1.27,1.27,0,0,1-.1-.6,2,2,0,0,1,.1-.7c.1-.3.1-.5.2-.8a4.88,4.88,0,0,1,.3-.7,1.21,1.21,0,0,1,.5-.5,1.42,1.42,0,0,1,.6-.2.37.37,0,0,1,.3.1c.1.1.2.1.2.2s.1.2.2.3h0l.2-.5h.7l-.9,3.8h-.6v-.5h0l-.3.3c-.1.1-.2.2-.3.2S-965.92-45.58-966-45.58Zm.3-.5a.52.52,0,0,0,.4-.2,2.19,2.19,0,0,0,.3-.5c.1-.2.1-.4.2-.6a1.27,1.27,0,0,0,.1-.6v-.4c0-.2,0-.3-.1-.4a.37.37,0,0,0-.3-.1c-.1,0-.2.1-.4.2a1.38,1.38,0,0,0-.3.4c-.1.2-.2.3-.2.5a1.27,1.27,0,0,0-.1.6v.5c0,.2,0,.3.1.4S-965.82-46.08-965.72-46.08Z" transform="translate(1429.02 177.85)"/><path d="M-963.62-45.58l.9-3.8h.8l-.4,1.5h1l.4-1.5h.8l-.9,3.8h-.8l.4-1.7h-1l-.4,1.7Z" transform="translate(1429.02 177.85)"/><path d="M-958.82-45.58c-.2,0-.5,0-.6-.1a.78.78,0,0,1-.4-.4,1.27,1.27,0,0,1-.1-.6,3.08,3.08,0,0,1,.1-1,3.55,3.55,0,0,1,.4-.9,1.7,1.7,0,0,1,.6-.6,1.88,1.88,0,0,1,.8-.2,1.45,1.45,0,0,1,.7.2.6.6,0,0,1,.3.6,1.27,1.27,0,0,1-.1.6.78.78,0,0,1-.4.4l-.6.3a2,2,0,0,1-.8.1h-.1v.4a.76.76,0,0,0,.2.5.76.76,0,0,0,.5.2c.2,0,.3,0,.4-.1a.76.76,0,0,0,.4-.2v.5c-.2.1-.3.2-.5.2A2.81,2.81,0,0,1-958.82-45.58Zm-.2-2.2h0c.3,0,.6,0,.7-.1s.3-.2.4-.3a.6.6,0,0,0,.1-.4c0-.1,0-.2-.1-.2s-.1-.1-.3-.1a.76.76,0,0,0-.4.1c-.2.1-.2.2-.3.4S-959-48-959-47.78Z" transform="translate(1429.02 177.85)"/><path d="M27.88,28.72,33,11.12h-.2l-10.4,17.6h-5.3l-1.3-17.6h-.2l-4,17.6H5.48l5.9-22.9h6.2c2.5,0,3.6,1.9,3.7,4.3l.6,10.1h.2l5.5-10.1c1.3-2.4,3.4-4.3,5.9-4.3h6.4L34,28.72Z" transform="translate(1429.02 177.85)"/><path d="M55.68,16.22a19.43,19.43,0,0,1-.8,4.5c-1.7,6.6-3.5,8.2-10.2,8.2-4.8,0-6.6-1-6.6-3.9a22.08,22.08,0,0,1,.7-4.3c1.7-6.6,3.4-8.2,10.1-8.2C53.78,12.52,55.68,13.22,55.68,16.22Zm-11.5,4.5a7.88,7.88,0,0,0-.4,2.3c0,1,.7,1.2,2.3,1.2,2.4,0,2.8-.3,3.6-3.5a9.06,9.06,0,0,0,.4-2.3c0-1-.6-1.2-2.2-1.2C45.28,17.22,44.88,17.62,44.18,20.72Z" transform="translate(1429.02 177.85)"/><path d="M78.38,12.62h11.1l-1,3.9h-9.7l-2.1,8.3h9.7l-1,3.9H74.28a2.73,2.73,0,0,1-3-2.8,2.77,2.77,0,0,1,.1-.9l2.2-8.6A5.2,5.2,0,0,1,78.38,12.62Zm-.2,9.6V19h8.3v3.2Z" transform="translate(1429.02 177.85)"/><path d="M99.28,20.22l2.5,8.5h-6.2l-1-5.3L91,28.72h-6.3l7-8.5-2.1-7.6h6.1l.7,4.5,3.1-4.5h6.1Z" transform="translate(1429.02 177.85)"/><text class="cls-9" transform="translate(337.96 244.71)">Mo<tspan class="cls-10" x="50.13" y="0">ve</tspan><tspan x="81.18" y="0">x</tspan></text><path d="M-1089,76.62l.9-3.8h.6l-.1.5h0l.3-.3c.1-.1.2-.1.3-.2s.2-.1.4-.1a.6.6,0,0,1,.4.1c.1.1.2.1.3.2a.6.6,0,0,1,.1.4v.3a.76.76,0,0,1-.1.4l-.6,2.4h-.8l.5-2.3a.37.37,0,0,1,.1-.3v-.3c0-.1,0-.2-.1-.2s-.1-.1-.2-.1a.6.6,0,0,0-.4.1,1.38,1.38,0,0,0-.3.4,1.45,1.45,0,0,0-.2.7l-.5,2h-.6Z" transform="translate(1429.02 177.85)"/><path d="M-1086,78.22l1.3-5.4h.6l-.1.5h0l.3-.3c.1-.1.2-.2.3-.2s.2-.1.4-.1.3,0,.4.1a1.38,1.38,0,0,1,.3.4,1.27,1.27,0,0,1,.1.6,1.7,1.7,0,0,1-.1.7c-.1.2-.1.5-.2.8a4.88,4.88,0,0,1-.3.7,1.21,1.21,0,0,1-.5.5,1.42,1.42,0,0,1-.6.2.37.37,0,0,1-.3-.1.22.22,0,0,1-.2-.2c-.1-.1-.1-.2-.2-.3h0a.76.76,0,0,1-.1.4c-.1.2,0,.2-.1.3l-.3,1.4Zm1.9-2.1a.76.76,0,0,0,.4-.1,1.38,1.38,0,0,0,.3-.4c.1-.2.2-.3.2-.5a1.27,1.27,0,0,0,.1-.6V74c0-.2,0-.3-.1-.4s-.1-.1-.3-.1a.37.37,0,0,0-.3.1l-.3.3c-.1.1-.1.3-.2.4s-.1.3-.2.5a.9.9,0,0,0-.1.5v.4c0,.2,0,.3.1.4S-1084.22,76.12-1084.12,76.12Z" transform="translate(1429.02 177.85)"/><path d="M-1080.92,76.72a1.27,1.27,0,0,1-.6-.1.78.78,0,0,1-.4-.4,1.27,1.27,0,0,1-.1-.6,1.27,1.27,0,0,1,.1-.6,1.85,1.85,0,0,1,.2-.7,2.51,2.51,0,0,1,.4-.7,1.21,1.21,0,0,1,.5-.5,1.85,1.85,0,0,1,.7-.2,1.27,1.27,0,0,1,.6.1.78.78,0,0,1,.4.4,1.27,1.27,0,0,1,.1.6,1.7,1.7,0,0,1-.1.7c-.1.2-.1.5-.2.7s-.2.5-.4.6-.3.3-.5.5A1.45,1.45,0,0,1-1080.92,76.72Zm.1-.6a.6.6,0,0,0,.4-.1,1.38,1.38,0,0,0,.3-.4c.1-.2.2-.3.2-.5a1.27,1.27,0,0,0,.1-.6v-.8a.35.35,0,0,0-.1-.2c-.1,0-.1-.1-.2-.1a.76.76,0,0,0-.4.2,1.38,1.38,0,0,0-.3.4c-.1.2-.2.3-.2.5a1.27,1.27,0,0,0-.1.6v.5c0,.2,0,.3.1.4S-1080.92,76.12-1080.82,76.12Z" transform="translate(1429.02 177.85)"/><path d="M-1077.82,78.32l.4-1.6a.85.85,0,0,1-.6-.2,2.18,2.18,0,0,1-.4-.5,1.48,1.48,0,0,1-.1-.7,2,2,0,0,1,.1-.7,6.37,6.37,0,0,0,.2-.7,2.09,2.09,0,0,1,.4-.6,2.09,2.09,0,0,1,.6-.4,1.88,1.88,0,0,1,.8-.2l.4-1.5h.7l-.4,1.5a1.27,1.27,0,0,1,.9.4,1.33,1.33,0,0,1,.3,1,2,2,0,0,1-.1.7c-.1.2-.1.5-.2.7a2.09,2.09,0,0,1-.4.6,2.09,2.09,0,0,1-.6.4,1.88,1.88,0,0,1-.8.2l-.4,1.6Zm.5-2.2.6-2.7a.76.76,0,0,0-.5.2,2.18,2.18,0,0,0-.4.5,1.42,1.42,0,0,0-.2.6c0,.2-.1.4-.1.6a.76.76,0,0,0,.1.4.77.77,0,0,0,.2.3C-1077.52,76-1077.42,76.12-1077.32,76.12Zm.7,0a.52.52,0,0,0,.4-.2,1.38,1.38,0,0,0,.3-.4.76.76,0,0,0,.2-.5.9.9,0,0,0,.1-.5v-.4a.6.6,0,0,0-.1-.4c0-.1-.1-.2-.2-.3a.37.37,0,0,0-.3-.1Z" transform="translate(1429.02 177.85)"/><path d="M-1073.12,76.72c-.2,0-.5,0-.6-.1a.78.78,0,0,1-.4-.4,1.27,1.27,0,0,1-.1-.6,3.08,3.08,0,0,1,.1-1,3.55,3.55,0,0,1,.4-.9,1.7,1.7,0,0,1,.6-.6,1.88,1.88,0,0,1,.8-.2,1.45,1.45,0,0,1,.7.2.6.6,0,0,1,.3.6,1.27,1.27,0,0,1-.1.6.78.78,0,0,1-.4.4l-.6.3a2,2,0,0,1-.8.1h-.1v.4a.76.76,0,0,0,.2.5.76.76,0,0,0,.5.2c.2,0,.3,0,.4-.1a.76.76,0,0,0,.4-.2v.5c-.2.1-.3.2-.5.2A2.81,2.81,0,0,1-1073.12,76.72Zm-.2-2.3h0c.3,0,.6,0,.7-.1s.3-.2.4-.3a.6.6,0,0,0,.1-.4c0-.1,0-.2-.1-.2s-.1-.1-.3-.1a.76.76,0,0,0-.4.1c-.2.1-.2.2-.3.4S-1073.32,74.22-1073.32,74.42Z" transform="translate(1429.02 177.85)"/><path d="M-1070,76.72a1.27,1.27,0,0,1-.6-.1.78.78,0,0,1-.4-.4,1.27,1.27,0,0,1-.1-.6,1.7,1.7,0,0,1,.1-.7,1.45,1.45,0,0,1,.2-.7,2.51,2.51,0,0,1,.4-.7c.2-.2.3-.4.5-.5a1.85,1.85,0,0,1,.7-.2h.4c.1,0,.3.1.4.1l-.3.5a.35.35,0,0,1-.2-.1h-.3a.76.76,0,0,0-.5.2,2.18,2.18,0,0,0-.4.5,1.45,1.45,0,0,0-.2.7c0,.2-.1.5-.1.6s0,.3.1.4a.22.22,0,0,0,.2.2c.1,0,.2.1.3.1a.37.37,0,0,0,.3-.1c.1-.1.2-.1.4-.2v.6c-.1.1-.2.1-.4.2A.65.65,0,0,1-1070,76.72Z" transform="translate(1429.02 177.85)"/><path d="M-1067.62,76.72c-.2,0-.3,0-.4-.1s-.2-.1-.3-.3a.76.76,0,0,1-.1-.4v-.3a.37.37,0,0,1,.1-.3l.6-2.5h.8l-.6,2.3c0,.1-.1.2-.1.3v.3c0,.1,0,.2.1.2s.1.1.2.1a.6.6,0,0,0,.4-.1,1.38,1.38,0,0,0,.3-.4,1.45,1.45,0,0,0,.2-.7l.5-2h.8l-.9,3.8h-.6v-.5h0l-.3.3c-.1.1-.2.1-.3.2A.6.6,0,0,1-1067.62,76.72Z" transform="translate(1429.02 177.85)"/><path d="M-1063.92,76.72a1.27,1.27,0,0,1-.6-.1.78.78,0,0,1-.4-.4,1.27,1.27,0,0,1-.1-.6,1.27,1.27,0,0,1,.1-.6,1.85,1.85,0,0,1,.2-.7,2.51,2.51,0,0,1,.4-.7,1.21,1.21,0,0,1,.5-.5,1.85,1.85,0,0,1,.7-.2,1.27,1.27,0,0,1,.6.1.78.78,0,0,1,.4.4,1.27,1.27,0,0,1,.1.6,1.7,1.7,0,0,1-.1.7c-.1.2-.1.5-.2.7s-.2.5-.4.6-.3.3-.5.5A1.85,1.85,0,0,1-1063.92,76.72Zm0-.6a.6.6,0,0,0,.4-.1,1.38,1.38,0,0,0,.3-.4c.1-.2.2-.3.2-.5a1.27,1.27,0,0,0,.1-.6v-.8a.35.35,0,0,0-.1-.2c-.1,0-.1-.1-.2-.1a.76.76,0,0,0-.4.2,1.38,1.38,0,0,0-.3.4c-.1.2-.2.3-.2.5a1.27,1.27,0,0,0-.1.6v.5c0,.2,0,.3.1.4S-1064,76.12-1063.92,76.12Z" transform="translate(1429.02 177.85)"/><path d="M-1061.92,76.62l.9-3.8h.8l-.4,1.5h1l.4-1.5h.8l-.9,3.8h-.8l.4-1.7h-1l-.4,1.7Z" transform="translate(1429.02 177.85)"/><path d="M-1057.42,76.72a.9.9,0,0,1-.5-.1,1.38,1.38,0,0,1-.3-.4,1.27,1.27,0,0,1-.1-.6,2,2,0,0,1,.1-.7c.1-.3.1-.5.2-.8a4.88,4.88,0,0,1,.3-.7,1.21,1.21,0,0,1,.5-.5,1.42,1.42,0,0,1,.6-.2.37.37,0,0,1,.3.1c.1.1.2.1.2.2s.1.2.2.3h0l.2-.5h.7l-.9,3.8h-.6v-.5h0l-.3.3c-.1.1-.2.2-.3.2S-1057.32,76.72-1057.42,76.72Zm.3-.6a.52.52,0,0,0,.4-.2,2.19,2.19,0,0,0,.3-.5c.1-.2.1-.4.2-.6a1.27,1.27,0,0,0,.1-.6v-.4c0-.2,0-.3-.1-.4a.37.37,0,0,0-.3-.1c-.1,0-.2.1-.4.2a1.38,1.38,0,0,0-.3.4c-.1.2-.2.3-.2.5a1.27,1.27,0,0,0-.1.6v.5c0,.2,0,.3.1.4S-1057.22,76.12-1057.12,76.12Z" transform="translate(1429.02 177.85)"/><path d="M-1055,76.72h-.4v-.6h.2c.1,0,.2,0,.2-.1s.1-.1.2-.2.1-.2.2-.4a6.37,6.37,0,0,0,.2-.7,3.09,3.09,0,0,0,.2-.8c0-.2.2-.4.4-.6a.55.55,0,0,1,.5-.3,1.48,1.48,0,0,1,.7-.1h.9l-.9,3.8h-.8l.8-3.2h-.2a.52.52,0,0,0-.4.2,2.19,2.19,0,0,0-.3.5,4.65,4.65,0,0,0-.3.9,6.37,6.37,0,0,1-.2.7l-.3.6a.78.78,0,0,1-.4.4C-1054.92,76.92-1054.82,76.72-1055,76.72Z" transform="translate(1429.02 177.85)"/><path d="M-1050.72,76.72c-.2,0-.3,0-.4-.1s-.2-.1-.3-.3a.76.76,0,0,1-.1-.4v-.3a.37.37,0,0,1,.1-.3l.6-2.5h.8l-.6,2.3c0,.1-.1.2-.1.3v.3c0,.1,0,.2.1.2s.1.1.2.1a.6.6,0,0,0,.4-.1,1.38,1.38,0,0,0,.3-.4,1.45,1.45,0,0,0,.2-.7l.5-2h.8l-.9,3.8h-.6v-.5h0l-.3.3c-.1.1-.2.1-.3.2A.6.6,0,0,1-1050.72,76.72Z" transform="translate(1429.02 177.85)"/><path d="M-1047,76.72a1.27,1.27,0,0,1-.6-.1.78.78,0,0,1-.4-.4,1.27,1.27,0,0,1-.1-.6,1.7,1.7,0,0,1,.1-.7,1.45,1.45,0,0,1,.2-.7,2.51,2.51,0,0,1,.4-.7c.2-.2.3-.4.5-.5a1.85,1.85,0,0,1,.7-.2h.4c.1,0,.3.1.4.1l-.3.5a.35.35,0,0,1-.2-.1h-.3a.76.76,0,0,0-.5.2,2.18,2.18,0,0,0-.4.5,1.45,1.45,0,0,0-.2.7c0,.2-.1.5-.1.6s0,.3.1.4a.22.22,0,0,0,.2.2c.1,0,.2.1.3.1a.37.37,0,0,0,.3-.1c.1-.1.2-.1.4-.2v.6c-.1.1-.2.1-.4.2A.65.65,0,0,1-1047,76.72Z" transform="translate(1429.02 177.85)"/><path d="M-1045.72,76.62l.9-3.8h.6l-.1.5h0l.3-.3c.1-.1.2-.1.3-.2s.2-.1.4-.1a.75.75,0,0,1,.5.1,1.38,1.38,0,0,1,.3.4h0l.3-.3c.1-.1.2-.1.3-.2s.2-.1.4-.1a1.42,1.42,0,0,1,.6.2.85.85,0,0,1,.2.6v.2a.49.49,0,0,1-.1.3l-.6,2.6h-.8l.6-2.4a.37.37,0,0,1,.1-.3v-.2a.37.37,0,0,0-.1-.3c-.1-.1-.1-.1-.2-.1a.37.37,0,0,0-.3.1l-.2.2c-.1.1-.1.2-.2.3s-.1.2-.1.3l-.6,2.3h-.8l.6-2.5v-.4a.37.37,0,0,0-.1-.3c-.1-.1-.1-.1-.2-.1a.37.37,0,0,0-.3.1c-.1.1-.2.2-.2.3s-.1.2-.2.4-.1.3-.1.4l-.5,2h-.7Z" transform="translate(1429.02 177.85)"/><path d="M-1039.62,76.72c-.2,0-.3,0-.4-.1s-.2-.1-.3-.3a.76.76,0,0,1-.1-.4v-.3a.37.37,0,0,1,.1-.3l.6-2.5h.8l-.6,2.3c0,.1-.1.2-.1.3v.3c0,.1,0,.2.1.2s.1.1.2.1a.6.6,0,0,0,.4-.1,1.38,1.38,0,0,0,.3-.4,1.45,1.45,0,0,0,.2-.7l.5-2h.8l-.9,3.8h-.6v-.5h0l-.3.3c-.1.1-.2.1-.3.2A.6.6,0,0,1-1039.62,76.72Z" transform="translate(1429.02 177.85)"/><path d="M-1035.92,76.62l.9-3.8h.6l-.1.5h0l.3-.3c.1-.1.2-.1.3-.2s.2-.1.4-.1a.6.6,0,0,1,.4.1c.1.1.2.1.3.2a.6.6,0,0,1,.1.4v.3a.76.76,0,0,1-.1.4l-.6,2.4h-.8l.5-2.3a.37.37,0,0,1,.1-.3v-.3c0-.1,0-.2-.1-.2s-.1-.1-.2-.1a.6.6,0,0,0-.4.1,1.38,1.38,0,0,0-.3.4,1.45,1.45,0,0,0-.2.7l-.5,2h-.6Z" transform="translate(1429.02 177.85)"/><path d="M-1031.22,76.72a1.27,1.27,0,0,1-.6-.1.78.78,0,0,1-.4-.4,1.27,1.27,0,0,1-.1-.6,1.27,1.27,0,0,1,.1-.6,1.85,1.85,0,0,1,.2-.7,2.51,2.51,0,0,1,.4-.7,1.21,1.21,0,0,1,.5-.5,1.85,1.85,0,0,1,.7-.2,1.27,1.27,0,0,1,.6.1.78.78,0,0,1,.4.4,1.27,1.27,0,0,1,.1.6,1.7,1.7,0,0,1-.1.7c-.1.2-.1.5-.2.7s-.2.5-.4.6-.3.3-.5.5A1.45,1.45,0,0,1-1031.22,76.72Zm.1-.6a.6.6,0,0,0,.4-.1,1.38,1.38,0,0,0,.3-.4c.1-.2.2-.3.2-.5a1.27,1.27,0,0,0,.1-.6v-.8a.35.35,0,0,0-.1-.2c-.1,0-.1-.1-.2-.1a.76.76,0,0,0-.4.2,1.38,1.38,0,0,0-.3.4c-.1.2-.2.3-.2.5a1.27,1.27,0,0,0-.1.6v.5c0,.2,0,.3.1.4S-1031.22,76.12-1031.12,76.12Z" transform="translate(1429.02 177.85)"/><path d="M-1027.82,76.62l.9-3.8h.6l-.1.5h0l.3-.3c.1-.1.2-.1.3-.2s.2-.1.4-.1a.6.6,0,0,1,.4.1c.1.1.2.1.3.2a.6.6,0,0,1,.1.4v.3a.76.76,0,0,1-.1.4l-.6,2.4h-.8l.5-2.3a.37.37,0,0,1,.1-.3v-.3c0-.1,0-.2-.1-.2s-.1-.1-.2-.1a.6.6,0,0,0-.4.1,1.38,1.38,0,0,0-.3.4,1.45,1.45,0,0,0-.2.7l-.5,2h-.6Z" transform="translate(1429.02 177.85)"/><path d="M-1024.82,78.22l1.3-5.4h.6l-.1.5h0l.3-.3c.1-.1.2-.2.3-.2s.2-.1.4-.1.3,0,.4.1a1.38,1.38,0,0,1,.3.4,1.27,1.27,0,0,1,.1.6,1.7,1.7,0,0,1-.1.7c-.1.2-.1.5-.2.8a4.88,4.88,0,0,1-.3.7,1.21,1.21,0,0,1-.5.5,1.42,1.42,0,0,1-.6.2.37.37,0,0,1-.3-.1.22.22,0,0,1-.2-.2c-.1-.1-.1-.2-.2-.3h0a.76.76,0,0,1-.1.4c-.1.2,0,.2-.1.3l-.3,1.4Zm1.9-2.1a.76.76,0,0,0,.4-.1,1.38,1.38,0,0,0,.3-.4c.1-.2.2-.3.2-.5a1.27,1.27,0,0,0,.1-.6V74c0-.2,0-.3-.1-.4s-.1-.1-.3-.1a.37.37,0,0,0-.3.1l-.3.3c-.1.1-.1.3-.2.4s-.1.3-.2.5a.9.9,0,0,0-.1.5v.4c0,.2,0,.3.1.4S-1023,76.12-1022.92,76.12Z" transform="translate(1429.02 177.85)"/><path d="M-1019.62,76.72c-.2,0-.5,0-.6-.1a.78.78,0,0,1-.4-.4,1.27,1.27,0,0,1-.1-.6,3.08,3.08,0,0,1,.1-1,3.55,3.55,0,0,1,.4-.9,1.7,1.7,0,0,1,.6-.6,1.88,1.88,0,0,1,.8-.2,1.45,1.45,0,0,1,.7.2.6.6,0,0,1,.3.6,1.27,1.27,0,0,1-.1.6.78.78,0,0,1-.4.4l-.6.3a2,2,0,0,1-.8.1h-.1v.4a.76.76,0,0,0,.2.5.76.76,0,0,0,.5.2c.2,0,.3,0,.4-.1a.76.76,0,0,0,.4-.2v.5c-.2.1-.3.2-.5.2A2.81,2.81,0,0,1-1019.62,76.72Zm-.2-2.3h0c.3,0,.6,0,.7-.1s.3-.2.4-.3a.6.6,0,0,0,.1-.4c0-.1,0-.2-.1-.2s-.1-.1-.3-.1a.76.76,0,0,0-.4.1c-.2.1-.2.2-.3.4S-1019.82,74.22-1019.82,74.42Z" transform="translate(1429.02 177.85)"/><path d="M-1017.82,76.62l.9-3.8h1v2.7h0l1.3-2.7h1.1l-.9,3.8h-.7l.5-1.9c0-.1.1-.3.1-.4s.1-.3.1-.4h0l-1.3,2.7h-.6v-2.7h0c0,.1-.1.2-.1.4a.6.6,0,0,1-.1.4l-.5,2h-.8Z" transform="translate(1429.02 177.85)"/><path d="M-1012.12,76.72c-.2,0-.5,0-.6-.1a.78.78,0,0,1-.4-.4,1.27,1.27,0,0,1-.1-.6,3.08,3.08,0,0,1,.1-1,3.55,3.55,0,0,1,.4-.9,1.7,1.7,0,0,1,.6-.6,1.88,1.88,0,0,1,.8-.2,1.45,1.45,0,0,1,.7.2.6.6,0,0,1,.3.6,1.27,1.27,0,0,1-.1.6.78.78,0,0,1-.4.4l-.6.3a2,2,0,0,1-.8.1h-.1v.4a.76.76,0,0,0,.2.5.76.76,0,0,0,.5.2c.2,0,.3,0,.4-.1a.76.76,0,0,0,.4-.2v.5c-.2.1-.3.2-.5.2A2.81,2.81,0,0,1-1012.12,76.72Zm-.3-2.3h0c.3,0,.6,0,.7-.1s.3-.2.4-.3a.6.6,0,0,0,.1-.4c0-.1,0-.2-.1-.2s-.1-.1-.3-.1a.76.76,0,0,0-.4.1c-.2.1-.2.2-.3.4A.66.66,0,0,1-1012.42,74.42Z" transform="translate(1429.02 177.85)"/><path d="M-1009.12,76.72a1.27,1.27,0,0,1-.6-.1.78.78,0,0,1-.4-.4,1.27,1.27,0,0,1-.1-.6,1.7,1.7,0,0,1,.1-.7,1.45,1.45,0,0,1,.2-.7,2.51,2.51,0,0,1,.4-.7c.2-.2.3-.4.5-.5a1.85,1.85,0,0,1,.7-.2h.4c.1,0,.3.1.4.1l-.3.5a.35.35,0,0,1-.2-.1h-.3a.76.76,0,0,0-.5.2,2.18,2.18,0,0,0-.4.5,1.45,1.45,0,0,0-.2.7c0,.2-.1.5-.1.6s0,.3.1.4a.22.22,0,0,0,.2.2c.1,0,.2.1.3.1a.37.37,0,0,0,.3-.1c.1-.1.2-.1.4-.2v.6c-.1.1-.2.1-.4.2S-1008.92,76.72-1009.12,76.72Z" transform="translate(1429.02 177.85)"/><path d="M-1007.72,76.62l.9-3.8h.6l-.1.5h0l.3-.3c.1-.1.2-.1.3-.2s.2-.1.4-.1a.75.75,0,0,1,.5.1,1.38,1.38,0,0,1,.3.4h0l.3-.3c.1-.1.2-.1.3-.2s.2-.1.4-.1a1.42,1.42,0,0,1,.6.2.85.85,0,0,1,.2.6v.2a.49.49,0,0,1-.1.3l-.6,2.6h-.8l.6-2.4a.37.37,0,0,1,.1-.3v-.2a.37.37,0,0,0-.1-.3c-.1-.1-.1-.1-.2-.1a.37.37,0,0,0-.3.1l-.2.2c-.1.1-.1.2-.2.3s-.1.2-.1.3l-.6,2.3h-.8l.6-2.5v-.4a.37.37,0,0,0-.1-.3c-.1-.1-.1-.1-.2-.1a.37.37,0,0,0-.3.1c-.1.1-.2.2-.2.3s-.1.2-.2.4-.1.3-.1.4l-.5,2h-.7Z" transform="translate(1429.02 177.85)"/><path d="M-1001.22,76.72c-.2,0-.5,0-.6-.1a.78.78,0,0,1-.4-.4,1.45,1.45,0,0,1-.2-.7,1.7,1.7,0,0,1,.1-.7,1.85,1.85,0,0,1,.2-.7c.1-.2.2-.5.4-.6s.4-.3.6-.5a1.88,1.88,0,0,1,.8-.2,1.27,1.27,0,0,1,.6.1,1.38,1.38,0,0,1,.4.3.75.75,0,0,1,.1.5.9.9,0,0,1-.1.5c-.1.1-.2.3-.3.3a.76.76,0,0,1-.5.2h0a.52.52,0,0,1,.4.2.76.76,0,0,1,.2.5,1.42,1.42,0,0,1-.2.6,1,1,0,0,1-.5.4A2.24,2.24,0,0,1-1001.22,76.72Zm.1-.5a.6.6,0,0,0,.4-.1c.1-.1.2-.1.2-.3s.1-.2.1-.3a.37.37,0,0,0-.1-.3c0-.1-.1-.1-.2-.2s-.2-.1-.3-.1h-.6v.6c0,.3,0,.4.1.5A.52.52,0,0,0-1001.12,76.22Zm-.4-1.8h.6c.2,0,.3,0,.4-.1s.2-.1.3-.2.1-.2.1-.4a.37.37,0,0,0-.1-.3.37.37,0,0,0-.3-.1c-.2,0-.3,0-.4.1a1.38,1.38,0,0,0-.3.4Z" transform="translate(1429.02 177.85)"/><path d="M-998.12,76.72a.9.9,0,0,1-.5-.1,1.38,1.38,0,0,1-.3-.4,1.27,1.27,0,0,1-.1-.6,2,2,0,0,1,.1-.7c.1-.3.1-.5.2-.8a4.88,4.88,0,0,1,.3-.7,1.21,1.21,0,0,1,.5-.5,1.42,1.42,0,0,1,.6-.2.37.37,0,0,1,.3.1c.1.1.2.1.2.2s.1.2.2.3h0l.2-.5h.7l-.9,3.8h-.6v-.5h0l-.3.3c-.1.1-.2.2-.3.2S-998,76.72-998.12,76.72Zm.3-.6a.52.52,0,0,0,.4-.2,2.19,2.19,0,0,0,.3-.5c.1-.2.1-.4.2-.6a1.27,1.27,0,0,0,.1-.6v-.4c0-.2,0-.3-.1-.4a.37.37,0,0,0-.3-.1c-.1,0-.2.1-.4.2a1.38,1.38,0,0,0-.3.4c-.1.2-.2.3-.2.5a1.27,1.27,0,0,0-.1.6v.5c0,.2,0,.3.1.4S-998,76.12-997.82,76.12Z" transform="translate(1429.02 177.85)"/><path d="M-995.72,76.62l.9-3.8h.8l-.4,1.5h1l.4-1.5h.8l-.9,3.8h-.8l.4-1.7h-1l-.4,1.7Z" transform="translate(1429.02 177.85)"/><path d="M-990.92,76.72c-.2,0-.5,0-.6-.1a.78.78,0,0,1-.4-.4,1.27,1.27,0,0,1-.1-.6,3.08,3.08,0,0,1,.1-1,3.55,3.55,0,0,1,.4-.9,1.7,1.7,0,0,1,.6-.6,1.88,1.88,0,0,1,.8-.2,1.45,1.45,0,0,1,.7.2.6.6,0,0,1,.3.6,1.27,1.27,0,0,1-.1.6.78.78,0,0,1-.4.4l-.6.3a2,2,0,0,1-.8.1h-.1v.4a.76.76,0,0,0,.2.5.76.76,0,0,0,.5.2c.2,0,.3,0,.4-.1a.76.76,0,0,0,.4-.2v.5c-.2.1-.3.2-.5.2A2.81,2.81,0,0,1-990.92,76.72Zm-.3-2.3h0c.3,0,.6,0,.7-.1s.3-.2.4-.3a.6.6,0,0,0,.1-.4c0-.1,0-.2-.1-.2s-.1-.1-.3-.1a.76.76,0,0,0-.4.1c-.2.1-.2.2-.3.4A.66.66,0,0,1-991.22,74.42Z" transform="translate(1429.02 177.85)"/><image class="cls-12" width="512" height="512" transform="translate(1481.3 186.24) scale(0.04)" xlink:href="ivan.png"/><path d="M4.72,37.59l.92-4.33h.62l-.06.56h0a2.34,2.34,0,0,1,.26-.34,1.08,1.08,0,0,1,.32-.22,1,1,0,0,1,.37-.08.9.9,0,0,1,.4.09.63.63,0,0,1,.3.28,1,1,0,0,1,.11.5,2.6,2.6,0,0,1,0,.36c0,.13,0,.27-.08.41l-.58,2.77H6.52L7.08,35c0-.13,0-.26.07-.39a2.14,2.14,0,0,0,0-.34A.35.35,0,0,0,7.1,34a.3.3,0,0,0-.24-.09.5.5,0,0,0-.38.17,1.58,1.58,0,0,0-.28.47,4.7,4.7,0,0,0-.22.76l-.48,2.3Z" transform="translate(1429.02 177.85)"/><path d="M7.77,39.46l1.3-6.19H9.7l-.06.61h0a1.54,1.54,0,0,1,.3-.39,1,1,0,0,1,.32-.23.86.86,0,0,1,.36-.08.77.77,0,0,1,.45.14.92.92,0,0,1,.29.41,1.94,1.94,0,0,1,.1.69,4.75,4.75,0,0,1-.07.81,4.32,4.32,0,0,1-.21.86,3.76,3.76,0,0,1-.34.79,1.84,1.84,0,0,1-.49.57,1,1,0,0,1-.62.21.72.72,0,0,1-.33-.07.69.69,0,0,1-.25-.2A.86.86,0,0,1,9,37.07H9l-.06.41a3.29,3.29,0,0,1-.07.36l-.35,1.62ZM9.64,37a.47.47,0,0,0,.36-.17,1.4,1.4,0,0,0,.29-.45,4.32,4.32,0,0,0,.23-.61,5.13,5.13,0,0,0,.13-.66,3.3,3.3,0,0,0,0-.6,1.06,1.06,0,0,0-.09-.5.28.28,0,0,0-.26-.16A.48.48,0,0,0,10,34a1.3,1.3,0,0,0-.27.36,4.68,4.68,0,0,0-.22.5c-.06.18-.11.37-.16.56s-.07.38-.09.55a2.74,2.74,0,0,0,0,.45.78.78,0,0,0,.11.45A.32.32,0,0,0,9.64,37Z" transform="translate(1429.02 177.85)"/><path d="M12.94,37.66a1.11,1.11,0,0,1-.6-.15,1,1,0,0,1-.38-.46,1.82,1.82,0,0,1-.13-.74,5.14,5.14,0,0,1,.26-1.57,3.91,3.91,0,0,1,.37-.77A2.1,2.1,0,0,1,13,33.4a1.31,1.31,0,0,1,.74-.21,1.05,1.05,0,0,1,.6.16,1,1,0,0,1,.37.46,1.85,1.85,0,0,1,.13.74,4.78,4.78,0,0,1-.07.82,5.2,5.2,0,0,1-.22.84,3,3,0,0,1-.37.73,1.82,1.82,0,0,1-.54.53A1.27,1.27,0,0,1,12.94,37.66ZM13,37a.5.5,0,0,0,.36-.16,1.46,1.46,0,0,0,.29-.44,3.25,3.25,0,0,0,.22-.6c0-.22.1-.44.13-.66a4.41,4.41,0,0,0,0-.6,1.43,1.43,0,0,0,0-.38.57.57,0,0,0-.14-.24.36.36,0,0,0-.23-.08.51.51,0,0,0-.38.18,1.9,1.9,0,0,0-.3.47,3.75,3.75,0,0,0-.2.62,5.13,5.13,0,0,0-.13.66,3.94,3.94,0,0,0,0,.55.92.92,0,0,0,.11.51A.33.33,0,0,0,13,37Z" transform="translate(1429.02 177.85)"/><path d="M16,39.51l.4-1.88a1.36,1.36,0,0,1-.66-.22,1.22,1.22,0,0,1-.41-.53,2.14,2.14,0,0,1-.14-.81,4,4,0,0,1,.08-.75,3.36,3.36,0,0,1,.24-.76,2.84,2.84,0,0,1,.42-.66,2,2,0,0,1,.6-.48,1.68,1.68,0,0,1,.79-.19l.36-1.72h.75l-.36,1.72a1.27,1.27,0,0,1,.88.44,1.7,1.7,0,0,1,.3,1.1,4,4,0,0,1-.08.75,4.32,4.32,0,0,1-.25.77,2.71,2.71,0,0,1-.42.67,2,2,0,0,1-.59.49,1.8,1.8,0,0,1-.78.19l-.39,1.87ZM16.52,37l.66-3.09a.84.84,0,0,0-.53.24,1.86,1.86,0,0,0-.38.54,3.35,3.35,0,0,0-.22.72,3.71,3.71,0,0,0-.08.73,1.35,1.35,0,0,0,.06.41.75.75,0,0,0,.18.3A.6.6,0,0,0,16.52,37Zm.76,0a.8.8,0,0,0,.45-.17,1.28,1.28,0,0,0,.34-.42,2.06,2.06,0,0,0,.23-.55,4.56,4.56,0,0,0,.14-.59,3.25,3.25,0,0,0,0-.51,1.31,1.31,0,0,0-.06-.41.65.65,0,0,0-.18-.29.54.54,0,0,0-.31-.15Z" transform="translate(1429.02 177.85)"/><path d="M20.81,37.66a1.29,1.29,0,0,1-.64-.15,1.1,1.1,0,0,1-.42-.46,1.84,1.84,0,0,1-.14-.74,5.06,5.06,0,0,1,.13-1.17,3.86,3.86,0,0,1,.39-1,2.23,2.23,0,0,1,.62-.7,1.35,1.35,0,0,1,.8-.25,1,1,0,0,1,.7.24.94.94,0,0,1,.26.7,1.56,1.56,0,0,1-.14.66,1.32,1.32,0,0,1-.4.48,1.74,1.74,0,0,1-.64.31,3.15,3.15,0,0,1-.85.1h-.06c0,.09,0,.18,0,.28a2.44,2.44,0,0,0,0,.27,1,1,0,0,0,.15.61A.57.57,0,0,0,21,37a1.49,1.49,0,0,0,.43-.06,2.73,2.73,0,0,0,.45-.2v.61a1.64,1.64,0,0,1-.51.22A2.44,2.44,0,0,1,20.81,37.66Zm-.28-2.55h0a2,2,0,0,0,.72-.11.81.81,0,0,0,.39-.33.94.94,0,0,0,.12-.47.41.41,0,0,0-.08-.28.32.32,0,0,0-.26-.11.51.51,0,0,0-.36.17,1.44,1.44,0,0,0-.32.45A4.46,4.46,0,0,0,20.53,35.11Z" transform="translate(1429.02 177.85)"/><path d="M23.89,37.66a1.1,1.1,0,0,1-.59-.15,1,1,0,0,1-.37-.45,2,2,0,0,1-.12-.73,4.75,4.75,0,0,1,.07-.81,4.22,4.22,0,0,1,.21-.85,3.27,3.27,0,0,1,.37-.75,1.74,1.74,0,0,1,.55-.53,1.28,1.28,0,0,1,.73-.21,1.56,1.56,0,0,1,.44.06,1.76,1.76,0,0,1,.37.17l-.31.62a1.34,1.34,0,0,0-.24-.12.85.85,0,0,0-.26,0,.65.65,0,0,0-.51.24,2.15,2.15,0,0,0-.36.62,4.95,4.95,0,0,0-.27,1.52,1.61,1.61,0,0,0,0,.42.47.47,0,0,0,.16.25.4.4,0,0,0,.27.09,1.09,1.09,0,0,0,.33-.07,1.51,1.51,0,0,0,.37-.2v.67a1.35,1.35,0,0,1-.4.19A1.61,1.61,0,0,1,23.89,37.66Z" transform="translate(1429.02 177.85)"/><path d="M26.3,37.66a.88.88,0,0,1-.45-.1.59.59,0,0,1-.27-.29,1.14,1.14,0,0,1-.09-.48,2.12,2.12,0,0,1,0-.34c0-.12,0-.25.07-.36l.6-2.82h.76l-.56,2.66c0,.13-.05.24-.07.36a1.72,1.72,0,0,0,0,.31.47.47,0,0,0,.07.28.3.3,0,0,0,.24.09.52.52,0,0,0,.38-.16,1.71,1.71,0,0,0,.29-.49,4.77,4.77,0,0,0,.21-.76L28,33.27h.77l-.91,4.32h-.62l.05-.54h0a1.49,1.49,0,0,1-.27.33,1.06,1.06,0,0,1-.31.21A.84.84,0,0,1,26.3,37.66Z" transform="translate(1429.02 177.85)"/><path d="M30,37.66a1.16,1.16,0,0,1-.6-.15,1.09,1.09,0,0,1-.38-.46,2,2,0,0,1-.13-.74,4.16,4.16,0,0,1,.07-.74,4.35,4.35,0,0,1,.2-.83,3.39,3.39,0,0,1,.36-.77,2,2,0,0,1,.55-.57,1.31,1.31,0,0,1,.74-.21,1,1,0,0,1,.59.16,1,1,0,0,1,.38.46,2,2,0,0,1,.13.74,4.83,4.83,0,0,1-.08.82,4.3,4.3,0,0,1-.21.84,3,3,0,0,1-.38.73,1.91,1.91,0,0,1-.53.53A1.3,1.3,0,0,1,30,37.66Zm.08-.66a.5.5,0,0,0,.37-.16,1.68,1.68,0,0,0,.29-.44,4.2,4.2,0,0,0,.21-.6,5.13,5.13,0,0,0,.13-.66,4.54,4.54,0,0,0,.05-.6,1.4,1.4,0,0,0-.05-.38.57.57,0,0,0-.14-.24.36.36,0,0,0-.23-.08.51.51,0,0,0-.38.18,1.64,1.64,0,0,0-.29.47,3.76,3.76,0,0,0-.21.62,5.13,5.13,0,0,0-.13.66c0,.21,0,.4,0,.55a1,1,0,0,0,.11.51A.34.34,0,0,0,30.11,37Z" transform="translate(1429.02 177.85)"/><path d="M32.1,37.59,33,33.27h.77L33.41,35h1l.37-1.75h.77l-.92,4.32H33.9l.41-1.91H33.26l-.4,1.91Z" transform="translate(1429.02 177.85)"/><path d="M36.61,37.66a.74.74,0,0,1-.46-.14,1,1,0,0,1-.29-.42,1.83,1.83,0,0,1-.1-.66,4.62,4.62,0,0,1,.07-.79,5.46,5.46,0,0,1,.2-.87,3.76,3.76,0,0,1,.34-.79,2.06,2.06,0,0,1,.49-.59,1,1,0,0,1,.63-.22.88.88,0,0,1,.33.07.79.79,0,0,1,.24.21.87.87,0,0,1,.16.35h0l.19-.54h.66l-.92,4.32h-.62l0-.6h0a2.82,2.82,0,0,1-.28.36,1.08,1.08,0,0,1-.31.23A.75.75,0,0,1,36.61,37.66Zm.3-.66a.54.54,0,0,0,.42-.21,1.67,1.67,0,0,0,.3-.53c.08-.21.14-.42.2-.64s.11-.47.14-.66a3.08,3.08,0,0,0,0-.51A.74.74,0,0,0,37.9,34a.32.32,0,0,0-.29-.16.48.48,0,0,0-.36.18,1.4,1.4,0,0,0-.29.45,3.36,3.36,0,0,0-.22.61,5.18,5.18,0,0,0-.14.66,4.38,4.38,0,0,0,0,.59,1.21,1.21,0,0,0,.08.49A.29.29,0,0,0,36.91,37Z" transform="translate(1429.02 177.85)"/><path d="M39.06,37.64l-.2,0-.16,0V36.9l.12.05H39a.48.48,0,0,0,.23-.07.76.76,0,0,0,.2-.25,2.29,2.29,0,0,0,.19-.5c.06-.21.12-.47.19-.8a6.21,6.21,0,0,1,.25-.93,2.05,2.05,0,0,1,.35-.66,1.32,1.32,0,0,1,.51-.4,1.87,1.87,0,0,1,.71-.13l.46,0,.45,0-.9,4.3h-.77l.78-3.68h-.18a.58.58,0,0,0-.43.18,1.53,1.53,0,0,0-.3.55,8.51,8.51,0,0,0-.25,1c-.07.32-.15.6-.22.85a2.93,2.93,0,0,1-.28.64,1.2,1.2,0,0,1-.37.4A1,1,0,0,1,39.06,37.64Z" transform="translate(1429.02 177.85)"/><path d="M43.4,37.66a.88.88,0,0,1-.45-.1.59.59,0,0,1-.27-.29,1,1,0,0,1-.1-.48,2.24,2.24,0,0,1,0-.34c0-.12,0-.25.06-.36l.6-2.82H44l-.56,2.66c0,.13,0,.24-.07.36a1.8,1.8,0,0,0,0,.31.47.47,0,0,0,.08.28.29.29,0,0,0,.23.09.51.51,0,0,0,.38-.16,1.51,1.51,0,0,0,.29-.49,3.86,3.86,0,0,0,.22-.76l.49-2.29h.76l-.91,4.32h-.61l0-.54h0a1.49,1.49,0,0,1-.27.33,1.21,1.21,0,0,1-.31.21A.84.84,0,0,1,43.4,37.66Z" transform="translate(1429.02 177.85)"/><path d="M47.1,37.66a1.1,1.1,0,0,1-.59-.15.91.91,0,0,1-.36-.45,2,2,0,0,1-.13-.73,6,6,0,0,1,.07-.81,6.21,6.21,0,0,1,.21-.85,3.3,3.3,0,0,1,.38-.75,1.82,1.82,0,0,1,.54-.53,1.3,1.3,0,0,1,.73-.21,1.51,1.51,0,0,1,.44.06,1.56,1.56,0,0,1,.37.17l-.31.62a.9.9,0,0,0-.24-.12.8.8,0,0,0-.26,0,.68.68,0,0,0-.51.24,1.94,1.94,0,0,0-.35.62,5,5,0,0,0-.21.78,5.24,5.24,0,0,0-.07.74,1.25,1.25,0,0,0,.06.42.42.42,0,0,0,.16.25.39.39,0,0,0,.26.09,1,1,0,0,0,.33-.07,1.35,1.35,0,0,0,.37-.2v.67a1.35,1.35,0,0,1-.4.19A1.57,1.57,0,0,1,47.1,37.66Z" transform="translate(1429.02 177.85)"/><path d="M48.49,37.59l.91-4.32H50l-.07.54h0a1.76,1.76,0,0,1,.25-.34,1.26,1.26,0,0,1,.32-.21,1,1,0,0,1,.37-.08.82.82,0,0,1,.5.14.74.74,0,0,1,.26.42h0a1.31,1.31,0,0,1,.27-.3,1.18,1.18,0,0,1,.32-.19,1.16,1.16,0,0,1,.37-.07.74.74,0,0,1,.56.22.9.9,0,0,1,.21.64c0,.08,0,.17,0,.28a1.7,1.7,0,0,1-.06.31l-.63,3H52l.58-2.78a2,2,0,0,0,.06-.3c0-.09,0-.17,0-.23a.49.49,0,0,0-.08-.3.29.29,0,0,0-.23-.1A.42.42,0,0,0,52,34a.83.83,0,0,0-.21.24,1.66,1.66,0,0,0-.15.33,2.93,2.93,0,0,0-.1.37L51,37.59h-.76l.6-2.84a2.56,2.56,0,0,0,0-.27,1.62,1.62,0,0,0,0-.21.46.46,0,0,0-.07-.29.29.29,0,0,0-.23-.1.47.47,0,0,0-.32.12.93.93,0,0,0-.23.31,1.92,1.92,0,0,0-.17.44,4.05,4.05,0,0,0-.12.5l-.5,2.34Z" transform="translate(1429.02 177.85)"/><path d="M54.62,37.66a.88.88,0,0,1-.45-.1.59.59,0,0,1-.27-.29,1.14,1.14,0,0,1-.09-.48,2.12,2.12,0,0,1,0-.34c0-.12,0-.25.07-.36l.6-2.82h.76l-.56,2.66c0,.13-.05.24-.07.36a1.72,1.72,0,0,0,0,.31.47.47,0,0,0,.07.28.29.29,0,0,0,.23.09.53.53,0,0,0,.39-.16,1.71,1.71,0,0,0,.29-.49,4.77,4.77,0,0,0,.21-.76l.49-2.29h.77l-.91,4.32h-.62l0-.54h0a1.49,1.49,0,0,1-.27.33,1.06,1.06,0,0,1-.31.21A.84.84,0,0,1,54.62,37.66Z" transform="translate(1429.02 177.85)"/><path d="M58.39,37.59l.92-4.33h.62l-.06.56h0a1.8,1.8,0,0,1,.26-.34,1.08,1.08,0,0,1,.32-.22.94.94,0,0,1,.36-.08.91.91,0,0,1,.41.09.73.73,0,0,1,.3.28,1,1,0,0,1,.11.5,2.6,2.6,0,0,1,0,.36c0,.13,0,.27-.08.41L61,37.59h-.76L60.74,35c0-.13,0-.26.07-.39a1.42,1.42,0,0,0,0-.34.4.4,0,0,0-.08-.26.3.3,0,0,0-.24-.09.5.5,0,0,0-.38.17,1.39,1.39,0,0,0-.28.47,3.86,3.86,0,0,0-.22.76l-.49,2.3Z" transform="translate(1429.02 177.85)"/><path d="M63.15,37.66a1.11,1.11,0,0,1-.6-.15,1,1,0,0,1-.38-.46,1.82,1.82,0,0,1-.13-.74,5.14,5.14,0,0,1,.26-1.57,3.39,3.39,0,0,1,.36-.77,2,2,0,0,1,.55-.57,1.31,1.31,0,0,1,.74-.21,1,1,0,0,1,.59.16,1,1,0,0,1,.38.46,2,2,0,0,1,.13.74,6.05,6.05,0,0,1-.07.82,5.2,5.2,0,0,1-.22.84,3.33,3.33,0,0,1-.37.73,1.82,1.82,0,0,1-.54.53A1.29,1.29,0,0,1,63.15,37.66Zm.08-.66a.5.5,0,0,0,.36-.16,1.46,1.46,0,0,0,.29-.44,4.2,4.2,0,0,0,.21-.6c.06-.22.1-.44.14-.66a4.41,4.41,0,0,0,0-.6,1.4,1.4,0,0,0,0-.38.48.48,0,0,0-.14-.24.34.34,0,0,0-.23-.08.52.52,0,0,0-.38.18,1.64,1.64,0,0,0-.29.47,5,5,0,0,0-.21.62,5.09,5.09,0,0,0-.12.66,3.94,3.94,0,0,0,0,.55,1,1,0,0,0,.1.51A.34.34,0,0,0,63.23,37Z" transform="translate(1429.02 177.85)"/><path d="M66.57,37.59l.91-4.33h.62l-.06.56h0a1.84,1.84,0,0,1,.27-.34.87.87,0,0,1,.32-.22.86.86,0,0,1,.36-.08,1,1,0,0,1,.41.09.65.65,0,0,1,.29.28.91.91,0,0,1,.11.5,2.6,2.6,0,0,1,0,.36c0,.13,0,.27-.07.41l-.59,2.77h-.77L68.92,35c0-.13,0-.26.07-.39a2.14,2.14,0,0,0,0-.34A.4.4,0,0,0,69,34a.32.32,0,0,0-.24-.09.48.48,0,0,0-.38.17,1.4,1.4,0,0,0-.29.47,6,6,0,0,0-.22.76l-.48,2.3Z" transform="translate(1429.02 177.85)"/><path d="M69.61,39.46l1.3-6.19h.64l-.07.61h0a2.2,2.2,0,0,1,.3-.39,1.12,1.12,0,0,1,.32-.23.86.86,0,0,1,.36-.08.73.73,0,0,1,.45.14.85.85,0,0,1,.29.41,1.94,1.94,0,0,1,.1.69,4.75,4.75,0,0,1-.07.81,5.11,5.11,0,0,1-.2.86,4.39,4.39,0,0,1-.35.79,1.84,1.84,0,0,1-.49.57,1,1,0,0,1-.62.21.72.72,0,0,1-.33-.07.69.69,0,0,1-.25-.2,1.35,1.35,0,0,1-.15-.32h0a2.7,2.7,0,0,1-.06.41q0,.2-.06.36l-.35,1.62ZM71.48,37a.47.47,0,0,0,.36-.17,1.6,1.6,0,0,0,.3-.45,4.33,4.33,0,0,0,.22-.61,5.18,5.18,0,0,0,.14-.66,4.41,4.41,0,0,0,0-.6,1.06,1.06,0,0,0-.09-.5.27.27,0,0,0-.26-.16.48.48,0,0,0-.33.13,1.3,1.3,0,0,0-.27.36,3.26,3.26,0,0,0-.21.5,3.58,3.58,0,0,0-.16.56,4.31,4.31,0,0,0-.1.55,4.21,4.21,0,0,0,0,.45.79.79,0,0,0,.1.45A.34.34,0,0,0,71.48,37Z" transform="translate(1429.02 177.85)"/><path d="M74.86,37.66a1.32,1.32,0,0,1-.64-.15,1.08,1.08,0,0,1-.41-.46,1.68,1.68,0,0,1-.15-.74,5.06,5.06,0,0,1,.14-1.17,3.86,3.86,0,0,1,.39-1,2.23,2.23,0,0,1,.62-.7,1.31,1.31,0,0,1,.8-.25,1,1,0,0,1,.7.24.94.94,0,0,1,.26.7,1.56,1.56,0,0,1-.14.66,1.32,1.32,0,0,1-.4.48,1.82,1.82,0,0,1-.64.31,3.15,3.15,0,0,1-.85.1h-.06c0,.09,0,.18,0,.28a2.44,2.44,0,0,0,0,.27,1,1,0,0,0,.15.61A.55.55,0,0,0,75,37a1.51,1.51,0,0,0,.44-.06,2.73,2.73,0,0,0,.45-.2v.61a1.64,1.64,0,0,1-.51.22A2.53,2.53,0,0,1,74.86,37.66Zm-.27-2.55h0a2,2,0,0,0,.73-.11.81.81,0,0,0,.39-.33.94.94,0,0,0,.12-.47.47.47,0,0,0-.08-.28.32.32,0,0,0-.26-.11.55.55,0,0,0-.37.17,1.61,1.61,0,0,0-.31.45A3.59,3.59,0,0,0,74.59,35.11Z" transform="translate(1429.02 177.85)"/><path d="M76.65,37.59l.92-4.32h1v3.11h0L80,33.27H81l-.91,4.32h-.73l.47-2.22c0-.15.07-.31.1-.45s.07-.3.11-.45h0l-1.36,3.12h-.61l0-3.12h0c0,.14,0,.28-.08.41s0,.26-.07.4l-.5,2.31Z" transform="translate(1429.02 177.85)"/><path d="M82.38,37.66a1.32,1.32,0,0,1-.64-.15,1.08,1.08,0,0,1-.41-.46,1.68,1.68,0,0,1-.15-.74,5.06,5.06,0,0,1,.14-1.17,3.86,3.86,0,0,1,.39-1,2.34,2.34,0,0,1,.61-.7,1.36,1.36,0,0,1,.81-.25,1,1,0,0,1,.7.24.94.94,0,0,1,.26.7,1.56,1.56,0,0,1-.14.66,1.32,1.32,0,0,1-.4.48,1.82,1.82,0,0,1-.64.31,3.2,3.2,0,0,1-.85.1H82A2.36,2.36,0,0,0,82,36a2.44,2.44,0,0,0,0,.27,1,1,0,0,0,.15.61.55.55,0,0,0,.46.19A1.51,1.51,0,0,0,83,37a2.73,2.73,0,0,0,.45-.2v.61a1.75,1.75,0,0,1-.51.22A2.53,2.53,0,0,1,82.38,37.66Zm-.27-2.55h0a2,2,0,0,0,.73-.11.81.81,0,0,0,.39-.33.94.94,0,0,0,.12-.47.47.47,0,0,0-.08-.28.32.32,0,0,0-.26-.11.55.55,0,0,0-.37.17,1.61,1.61,0,0,0-.31.45A3.59,3.59,0,0,0,82.11,35.11Z" transform="translate(1429.02 177.85)"/><path d="M85.47,37.66a1.08,1.08,0,0,1-.59-.15.87.87,0,0,1-.37-.45,2,2,0,0,1-.12-.73,6,6,0,0,1,.06-.81,6.21,6.21,0,0,1,.21-.85,3.77,3.77,0,0,1,.38-.75,1.82,1.82,0,0,1,.54-.53,1.33,1.33,0,0,1,.74-.21,1.44,1.44,0,0,1,.43.06,1.63,1.63,0,0,1,.38.17l-.32.62a.9.9,0,0,0-.24-.12.74.74,0,0,0-.25,0,.65.65,0,0,0-.51.24,1.78,1.78,0,0,0-.36.62,5,5,0,0,0-.21.78,5.12,5.12,0,0,0-.06.74,1.27,1.27,0,0,0,0,.42.42.42,0,0,0,.16.25.4.4,0,0,0,.27.09,1.09,1.09,0,0,0,.33-.07,1.51,1.51,0,0,0,.37-.2v.67a1.48,1.48,0,0,1-.4.19A1.66,1.66,0,0,1,85.47,37.66Z" transform="translate(1429.02 177.85)"/><path d="M86.85,37.59l.91-4.32h.63l-.07.54h0a1.46,1.46,0,0,1,.26-.34,1.06,1.06,0,0,1,.31-.21,1,1,0,0,1,.37-.08.82.82,0,0,1,.5.14.69.69,0,0,1,.26.42h0a1.31,1.31,0,0,1,.27-.3,1.08,1.08,0,0,1,.68-.26.78.78,0,0,1,.57.22.94.94,0,0,1,.2.64c0,.08,0,.17,0,.28s0,.21,0,.31l-.63,3h-.77l.59-2.78c0-.11,0-.21,0-.3s0-.17,0-.23a.49.49,0,0,0-.08-.3.29.29,0,0,0-.23-.1.44.44,0,0,0-.27.09.83.83,0,0,0-.21.24,1.66,1.66,0,0,0-.15.33,2.93,2.93,0,0,0-.1.37l-.58,2.68H88.6l.6-2.84a2.56,2.56,0,0,0,0-.27,1.83,1.83,0,0,0,0-.21.46.46,0,0,0-.08-.29.29.29,0,0,0-.22-.1.45.45,0,0,0-.32.12,1,1,0,0,0-.24.31,2.52,2.52,0,0,0-.17.44,4.05,4.05,0,0,0-.12.5l-.5,2.34Z" transform="translate(1429.02 177.85)"/><path d="M93.4,37.66a1.47,1.47,0,0,1-.64-.14,1,1,0,0,1-.44-.46,1.6,1.6,0,0,1-.16-.77,4.56,4.56,0,0,1,.07-.8,4.68,4.68,0,0,1,.2-.84,3.07,3.07,0,0,1,.39-.74,2,2,0,0,1,.58-.53,1.69,1.69,0,0,1,.82-.2,1.32,1.32,0,0,1,.59.12.87.87,0,0,1,.39.34,1,1,0,0,1,.14.54,1.19,1.19,0,0,1-.11.54,1,1,0,0,1-.33.39,1.48,1.48,0,0,1-.54.24v0a.84.84,0,0,1,.44.28,1,1,0,0,1,.17.63,1.36,1.36,0,0,1-.18.68,1.28,1.28,0,0,1-.52.51A1.74,1.74,0,0,1,93.4,37.66Zm.1-.6a.6.6,0,0,0,.37-.11.76.76,0,0,0,.24-.29.86.86,0,0,0,.09-.39.81.81,0,0,0-.07-.33.43.43,0,0,0-.21-.21.69.69,0,0,0-.34-.07H93l0,.3c0,.1,0,.21,0,.32a.94.94,0,0,0,.15.61A.5.5,0,0,0,93.5,37.06Zm-.38-2h.57a.93.93,0,0,0,.45-.1.68.68,0,0,0,.3-.28.87.87,0,0,0,.1-.44.51.51,0,0,0-.1-.34.39.39,0,0,0-.31-.12.66.66,0,0,0-.44.16,1.58,1.58,0,0,0-.33.44A4.46,4.46,0,0,0,93.12,35.07Z" transform="translate(1429.02 177.85)"/><path d="M96.51,37.66a.72.72,0,0,1-.46-.14,1,1,0,0,1-.3-.42,2.08,2.08,0,0,1-.1-.66,5.91,5.91,0,0,1,.07-.79,5.46,5.46,0,0,1,.2-.87,3.76,3.76,0,0,1,.34-.79,2.06,2.06,0,0,1,.49-.59,1,1,0,0,1,.63-.22.84.84,0,0,1,.33.07.82.82,0,0,1,.25.21,1,1,0,0,1,.16.35h0l.19-.54H99l-.92,4.32h-.62l0-.6h0a2.14,2.14,0,0,1-.28.36,1.08,1.08,0,0,1-.31.23A.71.71,0,0,1,96.51,37.66ZM96.8,37a.51.51,0,0,0,.42-.21,1.67,1.67,0,0,0,.3-.53,4.75,4.75,0,0,0,.2-.64,5.66,5.66,0,0,0,.14-.66,3.08,3.08,0,0,0,0-.51.74.74,0,0,0-.1-.43.33.33,0,0,0-.3-.16.48.48,0,0,0-.36.18,1.59,1.59,0,0,0-.29.45,4.33,4.33,0,0,0-.22.61,5.18,5.18,0,0,0-.14.66,4.38,4.38,0,0,0,0,.59,1,1,0,0,0,.09.49A.27.27,0,0,0,96.8,37Z" transform="translate(1429.02 177.85)"/><path d="M99,37.59l.92-4.32h.77L100.26,35h1l.36-1.75h.77l-.92,4.32h-.76l.41-1.91h-1l-.4,1.91Z" transform="translate(1429.02 177.85)"/><path d="M103.82,37.66a1.29,1.29,0,0,1-.64-.15,1,1,0,0,1-.41-.46,1.68,1.68,0,0,1-.15-.74,5.06,5.06,0,0,1,.14-1.17,3.86,3.86,0,0,1,.39-1,2.21,2.21,0,0,1,.61-.7,1.36,1.36,0,0,1,.81-.25,1,1,0,0,1,.69.24.91.91,0,0,1,.26.7,1.56,1.56,0,0,1-.13.66,1.35,1.35,0,0,1-.41.48,1.69,1.69,0,0,1-.63.31,3.2,3.2,0,0,1-.85.1h-.06a2.36,2.36,0,0,0,0,.28,2.45,2.45,0,0,0,0,.27,1,1,0,0,0,.16.61A.54.54,0,0,0,104,37a1.44,1.44,0,0,0,.43-.06,2.73,2.73,0,0,0,.45-.2v.61a1.7,1.7,0,0,1-.5.22A2.53,2.53,0,0,1,103.82,37.66Zm-.27-2.55h0a2.12,2.12,0,0,0,.73-.11.81.81,0,0,0,.39-.33.94.94,0,0,0,.12-.47.47.47,0,0,0-.08-.28.33.33,0,0,0-.26-.11.55.55,0,0,0-.37.17,1.43,1.43,0,0,0-.31.45A3,3,0,0,0,103.55,35.11Z" transform="translate(1429.02 177.85)"/></svg>