<?xml version="1.0" encoding="utf-8"?>
<!-- Generator: Adobe Illustrator 25.2.1, SVG Export Plug-In . SVG Version: 6.00 Build 0)  -->
<svg version="1.1" id="Layer_1" xmlns="http://www.w3.org/2000/svg" xmlns:xlink="http://www.w3.org/1999/xlink" x="0px" y="0px"
	 viewBox="0 0 1824 1800" style="enable-background:new 0 0 1824 1800;" xml:space="preserve">
<style type="text/css">
	.st0{fill:#930224;}
	.st1{fill:#114B7D;}
	.st2{fill:#FFFFFF;stroke:#000000;stroke-miterlimit:10;}
	.st3{stroke:#000000;stroke-miterlimit:10;}
	.st4{fill:#A8A8A8;}
	.st5{fill:#333333;stroke:#000000;stroke-width:3;stroke-miterlimit:10;}
	.st6{fill:#666666;stroke:#000000;stroke-miterlimit:10;}
	.st7{fill:#666666;stroke:#000000;stroke-width:5;stroke-miterlimit:10;}
	.st8{fill:#1A1A1A;}
	.st9{fill:#040404;}
	.st10{fill:#050505;}
	.st11{fill:#060606;}
	.st12{fill:#0F0F0F;}
	.st13{fill:#151515;}
	.st14{fill:#1F1F1F;}
	.st15{fill:#2A2A2A;stroke:#000000;stroke-miterlimit:10;}
	.st16{fill:#272727;stroke:#000000;stroke-miterlimit:10;}
	.st17{fill:#646464;stroke:#000000;stroke-miterlimit:10;}
	.st18{fill:#080808;stroke:#000000;stroke-miterlimit:10;}
	.st19{fill:#080707;}
	.st20{fill:#252525;stroke:#000000;stroke-miterlimit:10;}
	.st21{fill:#1E1E1E;}
</style>
<g>
	<g>
		<path d="M557.4,1763c-66.9,0-131.8-13.1-192.8-38.9c-59-25-112-60.7-157.5-106.2c-45.5-45.5-81.2-98.5-106.2-157.5
			c-25.8-61.1-38.9-126-38.9-192.8V531.4c0-66.9,13.1-131.8,38.9-192.8c25-59,60.7-112,106.2-157.5c45.5-45.5,98.5-81.2,157.5-106.2
			C425.6,49.1,490.5,36,557.4,36h736.2c66.9,0,131.8,13.1,192.8,38.9c59,25,112,60.7,157.5,106.2c45.5,45.5,81.2,98.5,106.2,157.5
			c25.8,61.1,38.9,126,38.9,192.8v736.2c0,66.9-13.1,131.8-38.9,192.8c-25,59-60.7,112-106.2,157.5
			c-45.5,45.5-98.5,81.2-157.5,106.2c-61.1,25.8-126,38.9-192.8,38.9H557.4z"/>
		<path d="M1293.6,38c66.6,0,131.2,13,192,38.8c58.8,24.9,111.5,60.4,156.8,105.7c45.3,45.3,80.9,98.1,105.7,156.8
			c25.7,60.8,38.8,125.4,38.8,192v736.2c0,66.6-13,131.2-38.8,192c-24.9,58.8-60.4,111.5-105.7,156.8
			c-45.3,45.3-98.1,80.9-156.8,105.7c-60.8,25.7-125.4,38.8-192,38.8H557.4c-66.6,0-131.2-13-192-38.8
			c-58.8-24.9-111.5-60.4-156.8-105.7s-80.9-98.1-105.7-156.8C77,1398.8,64,1334.2,64,1267.6V531.4c0-66.6,13-131.2,38.8-192
			c24.9-58.8,60.4-111.5,105.7-156.8s98.1-80.9,156.8-105.7C426.2,51,490.8,38,557.4,38H1293.6 M1293.6,34H557.4
			C282.7,34,60,256.7,60,531.4v736.2c0,274.7,222.7,497.4,497.4,497.4h736.2c274.7,0,497.4-222.7,497.4-497.4V531.4
			C1791,256.7,1568.3,34,1293.6,34L1293.6,34z"/>
	</g>
	<g>
		<path class="st0" d="M557.4,1647.8c-51.3,0-101.1-10.1-148-29.9c-45.3-19.1-85.9-46.6-120.9-81.5c-34.9-34.9-62.3-75.6-81.5-120.9
			c-19.8-46.9-29.9-96.7-29.9-148V531.4c0-51.3,10.1-101.1,29.9-148c19.1-45.3,46.6-85.9,81.5-120.9c34.9-34.9,75.6-62.3,120.9-81.5
			c46.9-19.8,96.7-29.9,148-29.9h736.2c51.3,0,101.1,10.1,148,29.9c45.3,19.1,85.9,46.6,120.9,81.5c34.9,34.9,62.3,75.6,81.5,120.9
			c19.8,46.9,29.9,96.7,29.9,148v736.2c0,51.3-10.1,101.1-29.9,148c-19.1,45.3-46.6,85.9-81.5,120.9s-75.6,62.3-120.9,81.5
			c-46.9,19.8-96.7,29.9-148,29.9H557.4z"/>
		<path d="M1293.6,153.2c51.1,0,100.6,10,147.2,29.7c45,19,85.5,46.3,120.2,81.1c34.7,34.7,62,75.2,81.1,120.2
			c19.7,46.6,29.7,96.2,29.7,147.2v736.2c0,51.1-10,100.6-29.7,147.2c-19,45-46.3,85.5-81.1,120.2c-34.7,34.7-75.2,62-120.2,81.1
			c-46.6,19.7-96.2,29.7-147.2,29.7H557.4c-51.1,0-100.6-10-147.2-29.7c-45-19-85.5-46.3-120.2-81.1c-34.7-34.7-62-75.2-81.1-120.2
			c-19.7-46.6-29.7-96.2-29.7-147.2V531.4c0-51.1,10-100.6,29.7-147.2c19-45,46.3-85.5,81.1-120.2s75.2-62,120.2-81.1
			c46.6-19.7,96.2-29.7,147.2-29.7H1293.6 M1293.6,149.2H557.4c-211.1,0-382.2,171.1-382.2,382.2v736.2
			c0,211.1,171.1,382.2,382.2,382.2h736.2c211.1,0,382.2-171.1,382.2-382.2V531.4C1675.8,320.3,1504.7,149.2,1293.6,149.2
			L1293.6,149.2z"/>
	</g>
	<g>
		<g>
			<path class="st1" d="M557.4,1726.6c-62,0-122.1-12.1-178.7-36.1c-54.7-23.1-103.7-56.2-145.9-98.4
				c-42.2-42.2-75.3-91.2-98.4-145.9c-23.9-56.6-36.1-116.7-36.1-178.7V531.4c0-62,12.1-122.1,36.1-178.7
				c23.1-54.7,56.2-103.7,98.4-145.9s91.2-75.3,145.9-98.4c56.6-23.9,116.7-36.1,178.7-36.1h736.2c62,0,122.1,12.1,178.7,36.1
				c54.7,23.1,103.7,56.2,145.9,98.4c42.2,42.2,75.3,91.2,98.4,145.9c23.9,56.6,36.1,116.7,36.1,178.7v736.2
				c0,62-12.1,122.1-36.1,178.7c-23.1,54.7-56.2,103.7-98.4,145.9c-42.2,42.2-91.2,75.3-145.9,98.4
				c-56.6,23.9-116.7,36.1-178.7,36.1H557.4z"/>
			<path d="M1293.6,74.4c61.7,0,121.5,12.1,177.9,35.9c54.4,23,103.3,56,145.3,97.9c42,42,74.9,90.8,97.9,145.3
				c23.8,56.3,35.9,116.2,35.9,177.9v736.2c0,61.7-12.1,121.5-35.9,177.9c-23,54.4-56,103.3-97.9,145.3c-42,42-90.8,74.9-145.3,97.9
				c-56.3,23.8-116.2,35.9-177.9,35.9H557.4c-61.7,0-121.5-12.1-177.9-35.9c-54.4-23-103.3-56-145.3-97.9
				c-42-42-74.9-90.8-97.9-145.3c-23.8-56.3-35.9-116.2-35.9-177.9V531.4c0-61.7,12.1-121.5,35.9-177.9c23-54.4,56-103.3,97.9-145.3
				s90.8-74.9,145.3-97.9c56.3-23.8,116.2-35.9,177.9-35.9H1293.6 M1293.6,70.4H557.4c-254.6,0-461,206.4-461,461v736.2
				c0,254.6,206.4,461,461,461h736.2c254.6,0,461-206.4,461-461V531.4C1754.6,276.8,1548.2,70.4,1293.6,70.4L1293.6,70.4z"/>
		</g>
	</g>
</g>
<g>
	<path class="st3" d="M1189.2,1077.5c1.2-2.8-0.3-1.8-0.5-1.6c-0.9,1-0.3,0.3-1.1,1.2c-4,4.8-4.6,8-6.2,12.8
		c-10.5,24.1-21.3,48.1-31.2,72.5c-2.8,6.9-6.5,10.3-14.3,11.3c-103.8,13.9-205.9,12.8-303.3-29.6c-9.7-4.2-19.3-9.5-27.4-16
		c-10.7-8.6-18.1-6.7-27.2,2.2c-39.8,39.1-73.5,82.9-110.9,123.7c-36.7,40-52.4,85.7-58.8,136.2c-2.1,16.4-5.6,32.6-9.1,48.8
		c-1.8,8.5-1.1,15,6.4,21.4c8.9,7.4,17,15.9,24.1,24.8c6.6,8.4,7.6,15.8-6.2,20.8c-42.6,15.4-84.9,27.4-132.1,25.9
		c-88.4-2.7-177-1-265.4-0.5c-11.9,0.1-15.1-1.8-13.2-13.9c6.3-40,7.7-80.9,17.9-120.2c17-65.7,43.7-128.6,68-192.1
		c51.8-135.2,114.7-266.2,179.5-396.3c15.4-30.8,31.8-61.2,47.7-91.8c1.7-3.2,2.6-6.7,2.8-10.7c-18.4,14.8-33.1,32.4-46.7,50.9
		c-16.8,22.8-33.6,45.6-50.1,68.6c-6.4,9-13.6,14.8-25.3,8.2c-47.7-26.8-93.6-55.6-120-103.8c-5.9-10.9-11.6-21.9-16.4-33.3
		c-10-23.6-14.5-45.6,15.9-61.1c11.1-5.7,18.6-17.1,28.5-25.1c11.9-9.6,24.3-17.7,15.4-35.8c-3.6-7.4,5.4-14.5,10-20.6
		c4-5.2,8.2-10.3,13.4-14.5c8.6-7.1,10.1-13.3,5-22.6c-11.8-21.5-10.3-29.2,7.3-47.2c33.2-33.7,63.5-68.8,86.6-110.1
		c21.7-38.7,57.4-68.6,90.3-99.8c9-8.6,18.5-5.7,28.4-2.1c71.1,26.4,131.6,67.3,184.6,118.3c27.4,26.4,54.6,53.1,81.9,79.5
		c10.4,10,46,13.5,57.5,5.9c5.1-3.3,4.6-8.2,4.8-13c1.7-59.4,22.8-112.1,60.5-159.9c17.1-21.7,46.6-39.4,78.2-27.3
		c10.8,4.2,16.7-0.5,22-9.1c23.8-39,57.2-66.9,104.5-79c19.9-5.1,39.5-3.7,59.4-1.4c85.7,9.9,161.3,43.7,232.8,86.6
		c52.3,31.4,102.8,65,147,106.5c67.7,63.7,71.8,139.4,19.7,214.7c-6,8.6-4.5,14.6,1.5,21.3c8.4,9.5,16.6,19.1,20.1,31.2
		c7.6,26.2-0.2,48.7-20.9,66.9c-32.8,28.8-66.3,57-98.8,84.9c31.3,30.1,62.9,60.4,94.5,90.7c4.8,4.6,9.6,9.2,14,14
		c13.5,14.7,14.4,23.8,3.2,40.3c-21.3,31.5-43.1,62.6-61.7,95.6c-8.9,15.8-9.6,30.2-1.6,45.6c15.9,30.6,31.2,61.5,48.4,91.5
		c22.1,38.4,21.6,79.8,22.7,121.4c1.7,61.8-11.1,122-21,182.5c-2.7,16.3-5.6,32.7-7.1,49.1c-0.8,8.5-4.4,10.1-12.6,10.1
		c-117,0.8-234.1,1.9-351.1,2.8c-4.8,0-11,2.2-13.7-3.6c-2.6-5.5,0-10.8,4.1-14.6c9.7-9,19.2-18.4,30.1-26
		c9.6-6.7,11.5-12.6,5.2-22.4c-51.6-80-74.9-169.7-98-259.1c-9.1-35-4.4-71,3.2-106.2"/>
	<path class="st5" d="M1265.6,1514.6c10.5-7.1,19.2-13.6,28.5-19.1c9.3-5.6,11.8-11.6,6.3-21.2c-13.9-24.4-26.7-49.3-40.6-73.7
		c-24.8-43.6-35.4-91.9-51.5-138.3c-23.5-67.5-20.7-135.4-5.1-203.6c1.1-4.9,5.3-11.9-0.7-14.6c-7.5-3.4-10,5-13,9.3
		c-19.5,27.8-34.1,57.7-43.5,89.7c-3.9,13.2-10.8,21.6-26.3,23.1c-81.4,7.7-161.8,3.8-240.3-19c-21.3-6.2-41.3-15.1-59.6-27.1
		c-16.4-10.8-18.1-19.3-6.4-34.4c34.5-44.4,66.6-90.3,95.7-137.9c7-11.5,7-11.5,4.4-23.2C895.5,942,883,962,869.2,980.8
		c-32.9,44.7-63.9,90.7-96.6,135.5c-23.5,32.2-54.7,58.5-80.6,89c-43.5,51.2-89.4,100.8-126.1,156.8
		c-20.5,31.2-34.7,64.6-42.5,100.4c-4.3,19.8-4.2,19.9,8.6,53.8c-2.7,3.9-7.1,2.7-10.7,2.5c-90.1-6.2-180.3-2.2-270.4,0
		c-13.8,0.3-16.6-3.3-15.9-15.7c3.7-65.9,20.3-128.8,40.2-192c30.4-96.7,72.4-189.1,110.6-283c41.4-101.9,93-199.8,148.4-295.8
		c13.3-23,24.4-46.8,32.1-72c1.3-4.4,1.8-9,2.9-15.1c-14.3,4-19.6,14.8-27.3,22.5c-38.8,39.1-74.2,80.5-102.4,127.4
		c-16.7,27.8-18.6,26.7-49.1,12.8C342,786,304.2,754.4,285,706.2c-0.6-1.5-1.4-2.9-1.9-4.4c-10.1-32.4-2.7-49.6,34.9-38.8
		c16.8,4.8,34.6,6.5,51.8,10.4c10.8,2.5,16.1-1.9,19.1-10.6c3.4-9.8-4.8-11.9-11.6-14.4c-15.4-5.6-30.9-10.8-46.4-16
		c-9.9-3.3-12.8-6.9-3.5-14.9c10.2-8.8,22-15.1,33-22.8c2.2-1.5,5.7-2.6,3.8-5.9c-0.8-1.3-4.5-2.6-5.5-2c-6.4,3.9-10.8,4.2-14.7-3.4
		c-3.7-7.2-3.6-13.5,2-19.2c10.8-11,21.8-21.8,33.1-32.3c8.6-8,14.5-13.8-3-19c-16.6-5-18.2-11.4-9.1-25.1
		c9.1-13.8,23.4-23.2,34.7-35.2c12.8-13.6,26.6-26.4,39.9-39.6c8.3-8.3,19.4-15.2,12.7-29.7c-2.5-5.4,1.5-11.3,5.4-16.2
		c17.4-21.8,33.7-44.3,53.3-64.5c11.7-12.1,25.2-21.1,41.8-26.7c12.8-4.3,24.3-3.9,35.9,2.6c71.6,40.1,141.5,82.2,194.6,144.1
		c13.9,16.2,28.3,32.1,41.8,48.6c8,9.7,17.5,13.1,29.9,10.1c80.9-19.3,142.3,15.1,195.9,65.1c39.6,36.9,67.3,82.7,95.9,127.4
		c7.9,12.3,16.6,24.2,24.5,36.5c6,9.3,8.4,16.9-4.8,24.9c-20.3,12.3-36.2,29.6-51.8,50.8c29.9-10.2,50.8-29,75.9-40.9
		c37.2-17.7,76-31.2,116-41.7c13.5-3.5,26.9-2.3,39.6,4.5c51.9,27.8,104,55.1,153.8,86c37.9,23.5,67,56.2,99.7,85.1
		c29.1,25.7,27.9,25.7,7.2,58.4c-19.1,30.2-36.4,61.4-54.1,92.3c-9.3,16.2-4.3,32.2,3.8,47.4c13.1,24.8,28.8,48.3,39.6,74.2
		c24.1,57.8,37.6,116.7,28.3,179.6c-7.9,53.8-12.1,108.1-17.5,162.3c-1.1,11-6.3,16-18.2,16.6c-106.1,5.6-212.2,6.8-318.4,6.5
		C1270.9,1516.3,1269.5,1515.6,1265.6,1514.6z"/>
	<path class="st6" d="M1646.4,477c1.8,29.7-11.3,56.6-21.7,84.2c-4.1,10.9-11.6,8.1-20.5,4.6c-35.6-13.7-69.1-10-99.4,13
		c-5.3,4-9.9,8.9-14,14c-13.3,16.5-13.1,16.4-31.2,2.8c-42-31.5-87-57.8-138.7-73.8c-27-8.3-51-22.2-70.7-43
		c-36.2-38.2-85.1-59.9-132.1-83.9c-2.5-1.3-5.1-2.4-7.6-3.7c-22.2-11.2-22.1-11.2-12.5-33.3c14.5-33.7,8.1-65.1-14-93.6
		c-9.7-12.5-8.4-20.9,2.9-31.5c44.7-42,94.2-62.7,160.2-47.3c109.2,25.5,203.8,74.5,289.3,141.5c29.8,23.4,58.9,47,83.1,75.7
		C1637.8,424.6,1648.4,448.4,1646.4,477z"/>
	<path class="st6" d="M1039.8,271.5c13.6,1.4,30.8-8.8,40.9,6.3c13.5,20.4,20,42.9,12.5,67.2c-3.2,10.3-8.1,20-15.7,28.1
		c-9.1,9.7-7.5,14.9,5.8,18.9c43.6,13.4,83.4,33.7,120.7,58.5c15.4,10.3,29.5,21.7,40.4,36.4c17.4,23.5,43.3,35.7,70.7,45.5
		c43.2,15.4,84.6,33.9,123.3,57.7c12.5,7.7,24,16.3,33.4,27.1c7.1,8.2,10.9,7.3,17.2-1.5c23.5-33.1,55.2-51.7,99.6-44.6
		c6.2,1,14.1,1.1,13.5,9c-0.6,6.3-7.9,6.4-13.6,7c-9.1,0.9-18.1,1.9-27.2,2.8c-32.8,3.1-56.9,17.6-69.5,46.7
		c-4.6,10.6-9.3,13-19.5,4.4c-22.9-19.2-46.7-37.4-70.1-56.1c-27.7-22.2-59.4-38.6-94.2-46.8c-33.2-7.9-60-22.7-80.1-47.6
		c-34.6-42.7-83.6-64.4-135.1-82.8c-13.8-4.9-28.3-8.2-40.4-16.6c-3.1-2.1-5.9-6.1-9.1-0.1c-2.2,4.1-3.7,8.4,1.6,11.1
		c4.4,2.3,9.3,4,14.2,5.2c63,15.6,118.5,43.2,163,88.6c10.7,10.9,24.6,19,31.3,33.4c1.8,3.8,5.4,6.2,10.6,7
		c53.3,7.4,98.9,30.9,140.6,61.1c23.7,17.2,49.2,32.8,67.5,56c6.8,8.6,14.5,7.6,20.8-0.8c4.9-6.5,9.2-13.4,13.6-20.3
		c22.2-34.1,66.2-45.4,104-26.6c30.2,15,38.9,50.6,16.6,74.5c-31.9,34.3-71.2,61.4-106.7,92.1c-7.8,6.7-17.8,5.4-25.2-0.5
		c-59.2-47.2-132.9-71.5-197.9-109.6c-88.7-51.9-178.9-101.7-268.3-152.7c-7.2-4.1-13-10.4-19.5-15.5
		c-22.6-17.8-49.2-25.9-78.3-28.6c-19.4-1.8-23.4-6.1-20.9-23.5c6.1-41.9,17.2-82.5,38.8-120C968.3,287.9,993,262.2,1039.8,271.5z"
		/>
	<path class="st7" d="M1317.3,685.8c-22.5,12.2-41.9,10.1-60.1-0.9c-39.6-23.9-79-48.1-120.9-68.4c-21.6-10.4-33.3-30.1-49-46
		c-6.5-6.6-12.4-13.7-16.4-24.1C1152.1,592.4,1233.4,638.3,1317.3,685.8z"/>
	<g>
		<path class="st1" d="M1199.9,721.4c-4.5,0-7.9-2.8-11-5.6c-9.4-8.5-17.2-19.2-23.7-32.8c-10.7-22.3-23.3-40.6-38.4-55.9l2-2.5
			l138,77l-18.4,5.6c-15.7,4.8-30.2,9.2-44.8,13.6C1202.3,721.2,1201.1,721.4,1199.9,721.4z"/>
		<g>
			<path d="M1128.9,625.3l67.3,37.6l69.3,38.7c-6,1.8-11.7,3.6-17.3,5.3c-15.6,4.7-30.2,9.2-44.8,13.6c-1.2,0.4-2.3,0.5-3.4,0.5
				c-4.3,0-7.6-2.7-10.7-5.5c-9.4-8.5-17.1-19.1-23.6-32.6c-10.7-22.2-23.2-40.4-38.2-55.7L1128.9,625.3 M1128.6,624
				c-0.8,1.1-1.7,2.1-2.5,3.2c16.5,16.6,28.8,35.5,38.7,56c5.8,12,13.4,23.5,23.8,32.9c3.4,3.1,6.9,5.7,11.4,5.7
				c1.2,0,2.4-0.2,3.7-0.6c20.4-6.1,40.8-12.3,64.3-19.5C1219.5,674.8,1174,649.4,1128.6,624L1128.6,624z"/>
		</g>
	</g>
	<path class="st8" d="M607.5,1495.7c-18.3,3.8-33.8,6.6-49.2,10.2c-9,2.1-14.3-1.5-17.7-8.5c-5.4-11.1-7.1-22.7-1.5-34
		c16.3-32.5,33.1-64.8,52.7-96.4c-4.9,26.1-8.6,52.4-15,78.1c-4.8,19.3-5.9,34.7,19.1,41.1C599.3,1487.1,601.8,1490.9,607.5,1495.7z
		"/>
	<path class="st6" d="M362.1,664.4c-20.4-2.8-39.9-10.7-60.1-16c-2.9-0.8-6.1-2.4-5.1-5.2c1.4-4.4,5.9-4.5,10-3.5
		c19.8,4.8,39.6,9.7,59.4,14.6c3.4,0.9,6.8,2.8,6.1,6.5C371.2,666.2,366.3,664.1,362.1,664.4z"/>
	<path class="st9" d="M768.5,639.5c7.9,84.1-158.6,279-208.1,273.2C658.3,841.8,729,753.6,768.5,639.5z"/>
	<path class="st10" d="M595.6,465.2c7.9,2.4,12.8,8.6,18.7,13.5c20.4,16.9,19.9,16.9,9.7,40.1c-10.2,23.2-24,44.5-38.1,65.7
		c-1.7,2.6-2.6,6.7-7,5.7c-4.1-1-3.5-5-3.9-8c-2.9-22.6,4.2-44.4,6.8-66.5c1.6-13.7,4.2-27.4,6.6-41
		C589.1,470.6,589.3,465.9,595.6,465.2z"/>
	<path class="st9" d="M434.4,531.6c-4.8-1.3-9.6-1.8-13.4-3.9c-9-5-22.2-8.4-20.8-20.6c1.4-12,14.9-9.4,23.6-11.3
		c14.9-3.3,30.2-5.1,45.3-7.8c6.3-1.1,11.8,0.3,14.8,5.4c3.3,5.6-2.1,8.9-6,11.6C464,514.7,452.1,527.5,434.4,531.6z"/>
	<path class="st11" d="M1489.8,915.1c-38.6-43.2-87.7-71.9-145.4-91.6c12.1-7.7,22.4-5,31.1-1.6c46.6,18.2,84.8,46.7,114.7,84.8
		c1.2,1.5,1.7,3.6,2.5,5.5C1491.7,913.1,1490.8,914.1,1489.8,915.1z"/>
	<path class="st8" d="M645.6,355c-52.7-30-64.9,11.9-83.8,39.4c-6.2-0.9-5-4.9-5.4-7.4c-3.3-18.8,27.6-57.8,47.7-59.6
		C624.7,325.5,635.5,338.5,645.6,355z"/>
	<path class="st12" d="M668.5,894.3c57-42,95-93.7,119.2-154.6C783.6,789.5,708.5,888.2,668.5,894.3z"/>
	<path class="st13" d="M1004,1109.2c-45.5-2.1-100-15.3-121.6-31.3c45.9,10.4,86.9,24.2,130.2,28
		C1012.1,1112.6,1007.3,1109.3,1004,1109.2z"/>
	<path class="st14" d="M1004,1109.2c2.9-1.1,5.7-2.2,8.6-3.2c31.1,0,62.2,0,93.3,0c0,1.9,0,3.7,0,5.6
		C1071.9,1118.4,1037.9,1115.3,1004,1109.2z"/>
	<path class="st15" d="M1438.8,502c-0.2-31.7,43.5-87.8,80.8-103.1C1480.8,425.2,1456.7,461.3,1438.8,502z"/>
	<path class="st16" d="M1287.3,299.3c-16.4,36-39.5,66.5-77.5,85.1c30.4-25.4,58.6-52.3,74.6-88.4
		C1287.5,295.5,1288.7,296.4,1287.3,299.3z"/>
	<path class="st17" d="M1287.3,299.3c-1-1.1-1.9-2.2-2.9-3.2c2.6-7.8,5.2-15.6,7.8-23.4C1294.7,282.5,1293.6,291.4,1287.3,299.3z"/>
	<path class="st18" d="M1034.9,299.6c-50.8,32.4-62.2,83.2-78.9,131.7c-3.9-23.7,4.8-54.6,25-89.9c4.3-7.5,8.6-15,12.8-22.5
		C1003.8,301.2,1011.6,297.3,1034.9,299.6z"/>
	<path class="st19" d="M1486.5,730.1c48-24.7,96.3-46.6,118.7-97.8c6.4,12,7.6,23.3-2.6,32.7c-29.8,27.2-61.6,51.9-101.7,65
		C1496.3,731.4,1491.9,731.2,1486.5,730.1z"/>
	<path class="st20" d="M1067.2,436.6c34.6,41.3,78.3,65.6,128.6,83.8C1165.4,525.7,1076.6,468.3,1067.2,436.6z"/>
	<path class="st21" d="M1422.5,653.5c-53.5-11.8-95.9-40-130.7-79.6C1329.6,609,1373.3,635.4,1422.5,653.5z"/>
	<path class="st6" d="M597.4,475.8c24.8,20.2,24.7,20.1,11.1,43.4c-7,12-13.9,24.1-23,35.4C589.4,529,593.2,503.5,597.4,475.8z"/>
	<path class="st6" d="M423.6,510.9c10-2.6,19.5-5,29.8-7.7C445.8,522.8,438.9,524.5,423.6,510.9z"/>
</g>
</svg>
