<?xml version="1.0" encoding="utf-8"?>
<!-- Generator: Adobe Illustrator 25.2.1, SVG Export Plug-In . SVG Version: 6.00 Build 0)  -->
<svg version="1.1" id="Layer_1" xmlns="http://www.w3.org/2000/svg" xmlns:xlink="http://www.w3.org/1999/xlink" x="0px" y="0px"
	 viewBox="0 0 9183 1821" style="enable-background:new 0 0 9183 1821;" xml:space="preserve">
<style type="text/css">
	.st0{fill:#930224;}
	.st1{fill:#114B7D;}
	.st2{fill:#FFFFFF;stroke:#000000;stroke-miterlimit:10;}
	.st3{stroke:#000000;stroke-miterlimit:10;}
	.st4{fill:#A8A8A8;}
	.st5{fill:#333333;stroke:#000000;stroke-width:3;stroke-miterlimit:10;}
	.st6{fill:#666666;stroke:#000000;stroke-miterlimit:10;}
	.st7{fill:#666666;stroke:#000000;stroke-width:5;stroke-miterlimit:10;}
	.st8{fill:#1A1A1A;}
	.st9{fill:#040404;}
	.st10{fill:#050505;}
	.st11{fill:#060606;}
	.st12{fill:#0F0F0F;}
	.st13{fill:#151515;}
	.st14{fill:#1F1F1F;}
	.st15{fill:#2A2A2A;stroke:#000000;stroke-miterlimit:10;}
	.st16{fill:#272727;stroke:#000000;stroke-miterlimit:10;}
	.st17{fill:#646464;stroke:#000000;stroke-miterlimit:10;}
	.st18{fill:#080808;stroke:#000000;stroke-miterlimit:10;}
	.st19{fill:#080707;}
	.st20{fill:#252525;stroke:#000000;stroke-miterlimit:10;}
	.st21{fill:#1E1E1E;}
	.st22{fill:none;}
	.st23{fill:#FFFFFF;}
	.st24{fill:#00788A;}
</style>
<g>
	<path d="M1398.6-906c-61,0-110.6-49.6-110.6-110.6v-345.8c0-61,49.6-110.6,110.6-110.6h345.8c61,0,110.6,49.6,110.6,110.6v345.8
		c0,61-49.6,110.6-110.6,110.6H1398.6z"/>
	<path d="M1744.4-1471c59.9,0,108.6,48.7,108.6,108.6v345.8c0,59.9-48.7,108.6-108.6,108.6h-345.8c-59.9,0-108.6-48.7-108.6-108.6
		v-345.8c0-59.9,48.7-108.6,108.6-108.6H1744.4 M1744.4-1475h-345.8c-62.1,0-112.6,50.5-112.6,112.6v345.8
		c0,62.1,50.5,112.6,112.6,112.6h345.8c62.1,0,112.6-50.5,112.6-112.6v-345.8C1857-1424.5,1806.5-1475,1744.4-1475L1744.4-1475z"/>
</g>
<g>
	<path class="st0" d="M1398.6-944c-40,0-72.6-32.6-72.6-72.6v-345.8c0-40,32.6-72.6,72.6-72.6h345.8c40,0,72.6,32.6,72.6,72.6v345.8
		c0,40-32.6,72.6-72.6,72.6H1398.6z"/>
	<path d="M1744.4-1433c38.9,0,70.6,31.7,70.6,70.6v345.8c0,38.9-31.7,70.6-70.6,70.6h-345.8c-38.9,0-70.6-31.7-70.6-70.6v-345.8
		c0-38.9,31.7-70.6,70.6-70.6H1744.4 M1744.4-1437h-345.8c-41.1,0-74.6,33.5-74.6,74.6v345.8c0,41.1,33.5,74.6,74.6,74.6h345.8
		c41.1,0,74.6-33.5,74.6-74.6v-345.8C1819-1403.5,1785.5-1437,1744.4-1437L1744.4-1437z"/>
</g>
<g>
	<g>
		<path class="st1" d="M1398.6-918c-54.4,0-98.6-44.2-98.6-98.6v-345.8c0-54.4,44.2-98.6,98.6-98.6h345.8
			c54.4,0,98.6,44.2,98.6,98.6v345.8c0,54.4-44.2,98.6-98.6,98.6H1398.6z"/>
		<path d="M1744.4-1459c53.3,0,96.6,43.3,96.6,96.6v345.8c0,53.3-43.3,96.6-96.6,96.6h-345.8c-53.3,0-96.6-43.3-96.6-96.6v-345.8
			c0-53.3,43.3-96.6,96.6-96.6H1744.4 M1744.4-1463h-345.8c-55.5,0-100.6,45.1-100.6,100.6v345.8c0,55.5,45.1,100.6,100.6,100.6
			h345.8c55.5,0,100.6-45.1,100.6-100.6v-345.8C1845-1417.9,1799.9-1463,1744.4-1463L1744.4-1463z"/>
	</g>
</g>
<path class="st2" d="M1535.7-1017.8"/>
<g>
	<path class="st3" d="M1664.3-1115.9c0.4-1-0.1-0.6-0.2-0.6c-0.3,0.4-0.1,0.1-0.4,0.4c-1.4,1.7-1.6,2.8-2.1,4.5
		c-3.6,8.4-7.4,16.8-10.9,25.3c-1,2.4-2.3,3.6-5,3.9c-36.1,4.8-71.7,4.5-105.6-10.3c-3.4-1.5-6.7-3.3-9.5-5.6
		c-3.7-3-6.3-2.4-9.5,0.8c-13.9,13.6-25.6,28.9-38.6,43.1c-12.8,13.9-18.3,29.9-20.5,47.4c-0.7,5.7-2,11.4-3.2,17
		c-0.6,2.9-0.4,5.2,2.2,7.4c3.1,2.6,5.9,5.5,8.4,8.7c2.3,2.9,2.7,5.5-2.2,7.3c-14.8,5.4-29.6,9.5-46,9c-30.8-0.9-61.6-0.3-92.5-0.2
		c-4.2,0-5.3-0.6-4.6-4.9c2.2-13.9,2.7-28.2,6.2-41.9c5.9-22.9,15.2-44.8,23.7-66.9c18.1-47.1,40-92.7,62.5-138
		c5.3-10.7,11.1-21.3,16.6-32c0.6-1.1,0.9-2.3,1-3.7c-6.4,5.2-11.5,11.3-16.3,17.7c-5.8,8-11.7,15.9-17.5,23.9
		c-2.2,3.1-4.7,5.1-8.8,2.8c-16.6-9.3-32.6-19.4-41.8-36.2c-2.1-3.8-4-7.6-5.7-11.6c-3.5-8.2-5-15.9,5.5-21.3c3.9-2,6.5-6,9.9-8.8
		c4.1-3.3,8.4-6.2,5.4-12.5c-1.3-2.6,1.9-5,3.5-7.2c1.4-1.8,2.9-3.6,4.7-5.1c3-2.5,3.5-4.6,1.7-7.9c-4.1-7.5-3.6-10.2,2.6-16.4
		c11.6-11.8,22.1-24,30.2-38.4c7.6-13.5,20-23.9,31.4-34.8c3.1-3,6.5-2,9.9-0.7c24.8,9.2,45.9,23.4,64.3,41.2
		c9.5,9.2,19,18.5,28.5,27.7c3.6,3.5,16,4.7,20,2c1.8-1.2,1.6-2.9,1.7-4.5c0.6-20.7,7.9-39,21.1-55.7c6-7.6,16.2-13.7,27.2-9.5
		c3.8,1.4,5.8-0.2,7.6-3.2c8.3-13.6,19.9-23.3,36.4-27.5c6.9-1.8,13.7-1.3,20.7-0.5c29.8,3.5,56.2,15.2,81.1,30.2
		c18.2,10.9,35.8,22.6,51.2,37.1c23.6,22.2,25,48.6,6.9,74.8c-2.1,3-1.6,5.1,0.5,7.4c2.9,3.3,5.8,6.7,7,10.9
		c2.7,9.1-0.1,17-7.3,23.3c-11.4,10-23.1,19.9-34.4,29.6c10.9,10.5,21.9,21,32.9,31.6c1.7,1.6,3.3,3.2,4.9,4.9c4.7,5.1,5,8.3,1.1,14
		c-7.4,11-15,21.8-21.5,33.3c-3.1,5.5-3.3,10.5-0.5,15.9c5.6,10.7,10.9,21.4,16.9,31.9c7.7,13.4,7.5,27.8,7.9,42.3
		c0.6,21.5-3.9,42.5-7.3,63.6c-0.9,5.7-2,11.4-2.5,17.1c-0.3,2.9-1.5,3.5-4.4,3.5c-40.8,0.3-81.5,0.7-122.3,1
		c-1.7,0-3.8,0.8-4.8-1.2c-0.9-1.9,0-3.7,1.4-5.1c3.4-3.1,6.7-6.4,10.5-9.1c3.3-2.3,4-4.4,1.8-7.8c-18-27.9-26.1-59.1-34.1-90.2
		c-3.2-12.2-1.5-24.7,1.1-37"/>
	<path class="st4" d="M1664.5-1118.7"/>
	<path class="st5" d="M1690.9-963.7c3.6-2.5,6.7-4.7,9.9-6.7c3.2-1.9,4.1-4.1,2.2-7.4c-4.8-8.5-9.3-17.2-14.1-25.7
		c-8.6-15.2-12.3-32-18-48.2c-8.2-23.5-7.2-47.2-1.8-70.9c0.4-1.7,1.8-4.1-0.2-5.1c-2.6-1.2-3.5,1.7-4.5,3.2
		c-6.8,9.7-11.9,20.1-15.2,31.2c-1.3,4.6-3.8,7.5-9.2,8c-28.4,2.7-56.3,1.3-83.7-6.6c-7.4-2.2-14.4-5.2-20.8-9.4
		c-5.7-3.7-6.3-6.7-2.2-12c12-15.5,23.2-31.4,33.3-48c2.4-4,2.4-4,1.5-8.1c-6.2,6.1-10.6,13.1-15.4,19.6
		c-11.5,15.6-22.3,31.6-33.7,47.2c-8.2,11.2-19.1,20.4-28.1,31c-15.1,17.8-31.1,35.1-43.9,54.6c-7.1,10.9-12.1,22.5-14.8,35
		c-1.5,6.9-1.5,6.9,3,18.8c-0.9,1.4-2.5,1-3.7,0.9c-31.4-2.2-62.8-0.8-94.2,0c-4.8,0.1-5.8-1.2-5.5-5.5c1.3-22.9,7.1-44.9,14-66.9
		c10.6-33.7,25.2-65.9,38.5-98.6c14.4-35.5,32.4-69.6,51.7-103c4.6-8,8.5-16.3,11.2-25.1c0.5-1.5,0.6-3.1,1-5.3
		c-5,1.4-6.8,5.1-9.5,7.9c-13.5,13.6-25.9,28-35.7,44.4c-5.8,9.7-6.5,9.3-17.1,4.4c-16.8-7.7-30-18.6-36.7-35.5
		c-0.2-0.5-0.5-1-0.7-1.5c-3.5-11.3-0.9-17.3,12.2-13.5c5.9,1.7,12.1,2.3,18,3.6c3.8,0.9,5.6-0.7,6.7-3.7c1.2-3.4-1.7-4.1-4-5
		c-5.4-1.9-10.8-3.8-16.2-5.6c-3.4-1.2-4.5-2.4-1.2-5.2c3.5-3,7.7-5.3,11.5-7.9c0.8-0.5,2-0.9,1.3-2c-0.3-0.5-1.6-0.9-1.9-0.7
		c-2.2,1.3-3.8,1.5-5.1-1.2c-1.3-2.5-1.3-4.7,0.7-6.7c3.8-3.8,7.6-7.6,11.5-11.3c3-2.8,5-4.8-1.1-6.6c-5.8-1.7-6.3-4-3.2-8.8
		c3.2-4.8,8.1-8.1,12.1-12.3c4.5-4.7,9.3-9.2,13.9-13.8c2.9-2.9,6.8-5.3,4.4-10.3c-0.9-1.9,0.5-3.9,1.9-5.6
		c6.1-7.6,11.7-15.4,18.5-22.5c4.1-4.2,8.8-7.4,14.6-9.3c4.4-1.5,8.5-1.4,12.5,0.9c24.9,14,49.3,28.6,67.8,50.2
		c4.8,5.6,9.9,11.2,14.6,16.9c2.8,3.4,6.1,4.6,10.4,3.5c28.2-6.7,49.6,5.3,68.3,22.7c13.8,12.9,23.4,28.8,33.4,44.4
		c2.7,4.3,5.8,8.4,8.5,12.7c2.1,3.2,2.9,5.9-1.7,8.7c-7.1,4.3-12.6,10.3-18.1,17.7c10.4-3.6,17.7-10.1,26.5-14.3
		c13-6.2,26.5-10.9,40.4-14.5c4.7-1.2,9.4-0.8,13.8,1.6c18.1,9.7,36.2,19.2,53.6,29.9c13.2,8.2,23.3,19.6,34.7,29.7
		c10.1,9,9.7,8.9,2.5,20.3c-6.6,10.5-12.7,21.4-18.8,32.2c-3.2,5.7-1.5,11.2,1.3,16.5c4.6,8.6,10,16.8,13.8,25.8
		c8.4,20.1,13.1,40.6,9.9,62.5c-2.8,18.7-4.2,37.7-6.1,56.5c-0.4,3.8-2.2,5.6-6.3,5.8c-36.9,1.9-73.9,2.4-110.9,2.3
		C1692.7-963.1,1692.2-963.3,1690.9-963.7z"/>
	<path class="st6" d="M1823.5-1325.1c0.6,10.3-3.9,19.7-7.6,29.3c-1.4,3.8-4,2.8-7.1,1.6c-12.4-4.8-24.1-3.5-34.6,4.5
		c-1.8,1.4-3.4,3.1-4.9,4.9c-4.6,5.7-4.6,5.7-10.9,1c-14.6-11-30.3-20.1-48.3-25.7c-9.4-2.9-17.8-7.7-24.6-15
		c-12.6-13.3-29.6-20.9-46-29.2c-0.9-0.4-1.8-0.8-2.6-1.3c-7.7-3.9-7.7-3.9-4.4-11.6c5.1-11.7,2.8-22.7-4.9-32.6
		c-3.4-4.3-2.9-7.3,1-11c15.6-14.6,32.8-21.8,55.8-16.5c38,8.9,71,26,100.8,49.3c10.4,8.1,20.5,16.4,28.9,26.4
		C1820.5-1343.4,1824.2-1335.1,1823.5-1325.1z"/>
	<path class="st6" d="M1612.2-1396.7c4.7,0.5,10.7-3.1,14.2,2.2c4.7,7.1,7,15,4.4,23.4c-1.1,3.6-2.8,7-5.5,9.8
		c-3.2,3.4-2.6,5.2,2,6.6c15.2,4.7,29.1,11.7,42,20.4c5.4,3.6,10.3,7.6,14.1,12.7c6,8.2,15.1,12.4,24.6,15.8
		c15.1,5.3,29.5,11.8,42.9,20.1c4.4,2.7,8.4,5.7,11.6,9.4c2.5,2.9,3.8,2.5,6-0.5c8.2-11.5,19.2-18,34.7-15.5
		c2.1,0.3,4.9,0.4,4.7,3.1c-0.2,2.2-2.7,2.2-4.7,2.4c-3.2,0.3-6.3,0.7-9.5,1c-11.4,1.1-19.8,6.1-24.2,16.3c-1.6,3.7-3.3,4.5-6.8,1.5
		c-8-6.7-16.3-13-24.4-19.6c-9.7-7.7-20.7-13.4-32.8-16.3c-11.6-2.7-20.9-7.9-27.9-16.6c-12.1-14.9-29.1-22.4-47-28.8
		c-4.8-1.7-9.9-2.8-14.1-5.8c-1.1-0.7-2.1-2.1-3.2,0c-0.8,1.4-1.3,2.9,0.6,3.9c1.5,0.8,3.2,1.4,5,1.8c22,5.4,41.3,15,56.8,30.9
		c3.7,3.8,8.6,6.6,10.9,11.6c0.6,1.3,1.9,2.2,3.7,2.4c18.6,2.6,34.4,10.8,49,21.3c8.3,6,17.2,11.4,23.5,19.5c2.4,3,5,2.6,7.2-0.3
		c1.7-2.3,3.2-4.7,4.7-7.1c7.7-11.9,23-15.8,36.2-9.3c10.5,5.2,13.6,17.6,5.8,26c-11.1,11.9-24.8,21.4-37.2,32.1
		c-2.7,2.3-6.2,1.9-8.8-0.2c-20.6-16.4-46.3-24.9-68.9-38.2c-30.9-18.1-62.3-35.4-93.5-53.2c-2.5-1.4-4.5-3.6-6.8-5.4
		c-7.9-6.2-17.1-9-27.3-10c-6.8-0.6-8.2-2.1-7.3-8.2c2.1-14.6,6-28.7,13.5-41.8C1587.3-1391,1595.9-1399.9,1612.2-1396.7z"/>
	<path class="st7" d="M1708.9-1252.4c-7.8,4.2-14.6,3.5-20.9-0.3c-13.8-8.3-27.5-16.8-42.1-23.8c-7.5-3.6-11.6-10.5-17.1-16
		c-2.3-2.3-4.3-4.8-5.7-8.4C1651.4-1284.9,1679.7-1268.9,1708.9-1252.4z"/>
	<g>
		<path class="st1" d="M1668-1240.3c-1.3,0-2.4-0.7-3.6-1.9c-3.2-2.9-5.9-6.6-8.2-11.3c-3.7-7.7-8-14-13.3-19.3l0.3-0.4l47.2,26.3
			l-5.7,1.7c-5.5,1.7-10.5,3.2-15.6,4.7C1668.8-1240.3,1668.4-1240.3,1668-1240.3z"/>
		<g>
			<path d="M1644.3-1272.1l44.8,25l-4.6,1.4c-5.5,1.7-10.5,3.2-15.6,4.7c-0.4,0.1-0.7,0.2-1,0.2c-1.1,0-2.1-0.7-3.3-1.7
				c-3.2-2.9-5.8-6.5-8.1-11.2C1653.2-1260.9,1649.1-1267,1644.3-1272.1 M1643.2-1273.9c-0.3,0.4-0.6,0.7-0.9,1.1
				c5.7,5.8,10,12.4,13.5,19.5c2,4.2,4.7,8.2,8.3,11.5c1.2,1.1,2.4,2,4,2c0.4,0,0.8-0.1,1.3-0.2c7.1-2.1,14.2-4.3,22.4-6.8
				C1674.8-1256.2,1659-1265,1643.2-1273.9L1643.2-1273.9z"/>
		</g>
	</g>
	<path class="st8" d="M1461.7-970.2c-6.4,1.3-11.8,2.3-17.1,3.6c-3.2,0.7-5-0.5-6.2-3c-1.9-3.9-2.5-7.9-0.5-11.8
		c5.7-11.3,11.5-22.6,18.4-33.6c-1.7,9.1-3,18.2-5.2,27.2c-1.7,6.7-2.1,12.1,6.6,14.3C1458.8-973.2,1459.7-971.9,1461.7-970.2z"/>
	<path class="st6" d="M1376.2-1259.8c-7.1-1-13.9-3.7-20.9-5.6c-1-0.3-2.1-0.8-1.8-1.8c0.5-1.5,2.1-1.6,3.5-1.2
		c6.9,1.7,13.8,3.4,20.7,5.1c1.2,0.3,2.4,1,2.1,2.3C1379.3-1259.2,1377.6-1259.9,1376.2-1259.8z"/>
	<path class="st9" d="M1517.7-1268.5c2.8,29.3-55.2,97.2-72.5,95.2C1479.3-1198,1504-1228.7,1517.7-1268.5z"/>
	<path class="st10" d="M1457.5-1329.2c2.8,0.8,4.5,3,6.5,4.7c7.1,5.9,6.9,5.9,3.4,14c-3.6,8.1-8.4,15.5-13.3,22.9
		c-0.6,0.9-0.9,2.3-2.4,2c-1.4-0.3-1.2-1.7-1.3-2.8c-1-7.9,1.5-15.5,2.4-23.2c0.6-4.8,1.5-9.5,2.3-14.3
		C1455.2-1327.3,1455.3-1329,1457.5-1329.2z"/>
	<path class="st9" d="M1401.4-1306.1c-1.7-0.5-3.3-0.6-4.7-1.4c-3.1-1.8-7.7-2.9-7.2-7.2c0.5-4.2,5.2-3.3,8.2-4
		c5.2-1.2,10.5-1.8,15.8-2.7c2.2-0.4,4.1,0.1,5.1,1.9c1.2,2-0.7,3.1-2.1,4C1411.7-1312,1407.5-1307.5,1401.4-1306.1z"/>
	<path class="st11" d="M1769-1172.5c-13.4-15-30.5-25.1-50.7-31.9c4.2-2.7,7.8-1.7,10.8-0.6c16.2,6.3,29.5,16.3,39.9,29.5
		c0.4,0.5,0.6,1.3,0.9,1.9C1769.6-1173.2,1769.3-1172.8,1769-1172.5z"/>
	<path class="st8" d="M1474.9-1367.6c-18.4-10.4-22.6,4.1-29.2,13.7c-2.2-0.3-1.7-1.7-1.9-2.6c-1.2-6.6,9.6-20.1,16.6-20.8
		C1467.6-1377.9,1471.4-1373.3,1474.9-1367.6z"/>
	<path class="st12" d="M1482.9-1179.7c19.8-14.6,33.1-32.6,41.5-53.8C1523-1216.2,1496.8-1181.9,1482.9-1179.7z"/>
	<path class="st13" d="M1599.7-1104.9c-15.8-0.7-34.8-5.3-42.3-10.9c16,3.6,30.3,8.4,45.3,9.8
		C1602.6-1103.7,1600.9-1104.9,1599.7-1104.9z"/>
	<path class="st14" d="M1599.7-1104.9c1-0.4,2-0.8,3-1.1c10.8,0,21.7,0,32.5,0c0,0.7,0,1.3,0,2
		C1623.4-1101.7,1611.6-1102.7,1599.7-1104.9z"/>
	<path class="st15" d="M1751.2-1316.4c-0.1-11,15.2-30.6,28.1-35.9C1765.8-1343.2,1757.4-1330.6,1751.2-1316.4z"/>
	<path class="st16" d="M1698.4-1387c-5.7,12.5-13.8,23.2-27,29.7c10.6-8.8,20.4-18.2,26-30.8C1698.5-1388.3,1698.9-1388,1698.4-1387
		z"/>
	<path class="st17" d="M1698.4-1387c-0.3-0.4-0.7-0.8-1-1.1c0.9-2.7,1.8-5.4,2.7-8.1C1701-1392.9,1700.6-1389.7,1698.4-1387z"/>
	<path class="st18" d="M1610.5-1386.9c-17.7,11.3-21.7,29-27.5,45.9c-1.3-8.3,1.7-19,8.7-31.3c1.5-2.6,3-5.2,4.5-7.8
		C1599.7-1386.3,1602.4-1387.7,1610.5-1386.9z"/>
	<path class="st19" d="M1767.8-1236.9c16.7-8.6,33.5-16.2,41.4-34.1c2.2,4.2,2.7,8.1-0.9,11.4c-10.4,9.5-21.4,18.1-35.4,22.6
		C1771.2-1236.5,1769.7-1236.5,1767.8-1236.9z"/>
	<path class="st20" d="M1621.8-1339.2c12,14.4,27.3,22.9,44.8,29.2C1656-1308.1,1625.1-1328.1,1621.8-1339.2z"/>
	<path class="st21" d="M1745.5-1263.6c-18.6-4.1-33.4-13.9-45.5-27.7C1713.2-1279.1,1728.4-1269.9,1745.5-1263.6z"/>
	<path class="st6" d="M1458.1-1325.5c8.6,7,8.6,7,3.9,15.1c-2.5,4.2-4.8,8.4-8,12.3C1455.3-1307,1456.7-1315.9,1458.1-1325.5z"/>
	<path class="st6" d="M1397.6-1313.3c3.5-0.9,6.8-1.7,10.4-2.7C1405.3-1309.1,1402.9-1308.5,1397.6-1313.3z"/>
</g>
<g>
	<g>
		<path d="M497.8,1699c-63.7,0-125.5-12.5-183.7-37.1c-56.2-23.8-106.6-57.8-150-101.1c-43.3-43.3-77.4-93.8-101.1-150
			c-24.6-58.2-37.1-120-37.1-183.7V525.8c0-63.7,12.5-125.5,37.1-183.7c23.8-56.2,57.8-106.6,101.1-150
			c43.3-43.3,93.8-77.4,150-101.1C372.3,66.5,434.1,54,497.8,54h701.3c63.7,0,125.5,12.5,183.7,37.1c56.2,23.8,106.6,57.8,150,101.1
			c43.3,43.3,77.4,93.8,101.1,150c24.6,58.2,37.1,120,37.1,183.7v701.3c0,63.7-12.5,125.5-37.1,183.7
			c-23.8,56.2-57.8,106.6-101.1,150c-43.3,43.3-93.8,77.4-150,101.1c-58.2,24.6-120,37.1-183.7,37.1H497.8z"/>
		<path d="M1199.2,56c63.4,0,125,12.4,182.9,36.9c55.9,23.7,106.2,57.5,149.3,100.7c43.1,43.1,77,93.4,100.7,149.3
			c24.5,57.9,36.9,119.4,36.9,182.9v701.3c0,63.4-12.4,125-36.9,182.9c-23.7,55.9-57.5,106.2-100.7,149.3
			c-43.1,43.1-93.4,77-149.3,100.7c-57.9,24.5-119.4,36.9-182.9,36.9H497.8c-63.4,0-125-12.4-182.9-36.9
			c-55.9-23.7-106.2-57.5-149.3-100.7c-43.1-43.1-77-93.4-100.7-149.3C40.4,1352.1,28,1290.6,28,1227.2V525.8
			c0-63.4,12.4-125,36.9-182.9c23.7-55.9,57.5-106.2,100.7-149.3c43.1-43.1,93.4-77,149.3-100.7C372.9,68.4,434.4,56,497.8,56
			H1199.2 M1199.2,52H497.8C236.1,52,24,264.1,24,525.8v701.3c0,261.7,212.1,473.8,473.8,473.8h701.3
			c261.7,0,473.8-212.1,473.8-473.8V525.8C1673,264.1,1460.9,52,1199.2,52L1199.2,52z"/>
	</g>
	<g>
		<path class="st0" d="M497.8,1589.3c-48.9,0-96.3-9.6-140.9-28.5c-43.1-18.2-81.8-44.3-115.1-77.6s-59.4-72-77.6-115.1
			c-18.9-44.6-28.5-92.1-28.5-140.9V525.8c0-48.9,9.6-96.3,28.5-140.9c18.2-43.1,44.3-81.8,77.6-115.1s72-59.4,115.1-77.6
			c44.6-18.9,92.1-28.5,140.9-28.5h701.3c48.9,0,96.3,9.6,140.9,28.5c43.1,18.2,81.8,44.3,115.1,77.6s59.4,72,77.6,115.1
			c18.9,44.6,28.5,92.1,28.5,140.9v701.3c0,48.9-9.6,96.3-28.5,140.9c-18.2,43.1-44.3,81.8-77.6,115.1s-72,59.4-115.1,77.6
			c-44.6,18.9-92.1,28.5-140.9,28.5H497.8z"/>
		<path d="M1199.2,165.7c48.6,0,95.8,9.5,140.2,28.3c42.9,18.1,81.4,44.1,114.5,77.2c33.1,33.1,59,71.6,77.2,114.5
			c18.8,44.4,28.3,91.5,28.3,140.2v701.3c0,48.6-9.5,95.8-28.3,140.2c-18.1,42.9-44.1,81.4-77.2,114.5
			c-33.1,33.1-71.6,59-114.5,77.2c-44.4,18.8-91.5,28.3-140.2,28.3H497.8c-48.6,0-95.8-9.5-140.2-28.3
			c-42.9-18.1-81.4-44.1-114.5-77.2c-33.1-33.1-59-71.6-77.2-114.5c-18.8-44.4-28.3-91.5-28.3-140.2V525.8
			c0-48.6,9.5-95.8,28.3-140.2c18.1-42.9,44.1-81.4,77.2-114.5c33.1-33.1,71.6-59,114.5-77.2c44.4-18.8,91.5-28.3,140.2-28.3H1199.2
			 M1199.2,161.7H497.8c-201.1,0-364.1,163-364.1,364.1v701.3c0,201.1,163,364.1,364.1,364.1h701.3c201.1,0,364.1-163,364.1-364.1
			V525.8C1563.3,324.7,1400.3,161.7,1199.2,161.7L1199.2,161.7z"/>
	</g>
	<g>
		<g>
			<path class="st1" d="M497.8,1664.3c-59,0-116.3-11.6-170.2-34.4c-52.1-22-98.8-53.5-139-93.7c-40.2-40.2-71.7-86.9-93.7-139
				c-22.8-53.9-34.4-111.1-34.4-170.2V525.8c0-59,11.6-116.3,34.4-170.2c22-52.1,53.5-98.8,93.7-139c40.2-40.1,86.9-71.7,139-93.7
				c53.9-22.8,111.1-34.4,170.2-34.4h701.3c59,0,116.3,11.6,170.2,34.4c52.1,22,98.8,53.5,139,93.7c40.1,40.2,71.7,86.9,93.7,139
				c22.8,53.9,34.4,111.1,34.4,170.2v701.3c0,59-11.6,116.3-34.4,170.2c-22,52.1-53.5,98.8-93.7,139c-40.2,40.2-86.9,71.7-139,93.7
				c-53.9,22.8-111.1,34.4-170.2,34.4H497.8z"/>
			<path d="M1199.2,90.7c58.8,0,115.7,11.5,169.4,34.2c51.8,21.9,98.4,53.3,138.3,93.3c40,40,71.3,86.5,93.3,138.3
				c22.7,53.6,34.2,110.6,34.2,169.4v701.3c0,58.8-11.5,115.7-34.2,169.4c-21.9,51.8-53.3,98.4-93.3,138.3
				c-40,40-86.5,71.3-138.3,93.3c-53.6,22.7-110.6,34.2-169.4,34.2H497.8c-58.8,0-115.7-11.5-169.4-34.2
				c-51.8-21.9-98.4-53.3-138.3-93.3c-40-40-71.3-86.5-93.3-138.3c-22.7-53.6-34.2-110.6-34.2-169.4V525.8
				c0-58.8,11.5-115.7,34.2-169.4c21.9-51.8,53.3-98.4,93.3-138.3c40-40,86.5-71.3,138.3-93.3c53.6-22.7,110.6-34.2,169.4-34.2
				H1199.2 M1199.2,86.7H497.8c-242.6,0-439.2,196.6-439.2,439.2v701.3c0,242.6,196.6,439.2,439.2,439.2h701.3
				c242.6,0,439.2-196.6,439.2-439.2V525.8C1638.3,283.3,1441.7,86.7,1199.2,86.7L1199.2,86.7z"/>
		</g>
	</g>
</g>
<path class="st2" d="M2211.7-1056.7"/>
<g>
	<path class="st3" d="M1114.9,1030.9c1.1-2.7-0.3-1.7-0.5-1.5c-0.9,1-0.3,0.3-1.1,1.2c-3.9,4.6-4.4,7.6-5.9,12.2
		c-10,23-20.3,45.9-29.7,69.1c-2.7,6.6-6.2,9.8-13.6,10.8c-98.9,13.2-196.1,12.2-288.9-28.2c-9.3-4-18.4-9.1-26.1-15.3
		c-10.2-8.2-17.3-6.4-26,2.1c-37.9,37.2-70,79-105.6,117.8c-35,38.1-49.9,81.7-56.1,129.7c-2,15.6-5.4,31.1-8.7,46.5
		c-1.7,8.1-1,14.3,6.1,20.4c8.4,7.1,16.2,15.1,22.9,23.7c6.3,8,7.3,15.1-5.9,19.9c-40.6,14.7-80.8,26.1-125.9,24.7
		c-84.2-2.5-168.6-0.9-252.9-0.5c-11.4,0.1-14.4-1.7-12.6-13.3c6-38.1,7.3-77,17.1-114.5c16.2-62.6,41.6-122.5,64.8-183
		c49.4-128.8,109.3-253.6,171-377.5c14.6-29.4,30.3-58.3,45.4-87.5c1.6-3,2.5-6.4,2.7-10.2c-17.6,14.1-31.5,30.9-44.5,48.5
		c-16,21.7-32,43.5-47.7,65.4c-6.1,8.5-13,14.1-24.1,7.8C323.9,773.4,280.2,746,255,700c-5.7-10.3-11-20.9-15.6-31.7
		c-9.6-22.5-13.8-43.4,15.2-58.3c10.6-5.4,17.7-16.3,27.2-23.9c11.3-9.1,23.1-16.8,14.7-34.1c-3.4-7,5.2-13.8,9.5-19.6
		c3.8-5,7.8-9.8,12.7-13.8c8.2-6.7,9.6-12.7,4.7-21.6c-11.2-20.5-9.8-27.9,7-44.9c31.6-32.2,60.5-65.6,82.5-104.9
		c20.7-36.9,54.7-65.4,86-95.1c8.6-8.2,17.7-5.5,27-2c67.8,25.1,125.4,64.1,175.9,112.7c26.1,25.2,52,50.5,78,75.7
		c9.9,9.6,43.8,12.8,54.8,5.6c4.8-3.2,4.4-7.8,4.5-12.4c1.6-56.6,21.7-106.8,57.6-152.3c16.3-20.7,44.4-37.6,74.5-26
		c10.3,4,15.9-0.4,20.9-8.7c22.6-37.2,54.5-63.7,99.6-75.3c18.9-4.9,37.6-3.5,56.6-1.3c81.6,9.5,153.7,41.7,221.7,82.5
		c49.8,29.9,98,61.9,140,101.4c64.5,60.7,68.4,132.8,18.8,204.6c-5.7,8.2-4.3,13.9,1.4,20.3c8,9,15.8,18.2,19.2,29.7
		c7.3,25-0.2,46.4-20,63.8c-31.2,27.5-63.1,54.3-94.1,80.8c29.9,28.7,59.9,57.5,90,86.4c4.5,4.4,9.1,8.7,13.3,13.4
		c12.9,14,13.7,22.6,3.1,38.4c-20.3,30-41,59.6-58.8,91.1c-8.5,15-9.1,28.8-1.5,43.5c15.2,29.1,29.7,58.6,46.1,87.1
		c21,36.6,20.6,76,21.6,115.6c1.6,58.9-10.6,116.2-20,173.9c-2.5,15.6-5.3,31.1-6.8,46.8c-0.8,8.1-4.2,9.6-12,9.6
		c-111.5,0.7-223,1.8-334.5,2.7c-4.6,0-10.5,2.1-13.1-3.4c-2.5-5.2,0-10.2,3.9-13.9c9.2-8.6,18.3-17.5,28.7-24.8
		c9.1-6.4,11-12,5-21.4c-49.2-76.3-71.3-161.6-93.4-246.8c-8.6-33.4-4.2-67.6,3-101.2"/>
	<path class="st4" d="M1115.4,1023.2"/>
	<path class="st5" d="M1187.7,1447.3c10-6.7,18.2-12.9,27.1-18.2c8.9-5.3,11.2-11.1,6-20.2c-13.2-23.3-25.4-47-38.7-70.2
		c-23.7-41.6-33.7-87.5-49.1-131.7c-22.4-64.3-19.7-129-4.8-194c1.1-4.6,5-11.3-0.6-13.9c-7.1-3.2-9.5,4.8-12.4,8.9
		c-18.5,26.4-32.5,55-41.4,85.4c-3.7,12.5-10.3,20.6-25.1,22c-77.6,7.3-154.1,3.6-229-18.1c-20.3-5.9-39.4-14.3-56.8-25.8
		c-15.6-10.2-17.2-18.4-6.1-32.8c32.8-42.3,63.4-86,91.2-131.4c6.7-10.9,6.7-10.9,4.2-22.1c-17.1,16.7-29,35.8-42.2,53.7
		c-31.4,42.6-60.9,86.4-92.1,129.1c-22.4,30.7-52.1,55.8-76.8,84.8c-41.4,48.8-85.1,96-120.1,149.3c-19.5,29.7-33.1,61.5-40.5,95.6
		c-4.1,18.9-4,18.9,8.2,51.3c-2.5,3.7-6.8,2.6-10.2,2.4c-85.9-5.9-171.8-2.1-257.6,0c-13.1,0.3-15.8-3.2-15.1-14.9
		c3.5-62.7,19.4-122.7,38.3-182.9c28.9-92.1,69-180.2,105.3-269.6c39.5-97.1,88.6-190.4,141.4-281.8c12.7-21.9,23.3-44.6,30.6-68.5
		c1.3-4.2,1.7-8.6,2.8-14.4c-13.7,3.8-18.7,14.1-26,21.5c-37,37.3-70.7,76.7-97.5,121.3c-15.9,26.5-17.7,25.4-46.8,12.2
		c-46-21-82-51-100.4-97c-0.6-1.4-1.3-2.8-1.8-4.2c-9.7-30.9-2.6-47.2,33.3-37c16,4.6,33,6.2,49.3,9.9c10.3,2.4,15.3-1.8,18.2-10.1
		c3.3-9.4-4.6-11.3-11-13.7c-14.6-5.3-29.4-10.3-44.2-15.2c-9.4-3.1-12.2-6.5-3.3-14.2c9.7-8.3,21-14.4,31.4-21.7
		c2.1-1.4,5.4-2.5,3.6-5.6c-0.7-1.2-4.3-2.5-5.2-1.9c-6.1,3.7-10.3,4-14-3.2c-3.5-6.8-3.5-12.9,1.9-18.3
		c10.3-10.5,20.8-20.8,31.6-30.8c8.2-7.6,13.8-13.1-2.9-18.1c-15.8-4.7-17.3-10.9-8.6-23.9c8.7-13.1,22.3-22.1,33.1-33.5
		c12.2-12.9,25.4-25.1,38-37.7c7.9-7.9,18.5-14.4,12.1-28.3c-2.4-5.2,1.4-10.8,5.1-15.4c16.6-20.7,32.1-42.2,50.7-61.5
		c11.1-11.5,24-20.1,39.8-25.4c12.2-4.1,23.2-3.7,34.2,2.5c68.2,38.2,134.8,78.3,185.4,137.3c13.3,15.5,27,30.6,39.9,46.3
		c7.6,9.2,16.7,12.5,28.5,9.6c77-18.4,135.6,14.4,186.7,62c37.7,35.1,64.1,78.8,91.3,121.4c7.5,11.7,15.8,23,23.3,34.8
		c5.7,8.9,8,16.1-4.6,23.7c-19.4,11.8-34.5,28.2-49.4,48.4c28.5-9.7,48.4-27.6,72.3-39c35.4-16.9,72.4-29.7,110.5-39.7
		c12.9-3.4,25.6-2.2,37.7,4.3c49.4,26.5,99.1,52.5,146.6,81.9c36.1,22.3,63.8,53.6,94.9,81.1c27.7,24.5,26.5,24.5,6.9,55.7
		c-18.2,28.8-34.7,58.4-51.5,88c-8.8,15.5-4,30.6,3.6,45.2c12.5,23.6,27.4,46,37.7,70.7c23,55.1,35.8,111.2,27,171.1
		c-7.6,51.3-11.5,103-16.7,154.6c-1.1,10.5-6,15.3-17.4,15.9c-101,5.3-202.1,6.5-303.3,6.2
		C1192.7,1448.9,1191.3,1448.2,1187.7,1447.3z"/>
	<path class="st6" d="M1550.4,458.8c1.8,28.3-10.8,54-20.7,80.2c-3.9,10.4-11,7.7-19.5,4.4c-33.9-13-65.9-9.5-94.7,12.4
		c-5,3.8-9.4,8.5-13.3,13.3c-12.7,15.7-12.4,15.6-29.7,2.7c-40-30-82.8-55-132.2-70.3c-25.7-7.9-48.6-21.1-67.3-40.9
		c-34.5-36.4-81.1-57.1-125.8-79.9c-2.4-1.2-4.8-2.3-7.2-3.5c-21.2-10.7-21-10.6-11.9-31.8c13.9-32.1,7.7-62-13.4-89.2
		c-9.2-11.9-8-19.9,2.8-30c42.6-40,89.7-59.7,152.6-45c104,24.3,194.2,71,275.6,134.8c28.4,22.3,56.1,44.7,79.2,72.1
		C1542.3,408.9,1552.3,431.6,1550.4,458.8z"/>
	<path class="st6" d="M972.5,263c13,1.3,29.4-8.4,38.9,6c12.9,19.4,19.1,40.9,11.9,64c-3.1,9.8-7.7,19.1-15,26.8
		c-8.6,9.2-7.1,14.2,5.6,18c41.5,12.7,79.5,32.1,115,55.8c14.7,9.8,28.1,20.7,38.5,34.7c16.5,22.4,41.3,34,67.3,43.3
		c41.2,14.6,80.6,32.3,117.4,55c11.9,7.3,22.9,15.5,31.8,25.8c6.8,7.8,10.4,6.9,16.4-1.5c22.4-31.6,52.5-49.2,94.9-42.5
		c5.9,0.9,13.5,1,12.8,8.5c-0.5,6-7.5,6.1-12.9,6.6c-8.6,0.8-17.3,1.8-25.9,2.6c-31.2,2.9-54.2,16.7-66.2,44.5
		c-4.4,10.1-8.9,12.3-18.6,4.2c-21.8-18.3-44.5-35.7-66.8-53.5c-26.4-21.1-56.6-36.7-89.8-44.6c-31.6-7.5-57.1-21.6-76.4-45.4
		c-33-40.7-79.6-61.3-128.7-78.8c-13.1-4.7-27-7.8-38.5-15.8c-2.9-2-5.6-5.8-8.7-0.1c-2.1,3.9-3.5,8,1.5,10.6
		c4.2,2.2,8.9,3.8,13.5,4.9c60,14.8,112.9,41.1,155.3,84.4c10.2,10.4,23.4,18.1,29.8,31.8c1.7,3.6,5.1,5.9,10.1,6.6
		c50.7,7.1,94.2,29.4,134,58.2c22.6,16.4,46.9,31.2,64.3,53.3c6.4,8.2,13.8,7.2,19.8-0.8c4.7-6.2,8.8-12.8,13-19.3
		c21.2-32.5,63-43.2,99-25.4c28.7,14.2,37.1,48.2,15.8,71c-30.4,32.7-67.8,58.5-101.7,87.8c-7.4,6.4-17,5.2-24-0.5
		c-56.4-44.9-126.6-68.1-188.5-104.4c-84.5-49.5-170.5-96.9-255.6-145.4c-6.9-3.9-12.3-9.9-18.6-14.8
		c-21.6-16.9-46.9-24.7-74.5-27.3c-18.5-1.7-22.3-5.8-19.9-22.4c5.8-39.9,16.4-78.6,37-114.4C904.5,278.7,927.9,254.3,972.5,263z"/>
	<path class="st7" d="M1236.9,657.8c-21.4,11.6-39.9,9.6-57.3-0.8c-37.7-22.8-75.2-45.9-115.2-65.2c-20.5-9.9-31.7-28.6-46.6-43.8
		c-6.2-6.3-11.8-13.1-15.6-23C1079.5,568.7,1157,612.5,1236.9,657.8z"/>
	<g>
		<path class="st1" d="M1125.1,691.7c-4.2,0-7.5-2.6-10.5-5.3c-9-8.1-16.3-18.3-22.5-31.2c-10.2-21.2-22.2-38.7-36.6-53.2l1.8-2.4
			l131.4,73.4l-17.8,5.4c-14.8,4.5-28.6,8.7-42.3,12.8C1127.3,691.5,1126.2,691.7,1125.1,691.7z"/>
		<g>
			<path d="M1057.4,600.2l130,72.6c-5.6,1.7-11.1,3.4-16.4,5c-14.8,4.5-28.8,8.7-42.7,12.9c-1.1,0.3-2.2,0.5-3.3,0.5
				c-3.7,0-6.6-2-10.2-5.2c-8.9-8.1-16.3-18.2-22.4-31c-10.2-21.1-22.1-38.5-36.4-53l1-1.3L1057.4,600.2 M1057.1,598.9
				c-0.8,1-1.6,2-2.4,3.1c15.7,15.8,27.4,33.8,36.8,53.4c5.5,11.4,12.7,22.4,22.7,31.3c3.2,2.9,6.6,5.5,10.8,5.5
				c1.1,0,2.3-0.2,3.5-0.5c19.4-5.8,38.8-11.8,61.3-18.6C1143.7,647.3,1100.4,623.1,1057.1,598.9L1057.1,598.9z"/>
		</g>
	</g>
	<path class="st8" d="M560.7,1429.3c-17.4,3.6-32.2,6.3-46.9,9.7c-8.6,2-13.6-1.5-16.8-8.1c-5.1-10.5-6.8-21.6-1.4-32.3
		c15.5-31,31.5-61.7,50.3-91.9c-4.6,24.8-8.2,49.9-14.3,74.4c-4.6,18.4-5.6,33,18.2,39.2C552.9,1421.1,555.3,1424.7,560.7,1429.3z"
		/>
	<path class="st6" d="M326.9,637.3c-19.5-2.7-38-10.2-57.3-15.2c-2.8-0.7-5.8-2.2-4.9-5c1.4-4.2,5.6-4.3,9.5-3.3
		c18.9,4.6,37.8,9.2,56.6,13.9c3.3,0.8,6.4,2.7,5.8,6.2C335.6,639.1,330.9,637.1,326.9,637.3z"/>
	<path class="st9" d="M714.1,613.6c7.5,80.1-151.1,265.8-198.2,260.2C609.1,806.4,676.5,722.4,714.1,613.6z"/>
	<path class="st10" d="M549.4,447.6c7.5,2.3,12.2,8.2,17.8,12.8c19.5,16.1,18.9,16.1,9.2,38.2c-9.7,22.1-22.9,42.4-36.3,62.6
		c-1.7,2.5-2.5,6.4-6.6,5.4c-3.9-0.9-3.3-4.8-3.7-7.6c-2.8-21.5,4-42.3,6.5-63.3c1.5-13.1,4-26.1,6.3-39.1
		C543.2,452.8,543.4,448.3,549.4,447.6z"/>
	<path class="st9" d="M395.8,510.9c-4.6-1.3-9.2-1.7-12.7-3.7c-8.5-4.8-21.1-8-19.8-19.6c1.3-11.5,14.2-9,22.5-10.8
		c14.2-3.2,28.8-4.9,43.2-7.5c6-1.1,11.2,0.3,14.1,5.1c3.2,5.4-2,8.5-5.7,11.1C424.1,494.8,412.7,506.9,395.8,510.9z"/>
	<path class="st11" d="M1401.3,876.2c-36.8-41.1-83.5-68.5-138.5-87.3c11.5-7.3,21.4-4.7,29.6-1.5c44.4,17.3,80.8,44.5,109.2,80.8
		c1.2,1.5,1.6,3.5,2.3,5.2C1403,874.3,1402.1,875.3,1401.3,876.2z"/>
	<path class="st8" d="M597,342.6c-50.2-28.5-61.8,11.3-79.9,37.5c-6-0.8-4.8-4.7-5.2-7.1c-3.2-17.9,26.3-55.1,45.5-56.8
		C577.1,314.5,587.4,327,597,342.6z"/>
	<path class="st12" d="M618.8,856.4c54.3-40,90.5-89.2,113.6-147.3C728.5,756.5,656.9,850.6,618.8,856.4z"/>
	<path class="st13" d="M938.4,1061.1c-43.3-2-95.3-14.6-115.8-29.8c43.7,9.9,82.8,23.1,124,26.7
		C946.1,1064.3,941.6,1061.2,938.4,1061.1z"/>
	<path class="st14" d="M938.4,1061.1c2.7-1,5.5-2.1,8.2-3.1c29.6,0,59.3,0,88.9,0c0,1.8,0,3.6,0,5.4
		C1003.1,1069.9,970.8,1066.9,938.4,1061.1z"/>
	<path class="st15" d="M1352.7,482.7c-0.2-30.2,41.5-83.6,77-98.2C1392.6,409.5,1369.7,443.9,1352.7,482.7z"/>
	<path class="st16" d="M1208.3,289.6c-15.6,34.3-37.7,63.4-73.8,81.1c28.9-24.2,55.8-49.9,71.1-84.2
		C1208.5,285.9,1209.6,286.8,1208.3,289.6z"/>
	<path class="st17" d="M1208.3,289.6c-0.9-1-1.8-2.1-2.8-3.1c2.5-7.4,4.9-14.8,7.4-22.3C1215.4,273.5,1214.3,282,1208.3,289.6z"/>
	<path class="st18" d="M967.9,289.8c-48.4,30.9-59.3,79.2-75.1,125.4c-3.7-22.6,4.6-52,23.8-85.7c4.1-7.1,8.2-14.2,12.2-21.4
		C938.2,291.4,945.7,287.7,967.9,289.8z"/>
	<path class="st19" d="M1398.1,699.9c45.7-23.5,91.7-44.4,113.1-93.2c6.1,11.5,7.3,22.2-2.5,31.2c-28.4,25.9-58.6,49.4-96.9,61.9
		C1407.4,701.2,1403.3,701,1398.1,699.9z"/>
	<path class="st20" d="M998.6,420.4c32.9,39.4,74.6,62.5,122.5,79.9C1092.2,505.3,1007.6,450.6,998.6,420.4z"/>
	<path class="st21" d="M1337.2,627c-51-11.2-91.4-38.1-124.5-75.8C1248.6,584.6,1290.3,609.7,1337.2,627z"/>
	<path class="st6" d="M551.1,457.7c23.6,19.2,23.6,19.2,10.6,41.4c-6.7,11.4-13.2,22.9-21.9,33.7
		C543.4,508.4,547.1,484.1,551.1,457.7z"/>
	<path class="st6" d="M385.5,491.2c9.5-2.5,18.6-4.8,28.4-7.3C406.7,502.5,400.1,504.1,385.5,491.2z"/>
</g>
<g>
	<g>
		<path d="M2981.3-875c-84.8,0-164.4-33-224.4-92.9c-59.9-59.9-92.9-139.6-92.9-224.4s33-164.4,92.9-224.4
			c59.9-59.9,139.6-92.9,224.4-92.9s164.4,33,224.4,92.9s92.9,139.6,92.9,224.4c0,84.8-33,164.4-92.9,224.4S3066.1-875,2981.3-875z"
			/>
		<path d="M2981.3-1507.6c42.6,0,83.9,8.3,122.7,24.8c37.5,15.9,71.3,38.6,100.2,67.6c29,29,51.7,62.7,67.6,100.2
			c16.4,38.9,24.8,80.2,24.8,122.7c0,42.6-8.3,83.9-24.8,122.7c-15.9,37.5-38.6,71.3-67.6,100.2s-62.7,51.7-100.2,67.6
			c-38.9,16.4-80.2,24.8-122.7,24.8c-42.6,0-83.9-8.3-122.7-24.8c-37.5-15.9-71.3-38.6-100.2-67.6c-29-29-51.7-62.7-67.6-100.2
			c-16.4-38.9-24.8-80.2-24.8-122.7c0-42.6,8.3-83.9,24.8-122.7c15.9-37.5,38.6-71.3,67.6-100.2c29-29,62.7-51.7,100.2-67.6
			C2897.5-1499.3,2938.7-1507.6,2981.3-1507.6 M2981.3-1511.6L2981.3-1511.6c-176.3,0-319.3,143-319.3,319.3v0
			c0,176.3,143,319.3,319.3,319.3h0c176.3,0,319.3-143,319.3-319.3v0C3300.6-1368.6,3157.7-1511.6,2981.3-1511.6L2981.3-1511.6z"/>
	</g>
	<g>
		<path class="st0" d="M2981.3-917.5c-73.4,0-142.4-28.6-194.3-80.5c-51.9-51.9-80.5-120.9-80.5-194.3s28.6-142.4,80.5-194.3
			c51.9-51.9,120.9-80.5,194.3-80.5s142.4,28.6,194.3,80.5s80.5,120.9,80.5,194.3c0,73.4-28.6,142.4-80.5,194.3
			C3123.7-946.1,3054.7-917.5,2981.3-917.5z"/>
		<path d="M2981.3-1465.1c36.8,0,72.6,7.2,106.2,21.4c32.5,13.7,61.7,33.4,86.7,58.5c25.1,25.1,44.7,54.2,58.5,86.7
			c14.2,33.6,21.4,69.4,21.4,106.2c0,36.8-7.2,72.6-21.4,106.2c-13.7,32.5-33.4,61.7-58.5,86.7c-25.1,25.1-54.2,44.7-86.7,58.5
			c-33.6,14.2-69.4,21.4-106.2,21.4s-72.6-7.2-106.2-21.4c-32.5-13.7-61.7-33.4-86.7-58.5s-44.7-54.2-58.5-86.7
			c-14.2-33.6-21.4-69.4-21.4-106.2s7.2-72.6,21.4-106.2c13.7-32.5,33.4-61.7,58.5-86.7c25.1-25.1,54.2-44.7,86.7-58.5
			C2908.8-1457.9,2944.5-1465.1,2981.3-1465.1 M2981.3-1469.1L2981.3-1469.1c-152.9,0-276.8,123.9-276.8,276.8v0
			c0,152.9,123.9,276.8,276.8,276.8h0c152.9,0,276.8-123.9,276.8-276.8v0C3258.1-1345.2,3134.2-1469.1,2981.3-1469.1L2981.3-1469.1z
			"/>
	</g>
	<g>
		<g>
			<path class="st1" d="M2981.3-888.4c-81.2,0-157.5-31.6-214.9-89c-57.4-57.4-89-133.7-89-214.9s31.6-157.5,89-214.9
				c57.4-57.4,133.7-89,214.9-89s157.5,31.6,214.9,89c57.4,57.4,89,133.7,89,214.9c0,81.2-31.6,157.5-89,214.9
				C3138.8-920,3062.5-888.4,2981.3-888.4z"/>
			<path d="M2981.3-1494.2c40.8,0,80.3,8,117.5,23.7c35.9,15.2,68.2,37,96,64.7c27.7,27.7,49.5,60,64.7,96
				c15.7,37.2,23.7,76.7,23.7,117.5s-8,80.3-23.7,117.5c-15.2,35.9-37,68.2-64.7,96c-27.7,27.7-60,49.5-96,64.7
				c-37.2,15.7-76.7,23.7-117.5,23.7c-40.8,0-80.3-8-117.5-23.7c-35.9-15.2-68.2-37-96-64.7s-49.5-60-64.7-96
				c-15.7-37.2-23.7-76.7-23.7-117.5s8-80.3,23.7-117.5c15.2-35.9,37-68.2,64.7-96c27.7-27.7,60-49.5,96-64.7
				C2901-1486.2,2940.6-1494.2,2981.3-1494.2 M2981.3-1498.2L2981.3-1498.2c-168.9,0-305.9,136.9-305.9,305.9v0
				c0,168.9,136.9,305.9,305.9,305.9h0c168.9,0,305.9-136.9,305.9-305.9v0C3287.2-1361.2,3150.2-1498.2,2981.3-1498.2L2981.3-1498.2
				z"/>
		</g>
	</g>
</g>
<g>
	<path class="st3" d="M3068.5-1149.7c0.4-1-0.1-0.6-0.2-0.5c-0.3,0.4-0.1,0.1-0.4,0.4c-1.4,1.7-1.6,2.7-2.1,4.4
		c-3.6,8.2-7.3,16.4-10.6,24.8c-1,2.4-2.2,3.5-4.9,3.9c-35.4,4.7-70.3,4.4-103.5-10.1c-3.3-1.4-6.6-3.3-9.3-5.5
		c-3.7-2.9-6.2-2.3-9.3,0.7c-13.6,13.3-25.1,28.3-37.9,42.2c-12.5,13.7-17.9,29.3-20.1,46.5c-0.7,5.6-1.9,11.1-3.1,16.7
		c-0.6,2.9-0.4,5.1,2.2,7.3c3,2.5,5.8,5.4,8.2,8.5c2.3,2.9,2.6,5.4-2.1,7.1c-14.5,5.3-29,9.3-45.1,8.9c-30.2-0.9-60.4-0.3-90.6-0.2
		c-4.1,0-5.2-0.6-4.5-4.8c2.2-13.7,2.6-27.6,6.1-41.1c5.8-22.4,14.9-43.9,23.2-65.6c17.7-46.2,39.2-90.9,61.3-135.3
		c5.2-10.5,10.9-20.9,16.3-31.3c0.6-1.1,0.9-2.3,1-3.7c-6.3,5.1-11.3,11.1-15.9,17.4c-5.7,7.8-11.5,15.6-17.1,23.4
		c-2.2,3.1-4.6,5-8.7,2.8c-16.3-9.2-32-19-41-35.4c-2-3.7-4-7.5-5.6-11.4c-3.4-8.1-4.9-15.6,5.4-20.9c3.8-1.9,6.3-5.9,9.7-8.6
		c4.1-3.3,8.3-6,5.3-12.2c-1.2-2.5,1.9-4.9,3.4-7c1.4-1.8,2.8-3.5,4.6-5c2.9-2.4,3.4-4.6,1.7-7.7c-4-7.3-3.5-10,2.5-16.1
		c11.3-11.5,21.7-23.5,29.6-37.6c7.4-13.2,19.6-23.4,30.8-34.1c3.1-2.9,6.3-2,9.7-0.7c24.3,9,44.9,23,63,40.4
		c9.4,9,18.6,18.1,28,27.1c3.5,3.4,15.7,4.6,19.6,2c1.7-1.1,1.6-2.8,1.6-4.4c0.6-20.3,7.8-38.3,20.7-54.6
		c5.8-7.4,15.9-13.5,26.7-9.3c3.7,1.4,5.7-0.2,7.5-3.1c8.1-13.3,19.5-22.8,35.7-27c6.8-1.7,13.5-1.3,20.3-0.5
		c29.3,3.4,55.1,14.9,79.5,29.6c17.8,10.7,35.1,22.2,50.2,36.4c23.1,21.7,24.5,47.6,6.7,73.3c-2,2.9-1.5,5,0.5,7.3
		c2.9,3.2,5.7,6.5,6.9,10.7c2.6,9-0.1,16.6-7.2,22.9c-11.2,9.8-22.6,19.5-33.7,29c10.7,10.3,21.5,20.6,32.3,31
		c1.6,1.6,3.3,3.1,4.8,4.8c4.6,5,4.9,8.1,1.1,13.8c-7.3,10.7-14.7,21.4-21.1,32.7c-3,5.4-3.3,10.3-0.5,15.6
		c5.4,10.4,10.6,21,16.5,31.2c7.5,13.1,7.4,27.2,7.8,41.4c0.6,21.1-3.8,41.6-7.2,62.3c-0.9,5.6-1.9,11.2-2.4,16.8
		c-0.3,2.9-1.5,3.4-4.3,3.5c-40,0.3-79.9,0.6-119.9,1c-1.6,0-3.8,0.7-4.7-1.2c-0.9-1.9,0-3.7,1.4-5c3.3-3.1,6.6-6.3,10.3-8.9
		c3.3-2.3,3.9-4.3,1.8-7.7c-17.6-27.3-25.6-57.9-33.5-88.5c-3.1-12-1.5-24.2,1.1-36.3"/>
	<path class="st4" d="M3068.7-1152.5"/>
	<path class="st5" d="M3094.6-1000.5c3.6-2.4,6.5-4.6,9.7-6.5c3.2-1.9,4-4,2.2-7.3c-4.7-8.3-9.1-16.8-13.9-25.2
		c-8.5-14.9-12.1-31.4-17.6-47.2c-8-23-7.1-46.2-1.7-69.5c0.4-1.7,1.8-4.1-0.2-5c-2.5-1.2-3.4,1.7-4.4,3.2
		c-6.6,9.5-11.6,19.7-14.9,30.6c-1.3,4.5-3.7,7.4-9,7.9c-27.8,2.6-55.2,1.3-82.1-6.5c-7.3-2.1-14.1-5.1-20.4-9.2
		c-5.6-3.7-6.2-6.6-2.2-11.7c11.8-15.2,22.7-30.8,32.7-47.1c2.4-3.9,2.4-3.9,1.5-7.9c-6.1,6-10.4,12.8-15.1,19.3
		c-11.2,15.3-21.8,31-33,46.3c-8,11-18.7,20-27.5,30.4c-14.8,17.5-30.5,34.4-43.1,53.5c-7,10.6-11.9,22-14.5,34.3
		c-1.5,6.8-1.4,6.8,2.9,18.4c-0.9,1.3-2.4,0.9-3.6,0.8c-30.8-2.1-61.6-0.8-92.3,0c-4.7,0.1-5.7-1.1-5.4-5.4
		c1.3-22.5,6.9-44,13.7-65.6c10.4-33,24.7-64.6,37.8-96.6c14.1-34.8,31.7-68.2,50.7-101c4.5-7.8,8.3-16,11-24.6
		c0.5-1.5,0.6-3.1,1-5.2c-4.9,1.4-6.7,5-9.3,7.7c-13.3,13.4-25.3,27.5-35,43.5c-5.7,9.5-6.4,9.1-16.8,4.4
		c-16.5-7.5-29.4-18.3-36-34.8c-0.2-0.5-0.5-1-0.6-1.5c-3.5-11.1-0.9-16.9,11.9-13.3c5.7,1.6,11.8,2.2,17.7,3.6
		c3.7,0.8,5.5-0.7,6.5-3.6c1.2-3.4-1.6-4.1-3.9-4.9c-5.2-1.9-10.5-3.7-15.8-5.4c-3.4-1.1-4.4-2.3-1.2-5.1c3.5-3,7.5-5.2,11.3-7.8
		c0.7-0.5,1.9-0.9,1.3-2c-0.3-0.4-1.5-0.9-1.9-0.7c-2.2,1.3-3.7,1.4-5-1.1c-1.3-2.4-1.2-4.6,0.7-6.6c3.7-3.8,7.4-7.4,11.3-11
		c2.9-2.7,4.9-4.7-1-6.5c-5.7-1.7-6.2-3.9-3.1-8.6c3.1-4.7,8-7.9,11.9-12c4.4-4.6,9.1-9,13.6-13.5c2.8-2.8,6.6-5.2,4.4-10.1
		c-0.9-1.9,0.5-3.9,1.8-5.5c5.9-7.4,11.5-15.1,18.2-22c4-4.1,8.6-7.2,14.3-9.1c4.4-1.5,8.3-1.3,12.3,0.9
		c24.4,13.7,48.3,28.1,66.4,49.2c4.8,5.5,9.7,11,14.3,16.6c2.7,3.3,6,4.5,10.2,3.5c27.6-6.6,48.6,5.2,66.9,22.2
		c13.5,12.6,23,28.2,32.7,43.5c2.7,4.2,5.7,8.3,8.3,12.5c2,3.2,2.9,5.8-1.6,8.5c-6.9,4.2-12.4,10.1-17.7,17.3
		c10.2-3.5,17.3-9.9,25.9-14c12.7-6.1,25.9-10.7,39.6-14.2c4.6-1.2,9.2-0.8,13.5,1.6c17.7,9.5,35.5,18.8,52.5,29.4
		c12.9,8,22.9,19.2,34,29.1c9.9,8.8,9.5,8.8,2.5,19.9c-6.5,10.3-12.4,20.9-18.5,31.5c-3.2,5.5-1.5,11,1.3,16.2
		c4.5,8.5,9.8,16.5,13.5,25.3c8.2,19.7,12.8,39.8,9.7,61.3c-2.7,18.4-4.1,36.9-6,55.4c-0.4,3.8-2.1,5.5-6.2,5.7
		c-36.2,1.9-72.5,2.3-108.7,2.2C3096.4-999.9,3095.9-1000.2,3094.6-1000.5z"/>
	<path class="st6" d="M3224.6-1354.8c0.6,10.1-3.9,19.3-7.4,28.7c-1.4,3.7-4,2.7-7,1.6c-12.2-4.7-23.6-3.4-33.9,4.4
		c-1.8,1.4-3.4,3-4.8,4.8c-4.6,5.6-4.5,5.6-10.6,1c-14.3-10.7-29.7-19.7-47.4-25.2c-9.2-2.8-17.4-7.6-24.1-14.7
		c-12.4-13.1-29.1-20.5-45.1-28.6c-0.9-0.4-1.7-0.8-2.6-1.3c-7.6-3.8-7.5-3.8-4.3-11.4c5-11.5,2.8-22.2-4.8-32
		c-3.3-4.3-2.9-7.1,1-10.8c15.3-14.3,32.2-21.4,54.7-16.1c37.3,8.7,69.6,25.4,98.8,48.3c10.2,8,20.1,16,28.4,25.8
		C3221.6-1372.6,3225.3-1364.5,3224.6-1354.8z"/>
	<path class="st6" d="M3017.5-1424.9c4.6,0.5,10.5-3,13.9,2.1c4.6,7,6.8,14.7,4.3,22.9c-1.1,3.5-2.8,6.8-5.4,9.6
		c-3.1,3.3-2.5,5.1,2,6.5c14.9,4.6,28.5,11.5,41.2,20c5.3,3.5,10.1,7.4,13.8,12.4c5.9,8,14.8,12.2,24.1,15.5
		c14.8,5.2,28.9,11.6,42.1,19.7c4.3,2.6,8.2,5.6,11.4,9.3c2.4,2.8,3.7,2.5,5.9-0.5c8-11.3,18.8-17.6,34-15.2
		c2.1,0.3,4.8,0.4,4.6,3.1c-0.2,2.2-2.7,2.2-4.6,2.4c-3.1,0.3-6.2,0.7-9.3,0.9c-11.2,1.1-19.4,6-23.7,15.9c-1.6,3.6-3.2,4.4-6.7,1.5
		c-7.8-6.6-16-12.8-23.9-19.2c-9.5-7.6-20.3-13.2-32.2-16c-11.3-2.7-20.5-7.8-27.4-16.3c-11.8-14.6-28.5-22-46.1-28.3
		c-4.7-1.7-9.7-2.8-13.8-5.7c-1.1-0.7-2-2.1-3.1,0c-0.7,1.4-1.3,2.9,0.5,3.8c1.5,0.8,3.2,1.4,4.9,1.8c21.5,5.3,40.5,14.7,55.6,30.2
		c3.6,3.7,8.4,6.5,10.7,11.4c0.6,1.3,1.8,2.1,3.6,2.4c18.2,2.5,33.8,10.5,48,20.9c8.1,5.9,16.8,11.2,23,19.1
		c2.3,2.9,4.9,2.6,7.1-0.3c1.7-2.2,3.1-4.6,4.7-6.9c7.6-11.6,22.6-15.5,35.5-9.1c10.3,5.1,13.3,17.3,5.7,25.5
		c-10.9,11.7-24.3,21-36.4,31.5c-2.7,2.3-6.1,1.8-8.6-0.2c-20.2-16.1-45.4-24.4-67.6-37.4c-30.3-17.7-61.1-34.7-91.6-52.1
		c-2.5-1.4-4.4-3.5-6.7-5.3c-7.7-6.1-16.8-8.8-26.7-9.8c-6.6-0.6-8-2.1-7.1-8c2.1-14.3,5.9-28.2,13.2-41
		C2993.1-1419.3,3001.5-1428.1,3017.5-1424.9z"/>
	<path class="st7" d="M3112.2-1283.5c-7.7,4.2-14.3,3.5-20.5-0.3c-13.5-8.2-27-16.4-41.3-23.4c-7.4-3.6-11.4-10.3-16.7-15.7
		c-2.2-2.3-4.2-4.7-5.6-8.2C3055.8-1315.4,3083.6-1299.7,3112.2-1283.5z"/>
	<g>
		<path class="st1" d="M3072.1-1271.6c-1.3,0-2.3-0.7-3.5-1.8c-3.2-2.9-5.8-6.5-8-11.1c-3.6-7.5-7.9-13.8-13-19l0.3-0.4l46.2,25.8
			l-5.4,1.6c-5.4,1.6-10.4,3.2-15.4,4.7C3072.9-1271.7,3072.5-1271.6,3072.1-1271.6z"/>
		<g>
			<path d="M3049-1302.7l12.5,7l31.3,17.4l-4.4,1.3c-5.4,1.6-10.3,3.1-15.3,4.6c-0.3,0.1-0.7,0.2-1,0.2c-1.1,0-2.1-0.6-3.2-1.7
				c-3.1-2.8-5.7-6.4-7.9-10.9C3057.6-1291.8,3053.7-1297.7,3049-1302.7 M3047.8-1304.6c-0.3,0.4-0.6,0.7-0.8,1.1
				c5.6,5.7,9.8,12.1,13.2,19.1c2,4.1,4.6,8,8.1,11.2c1.2,1.1,2.4,2,3.9,2c0.4,0,0.8-0.1,1.3-0.2c7-2.1,13.9-4.2,22-6.7
				C3078.8-1287.2,3063.3-1295.9,3047.8-1304.6L3047.8-1304.6z"/>
		</g>
	</g>
	<path class="st8" d="M2869.9-1006.9c-6.2,1.3-11.6,2.3-16.8,3.5c-3.1,0.7-4.9-0.5-6-2.9c-1.8-3.8-2.4-7.8-0.5-11.6
		c5.6-11.1,11.3-22.1,18-32.9c-1.7,8.9-2.9,17.9-5.1,26.7c-1.6,6.6-2,11.8,6.5,14C2867.1-1009.9,2867.9-1008.6,2869.9-1006.9z"/>
	<path class="st6" d="M2786.1-1290.8c-7-1-13.6-3.6-20.5-5.5c-1-0.3-2.1-0.8-1.8-1.8c0.5-1.5,2-1.5,3.4-1.2c6.8,1.6,13.5,3.3,20.3,5
		c1.2,0.3,2.3,1,2.1,2.2C2789.2-1290.1,2787.5-1290.9,2786.1-1290.8z"/>
	<path class="st9" d="M2924.8-1299.3c2.7,28.7-54.2,95.3-71,93.3C2887.2-1230.2,2911.3-1260.3,2924.8-1299.3z"/>
	<path class="st10" d="M2865.8-1358.8c2.7,0.8,4.4,2.9,6.4,4.6c7,5.8,6.8,5.8,3.3,13.7c-3.5,7.9-8.2,15.2-13,22.4
		c-0.6,0.9-0.9,2.3-2.4,1.9c-1.4-0.3-1.2-1.7-1.3-2.7c-1-7.7,1.4-15.1,2.3-22.7c0.5-4.7,1.4-9.3,2.3-14
		C2863.6-1356.9,2863.7-1358.5,2865.8-1358.8z"/>
	<path class="st9" d="M2810.8-1336.1c-1.6-0.5-3.3-0.6-4.6-1.3c-3.1-1.7-7.6-2.9-7.1-7c0.5-4.1,5.1-3.2,8.1-3.9
		c5.1-1.1,10.3-1.8,15.5-2.7c2.2-0.4,4,0.1,5,1.8c1.1,1.9-0.7,3-2,4C2820.9-1341.9,2816.8-1337.5,2810.8-1336.1z"/>
	<path class="st11" d="M3171.1-1205.2c-13.2-14.7-29.9-24.6-49.6-31.3c4.1-2.6,7.7-1.7,10.6-0.6c15.9,6.2,29,15.9,39.2,29
		c0.4,0.5,0.6,1.2,0.8,1.9C3171.7-1205.8,3171.4-1205.5,3171.1-1205.2z"/>
	<path class="st8" d="M2882.9-1396.4c-18-10.2-22.2,4.1-28.6,13.5c-2.1-0.3-1.7-1.7-1.9-2.5c-1.1-6.4,9.4-19.7,16.3-20.3
		C2875.7-1406.5,2879.4-1402,2882.9-1396.4z"/>
	<path class="st12" d="M2890.7-1212.3c19.5-14.3,32.4-32,40.7-52.8C2930-1248.1,2904.4-1214.4,2890.7-1212.3z"/>
	<path class="st13" d="M3005.2-1138.9c-15.5-0.7-34.1-5.2-41.5-10.7c15.7,3.6,29.7,8.3,44.4,9.6
		C3008-1137.8,3006.4-1138.9,3005.2-1138.9z"/>
	<path class="st14" d="M3005.2-1138.9c1-0.4,2-0.7,2.9-1.1c10.6,0,21.2,0,31.9,0c0,0.6,0,1.3,0,1.9
		C3028.4-1135.8,3016.8-1136.8,3005.2-1138.9z"/>
	<path class="st15" d="M3153.7-1346.2c-0.1-10.8,14.9-30,27.6-35.2C3168-1372.5,3159.8-1360.1,3153.7-1346.2z"/>
	<path class="st16" d="M3102-1415.4c-5.6,12.3-13.5,22.7-26.5,29.1c10.4-8.7,20-17.9,25.5-30.2
		C3102-1416.7,3102.4-1416.4,3102-1415.4z"/>
	<path class="st17" d="M3102-1415.4c-0.3-0.4-0.7-0.7-1-1.1c0.9-2.7,1.8-5.3,2.7-8C3104.5-1421.2,3104.1-1418.1,3102-1415.4z"/>
	<path class="st18" d="M3015.8-1415.3c-17.3,11.1-21.2,28.4-26.9,45c-1.3-8.1,1.6-18.6,8.5-30.7c1.5-2.6,2.9-5.1,4.4-7.7
		C3005.2-1414.8,3007.8-1416.1,3015.8-1415.3z"/>
	<path class="st19" d="M3170-1268.3c16.4-8.4,32.9-15.9,40.5-33.4c2.2,4.1,2.6,8-0.9,11.2c-10.2,9.3-21,17.7-34.7,22.2
		C3173.3-1267.9,3171.8-1268,3170-1268.3z"/>
	<path class="st20" d="M3026.8-1368.5c11.8,14.1,26.7,22.4,43.9,28.6C3060.4-1338.1,3030-1357.7,3026.8-1368.5z"/>
	<path class="st21" d="M3148.1-1294.5c-18.3-4-32.8-13.6-44.6-27.2C3116.4-1309.7,3131.3-1300.7,3148.1-1294.5z"/>
	<path class="st6" d="M2866.4-1355.2c8.5,6.9,8.4,6.9,3.8,14.8c-2.4,4.1-4.7,8.2-7.8,12.1C2863.7-1337,2865-1345.7,2866.4-1355.2z"
		/>
	<path class="st6" d="M2807.1-1343.2c3.4-0.9,6.7-1.7,10.2-2.6C2814.7-1339.1,2812.3-1338.5,2807.1-1343.2z"/>
</g>
<g>
	<path d="M1059.5-1436c-84.8,0-164.4-33-224.4-92.9c-59.9-59.9-92.9-139.6-92.9-224.4s33-164.4,92.9-224.4
		c59.9-59.9,139.6-92.9,224.4-92.9s164.4,33,224.4,92.9s92.9,139.6,92.9,224.4c0,84.8-33,164.4-92.9,224.4S1144.2-1436,1059.5-1436z
		"/>
	<path d="M1059.5-2068.6c42.6,0,83.9,8.3,122.7,24.8c37.5,15.9,71.3,38.6,100.2,67.6s51.7,62.7,67.6,100.2
		c16.4,38.9,24.8,80.2,24.8,122.7c0,42.6-8.3,83.9-24.8,122.7c-15.9,37.5-38.6,71.3-67.6,100.2c-29,29-62.7,51.7-100.2,67.6
		c-38.9,16.4-80.2,24.8-122.7,24.8c-42.6,0-83.9-8.3-122.7-24.8c-37.5-15.9-71.3-38.6-100.2-67.6c-29-29-51.7-62.7-67.6-100.2
		c-16.4-38.9-24.8-80.2-24.8-122.7s8.3-83.9,24.8-122.7c15.9-37.5,38.6-71.3,67.6-100.2c29-29,62.7-51.7,100.2-67.6
		C975.6-2060.3,1016.9-2068.6,1059.5-2068.6 M1059.5-2072.6L1059.5-2072.6c-176.3,0-319.3,143-319.3,319.3v0
		c0,176.3,143,319.3,319.3,319.3h0c176.3,0,319.3-143,319.3-319.3v0C1378.8-1929.6,1235.8-2072.6,1059.5-2072.6L1059.5-2072.6z"/>
</g>
<g>
	<g>
		<path class="st1" d="M1059.5-1449.4c-81.2,0-157.5-31.6-214.9-89c-57.4-57.4-89-133.7-89-214.9s31.6-157.5,89-214.9
			c57.4-57.4,133.7-89,214.9-89s157.5,31.6,214.9,89c57.4,57.4,89,133.7,89,214.9c0,81.2-31.6,157.5-89,214.9
			C1216.9-1481,1140.6-1449.4,1059.5-1449.4z"/>
		<path d="M1059.5-2055.2c40.8,0,80.3,8,117.5,23.7c35.9,15.2,68.2,37,96,64.7c27.7,27.7,49.5,60,64.7,96
			c15.7,37.2,23.7,76.7,23.7,117.5c0,40.8-8,80.3-23.7,117.5c-15.2,35.9-37,68.2-64.7,96c-27.7,27.7-60,49.5-96,64.7
			c-37.2,15.7-76.7,23.7-117.5,23.7c-40.8,0-80.3-8-117.5-23.7c-35.9-15.2-68.2-37-96-64.7s-49.5-60-64.7-96
			c-15.7-37.2-23.7-76.7-23.7-117.5c0-40.8,8-80.3,23.7-117.5c15.2-35.9,37-68.2,64.7-96c27.7-27.7,60-49.5,96-64.7
			C979.2-2047.2,1018.7-2055.2,1059.5-2055.2 M1059.5-2059.2L1059.5-2059.2c-168.9,0-305.9,136.9-305.9,305.9v0
			c0,168.9,136.9,305.9,305.9,305.9h0c168.9,0,305.9-136.9,305.9-305.9v0C1365.4-1922.2,1228.4-2059.2,1059.5-2059.2L1059.5-2059.2z
			"/>
	</g>
</g>
<g>
	<path class="st3" d="M1153.6-1699.7c0.4-1-0.1-0.6-0.2-0.5c-0.3,0.4-0.1,0.1-0.4,0.4c-1.4,1.7-1.6,2.7-2.1,4.4
		c-3.6,8.2-7.3,16.4-10.6,24.8c-1,2.4-2.2,3.5-4.9,3.9c-35.4,4.7-70.3,4.4-103.5-10.1c-3.3-1.4-6.6-3.3-9.3-5.5
		c-3.7-2.9-6.2-2.3-9.3,0.7c-13.6,13.3-25.1,28.3-37.9,42.2c-12.5,13.7-17.9,29.3-20.1,46.5c-0.7,5.6-1.9,11.1-3.1,16.7
		c-0.6,2.9-0.4,5.1,2.2,7.3c3,2.5,5.8,5.4,8.2,8.5c2.3,2.9,2.6,5.4-2.1,7.1c-14.5,5.3-29,9.3-45.1,8.9c-30.2-0.9-60.4-0.3-90.6-0.2
		c-4.1,0-5.2-0.6-4.5-4.8c2.2-13.7,2.6-27.6,6.1-41.1c5.8-22.4,14.9-43.9,23.2-65.6c17.7-46.2,39.2-90.9,61.3-135.3
		c5.2-10.5,10.9-20.9,16.3-31.3c0.6-1.1,0.9-2.3,1-3.7c-6.3,5.1-11.3,11.1-15.9,17.4c-5.7,7.8-11.5,15.6-17.1,23.4
		c-2.2,3.1-4.6,5-8.7,2.8c-16.3-9.2-32-19-41-35.4c-2-3.7-4-7.5-5.6-11.4c-3.4-8.1-4.9-15.6,5.4-20.9c3.8-1.9,6.3-5.9,9.7-8.6
		c4.1-3.3,8.3-6,5.3-12.2c-1.2-2.5,1.9-4.9,3.4-7c1.4-1.8,2.8-3.5,4.6-5c2.9-2.4,3.4-4.6,1.7-7.7c-4-7.3-3.5-10,2.5-16.1
		c11.3-11.5,21.7-23.5,29.6-37.6c7.4-13.2,19.6-23.4,30.8-34.1c3.1-2.9,6.3-2,9.7-0.7c24.3,9,44.9,23,63,40.4
		c9.4,9,18.6,18.1,28,27.1c3.5,3.4,15.7,4.6,19.6,2c1.7-1.1,1.6-2.8,1.6-4.4c0.6-20.3,7.8-38.3,20.7-54.6
		c5.8-7.4,15.9-13.5,26.7-9.3c3.7,1.4,5.7-0.2,7.5-3.1c8.1-13.3,19.5-22.8,35.7-27c6.8-1.7,13.5-1.3,20.3-0.5
		c29.3,3.4,55.1,14.9,79.5,29.6c17.8,10.7,35.1,22.2,50.2,36.4c23.1,21.7,24.5,47.6,6.7,73.3c-2,2.9-1.5,5,0.5,7.3
		c2.9,3.2,5.7,6.5,6.9,10.7c2.6,9-0.1,16.6-7.2,22.9c-11.2,9.8-22.6,19.5-33.7,29c10.7,10.3,21.5,20.6,32.3,31
		c1.6,1.6,3.3,3.1,4.8,4.8c4.6,5,4.9,8.1,1.1,13.8c-7.3,10.7-14.7,21.4-21.1,32.7c-3,5.4-3.3,10.3-0.5,15.6
		c5.4,10.4,10.6,21,16.5,31.2c7.5,13.1,7.4,27.2,7.8,41.4c0.6,21.1-3.8,41.6-7.2,62.3c-0.9,5.6-1.9,11.2-2.4,16.8
		c-0.3,2.9-1.5,3.4-4.3,3.5c-40,0.3-79.9,0.6-119.9,1c-1.6,0-3.8,0.7-4.7-1.2c-0.9-1.9,0-3.7,1.4-5c3.3-3.1,6.6-6.3,10.3-8.9
		c3.3-2.3,3.9-4.3,1.8-7.7c-17.6-27.3-25.6-57.9-33.5-88.5c-3.1-12-1.5-24.2,1.1-36.3"/>
	<path class="st4" d="M1153.8-1702.5"/>
	<path class="st5" d="M1179.7-1550.5c3.6-2.4,6.5-4.6,9.7-6.5c3.2-1.9,4-4,2.2-7.3c-4.7-8.3-9.1-16.8-13.9-25.2
		c-8.5-14.9-12.1-31.4-17.6-47.2c-8-23-7.1-46.2-1.7-69.5c0.4-1.7,1.8-4.1-0.2-5c-2.5-1.2-3.4,1.7-4.4,3.2
		c-6.6,9.5-11.6,19.7-14.9,30.6c-1.3,4.5-3.7,7.4-9,7.9c-27.8,2.6-55.2,1.3-82.1-6.5c-7.3-2.1-14.1-5.1-20.4-9.2
		c-5.6-3.7-6.2-6.6-2.2-11.7c11.8-15.2,22.7-30.8,32.7-47.1c2.4-3.9,2.4-3.9,1.5-7.9c-6.1,6-10.4,12.8-15.1,19.3
		c-11.2,15.3-21.8,31-33,46.3c-8,11-18.7,20-27.5,30.4c-14.8,17.5-30.5,34.4-43.1,53.5c-7,10.6-11.9,22-14.5,34.3
		c-1.5,6.8-1.4,6.8,2.9,18.4c-0.9,1.3-2.4,0.9-3.6,0.8c-30.8-2.1-61.6-0.8-92.3,0c-4.7,0.1-5.7-1.1-5.4-5.4
		c1.3-22.5,6.9-44,13.7-65.6c10.4-33,24.7-64.6,37.8-96.6c14.1-34.8,31.7-68.2,50.7-101c4.5-7.8,8.3-16,11-24.6
		c0.5-1.5,0.6-3.1,1-5.2c-4.9,1.4-6.7,5-9.3,7.7c-13.3,13.4-25.3,27.5-35,43.5c-5.7,9.5-6.4,9.1-16.8,4.4
		c-16.5-7.5-29.4-18.3-36-34.8c-0.2-0.5-0.5-1-0.6-1.5c-3.5-11.1-0.9-16.9,11.9-13.3c5.7,1.6,11.8,2.2,17.7,3.6
		c3.7,0.8,5.5-0.7,6.5-3.6c1.2-3.4-1.6-4.1-3.9-4.9c-5.2-1.9-10.5-3.7-15.8-5.4c-3.4-1.1-4.4-2.3-1.2-5.1c3.5-3,7.5-5.2,11.3-7.8
		c0.7-0.5,1.9-0.9,1.3-2c-0.3-0.4-1.5-0.9-1.9-0.7c-2.2,1.3-3.7,1.4-5-1.1c-1.3-2.4-1.2-4.6,0.7-6.6c3.7-3.8,7.4-7.4,11.3-11
		c2.9-2.7,4.9-4.7-1-6.5c-5.7-1.7-6.2-3.9-3.1-8.6c3.1-4.7,8-7.9,11.9-12c4.4-4.6,9.1-9,13.6-13.5c2.8-2.8,6.6-5.2,4.4-10.1
		c-0.9-1.9,0.5-3.9,1.8-5.5c5.9-7.4,11.5-15.1,18.2-22c4-4.1,8.6-7.2,14.3-9.1c4.4-1.5,8.3-1.3,12.3,0.9
		c24.4,13.7,48.3,28.1,66.4,49.2c4.8,5.5,9.7,11,14.3,16.6c2.7,3.3,6,4.5,10.2,3.5c27.6-6.6,48.6,5.2,66.9,22.2
		c13.5,12.6,23,28.2,32.7,43.5c2.7,4.2,5.7,8.3,8.3,12.5c2,3.2,2.9,5.8-1.6,8.5c-6.9,4.2-12.4,10.1-17.7,17.3
		c10.2-3.5,17.3-9.9,25.9-14c12.7-6.1,25.9-10.7,39.6-14.2c4.6-1.2,9.2-0.8,13.5,1.6c17.7,9.5,35.5,18.8,52.5,29.4
		c12.9,8,22.9,19.2,34,29.1c9.9,8.8,9.5,8.8,2.5,19.9c-6.5,10.3-12.4,20.9-18.5,31.5c-3.2,5.5-1.5,11,1.3,16.2
		c4.5,8.5,9.8,16.5,13.5,25.3c8.2,19.7,12.8,39.8,9.7,61.3c-2.7,18.4-4.1,36.9-6,55.4c-0.4,3.8-2.1,5.5-6.2,5.7
		c-36.2,1.9-72.4,2.3-108.7,2.2C1181.5-1549.9,1181-1550.2,1179.7-1550.5z"/>
	<path class="st6" d="M1309.7-1904.8c0.6,10.1-3.9,19.3-7.4,28.7c-1.4,3.7-4,2.7-7,1.6c-12.2-4.7-23.6-3.4-33.9,4.4
		c-1.8,1.4-3.4,3-4.8,4.8c-4.6,5.6-4.5,5.6-10.6,1c-14.3-10.7-29.7-19.7-47.4-25.2c-9.2-2.8-17.4-7.6-24.1-14.7
		c-12.4-13.1-29.1-20.5-45.1-28.6c-0.9-0.4-1.7-0.8-2.6-1.3c-7.6-3.8-7.5-3.8-4.3-11.4c5-11.5,2.8-22.2-4.8-32
		c-3.3-4.3-2.9-7.1,1-10.8c15.3-14.3,32.2-21.4,54.7-16.1c37.3,8.7,69.6,25.4,98.8,48.3c10.2,8,20.1,16,28.4,25.8
		C1306.8-1922.6,1310.4-1914.5,1309.7-1904.8z"/>
	<path class="st6" d="M1102.6-1974.9c4.6,0.5,10.5-3,13.9,2.1c4.6,7,6.8,14.7,4.3,22.9c-1.1,3.5-2.8,6.8-5.4,9.6
		c-3.1,3.3-2.5,5.1,2,6.5c14.9,4.6,28.5,11.5,41.2,20c5.3,3.5,10.1,7.4,13.8,12.4c5.9,8,14.8,12.2,24.1,15.5
		c14.8,5.2,28.9,11.6,42.1,19.7c4.3,2.6,8.2,5.6,11.4,9.3c2.4,2.8,3.7,2.5,5.9-0.5c8-11.3,18.8-17.6,34-15.2
		c2.1,0.3,4.8,0.4,4.6,3.1c-0.2,2.2-2.7,2.2-4.6,2.4c-3.1,0.3-6.2,0.7-9.3,0.9c-11.2,1.1-19.4,6-23.7,15.9c-1.6,3.6-3.2,4.4-6.7,1.5
		c-7.8-6.6-16-12.8-23.9-19.2c-9.5-7.6-20.3-13.2-32.2-16c-11.3-2.7-20.5-7.8-27.4-16.3c-11.8-14.6-28.5-22-46.1-28.3
		c-4.7-1.7-9.7-2.8-13.8-5.7c-1.1-0.7-2-2.1-3.1,0c-0.7,1.4-1.3,2.9,0.5,3.8c1.5,0.8,3.2,1.4,4.9,1.8c21.5,5.3,40.5,14.7,55.6,30.2
		c3.6,3.7,8.4,6.5,10.7,11.4c0.6,1.3,1.8,2.1,3.6,2.4c18.2,2.5,33.8,10.5,48,20.9c8.1,5.9,16.8,11.2,23,19.1
		c2.3,2.9,4.9,2.6,7.1-0.3c1.7-2.2,3.1-4.6,4.7-6.9c7.6-11.6,22.6-15.5,35.5-9.1c10.3,5.1,13.3,17.3,5.7,25.5
		c-10.9,11.7-24.3,21-36.4,31.5c-2.7,2.3-6.1,1.8-8.6-0.2c-20.2-16.1-45.4-24.4-67.6-37.4c-30.3-17.7-61.1-34.7-91.6-52.1
		c-2.5-1.4-4.4-3.5-6.7-5.3c-7.7-6.1-16.8-8.8-26.7-9.8c-6.6-0.6-8-2.1-7.1-8c2.1-14.3,5.9-28.2,13.2-41
		C1078.2-1969.3,1086.6-1978.1,1102.6-1974.9z"/>
	<path class="st7" d="M1197.4-1833.5c-7.7,4.2-14.3,3.5-20.5-0.3c-13.5-8.2-27-16.4-41.3-23.4c-7.4-3.6-11.4-10.3-16.7-15.7
		c-2.2-2.3-4.2-4.7-5.6-8.2C1141-1865.4,1168.7-1849.7,1197.4-1833.5z"/>
	<g>
		<path class="st1" d="M1157.3-1821.6c-1.3,0-2.3-0.7-3.5-1.8c-3.2-2.9-5.8-6.5-8-11.1c-3.6-7.5-7.9-13.8-13-19l0.3-0.4l46.2,25.8
			l-5.4,1.6c-5.4,1.6-10.4,3.2-15.5,4.7C1158-1821.7,1157.7-1821.6,1157.3-1821.6z"/>
		<g>
			<path d="M1134.2-1852.7l25.9,14.5l17.9,10l-4.4,1.3c-5.4,1.6-10.3,3.1-15.3,4.6c-0.3,0.1-0.7,0.2-1,0.2c-1.1,0-2.1-0.6-3.2-1.7
				c-3.1-2.8-5.7-6.4-7.9-10.9C1142.8-1841.8,1138.9-1847.7,1134.2-1852.7 M1132.9-1854.6c-0.3,0.4-0.6,0.7-0.8,1.1
				c5.6,5.7,9.8,12.1,13.2,19.1c2,4.1,4.6,8,8.1,11.2c1.2,1.1,2.4,2,3.9,2c0.4,0,0.8-0.1,1.3-0.2c7-2.1,13.9-4.2,22-6.7
				C1164-1837.2,1148.4-1845.9,1132.9-1854.6L1132.9-1854.6z"/>
		</g>
	</g>
	<path class="st8" d="M955-1556.9c-6.2,1.3-11.6,2.3-16.8,3.5c-3.1,0.7-4.9-0.5-6-2.9c-1.8-3.8-2.4-7.8-0.5-11.6
		c5.6-11.1,11.3-22.1,18-32.9c-1.7,8.9-2.9,17.9-5.1,26.7c-1.6,6.6-2,11.8,6.5,14C952.2-1559.9,953.1-1558.6,955-1556.9z"/>
	<path class="st6" d="M871.2-1840.8c-7-1-13.6-3.6-20.5-5.5c-1-0.3-2.1-0.8-1.8-1.8c0.5-1.5,2-1.5,3.4-1.2c6.8,1.6,13.5,3.3,20.3,5
		c1.2,0.3,2.3,1,2.1,2.2C874.4-1840.1,872.7-1840.9,871.2-1840.8z"/>
	<path class="st9" d="M1010-1849.3c2.7,28.7-54.2,95.3-71,93.3C972.4-1780.2,996.5-1810.3,1010-1849.3z"/>
	<path class="st10" d="M950.9-1908.8c2.7,0.8,4.4,2.9,6.4,4.6c7,5.8,6.8,5.8,3.3,13.7c-3.5,7.9-8.2,15.2-13,22.4
		c-0.6,0.9-0.9,2.3-2.4,1.9c-1.4-0.3-1.2-1.7-1.3-2.7c-1-7.7,1.4-15.1,2.3-22.7c0.5-4.7,1.4-9.3,2.3-14
		C948.7-1906.9,948.8-1908.5,950.9-1908.8z"/>
	<path class="st9" d="M895.9-1886.1c-1.6-0.5-3.3-0.6-4.6-1.3c-3.1-1.7-7.6-2.9-7.1-7c0.5-4.1,5.1-3.2,8.1-3.9
		c5.1-1.1,10.3-1.8,15.5-2.7c2.2-0.4,4,0.1,5,1.8c1.1,1.9-0.7,3-2,4C906-1891.9,902-1887.5,895.9-1886.1z"/>
	<path class="st11" d="M1256.3-1755.2c-13.2-14.7-29.9-24.6-49.6-31.3c4.1-2.6,7.7-1.7,10.6-0.6c15.9,6.2,29,15.9,39.2,29
		c0.4,0.5,0.6,1.2,0.8,1.9C1256.9-1755.8,1256.6-1755.5,1256.3-1755.2z"/>
	<path class="st8" d="M968-1946.4c-18-10.2-22.2,4.1-28.6,13.5c-2.1-0.3-1.7-1.7-1.9-2.5c-1.1-6.4,9.4-19.7,16.3-20.3
		C960.9-1956.5,964.6-1952,968-1946.4z"/>
	<path class="st12" d="M975.9-1762.3c19.5-14.3,32.4-32,40.7-52.8C1015.1-1798.1,989.5-1764.4,975.9-1762.3z"/>
	<path class="st13" d="M1090.4-1688.9c-15.5-0.7-34.1-5.2-41.5-10.7c15.7,3.6,29.7,8.3,44.4,9.6
		C1093.2-1687.8,1091.5-1688.9,1090.4-1688.9z"/>
	<path class="st14" d="M1090.4-1688.9c1-0.4,2-0.7,2.9-1.1c10.6,0,21.2,0,31.9,0c0,0.6,0,1.3,0,1.9
		C1113.6-1685.8,1102-1686.8,1090.4-1688.9z"/>
	<path class="st15" d="M1238.9-1896.2c-0.1-10.8,14.9-30,27.6-35.2C1253.2-1922.5,1244.9-1910.1,1238.9-1896.2z"/>
	<path class="st16" d="M1187.1-1965.4c-5.6,12.3-13.5,22.7-26.5,29.1c10.4-8.7,20-17.9,25.5-30.2
		C1187.2-1966.7,1187.6-1966.4,1187.1-1965.4z"/>
	<path class="st17" d="M1187.1-1965.4c-0.3-0.4-0.7-0.7-1-1.1c0.9-2.7,1.8-5.3,2.7-8C1189.7-1971.2,1189.3-1968.1,1187.1-1965.4z"/>
	<path class="st18" d="M1100.9-1965.3c-17.3,11.1-21.2,28.4-26.9,45c-1.3-8.1,1.6-18.6,8.5-30.7c1.5-2.6,2.9-5.1,4.4-7.7
		C1090.3-1964.8,1093-1966.1,1100.9-1965.3z"/>
	<path class="st19" d="M1255.1-1818.3c16.4-8.4,32.9-15.9,40.5-33.4c2.2,4.1,2.6,8-0.9,11.2c-10.2,9.3-21,17.7-34.7,22.2
		C1258.5-1817.9,1257-1818,1255.1-1818.3z"/>
	<path class="st20" d="M1112-1918.5c11.8,14.1,26.7,22.4,43.9,28.6C1145.5-1888.1,1115.2-1907.7,1112-1918.5z"/>
	<path class="st21" d="M1233.3-1844.5c-18.3-4-32.8-13.6-44.6-27.2C1201.6-1859.7,1216.5-1850.7,1233.3-1844.5z"/>
	<path class="st6" d="M951.6-1905.2c8.5,6.9,8.4,6.9,3.8,14.8c-2.4,4.1-4.7,8.2-7.8,12.1C948.8-1887,950.1-1895.7,951.6-1905.2z"/>
	<path class="st6" d="M892.2-1893.2c3.4-0.9,6.7-1.7,10.2-2.6C899.8-1889.1,897.5-1888.5,892.2-1893.2z"/>
</g>
<g>
	<rect x="1911.3" y="1249" class="st22" width="9195.7" height="681"/>
	<path class="st23" d="M1981.4,1264.5v121.3h140.2v-121.3h37.8v289.8h-37.8v-135.9h-140.2v135.9h-37.4v-289.8H1981.4z"/>
	<path class="st23" d="M2311.6,1264.5v122.1c0,46-0.9,83.8-3.4,122.5l0.9,0.4c14.6-30.1,32.7-61.5,53.7-95.9l93.7-149.2h37.4v289.8
		h-35.3v-123.4c0-46.9,0.4-81.3,3.4-117.8l-1.3-0.4c-14.2,31.8-34,65.4-53.7,97.6l-90.7,144h-40v-289.8H2311.6z"/>
	<path class="st23" d="M2761.4,1418.4h-112.7v104.5h125.6v31.4h-163v-289.8h156.5v31.4h-119.1v91.6h112.7V1418.4z"/>
	<path class="st23" d="M3262.3,1427c-2.1-40.4-4.7-89-4.3-125.1h-1.3c-9.9,34-21.9,70.1-36.5,110.1l-51.2,140.6h-28.4l-46.9-138
		c-13.8-40.8-25.4-78.3-33.5-112.7h-0.9c-0.9,36.1-3,84.7-5.6,128.1l-7.7,124.3h-35.7l20.2-289.8h47.7l49.4,140.2
		c12,35.7,21.9,67.5,29.2,97.6h1.3c7.3-29.2,17.6-61.1,30.5-97.6l51.6-140.2h47.7l18.1,289.8h-36.5L3262.3,1427z"/>
	<path class="st23" d="M3565.9,1418.4h-112.7v104.5h125.6v31.4h-163v-289.8h156.5v31.4h-119.1v91.6h112.7V1418.4z"/>
	<path class="st23" d="M3881.9,1544.8c-13.8,6.9-41.3,13.8-76.5,13.8c-81.7,0-143.2-51.6-143.2-146.6c0-90.7,61.5-152.2,151.4-152.2
		c36.1,0,58.9,7.7,68.8,12.9l-9,30.5c-14.2-6.9-34.4-12-58.5-12c-67.9,0-113.1,43.4-113.1,119.5c0,70.9,40.8,116.5,111.4,116.5
		c22.8,0,46-4.7,61.1-12L3881.9,1544.8z"/>
	<path class="st23" d="M4050.9,1296.3h-88.1v-31.8h214.6v31.8h-88.6v258h-37.8V1296.3z"/>
	<path class="st23" d="M4296.9,1264.5v122.1c0,46-0.9,83.8-3.4,122.5l0.9,0.4c14.6-30.1,32.7-61.5,53.7-95.9l93.7-149.2h37.4v289.8
		h-35.3v-123.4c0-46.9,0.4-81.3,3.4-117.8l-1.3-0.4c-14.2,31.8-34,65.4-53.7,97.6l-90.7,144h-40v-289.8H4296.9z"/>
	<path class="st23" d="M4840.8,1427c-2.1-40.4-4.7-89-4.3-125.1h-1.3c-9.9,34-21.9,70.1-36.5,110.1l-51.2,140.6h-28.4l-46.9-138
		c-13.8-40.8-25.4-78.3-33.5-112.7h-0.9c-0.9,36.1-3,84.7-5.6,128.1l-7.7,124.3h-35.7l20.2-289.8h47.7l49.4,140.2
		c12,35.7,21.9,67.5,29.2,97.6h1.3c7.3-29.2,17.6-61.1,30.5-97.6l51.6-140.2h47.7l18.1,289.8h-36.5L4840.8,1427z"/>
	<path class="st23" d="M5137.5,1268.4c16.3-3.4,42.1-6,68.4-6c37.4,0,61.5,6.4,79.5,21.1c15,11.2,24.1,28.4,24.1,51.2
		c0,27.9-18.5,52.5-49,63.6v0.9c27.5,6.9,59.8,29.7,59.8,72.7c0,24.9-9.9,43.9-24.5,58c-20.2,18.5-52.9,27.1-100.2,27.1
		c-25.8,0-45.6-1.7-58-3.4V1268.4z M5174.9,1387h34c39.6,0,62.8-20.6,62.8-48.6c0-34-25.8-47.3-63.6-47.3c-17.2,0-27.1,1.3-33.1,2.6
		V1387z M5174.9,1525.9c7.3,1.3,18.1,1.7,31.4,1.7c38.7,0,74.4-14.2,74.4-56.3c0-39.6-34-55.9-74.8-55.9h-31V1525.9z"/>
	<path class="st23" d="M5457.8,1264.5v122.1c0,46-0.9,83.8-3.4,122.5l0.9,0.4c14.6-30.1,32.7-61.5,53.7-95.9l93.7-149.2h37.4v289.8
		h-35.3v-123.4c0-46.9,0.4-81.3,3.4-117.8l-1.3-0.4c-14.2,31.8-34,65.4-53.7,97.6l-90.7,144h-40v-289.8H5457.8z"/>
	<path class="st23" d="M5907.6,1418.4H5795v104.5h125.6v31.4h-163v-289.8h156.5v31.4H5795v91.6h112.7V1418.4z"/>
	<path class="st23" d="M6366.8,1544.8c-13.8,6.9-41.3,13.8-76.5,13.8c-81.7,0-143.2-51.6-143.2-146.6c0-90.7,61.5-152.2,151.4-152.2
		c36.1,0,58.9,7.7,68.8,12.9l-9,30.5c-14.2-6.9-34.4-12-58.5-12c-67.9,0-113.1,43.4-113.1,119.5c0,70.9,40.8,116.5,111.4,116.5
		c22.8,0,46-4.7,61.1-12L6366.8,1544.8z"/>
	<path class="st23" d="M6675.2,1264.5v289.8h-37.4v-258.4h-134.6v258.4h-37.4v-289.8H6675.2z"/>
	<path class="st23" d="M6942.6,1418.4H6830v104.5h125.6v31.4h-163v-289.8h156.5v31.4H6830v91.6h112.7V1418.4z"/>
	<path class="st23" d="M7258.7,1544.8c-13.8,6.9-41.3,13.8-76.5,13.8c-81.7,0-143.2-51.6-143.2-146.6c0-90.7,61.5-152.2,151.4-152.2
		c36.1,0,58.9,7.7,68.8,12.9l-9,30.5c-14.2-6.9-34.4-12-58.5-12c-67.9,0-113.1,43.4-113.1,119.5c0,70.9,40.8,116.5,111.4,116.5
		c22.8,0,46-4.7,61.1-12L7258.7,1544.8z"/>
	<path class="st23" d="M7427.6,1296.3h-88.1v-31.8h214.6v31.8h-88.6v258h-37.8V1296.3z"/>
	<path class="st23" d="M7610,1554.3c4.3-7.7,8.2-16.8,11.6-26.2c12.5-33.1,20.2-73.5,43.9-97.2c6.9-6.9,15.5-12,24.1-14.6v-1.3
		c-35.7-6-64.1-31.8-64.1-71.4c0-25.4,10.3-45.6,26.7-58.9c18.1-14.6,46.4-22.4,83-22.4c24.5,0,50.3,2.1,69.2,6v285.9h-37.4v-125.6
		h-27.5c-18.1,0-31.4,3.9-41.7,14.2c-19.8,20.2-27.9,62.8-38.3,90.3c-3,7.3-5.2,13.3-9.5,21.1H7610z M7766.9,1294.6
		c-6.5-1.3-18.5-3.4-35.3-3.4c-37,0-68.4,14.2-68.4,54.2c0,34.8,31,55,71.8,55c12.5,0,24.5,0,31.8-0.4V1294.6z"/>
	<path class="st23" d="M7921.7,1268.4c16.3-3.4,42.1-6,68.4-6c37.4,0,61.5,6.4,79.5,21.1c15,11.2,24.1,28.4,24.1,51.2
		c0,27.9-18.5,52.5-49,63.6v0.9c27.5,6.9,59.8,29.7,59.8,72.7c0,24.9-9.9,43.9-24.5,58c-20.2,18.5-52.9,27.1-100.2,27.1
		c-25.8,0-45.6-1.7-58-3.4V1268.4z M7959.1,1387h34c39.6,0,62.8-20.6,62.8-48.6c0-34-25.8-47.3-63.6-47.3c-17.2,0-27.1,1.3-33.1,2.6
		V1387z M7959.1,1525.9c7.3,1.3,18.1,1.7,31.4,1.7c38.7,0,74.4-14.2,74.4-56.3c0-39.6-34-55.9-74.8-55.9h-31V1525.9z"/>
	<path class="st23" d="M8253.7,1463.1l-30.1,91.2h-38.7l98.5-289.8h45.1l98.9,289.8h-40l-31-91.2H8253.7z M8348.7,1433.9l-28.4-83.4
		c-6.4-18.9-10.8-36.1-15-52.9h-0.9c-4.3,17.2-9,34.8-14.6,52.5l-28.4,83.8H8348.7z"/>
	<path class="st23" d="M8558.1,1296.3H8470v-31.8h214.6v31.8h-88.6v258h-37.8V1296.3z"/>
	<path class="st23" d="M8918.9,1418.4h-112.7v104.5h125.6v31.4h-163v-289.8h156.5v31.4h-119.1v91.6h112.7V1418.4z"/>
</g>
<rect x="3046" y="2512" class="st23" width="6835" height="4416"/>
<g>
	<rect x="3142.3" y="3143" class="st22" width="4280.7" height="245"/>
	<path class="st24" d="M3192.3,3154v86.6h100.1V3154h27V3361h-27v-97h-100.1v97h-26.7V3154H3192.3z"/>
	<path class="st24" d="M3390.9,3154v87.2c0,32.8-0.6,59.9-2.5,87.5l0.6,0.3c10.4-21.5,23.3-43.9,38.4-68.5l66.9-106.5h26.7V3361
		h-25.2v-88.1c0-33.5,0.3-58,2.5-84.1l-0.9-0.3c-10.1,22.7-24.3,46.7-38.4,69.7l-64.8,102.8h-28.6V3154H3390.9z"/>
	<path class="st24" d="M3674.9,3264h-80.4v74.6h89.6v22.4h-116.4V3154h111.8v22.4h-85v65.4h80.4V3264z"/>
	<path class="st24" d="M3958.3,3270.1c-1.5-28.9-3.4-63.6-3.1-89.3h-0.9c-7.1,24.3-15.7,50-26.1,78.6l-36.5,100.4h-20.3l-33.5-98.5
		c-9.8-29.2-18.1-55.9-23.9-80.4h-0.6c-0.6,25.8-2.1,60.5-4,91.5l-5.5,88.7h-25.5l14.4-206.9h34.1l35.3,100.1
		c8.6,25.5,15.7,48.2,20.9,69.7h0.9c5.2-20.9,12.6-43.6,21.8-69.7l36.8-100.1h34.1l12.9,206.9h-26.1L3958.3,3270.1z"/>
	<path class="st24" d="M4137.9,3264h-80.4v74.6h89.6v22.4h-116.4V3154h111.8v22.4h-85v65.4h80.4V3264z"/>
	<path class="st24" d="M4326.3,3354.2c-9.8,4.9-29.5,9.8-54.6,9.8c-58.3,0-102.2-36.8-102.2-104.7c0-64.8,43.9-108.7,108.1-108.7
		c25.8,0,42.1,5.5,49.1,9.2l-6.4,21.8c-10.1-4.9-24.6-8.6-41.8-8.6c-48.5,0-80.7,31-80.7,85.3c0,50.7,29.2,83.2,79.5,83.2
		c16.3,0,32.8-3.4,43.6-8.6L4326.3,3354.2z"/>
	<path class="st24" d="M4409.8,3176.8h-62.9V3154h153.2v22.7h-63.2V3361h-27V3176.8z"/>
	<path class="st24" d="M4548.3,3154v87.2c0,32.8-0.6,59.9-2.5,87.5l0.6,0.3c10.4-21.5,23.3-43.9,38.4-68.5l66.9-106.5h26.7V3361
		h-25.2v-88.1c0-33.5,0.3-58,2.5-84.1l-0.9-0.3c-10.1,22.7-24.3,46.7-38.4,69.7l-64.8,102.8h-28.6V3154H4548.3z"/>
	<path class="st24" d="M4899.5,3270.1c-1.5-28.9-3.4-63.6-3.1-89.3h-0.9c-7.1,24.3-15.7,50-26.1,78.6l-36.5,100.4h-20.3l-33.5-98.5
		c-9.8-29.2-18.1-55.9-23.9-80.4h-0.6c-0.6,25.8-2.1,60.5-4,91.5l-5.5,88.7h-25.5L4734,3154h34.1l35.3,100.1
		c8.6,25.5,15.7,48.2,20.9,69.7h0.9c5.2-20.9,12.6-43.6,21.8-69.7l36.8-100.1h34.1l12.9,206.9h-26.1L4899.5,3270.1z"/>
	<path class="st24" d="M5037,3156.8c11.7-2.5,30.1-4.3,48.8-4.3c26.7,0,43.9,4.6,56.8,15c10.7,8,17.2,20.3,17.2,36.5
		c0,20-13.2,37.5-35,45.4v0.6c19.6,4.9,42.7,21.2,42.7,51.9c0,17.8-7.1,31.3-17.5,41.4c-14.4,13.2-37.8,19.3-71.5,19.3
		c-18.4,0-32.5-1.2-41.4-2.5V3156.8z M5063.7,3241.5h24.3c28.2,0,44.8-14.7,44.8-34.7c0-24.3-18.4-33.8-45.4-33.8
		c-12.3,0-19.3,0.9-23.6,1.8V3241.5z M5063.7,3340.7c5.2,0.9,12.9,1.2,22.4,1.2c27.6,0,53.1-10.1,53.1-40.2
		c0-28.2-24.3-39.9-53.4-39.9h-22.1V3340.7z"/>
	<path class="st24" d="M5228.6,3154v87.2c0,32.8-0.6,59.9-2.5,87.5l0.6,0.3c10.4-21.5,23.3-43.9,38.4-68.5l66.9-106.5h26.7V3361
		h-25.2v-88.1c0-33.5,0.3-58,2.5-84.1l-0.9-0.3c-10.1,22.7-24.3,46.7-38.4,69.7L5232,3361h-28.6V3154H5228.6z"/>
	<path class="st24" d="M5512.6,3264h-80.4v74.6h89.6v22.4h-116.4V3154h111.8v22.4h-85v65.4h80.4V3264z"/>
	<path class="st24" d="M5766.1,3354.2c-9.8,4.9-29.5,9.8-54.6,9.8c-58.3,0-102.2-36.8-102.2-104.7c0-64.8,43.9-108.7,108.1-108.7
		c25.8,0,42.1,5.5,49.1,9.2l-6.4,21.8c-10.1-4.9-24.6-8.6-41.8-8.6c-48.5,0-80.7,31-80.7,85.3c0,50.7,29.2,83.2,79.5,83.2
		c16.3,0,32.8-3.4,43.6-8.6L5766.1,3354.2z"/>
	<path class="st24" d="M5949.1,3154V3361h-26.7v-184.5h-96.1V3361h-26.7V3154H5949.1z"/>
	<path class="st24" d="M6102.9,3264h-80.4v74.6h89.6v22.4h-116.4V3154h111.8v22.4h-85v65.4h80.4V3264z"/>
	<path class="st24" d="M6291.4,3354.2c-9.8,4.9-29.5,9.8-54.6,9.8c-58.3,0-102.2-36.8-102.2-104.7c0-64.8,43.9-108.7,108.1-108.7
		c25.8,0,42.1,5.5,49.1,9.2l-6.4,21.8c-10.1-4.9-24.6-8.6-41.8-8.6c-48.5,0-80.7,31-80.7,85.3c0,50.7,29.2,83.2,79.5,83.2
		c16.3,0,32.8-3.4,43.6-8.6L6291.4,3354.2z"/>
	<path class="st24" d="M6374.9,3176.8H6312V3154h153.2v22.7h-63.2V3361h-27V3176.8z"/>
	<path class="st24" d="M6467.9,3361c3.1-5.5,5.8-12,8.3-18.7c8.9-23.6,14.4-52.5,31.3-69.4c4.9-4.9,11.1-8.6,17.2-10.4v-0.9
		c-25.5-4.3-45.7-22.7-45.7-51c0-18.1,7.4-32.5,19-42.1c12.9-10.4,33.2-16,59.3-16c17.5,0,35.9,1.5,49.4,4.3V3361H6580v-89.6h-19.6
		c-12.9,0-22.4,2.8-29.8,10.1c-14.1,14.4-20,44.8-27.3,64.5c-2.1,5.2-3.7,9.5-6.8,15H6467.9z M6580,3175.5
		c-4.6-0.9-13.2-2.5-25.2-2.5c-26.4,0-48.8,10.1-48.8,38.7c0,24.9,22.1,39.3,51.3,39.3c8.9,0,17.5,0,22.7-0.3V3175.5z"/>
	<path class="st24" d="M6653.4,3156.8c11.7-2.5,30.1-4.3,48.8-4.3c26.7,0,43.9,4.6,56.8,15c10.7,8,17.2,20.3,17.2,36.5
		c0,20-13.2,37.5-35,45.4v0.6c19.6,4.9,42.7,21.2,42.7,51.9c0,17.8-7.1,31.3-17.5,41.4c-14.4,13.2-37.8,19.3-71.5,19.3
		c-18.4,0-32.5-1.2-41.4-2.5V3156.8z M6680.1,3241.5h24.3c28.2,0,44.8-14.7,44.8-34.7c0-24.3-18.4-33.8-45.4-33.8
		c-12.3,0-19.3,0.9-23.6,1.8V3241.5z M6680.1,3340.7c5.2,0.9,12.9,1.2,22.4,1.2c27.6,0,53.1-10.1,53.1-40.2
		c0-28.2-24.3-39.9-53.4-39.9h-22.1V3340.7z"/>
	<path class="st24" d="M6853.2,3295.9l-21.5,65.1h-27.6l70.3-206.9h32.2l70.6,206.9h-28.6l-22.1-65.1H6853.2z M6921.1,3275
		l-20.3-59.6c-4.6-13.5-7.7-25.8-10.7-37.8h-0.6c-3.1,12.3-6.4,24.9-10.4,37.5l-20.3,59.9H6921.1z"/>
	<path class="st24" d="M7033.4,3176.8h-62.9V3154h153.2v22.7h-63.2V3361h-27V3176.8z"/>
	<path class="st24" d="M7253.8,3264h-80.4v74.6h89.6v22.4h-116.4V3154h111.8v22.4h-85v65.4h80.4V3264z"/>
</g>
<g>
	<rect x="3142.3" y="3473" class="st22" width="6642.7" height="245"/>
	<path class="st24" d="M3192.3,3484v86.6h100.1V3484h27V3691h-27v-97h-100.1v97h-26.7V3484H3192.3z"/>
	<path class="st24" d="M3399.2,3625.9l-21.5,65.1h-27.6l70.3-206.9h32.2l70.6,206.9h-28.6l-22.1-65.1H3399.2z M3467.1,3605
		l-20.3-59.6c-4.6-13.5-7.7-25.8-10.7-37.8h-0.6c-3.1,12.3-6.4,24.9-10.4,37.5l-20.3,59.9H3467.1z"/>
	<path class="st24" d="M3580,3484v184.5h67.2V3484h26.4v184.5h66.9V3484h26.7V3691h-213.7V3484H3580z"/>
	<path class="st24" d="M3838.8,3484v87.2c0,32.8-0.6,59.9-2.5,87.5l0.6,0.3c10.4-21.5,23.3-43.9,38.4-68.5l66.9-106.5h26.7V3691
		h-25.2v-88.1c0-33.5,0.3-58,2.5-84.1l-0.9-0.3c-10.1,22.7-24.3,46.7-38.4,69.7l-64.8,102.8h-28.6V3484H3838.8z"/>
	<path class="st24" d="M3996.9,3691c3.1-5.5,5.8-12,8.3-18.7c8.9-23.6,14.4-52.5,31.3-69.4c4.9-4.9,11.1-8.6,17.2-10.4v-0.9
		c-25.5-4.3-45.7-22.7-45.7-51c0-18.1,7.4-32.5,19-42.1c12.9-10.4,33.2-16,59.3-16c17.5,0,35.9,1.5,49.4,4.3V3691H4109v-89.6h-19.6
		c-12.9,0-22.4,2.8-29.8,10.1c-14.1,14.4-20,44.8-27.3,64.5c-2.1,5.2-3.7,9.5-6.8,15H3996.9z M4109,3505.5
		c-4.6-0.9-13.2-2.5-25.2-2.5c-26.4,0-48.8,10.1-48.8,38.7c0,24.9,22.1,39.3,51.3,39.3c8.9,0,17.5,0,22.7-0.3V3505.5z"/>
	<path class="st24" d="M4221.7,3506.8h-62.9V3484h153.2v22.7h-63.2V3691h-27V3506.8z"/>
	<path class="st24" d="M4576.9,3585.4c0,71.2-43.3,109-96.1,109c-54.6,0-93-42.4-93-105c0-65.7,40.8-108.7,96.1-108.7
		C4540.3,3480.7,4576.9,3524,4576.9,3585.4z M4416.3,3588.7c0,44.2,23.9,83.8,66,83.8c42.4,0,66.3-39,66.3-86
		c0-41.1-21.5-84.1-66-84.1C4438.4,3502.5,4416.3,3543.3,4416.3,3588.7z"/>
	<path class="st24" d="M4761.1,3484V3691h-26.7v-184.5h-96.1V3691h-26.7V3484H4761.1z"/>
	<path class="st24" d="M4832.9,3484v87.2c0,32.8-0.6,59.9-2.5,87.5l0.6,0.3c10.4-21.5,23.3-43.9,38.4-68.5l66.9-106.5h26.7V3691
		h-25.2v-88.1c0-33.5,0.3-58,2.5-84.1l-0.9-0.3c-10.1,22.7-24.3,46.7-38.4,69.7l-64.8,102.8h-28.6V3484H4832.9z"/>
	<path class="st24" d="M5049,3506.8h-62.9V3484h153.2v22.7H5076V3691h-27V3506.8z"/>
	<path class="st24" d="M5162.3,3486.8c11.7-2.5,30.1-4.3,48.8-4.3c26.7,0,43.9,4.6,56.8,15c10.7,8,17.2,20.3,17.2,36.5
		c0,20-13.2,37.5-35,45.4v0.6c19.6,4.9,42.7,21.2,42.7,51.9c0,17.8-7.1,31.3-17.5,41.4c-14.4,13.2-37.8,19.3-71.5,19.3
		c-18.4,0-32.5-1.2-41.4-2.5V3486.8z M5189,3571.5h24.3c28.2,0,44.8-14.7,44.8-34.7c0-24.3-18.4-33.8-45.4-33.8
		c-12.3,0-19.3,0.9-23.6,1.8V3571.5z M5189,3670.7c5.2,0.9,12.9,1.2,22.4,1.2c27.6,0,53.1-10.1,53.1-40.2
		c0-28.2-24.3-39.9-53.4-39.9H5189V3670.7z"/>
	<path class="st24" d="M5362.2,3625.9l-21.5,65.1H5313l70.3-206.9h32.2l70.6,206.9h-28.6l-22.1-65.1H5362.2z M5430,3605l-20.3-59.6
		c-4.6-13.5-7.7-25.8-10.7-37.8h-0.6c-3.1,12.3-6.4,24.9-10.4,37.5l-20.3,59.9H5430z"/>
	<path class="st24" d="M5542.4,3506.8h-62.9V3484h153.2v22.7h-63.2V3691h-27V3506.8z"/>
	<path class="st24" d="M5720.7,3486.8c11.7-2.5,30.1-4.3,48.8-4.3c26.7,0,43.9,4.6,56.8,15c10.7,8,17.2,20.3,17.2,36.5
		c0,20-13.2,37.5-35,45.4v0.6c19.6,4.9,42.7,21.2,42.7,51.9c0,17.8-7.1,31.3-17.5,41.4c-14.4,13.2-37.8,19.3-71.5,19.3
		c-18.4,0-32.5-1.2-41.4-2.5V3486.8z M5747.4,3571.5h24.3c28.2,0,44.8-14.7,44.8-34.7c0-24.3-18.4-33.8-45.4-33.8
		c-12.3,0-19.3,0.9-23.6,1.8V3571.5z M5747.4,3670.7c5.2,0.9,12.9,1.2,22.4,1.2c27.6,0,53.1-10.1,53.1-40.2
		c0-28.2-24.3-39.9-53.4-39.9h-22.1V3670.7z"/>
	<path class="st24" d="M5920.6,3625.9l-21.5,65.1h-27.6l70.3-206.9h32.2l70.6,206.9h-28.6l-22.1-65.1H5920.6z M5988.4,3605
		l-20.3-59.6c-4.6-13.5-7.7-25.8-10.7-37.8h-0.6c-3.1,12.3-6.4,24.9-10.4,37.5l-20.3,59.9H5988.4z"/>
	<path class="st24" d="M6101.4,3484v184.5h67.2V3484h26.4v184.5h66.9V3484h26.7V3691H6075V3484H6101.4z"/>
	<path class="st24" d="M6442.2,3594h-80.4v74.6h89.6v22.4H6335V3484h111.8v22.4h-85v65.4h80.4V3594z"/>
	<path class="st24" d="M6700.7,3484V3691H6674v-184.5h-96.1V3691h-26.7V3484H6700.7z"/>
	<path class="st24" d="M6747.3,3486.5c12.9-2.1,29.8-4,51.3-4c26.4,0,45.7,6.1,58,17.2c11.4,9.8,18.1,24.9,18.1,43.3
		c0,18.7-5.5,33.5-16,44.2c-14.1,15-37.1,22.7-63.2,22.7c-8,0-15.3-0.3-21.5-1.8v82.9h-26.7V3486.5z M6774,3586.3
		c5.8,1.5,13.2,2.1,22.1,2.1c32.2,0,51.9-15.7,51.9-44.2c0-27.3-19.3-40.5-48.8-40.5c-11.7,0-20.6,0.9-25.2,2.1V3586.3z"/>
	<path class="st24" d="M7017.8,3594h-80.4v74.6h89.6v22.4h-116.4V3484h111.8v22.4h-85v65.4h80.4V3594z"/>
	<path class="st24" d="M7209.4,3484v185.1l18.1,0.6l-1.8,70.9h-20.9l-1.8-49.7h-130.5l-1.8,49.7h-20.9l-1.8-70.9l15.7-0.6
		c7.7-14.1,15.4-29.2,20.3-45.4c7.1-23.9,9.8-51.6,9.8-87.2V3484H7209.4z M7118.5,3545.1c0,33.2-3.1,61.1-10.4,84.4
		c-4.3,14.4-10.7,28.2-16.9,39.3h91.5v-162.7h-64.2V3545.1z"/>
	<path class="st24" d="M7286.4,3484v87.2c0,32.8-0.6,59.9-2.5,87.5l0.6,0.3c10.4-21.5,23.3-43.9,38.4-68.5l66.9-106.5h26.7V3691
		h-25.2v-88.1c0-33.5,0.3-58,2.5-84.1l-0.9-0.3c-10.1,22.7-24.3,46.7-38.4,69.7l-64.8,102.8h-28.6V3484H7286.4z"/>
	<path class="st24" d="M7637.6,3600.1c-1.5-28.9-3.4-63.6-3.1-89.3h-0.9c-7.1,24.3-15.7,50-26.1,78.6l-36.5,100.4h-20.3l-33.5-98.5
		c-9.8-29.2-18.1-55.9-23.9-80.4h-0.6c-0.6,25.8-2.1,60.5-4,91.5l-5.5,88.7h-25.5l14.4-206.9h34.1l35.3,100.1
		c8.6,25.5,15.7,48.2,20.9,69.7h0.9c5.2-20.9,12.6-43.6,21.8-69.7L7622,3484h34.1l12.9,206.9h-26.1L7637.6,3600.1z"/>
	<path class="st24" d="M7854.7,3684.2c-9.8,4.9-29.5,9.8-54.6,9.8c-58.3,0-102.2-36.8-102.2-104.7c0-64.8,43.9-108.7,108.1-108.7
		c25.8,0,42.1,5.5,49.1,9.2l-6.4,21.8c-10.1-4.9-24.6-8.6-41.8-8.6c-48.5,0-80.7,31-80.7,85.3c0,50.7,29.2,83.2,79.5,83.2
		c16.3,0,32.8-3.4,43.6-8.6L7854.7,3684.2z"/>
	<path class="st24" d="M7938.2,3506.8h-62.9V3484h153.2v22.7h-63.2V3691h-27V3506.8z"/>
	<path class="st24" d="M8051.4,3486.8c11.7-2.5,30.1-4.3,48.8-4.3c26.7,0,43.9,4.6,56.8,15c10.7,8,17.2,20.3,17.2,36.5
		c0,20-13.2,37.5-35,45.4v0.6c19.6,4.9,42.7,21.2,42.7,51.9c0,17.8-7.1,31.3-17.5,41.4c-14.4,13.2-37.8,19.3-71.5,19.3
		c-18.4,0-32.5-1.2-41.4-2.5V3486.8z M8078.1,3571.5h24.3c28.2,0,44.8-14.7,44.8-34.7c0-24.3-18.4-33.8-45.4-33.8
		c-12.3,0-19.3,0.9-23.6,1.8V3571.5z M8078.1,3670.7c5.2,0.9,12.9,1.2,22.4,1.2c27.6,0,53.1-10.1,53.1-40.2
		c0-28.2-24.3-39.9-53.4-39.9h-22.1V3670.7z"/>
	<path class="st24" d="M8392.2,3585.4c0,71.2-43.3,109-96.1,109c-54.6,0-93-42.4-93-105c0-65.7,40.8-108.7,96.1-108.7
		C8355.7,3480.7,8392.2,3524,8392.2,3585.4z M8231.6,3588.7c0,44.2,23.9,83.8,66,83.8c42.4,0,66.3-39,66.3-86
		c0-41.1-21.5-84.1-66-84.1C8253.7,3502.5,8231.6,3543.3,8231.6,3588.7z"/>
</g>
<g>
	<rect x="3142.3" y="3961" class="st22" width="6642.7" height="245"/>
	<path class="st24" d="M3204.9,3994.8H3142V3972h153.2v22.7h-63.2V4179h-27V3994.8z"/>
	<path class="st24" d="M3318.2,3974.5c12.9-2.1,29.8-4,51.3-4c26.4,0,45.7,6.1,58,17.2c11.4,9.8,18.1,24.9,18.1,43.3
		c0,18.7-5.5,33.5-16,44.2c-14.1,15-37.1,22.7-63.2,22.7c-8,0-15.3-0.3-21.5-1.8v82.9h-26.7V3974.5z M3344.9,4074.3
		c5.8,1.5,13.2,2.1,22.1,2.1c32.2,0,51.9-15.7,51.9-44.2c0-27.3-19.3-40.5-48.8-40.5c-11.7,0-20.6,0.9-25.2,2.1V4074.3z"/>
	<path class="st24" d="M3489.2,4113.9l-21.5,65.1h-27.6l70.3-206.9h32.2l70.6,206.9h-28.6l-22.1-65.1H3489.2z M3557,4093l-20.3-59.6
		c-4.6-13.5-7.7-25.8-10.7-37.8h-0.6c-3.1,12.3-6.4,24.9-10.4,37.5l-20.3,59.9H3557z"/>
	<path class="st24" d="M3793.1,3972v185.1l18.1,0.6l-1.8,70.9h-20.9l-1.8-49.7h-130.5l-1.8,49.7h-20.9l-1.8-70.9l15.7-0.6
		c7.7-14.1,15.4-29.2,20.3-45.4c7.1-23.9,9.8-51.6,9.8-87.2V3972H3793.1z M3702.2,4033.1c0,33.2-3.1,61.1-10.4,84.4
		c-4.3,14.4-10.7,28.2-16.9,39.3h91.5v-162.7h-64.2V4033.1z"/>
	<path class="st24" d="M3870.2,3972v87.2c0,32.8-0.6,59.9-2.5,87.5l0.6,0.3c10.4-21.5,23.3-43.9,38.4-68.5l66.9-106.5h26.7V4179
		h-25.2v-88.1c0-33.5,0.3-58,2.5-84.1l-0.9-0.3c-10.1,22.7-24.3,46.7-38.4,69.7l-64.8,102.8H3845V3972H3870.2z"/>
	<path class="st24" d="M4073.7,3972v184.5h94.9V3972h27v185.1l18.1,0.6l-1.8,70.9h-21.2l-1.8-49.7H4047V3972H4073.7z"/>
	<path class="st24" d="M4272.3,3972v87.2c0,32.8-0.6,59.9-2.5,87.5l0.6,0.3c10.4-21.5,23.3-43.9,38.4-68.5l66.9-106.5h26.7V4179
		h-25.2v-88.1c0-33.5,0.3-58,2.5-84.1l-0.9-0.3c-10.1,22.7-24.3,46.7-38.4,69.7l-64.8,102.8h-28.6V3972H4272.3z"/>
	<path class="st24" d="M4430.4,4179c3.1-5.5,5.8-12,8.3-18.7c8.9-23.6,14.4-52.5,31.3-69.4c4.9-4.9,11.1-8.6,17.2-10.4v-0.9
		c-25.5-4.3-45.7-22.7-45.7-51c0-18.1,7.4-32.5,19-42.1c12.9-10.4,33.2-16,59.3-16c17.5,0,35.9,1.5,49.4,4.3V4179h-26.7v-89.6h-19.6
		c-12.9,0-22.4,2.8-29.8,10.1c-14.1,14.4-20,44.8-27.3,64.5c-2.1,5.2-3.7,9.5-6.8,15H4430.4z M4542.5,3993.5
		c-4.6-0.9-13.2-2.5-25.2-2.5c-26.4,0-48.8,10.1-48.8,38.7c0,24.9,22.1,39.3,51.3,39.3c8.9,0,17.5,0,22.7-0.3V3993.5z"/>
	<path class="st24" d="M4707.6,3972v86.6h100.1V3972h27V4179h-27v-97h-100.1v97h-26.7V3972H4707.6z"/>
	<path class="st24" d="M4914.6,4113.9l-21.5,65.1h-27.6l70.3-206.9h32.2l70.6,206.9H5010l-22.1-65.1H4914.6z M4982.4,4093
		l-20.3-59.6c-4.6-13.5-7.7-25.8-10.7-37.8h-0.6c-3.1,12.3-6.4,24.9-10.4,37.5l-20.3,59.9H4982.4z"/>
	<path class="st24" d="M5275.6,3972v185.1l18.1,0.6l-1.8,70.9H5271l-1.8-49.7h-130.5l-1.8,49.7h-20.9l-1.8-70.9l15.7-0.6
		c7.7-14.1,15.4-29.2,20.3-45.4c7.1-23.9,9.8-51.6,9.8-87.2V3972H5275.6z M5184.7,4033.1c0,33.2-3.1,61.1-10.4,84.4
		c-4.3,14.4-10.7,28.2-16.9,39.3h91.5v-162.7h-64.2V4033.1z"/>
	<path class="st24" d="M5501.5,4073.4c0,71.2-43.3,109-96.1,109c-54.6,0-93-42.4-93-105c0-65.7,40.8-108.7,96.1-108.7
		C5465,3968.7,5501.5,4012,5501.5,4073.4z M5341,4076.7c0,44.2,23.9,83.8,66,83.8c42.4,0,66.3-39,66.3-86c0-41.1-21.5-84.1-66-84.1
		C5363.1,3990.5,5341,4031.3,5341,4076.7z"/>
	<path class="st24" d="M5536.2,3974.8c11.7-2.5,30.1-4.3,48.8-4.3c26.7,0,43.9,4.6,56.8,15c10.7,8,17.2,20.3,17.2,36.5
		c0,20-13.2,37.5-35,45.4v0.6c19.6,4.9,42.7,21.2,42.7,51.9c0,17.8-7.1,31.3-17.5,41.4c-14.4,13.2-37.8,19.3-71.5,19.3
		c-18.4,0-32.5-1.2-41.4-2.5V3974.8z M5562.9,4059.5h24.3c28.2,0,44.8-14.7,44.8-34.7c0-24.3-18.4-33.8-45.4-33.8
		c-12.3,0-19.3,0.9-23.6,1.8V4059.5z M5562.9,4158.7c5.2,0.9,12.9,1.2,22.4,1.2c27.6,0,53.1-10.1,53.1-40.2
		c0-28.2-24.3-39.9-53.4-39.9h-22.1V4158.7z"/>
	<path class="st24" d="M5809.8,4082h-80.4v74.6h89.6v22.4h-116.4V3972h111.8v22.4h-85v65.4h80.4V4082z"/>
	<path class="st24" d="M5853.7,3974.5c12.9-2.1,29.8-4,51.3-4c26.4,0,45.7,6.1,58,17.2c11.4,9.8,18.1,24.9,18.1,43.3
		c0,18.7-5.5,33.5-16,44.2c-14.1,15-37.1,22.7-63.2,22.7c-8,0-15.3-0.3-21.5-1.8v82.9h-26.7V3974.5z M5880.4,4074.3
		c5.8,1.5,13.2,2.1,22.1,2.1c32.2,0,51.9-15.7,51.9-44.2c0-27.3-19.3-40.5-48.8-40.5c-11.7,0-20.6,0.9-25.2,2.1V4074.3z"/>
	<path class="st24" d="M6042.2,3972v87.2c0,32.8-0.6,59.9-2.5,87.5l0.6,0.3c10.4-21.5,23.3-43.9,38.4-68.5l66.9-106.5h26.7V4179
		h-25.2v-88.1c0-33.5,0.3-58,2.5-84.1l-0.9-0.3c-10.1,22.7-24.3,46.7-38.4,69.7l-64.8,102.8H6017V3972H6042.2z"/>
	<path class="st24" d="M6326.1,4082h-80.4v74.6h89.6v22.4H6219V3972h111.8v22.4h-85v65.4h80.4V4082z"/>
	<path class="st24" d="M6379.5,4030.4l29.2,83.5c4.9,13.5,8.9,25.8,12,38.1h0.9c3.4-12.3,7.7-24.6,12.6-38.1l28.9-83.5h28.2
		L6433,4179h-25.8l-56.5-148.6H6379.5z"/>
</g>
<g>
	<rect x="3142.3" y="4561" class="st22" width="6642.7" height="245"/>
	<path class="st24" d="M3165.6,4574.8c11.7-2.5,30.1-4.3,48.8-4.3c26.7,0,43.9,4.6,56.8,15c10.7,8,17.2,20.3,17.2,36.5
		c0,20-13.2,37.5-35,45.4v0.6c19.6,4.9,42.7,21.2,42.7,51.9c0,17.8-7.1,31.3-17.5,41.4c-14.4,13.2-37.8,19.3-71.5,19.3
		c-18.4,0-32.5-1.2-41.4-2.5V4574.8z M3192.3,4659.5h24.3c28.2,0,44.8-14.7,44.8-34.7c0-24.3-18.4-33.8-45.4-33.8
		c-12.3,0-19.3,0.9-23.6,1.8V4659.5z M3192.3,4758.7c5.2,0.9,12.9,1.2,22.4,1.2c27.6,0,53.1-10.1,53.1-40.2
		c0-28.2-24.3-39.9-53.4-39.9h-22.1V4758.7z"/>
	<path class="st24" d="M3413.3,4779l-2.1-18.7h-0.9c-8.3,11.7-24.3,22.1-45.4,22.1c-30.1,0-45.4-21.2-45.4-42.7
		c0-35.9,31.9-55.6,89.3-55.3v-3.1c0-12.3-3.4-34.4-33.8-34.4c-13.8,0-28.2,4.3-38.7,11.1l-6.1-17.8c12.3-8,30.1-13.2,48.8-13.2
		c45.4,0,56.5,31,56.5,60.8v55.6c0,12.9,0.6,25.5,2.5,35.6H3413.3z M3409.4,4703.1c-29.5-0.6-62.9,4.6-62.9,33.5
		c0,17.5,11.7,25.8,25.5,25.8c19.3,0,31.6-12.3,35.9-24.9c0.9-2.8,1.5-5.8,1.5-8.6V4703.1z"/>
	<path class="st24" d="M3504.8,4630.4v127.4h51.9v-127.4h26.4v127.4h51.9v-127.4h26.7V4779h-183.3v-148.6H3504.8z"/>
	<path class="st24" d="M3730.5,4630.4v62.6c0,23.6-0.3,38.4-1.5,59.6l0.9,0.3c8.9-18.1,14.1-28.6,23.9-45.7l46.4-76.8h31.6V4779
		H3806V4716c0-24.3,0.6-36.8,1.8-60.8h-0.9c-9.5,19-16,31-24.6,46.1c-14.1,23-30.4,51.6-46.4,77.7h-31v-148.6H3730.5z"/>
	<path class="st24" d="M3985.3,4779h-26.7v-62.3h-20c-11.4,0-19,3.1-24.9,8.3c-11.1,8.9-15,27.3-20.9,41.8c-1.8,4.6-4,8.6-6.1,12.3
		h-28.9c3.4-4.9,6.4-10.4,9.2-16.9c6.4-14.4,10.1-33.8,23.3-44.8c4.6-4,10.1-7.4,16.9-8.6v-0.9c-19.3-2.1-39.3-14.1-39.3-36.8
		c0-15.3,8.3-25.8,19.6-32.2c12.3-7.1,30.4-10.1,49.7-10.1c17.8,0,35,1.5,47.9,3.1V4779z M3958.6,4648.2c-6.8-0.9-12.9-1.5-22.4-1.5
		c-18.4,0-40.2,5.2-40.2,25.8c0,19,23.6,25.8,39.6,25.8c11.1,0,16.9,0,23,0V4648.2z"/>
	<path class="st24" d="M4128.6,4630.4v21.5h-46.4V4779h-26.7v-127.1h-46.4v-21.5H4128.6z"/>
	<path class="st24" d="M4341.7,4630.4V4779h-27v-127.1h-69.1V4779h-26.7v-148.6H4341.7z"/>
	<path class="st24" d="M4467.9,4779l-2.1-18.7h-0.9c-8.3,11.7-24.3,22.1-45.4,22.1c-30.1,0-45.4-21.2-45.4-42.7
		c0-35.9,31.9-55.6,89.3-55.3v-3.1c0-12.3-3.4-34.4-33.8-34.4c-13.8,0-28.2,4.3-38.7,11.1l-6.1-17.8c12.3-8,30.1-13.2,48.8-13.2
		c45.4,0,56.5,31,56.5,60.8v55.6c0,12.9,0.6,25.5,2.5,35.6H4467.9z M4463.9,4703.1c-29.5-0.6-62.9,4.6-62.9,33.5
		c0,17.5,11.7,25.8,25.5,25.8c19.3,0,31.6-12.3,35.9-24.9c0.9-2.8,1.5-5.8,1.5-8.6V4703.1z"/>
	<path class="st24" d="M4533.6,4678.9c0-19-0.6-34.4-1.2-48.5h24.3l1.2,25.5h0.6c11.1-18.1,28.6-28.9,52.8-28.9
		c35.9,0,62.9,30.4,62.9,75.5c0,53.4-32.5,79.8-67.5,79.8c-19.6,0-36.8-8.6-45.7-23.3h-0.6v80.7h-26.7V4678.9z M4560.3,4718.5
		c0,4,0.6,7.7,1.2,11.1c4.9,18.7,21.2,31.6,40.5,31.6c28.6,0,45.1-23.3,45.1-57.4c0-29.8-15.7-55.3-44.2-55.3
		c-18.4,0-35.6,13.2-40.8,33.5c-0.9,3.4-1.8,7.4-1.8,11.1V4718.5z"/>
	<path class="st24" d="M4806.2,4630.4v21.5h-46.4V4779h-26.7v-127.1h-46.4v-21.5H4806.2z"/>
	<path class="st24" d="M4855.9,4630.4v59.9h70.6v-59.9h26.7V4779h-26.7v-67.2h-70.6v67.2h-26.7v-148.6H4855.9z"/>
	<path class="st24" d="M5023.5,4630.4v50.3c6.1-1.2,16.6-1.5,24.6-1.5c33.5,0,68.8,10.4,68.8,50c0,15.3-6.1,26.1-15.7,34.1
		c-16.3,13.8-42.7,17.2-64.5,17.2c-15,0-28.9-0.9-39.9-2.1v-148H5023.5z M5023.5,4760.2c5.2,0.6,11.1,1.2,20,1.2
		c20.3,0,46.4-6.8,46.4-31.6c0-25.8-27-31.3-47-31.3c-7.1,0-13.2,0.6-19.3,1.5V4760.2z"/>
	<path class="st24" d="M5284.8,4703.4c0,55-38.1,78.9-74,78.9c-40.2,0-71.2-29.5-71.2-76.4c0-49.7,32.5-78.9,73.7-78.9
		C5255.9,4627,5284.8,4658,5284.8,4703.4z M5166.9,4705c0,32.5,18.7,57.1,45.1,57.1c25.8,0,45.1-24.3,45.1-57.7
		c0-25.2-12.6-57.1-44.5-57.1C5180.7,4647.3,5166.9,4676.7,5166.9,4705z"/>
	<path class="st24" d="M5318.9,4678.9c0-19-0.6-34.4-1.2-48.5h24.3l1.2,25.5h0.6c11.1-18.1,28.6-28.9,52.8-28.9
		c35.9,0,62.9,30.4,62.9,75.5c0,53.4-32.5,79.8-67.5,79.8c-19.6,0-36.8-8.6-45.7-23.3h-0.6v80.7h-26.7V4678.9z M5345.6,4718.5
		c0,4,0.6,7.7,1.2,11.1c4.9,18.7,21.2,31.6,40.5,31.6c28.6,0,45.1-23.3,45.1-57.4c0-29.8-15.7-55.3-44.2-55.3
		c-18.4,0-35.6,13.2-40.8,33.5c-0.9,3.4-1.8,7.4-1.8,11.1V4718.5z"/>
	<path class="st24" d="M5680.8,4630.4V4779h-27v-127.1h-69.1V4779H5558v-148.6H5680.8z"/>
	<path class="st24" d="M5859.2,4703.4c0,55-38.1,78.9-74,78.9c-40.2,0-71.2-29.5-71.2-76.4c0-49.7,32.5-78.9,73.7-78.9
		C5830.3,4627,5859.2,4658,5859.2,4703.4z M5741.3,4705c0,32.5,18.7,57.1,45.1,57.1c25.8,0,45.1-24.3,45.1-57.7
		c0-25.2-12.6-57.1-44.5-57.1C5755.1,4647.3,5741.3,4676.7,5741.3,4705z"/>
	<path class="st24" d="M6080.5,4630.4V4779h-27v-127.1h-69.1V4779h-26.7v-148.6H6080.5z"/>
	<path class="st24" d="M6124.4,4678.9c0-19-0.6-34.4-1.2-48.5h24.3l1.2,25.5h0.6c11.1-18.1,28.6-28.9,52.8-28.9
		c35.9,0,62.9,30.4,62.9,75.5c0,53.4-32.5,79.8-67.5,79.8c-19.6,0-36.8-8.6-45.7-23.3h-0.6v80.7h-26.7V4678.9z M6151.1,4718.5
		c0,4,0.6,7.7,1.2,11.1c4.9,18.7,21.2,31.6,40.5,31.6c28.6,0,45.1-23.3,45.1-57.4c0-29.8-15.7-55.3-44.2-55.3
		c-18.4,0-35.6,13.2-40.8,33.5c-0.9,3.4-1.8,7.4-1.8,11.1V4718.5z"/>
	<path class="st24" d="M6314.1,4709.6c0.6,36.5,23.9,51.6,51,51.6c19.3,0,31-3.4,41.1-7.7l4.6,19.3c-9.5,4.3-25.8,9.2-49.4,9.2
		c-45.7,0-73.1-30.1-73.1-74.9s26.4-80.1,69.7-80.1c48.5,0,61.4,42.7,61.4,70c0,5.5-0.6,9.8-0.9,12.6H6314.1z M6393.3,4690.2
		c0.3-17.2-7.1-43.9-37.5-43.9c-27.3,0-39.3,25.2-41.4,43.9H6393.3z"/>
	<path class="st24" d="M6454.4,4630.4h33.2l27,74.9c3.7,11.1,10.1,29.2,13.5,40.8h0.6c3.4-11.1,11.7-34.7,17.5-51l23.9-64.8h33.5
		l10.4,148.6h-25.8l-3.4-70.9c-0.9-16-2.1-35-2.8-53.1h-0.9c-4,13.5-8,25.5-16.3,48.2l-28.6,74.9h-19.6l-26.4-73.4
		c-4.6-14.1-11.1-35.6-14.7-49.4h-1.2c-0.6,17.5-1.5,37.1-2.5,53.4l-3.7,70.3h-24.9L6454.4,4630.4z"/>
	<path class="st24" d="M6664.1,4709.6c0.6,36.5,23.9,51.6,51,51.6c19.3,0,31-3.4,41.1-7.7l4.6,19.3c-9.5,4.3-25.8,9.2-49.4,9.2
		c-45.7,0-73.1-30.1-73.1-74.9s26.4-80.1,69.7-80.1c48.5,0,61.4,42.7,61.4,70c0,5.5-0.6,9.8-0.9,12.6H6664.1z M6743.3,4690.2
		c0.3-17.2-7.1-43.9-37.5-43.9c-27.3,0-39.3,25.2-41.4,43.9H6743.3z"/>
	<path class="st24" d="M6908.8,4773.4c-7.1,3.7-22.7,8.6-42.7,8.6c-44.8,0-74-30.4-74-75.8c0-45.7,31.3-78.9,79.8-78.9
		c16,0,30.1,4,37.5,7.7l-6.1,20.9c-6.4-3.7-16.6-7.1-31.3-7.1c-34.1,0-52.5,25.2-52.5,56.2c0,34.4,22.1,55.6,51.6,55.6
		c15.3,0,25.5-4,33.2-7.4L6908.8,4773.4z"/>
	<path class="st24" d="M7045.7,4630.4v21.5h-46.4V4779h-26.7v-127.1h-46.4v-21.5H7045.7z"/>
	<path class="st24" d="M7068.7,4632.2c10.4-1.8,29.8-3.4,47.3-3.4c24.9,0,66,4,66,37.1c0,18.4-14.1,29.8-31,33.5v0.6
		c21.8,3.1,37.8,15.4,37.8,36.8c0,39-49.1,43.9-78.3,43.9c-16.6,0-33.8-1.2-41.8-1.8V4632.2z M7094.2,4761.2
		c7.7,0.9,13.2,1.2,21.8,1.2c18.1,0,45.1-4.3,45.1-25.8c0-21.5-21.5-26.1-47.3-26.1h-19.6V4761.2z M7094.5,4692.7h20.3
		c20,0,40.5-5.8,40.5-23.3c0-14.7-12.9-21.8-39.9-21.8c-8.9,0-14.4,0.6-20.9,1.2V4692.7z"/>
	<path class="st24" d="M7305.1,4779l-2.1-18.7h-0.9c-8.3,11.7-24.3,22.1-45.4,22.1c-30.1,0-45.4-21.2-45.4-42.7
		c0-35.9,31.9-55.6,89.3-55.3v-3.1c0-12.3-3.4-34.4-33.8-34.4c-13.8,0-28.2,4.3-38.7,11.1l-6.1-17.8c12.3-8,30.1-13.2,48.8-13.2
		c45.4,0,56.5,31,56.5,60.8v55.6c0,12.9,0.6,25.5,2.5,35.6H7305.1z M7301.1,4703.1c-29.5-0.6-62.9,4.6-62.9,33.5
		c0,17.5,11.7,25.8,25.5,25.8c19.3,0,31.6-12.3,35.9-24.9c0.9-2.8,1.5-5.8,1.5-8.6V4703.1z"/>
	<path class="st24" d="M7396.9,4630.4v59.9h70.6v-59.9h26.7V4779h-26.7v-67.2h-70.6v67.2h-26.7v-148.6H7396.9z"/>
	<path class="st24" d="M7553.5,4709.6c0.6,36.5,23.9,51.6,51,51.6c19.3,0,31-3.4,41.1-7.7l4.6,19.3c-9.5,4.3-25.8,9.2-49.4,9.2
		c-45.7,0-73.1-30.1-73.1-74.9s26.4-80.1,69.7-80.1c48.5,0,61.4,42.7,61.4,70c0,5.5-0.6,9.8-0.9,12.6H7553.5z M7632.7,4690.2
		c0.3-17.2-7.1-43.9-37.5-43.9c-27.3,0-39.3,25.2-41.4,43.9H7632.7z"/>
</g>
<g>
	<rect x="3142.3" y="4895" class="st22" width="6642.7" height="245"/>
	<path class="st24" d="M3340,5022.1c-1.5-28.9-3.4-63.6-3.1-89.3h-0.9c-7.1,24.3-15.7,50-26.1,78.6l-36.5,100.4h-20.3l-33.5-98.5
		c-9.8-29.2-18.1-55.9-23.9-80.4h-0.6c-0.6,25.8-2.1,60.5-4,91.5l-5.5,88.7h-25.5l14.4-206.9h34.1l35.3,100.1
		c8.6,25.5,15.7,48.2,20.9,69.7h0.9c5.2-20.9,12.6-43.6,21.8-69.7l36.8-100.1h34.1l12.9,206.9h-26.1L3340,5022.1z"/>
	<path class="st24" d="M3589.3,5007.4c0,71.2-43.3,109-96.1,109c-54.6,0-93-42.4-93-105c0-65.7,40.8-108.7,96.1-108.7
		C3552.7,4902.7,3589.3,4946,3589.3,5007.4z M3428.7,5010.7c0,44.2,23.9,83.8,66,83.8c42.4,0,66.3-39,66.3-86
		c0-41.1-21.5-84.1-66-84.1C3450.8,4924.5,3428.7,4965.3,3428.7,5010.7z"/>
	<path class="st24" d="M3650.3,4906v184.5h67.2V4906h26.4v184.5h66.9V4906h26.7v185.1l18.1,0.6l-1.8,70.9h-21.2l-1.5-49.7h-207.2
		V4906H3650.3z"/>
	<path class="st24" d="M3978.2,4964.4v62.6c0,23.6-0.3,38.4-1.5,59.6l0.9,0.3c8.9-18.1,14.1-28.6,23.9-45.7l46.4-76.8h31.6V5113
		h-25.8V5050c0-24.3,0.6-36.8,1.8-60.8h-0.9c-9.5,19-16,31-24.6,46.1c-14.1,23-30.4,51.6-46.4,77.7h-31v-148.6H3978.2z"/>
	<path class="st24" d="M4334,5106.2c-9.8,4.9-29.5,9.8-54.6,9.8c-58.3,0-102.2-36.8-102.2-104.7c0-64.8,43.9-108.7,108.1-108.7
		c25.8,0,42.1,5.5,49.1,9.2l-6.4,21.8c-10.1-4.9-24.6-8.6-41.8-8.6c-48.5,0-80.7,31-80.7,85.3c0,50.7,29.2,83.2,79.5,83.2
		c16.3,0,32.8-3.4,43.6-8.6L4334,5106.2z"/>
	<path class="st24" d="M4392.7,4906v87.2c0,32.8-0.6,59.9-2.5,87.5l0.6,0.3c10.4-21.5,23.3-43.9,38.4-68.5l66.9-106.5h26.7V5113
		h-25.2v-88.1c0-33.5,0.3-58,2.5-84.1l-0.9-0.3c-10.1,22.7-24.3,46.7-38.4,69.7L4396,5113h-28.6V4906H4392.7z"/>
	<path class="st24" d="M4706.4,4906V5113h-27v-184.5h-68.5v62.6c0,44.8-1.8,94.9-31,114.5c-7.7,4.9-19.6,9.8-31.6,9.8l-3.4-21.5
		c8.3-1.5,16.9-6.4,21.8-11.1c16.6-16.3,18.1-56.5,18.1-89.6V4906H4706.4z"/>
	<path class="st24" d="M4786.2,5047.9l-21.5,65.1h-27.6l70.3-206.9h32.2l70.6,206.9h-28.6l-22.1-65.1H4786.2z M4854.1,5027
		l-20.3-59.6c-4.6-13.5-7.7-25.8-10.7-37.8h-0.6c-3.1,12.3-6.4,24.9-10.4,37.5l-20.3,59.9H4854.1z"/>
</g>
<g>
	<rect x="3142.3" y="5163" class="st22" width="6642.7" height="245"/>
	<path class="st24" d="M3278.9,5381l-26.4-45.7c-10.7-17.5-17.5-28.9-23.9-40.8h-0.6c-5.8,12-11.7,23-22.4,41.1l-24.9,45.4h-30.7
		l63.2-104.7l-60.8-102.2h31l27.3,48.5c7.7,13.5,13.5,23.9,19,35h0.9c5.8-12.3,11.1-21.8,18.7-35l28.2-48.5h30.7l-62.9,100.7
		l64.5,106.2H3278.9z"/>
	<path class="st24" d="M3448,5284h-80.4v74.6h89.6v22.4h-116.4V5174h111.8v22.4h-85v65.4h80.4V5284z"/>
	<path class="st24" d="M3491.9,5176.5c12.9-2.1,29.8-4,51.3-4c26.4,0,45.7,6.1,58,17.2c11.4,9.8,18.1,24.9,18.1,43.3
		c0,18.7-5.5,33.5-16,44.2c-14.1,15-37.1,22.7-63.2,22.7c-8,0-15.3-0.3-21.5-1.8v82.9h-26.7V5176.5z M3518.6,5276.3
		c5.8,1.5,13.2,2.1,22.1,2.1c32.2,0,51.9-15.7,51.9-44.2c0-27.3-19.3-40.5-48.8-40.5c-11.7,0-20.6,0.9-25.2,2.1V5276.3z"/>
	<path class="st24" d="M3681.7,5174v91.8h8.3l70.9-91.8h32.2l-78.3,94.9c34.1,4.6,47.3,25.5,58,53.4c7.7,21.2,13.5,40.2,22.7,58.6
		h-28.9c-7.4-14.1-13.2-32.5-18.7-48.8c-9.5-27.3-22.7-46.1-57.7-46.1h-8.6v94.9h-26.4V5174H3681.7z"/>
	<path class="st24" d="M3835.2,5174l41.1,88.1c5.2,12.3,10.1,24.3,15,36.5h0.6c3.7-10.7,7.7-22.7,12.9-37.5l32.2-87.2h28.2
		l-43.3,106.2c-11.4,27.6-24.3,59.3-38.7,78.6c-13.5,16.9-28.6,25.5-47,25.5c-6.8,0-11.7-0.6-15-1.8l2.8-21.8
		c2.1,0.6,5.2,0.9,9.8,0.9c21.5-0.3,34.1-20.9,40.5-35.6c2.1-4.6,1.5-7.7-0.9-12.6l-68.8-139.4H3835.2z"/>
	<path class="st24" d="M4118.5,5174V5381h-27v-184.5H4023v62.6c0,44.8-1.8,94.9-31,114.5c-7.7,4.9-19.6,9.8-31.6,9.8l-3.4-21.5
		c8.3-1.5,16.9-6.4,21.8-11.1c16.6-16.3,18.1-56.5,18.1-89.6V5174H4118.5z"/>
	<path class="st24" d="M4272,5284h-80.4v74.6h89.6v22.4h-116.4V5174h111.8v22.4h-85v65.4h80.4V5284z"/>
	<path class="st24" d="M4460.5,5374.2c-9.8,4.9-29.5,9.8-54.6,9.8c-58.3,0-102.2-36.8-102.2-104.7c0-64.8,43.9-108.7,108.1-108.7
		c25.8,0,42.1,5.5,49.1,9.2l-6.4,21.8c-10.1-4.9-24.6-8.6-41.8-8.6c-48.5,0-80.7,31-80.7,85.3c0,50.7,29.2,83.2,79.5,83.2
		c16.3,0,32.8-3.4,43.6-8.6L4460.5,5374.2z"/>
	<path class="st24" d="M4708.6,5174V5381h-26.7v-184.5h-96.1V5381h-26.7V5174H4708.6z"/>
	<path class="st24" d="M4788.7,5315.9l-21.5,65.1h-27.6l70.3-206.9h32.2l70.6,206.9h-28.6l-22.1-65.1H4788.7z M4856.5,5295
		l-20.3-59.6c-4.6-13.5-7.7-25.8-10.7-37.8h-0.6c-3.1,12.3-6.4,24.9-10.4,37.5l-20.3,59.9H4856.5z"/>
	<path class="st24" d="M5083.1,5374.2c-9.8,4.9-29.5,9.8-54.6,9.8c-58.3,0-102.2-36.8-102.2-104.7c0-64.8,43.9-108.7,108.1-108.7
		c25.8,0,42.1,5.5,49.1,9.2l-6.4,21.8c-10.1-4.9-24.6-8.6-41.8-8.6c-48.5,0-80.7,31-80.7,85.3c0,50.7,29.2,83.2,79.5,83.2
		c16.3,0,32.8-3.4,43.6-8.6L5083.1,5374.2z"/>
	<path class="st24" d="M5166.6,5196.8h-62.9V5174h153.2v22.7h-63.2V5381h-27V5196.8z"/>
	<path class="st24" d="M5305,5174v87.2c0,32.8-0.6,59.9-2.5,87.5l0.6,0.3c10.4-21.5,23.3-43.9,38.4-68.5l66.9-106.5h26.7V5381H5410
		v-88.1c0-33.5,0.3-58,2.5-84.1l-0.9-0.3c-10.1,22.7-24.3,46.7-38.4,69.7l-64.8,102.8h-28.6V5174H5305z"/>
	<path class="st24" d="M5688.5,5174v185.1l18.1,0.6l-1.8,70.9h-20.9l-1.8-49.7h-130.5l-1.8,49.7h-20.9l-1.8-70.9l15.7-0.6
		c7.7-14.1,15.4-29.2,20.3-45.4c7.1-23.9,9.8-51.6,9.8-87.2V5174H5688.5z M5597.6,5235.1c0,33.2-3.1,61.1-10.4,84.4
		c-4.3,14.4-10.7,28.2-16.9,39.3h91.5v-162.7h-64.2V5235.1z"/>
	<path class="st24" d="M5774.7,5315.9l-21.5,65.1h-27.6l70.3-206.9h32.2l70.6,206.9h-28.6l-22.1-65.1H5774.7z M5842.6,5295
		l-20.3-59.6c-4.6-13.5-7.7-25.8-10.7-37.8h-0.6c-3.1,12.3-6.4,24.9-10.4,37.5l-20.3,59.9H5842.6z"/>
	<path class="st24" d="M5975.5,5381c3.1-5.5,5.8-12,8.3-18.7c8.9-23.6,14.4-52.5,31.3-69.4c4.9-4.9,11.1-8.6,17.2-10.4v-0.9
		c-25.5-4.3-45.7-22.7-45.7-51c0-18.1,7.4-32.5,19-42.1c12.9-10.4,33.2-16,59.3-16c17.5,0,35.9,1.5,49.4,4.3V5381h-26.7v-89.6h-19.6
		c-12.9,0-22.4,2.8-29.8,10.1c-14.1,14.4-20,44.8-27.3,64.5c-2.1,5.2-3.7,9.5-6.8,15H5975.5z M6087.6,5195.5
		c-4.6-0.9-13.2-2.5-25.2-2.5c-26.4,0-48.8,10.1-48.8,38.7c0,24.9,22.1,39.3,51.3,39.3c8.9,0,17.5,0,22.7-0.3V5195.5z"/>
	<path class="st24" d="M6302.5,5174v185.1l18.1,0.6l-1.8,70.9h-20.9l-1.8-49.7h-130.5l-1.8,49.7h-20.9l-1.8-70.9l15.7-0.6
		c7.7-14.1,15.4-29.2,20.3-45.4c7.1-23.9,9.8-51.6,9.8-87.2V5174H6302.5z M6211.6,5235.1c0,33.2-3.1,61.1-10.4,84.4
		c-4.3,14.4-10.7,28.2-16.9,39.3h91.5v-162.7h-64.2V5235.1z"/>
	<path class="st24" d="M6461.5,5284h-80.4v74.6h89.6v22.4h-116.4V5174h111.8v22.4h-85v65.4h80.4V5284z"/>
</g>
<g>
	<rect x="1876.3" y="203.4" class="st22" width="7991.7" height="1152.6"/>
	<path class="st1" d="M1910.8,600.6c0-223.9,188.5-413.4,412-413.4c103.4,1.5,194.9,42.3,278.1,122.6l-92,125.5
		c-54.1-53.2-119.1-85.6-187.5-85.6c-127.5,0-249,113.2-249,252c0,141.3,126,250.5,248.6,250.5c72.8,0,135.8-38.9,188.5-90.6
		l91.5,129c-69.9,69.4-155,121.6-275.1,121.6C2096.8,1012,1910.8,823.5,1910.8,600.6z"/>
	<path class="st1" d="M3172.3,886h-317.5l-50.7,110.7h-172.3l379-813.1h4.9l379.5,813.1h-172.8L3172.3,886z M3110.3,750.2
		l-96.5-212.1l-97,212.1H3110.3z"/>
	<path class="st1" d="M3886.9,996.8l-252.5-375v375H3475l-0.5-793.4h258.9c148.1,0,269.7,114.2,269.7,256.9
		c0,101.9-61.5,191-146.7,221l225.4,315.5H3886.9z M3633.9,560.7l102.4,0.5c54.1,0.5,102.4-43.3,102.4-99.9s-48.7-99.9-102.4-99.9
		h-102.4V560.7z"/>
	<path class="st1" d="M4919.5,618.3c0,249-171.8,394.2-378.5,394.2c-233.8,0-417.9-185.1-417.9-411.5c0-226.9,185.1-413.9,412-413.9
		c102.9,1,212.6,48.2,290.4,124l-88.6,132.4c-62-60.5-132.9-95-203.8-95c-123,0-247.6,104.3-247.6,252.5
		c0,137.8,107.3,251,262.3,251c113.2,0,194.4-58.1,199.8-153.6h-205.2V551.4h373.1C4918.1,574.5,4919.5,596.6,4919.5,618.3z"/>
	<path class="st1" d="M4988.4,601.1c0-227.9,185.6-413.9,412.5-413.9s412.9,186,412.9,413.9c0,225.9-186,411-413.4,411
		C5174,1012,4988.4,827,4988.4,601.1z M5652.4,600.1c0-138.8-113.2-252-252-252c-138.3,0-251,113.2-251,252
		c0,137.8,112.7,250.5,251,250.5C5539.2,850.6,5652.4,737.9,5652.4,600.1z"/>
	<path class="st1" d="M6694.4,183.7v813.1h-159.5V651.3l-228.4,332.2h-1l-228.9-332.2v345.5h-159.5V183.7h8.9l380,524.2l379.5-524.2
		H6694.4z"/>
	<path class="st1" d="M6797.7,601.1c0-227.9,185.6-413.9,412.5-413.9s412.9,186,412.9,413.9c0,225.9-186,411-413.4,411
		C6983.3,1012,6797.7,827,6797.7,601.1z M7461.7,600.1c0-138.8-113.2-252-252-252c-138.3,0-251,113.2-251,252
		c0,137.8,112.7,250.5,251,250.5C7348.5,850.6,7461.7,737.9,7461.7,600.1z"/>
	<path class="st1" d="M8342.7,203.4l-371.1,813.1h-5.9l-369.6-813.1h168.8l203.3,460.7l203.8-460.7H8342.7z"/>
	<path class="st1" d="M8581.4,360.4v155h273.7v159h-273.7v163.9h318.9v158.5h-478.4V203.4h478.4v157H8581.4z"/>
</g>
<g>
</g>
<g>
</g>
<g>
</g>
<g>
</g>
<g>
</g>
<g>
</g>
<g>
</g>
<g>
</g>
<g>
</g>
<g>
</g>
<g>
</g>
<g>
</g>
<g>
</g>
<g>
</g>
<g>
</g>
</svg>
