<svg xmlns="http://www.w3.org/2000/svg" xmlns:xlink="http://www.w3.org/1999/xlink" width="500" zoomAndPan="magnify" viewBox="0 0 375 374.999991" height="500" preserveAspectRatio="xMidYMid meet" version="1.0"><defs><filter x="0%" y="0%" width="100%" height="100%" id="8dd02b9b99"><feColorMatrix values="0 0 0 0 1 0 0 0 0 1 0 0 0 0 1 0 0 0 1 0" color-interpolation-filters="sRGB"/></filter><g/><clipPath id="6167a37f5b"><path d="M 130.734375 105.132812 L 246 105.132812 L 246 219.132812 L 130.734375 219.132812 Z M 130.734375 105.132812 " clip-rule="nonzero"/></clipPath><mask id="dafce4fb12"><g filter="url(#8dd02b9b99)"><rect x="-37.5" width="450" fill="#000000" y="-37.499999" height="449.999989" fill-opacity="0.8"/></g></mask><clipPath id="d562ec9838"><path d="M 0.734375 6 L 113 6 L 113 113 L 0.734375 113 Z M 0.734375 6 " clip-rule="nonzero"/></clipPath><clipPath id="876905c681"><path d="M 61 106 L 87 106 L 87 114.132812 L 61 114.132812 Z M 61 106 " clip-rule="nonzero"/></clipPath><clipPath id="7372cea4fe"><path d="M 25 0.359375 L 115.761719 0.359375 L 115.761719 105 L 25 105 Z M 25 0.359375 " clip-rule="nonzero"/></clipPath><clipPath id="d3a961e9bb"><rect x="0" width="116" y="0" height="115"/></clipPath><clipPath id="5a09a3a87f"><path d="M 111.34375 133.148438 L 233.578125 133.148438 L 233.578125 183.398438 L 111.34375 183.398438 Z M 111.34375 133.148438 " clip-rule="nonzero"/></clipPath></defs><g clip-path="url(#6167a37f5b)"><g mask="url(#dafce4fb12)"><g transform="matrix(1, 0, 0, 1, 130, 105)"><g clip-path="url(#d3a961e9bb)"><g clip-path="url(#d562ec9838)"><path fill="#d97706" d="M 9.585938 45.078125 C 11.699219 38.792969 14.984375 32.925781 19.253906 27.90625 C 23.523438 22.839844 28.78125 18.617188 34.691406 15.570312 C 40.605469 12.472656 47.175781 10.597656 53.933594 10.082031 C 60.691406 9.5625 67.589844 10.363281 74.066406 12.660156 C 74.066406 12.707031 74.066406 12.753906 74.160156 12.847656 C 74.347656 13.035156 74.722656 13.269531 75.191406 13.457031 C 75.660156 13.691406 76.175781 13.878906 76.691406 14.066406 C 79.554688 15.101562 82.324219 16.460938 85 18.007812 C 89.785156 21.152344 93.914062 25.1875 97.292969 29.738281 C 96.636719 28.800781 95.886719 27.953125 95.183594 27.0625 C 94.429688 26.21875 93.679688 25.375 92.882812 24.578125 C 91.335938 22.933594 89.597656 21.480469 87.816406 20.167969 C 87.296875 19.746094 86.78125 19.417969 86.40625 19.230469 C 86.03125 19.039062 85.796875 18.992188 85.75 19.132812 C 85.75 19.277344 85.9375 19.511719 86.3125 19.886719 C 86.640625 20.261719 87.15625 20.683594 87.675781 21.105469 C 92.367188 24.8125 96.542969 29.738281 99.59375 35.085938 C 102.691406 40.433594 104.660156 46.203125 105.929688 51.457031 C 106.820312 58.308594 106.164062 65.296875 104.144531 71.726562 C 102.128906 78.152344 98.703125 84.0625 94.335938 88.894531 C 89.972656 93.726562 84.625 97.574219 78.898438 100.109375 C 73.171875 102.640625 67.027344 103.90625 61.066406 103.953125 C 60.597656 103.953125 60.035156 104 59.800781 104.09375 C 59.46875 104.1875 59.5625 104.28125 59.988281 104.28125 C 66.226562 104.5625 72.84375 103.484375 79.179688 100.8125 C 82.324219 99.449219 85.421875 97.761719 88.285156 95.652344 C 91.148438 93.539062 93.867188 91.054688 96.261719 88.238281 C 98.65625 85.421875 100.765625 82.328125 102.457031 78.902344 C 104.144531 75.523438 105.507812 71.914062 106.398438 68.113281 C 107.242188 64.3125 107.664062 60.417969 107.617188 56.429688 L 107.617188 55.679688 L 107.476562 53.429688 C 107.382812 52.445312 107.289062 51.457031 107.148438 50.472656 C 106.820312 48.503906 106.492188 46.53125 105.929688 44.609375 L 105.554688 43.203125 L 105.085938 41.792969 C 104.800781 40.855469 104.425781 39.964844 104.050781 39.074219 C 106.445312 44.140625 107.992188 49.769531 108.511719 55.726562 C 108.367188 56.335938 108.320312 57.324219 108.320312 58.496094 C 108.226562 61.308594 107.898438 64.078125 107.382812 66.800781 C 107.382812 66.65625 107.335938 66.609375 107.289062 66.5625 C 107.101562 66.5625 106.773438 67.550781 106.539062 68.722656 C 105.085938 75.523438 102.175781 81.953125 98.09375 87.582031 C 98 87.722656 97.902344 87.863281 97.808594 87.957031 C 92.554688 94.757812 85.5625 100.203125 77.726562 103.484375 C 69.886719 106.863281 61.253906 108.082031 52.855469 107.144531 C 52.335938 107.097656 51.820312 107.003906 51.304688 106.957031 C 50.789062 106.863281 50.273438 106.816406 49.757812 106.722656 L 48.207031 106.394531 L 47.410156 106.253906 L 46.660156 106.066406 L 45.109375 105.691406 L 43.609375 105.222656 C 42.578125 104.941406 41.636719 104.515625 40.605469 104.1875 C 38.636719 103.390625 36.710938 102.59375 34.878906 101.5625 C 33.941406 101.09375 33.050781 100.53125 32.160156 100.015625 C 31.691406 99.730469 31.265625 99.449219 30.84375 99.167969 C 30.421875 98.886719 29.953125 98.605469 29.53125 98.277344 C 22.679688 93.398438 17.1875 86.738281 13.621094 79.183594 C 13.480469 78.714844 13.199219 78.105469 12.964844 77.824219 C 12.730469 77.496094 12.636719 77.589844 12.777344 78.058594 C 12.683594 78.058594 12.542969 78.011719 12.589844 78.152344 C 14.75 84.015625 17.988281 89.410156 22.257812 94.148438 C 26.574219 98.839844 31.972656 102.828125 38.445312 105.550781 C 42.90625 107.425781 47.597656 108.644531 52.382812 109.207031 C 47.410156 108.925781 42.671875 108.035156 38.445312 106.863281 C 32.535156 104.46875 27.042969 100.953125 22.398438 96.636719 C 17.753906 92.320312 13.855469 87.300781 10.855469 81.90625 L 11.183594 82.28125 C 10.949219 81.8125 10.664062 81.34375 10.429688 81.015625 C 10.195312 80.683594 10.054688 80.449219 9.960938 80.496094 C 9.867188 80.496094 9.867188 80.683594 9.960938 81.0625 C 10.054688 81.390625 10.242188 81.859375 10.523438 82.375 C 11.746094 85 13.199219 87.582031 14.890625 90.019531 C 16.578125 92.460938 18.503906 94.710938 20.566406 96.871094 C 22.679688 98.980469 24.933594 100.953125 27.371094 102.6875 C 29.8125 104.421875 32.441406 105.972656 35.164062 107.285156 C 46.097656 112.585938 59 113.851562 71.015625 110.898438 C 77.023438 109.394531 82.792969 106.863281 87.957031 103.390625 C 93.117188 99.921875 97.714844 95.558594 101.472656 90.539062 C 105.226562 85.515625 108.085938 79.792969 109.917969 73.789062 C 111.792969 67.785156 112.5 61.402344 112.265625 55.070312 C 111.839844 45.03125 108.464844 35.179688 102.785156 26.96875 C 97.152344 18.710938 89.175781 12.144531 80.023438 8.0625 C 78.664062 7.40625 77.351562 7.078125 76.410156 6.84375 C 75.472656 6.65625 74.816406 6.65625 74.769531 6.890625 C 74.722656 7.3125 76.878906 8.390625 79.507812 9.609375 C 88.238281 13.550781 95.746094 19.933594 101.09375 27.765625 C 106.492188 35.601562 109.730469 44.84375 110.292969 54.367188 C 110.527344 58.542969 110.386719 62.765625 109.636719 66.847656 C 108.933594 70.925781 107.710938 74.960938 106.117188 78.761719 C 108.558594 72.757812 109.730469 66.328125 109.730469 59.949219 C 109.871094 57.511719 109.777344 55.070312 109.542969 52.632812 C 109.308594 50.191406 108.839844 47.753906 108.273438 45.3125 C 107.617188 42.921875 106.867188 40.527344 105.882812 38.230469 C 104.894531 35.929688 103.769531 33.679688 102.457031 31.519531 C 99.3125 26.265625 95.324219 21.761719 90.769531 18.101562 C 86.21875 14.445312 81.105469 11.535156 75.613281 9.5625 C 70.171875 7.59375 64.398438 6.46875 58.484375 6.28125 C 55.527344 6.1875 52.570312 6.328125 49.617188 6.703125 C 46.660156 7.078125 43.65625 7.734375 40.746094 8.578125 C 35.019531 10.269531 29.953125 12.753906 25.402344 15.664062 C 23.148438 17.164062 21.035156 18.757812 19.019531 20.496094 C 17.046875 22.230469 15.171875 24.109375 13.480469 26.078125 C 11.746094 28.046875 10.195312 30.160156 8.789062 32.363281 C 7.382812 34.570312 6.113281 36.960938 4.988281 39.402344 C 3.910156 41.886719 2.96875 44.46875 2.265625 47.1875 C 1.5625 49.910156 1.046875 52.726562 0.765625 55.679688 C 0.671875 56.710938 0.71875 57.886719 0.859375 58.261719 C 0.90625 58.449219 1 58.449219 1.09375 58.261719 C 1.1875 58.074219 1.234375 57.699219 1.28125 57.183594 C 2.21875 45.875 6.582031 35.648438 13.292969 27.4375 C 14.9375 25.375 16.8125 23.449219 18.785156 21.667969 C 19.769531 20.730469 20.800781 19.933594 21.835938 19.039062 C 22.351562 18.617188 22.914062 18.242188 23.429688 17.820312 C 23.945312 17.398438 24.554688 17.070312 25.074219 16.648438 C 27.324219 15.148438 29.671875 13.738281 32.160156 12.566406 C 34.644531 11.394531 37.273438 10.363281 39.949219 9.5625 C 45.722656 7.828125 51.632812 7.078125 57.5 7.171875 C 63.367188 7.3125 69.136719 8.34375 74.628906 10.316406 C 80.117188 12.285156 85.28125 15.148438 89.878906 18.851562 C 94.480469 22.558594 98.46875 27.0625 101.613281 32.222656 C 102.457031 33.632812 103.253906 35.039062 103.957031 36.492188 C 102.691406 34.148438 101.28125 31.894531 99.6875 29.832031 C 98.09375 27.765625 96.355469 25.84375 94.527344 24.0625 C 87.582031 16.835938 78.617188 11.816406 68.996094 9.65625 C 59.375 7.5 49.195312 8.15625 39.855469 11.628906 C 36.242188 12.988281 32.769531 14.679688 29.578125 16.742188 C 26.339844 18.804688 23.382812 21.246094 20.707031 23.917969 C 20.003906 24.578125 19.394531 25.328125 18.738281 26.03125 C 18.082031 26.734375 17.515625 27.484375 16.90625 28.234375 C 15.734375 29.738281 14.609375 31.332031 13.621094 32.972656 C 11.652344 36.257812 10.007812 39.777344 8.835938 43.53125 C 8.554688 44.46875 8.273438 45.40625 8.226562 46.15625 C 8.132812 46.90625 8.132812 47.46875 8.273438 47.707031 C 8.367188 47.894531 8.601562 47.707031 8.835938 47.234375 C 9.023438 46.765625 9.304688 46.015625 9.585938 45.078125 Z M 78.289062 105.972656 C 81.621094 104.707031 84.8125 103.0625 87.816406 101.09375 C 82.042969 105.128906 75.425781 107.988281 68.527344 109.445312 C 61.628906 110.898438 54.402344 110.945312 47.457031 109.539062 C 52.570312 110.335938 57.875 110.476562 63.132812 109.914062 C 68.339844 109.300781 73.5 107.988281 78.289062 105.972656 Z M 78.289062 105.972656 " fill-opacity="1" fill-rule="nonzero"/></g><g clip-path="url(#876905c681)"><path fill="#d97706" d="M 62.425781 113.898438 C 66.652344 113.429688 70.828125 112.445312 74.863281 111.132812 C 78.898438 109.820312 82.746094 108.175781 86.3125 106.394531 C 86.640625 106.207031 86.875 106.160156 86.734375 106.300781 C 86.59375 106.488281 86.21875 106.722656 85.84375 106.910156 C 82.417969 108.597656 78.664062 110.195312 74.769531 111.414062 C 70.875 112.679688 66.746094 113.617188 62.707031 114.085938 C 62.238281 114.132812 61.816406 114.132812 61.769531 114.039062 C 61.675781 114.039062 62.003906 113.945312 62.425781 113.898438 Z M 62.425781 113.898438 " fill-opacity="1" fill-rule="nonzero"/></g><g clip-path="url(#7372cea4fe)"><path fill="#d97706" d="M 91.289062 103.625 C 96.777344 99.96875 101.753906 95.183594 105.695312 89.503906 C 109.589844 83.828125 112.546875 77.261719 114.09375 70.316406 C 115.644531 63.375 115.878906 56.054688 114.703125 48.878906 C 113.53125 41.699219 110.902344 34.710938 107.054688 28.515625 C 100.8125 18.382812 91.617188 10.644531 81.152344 6 C 80.496094 5.71875 79.835938 5.390625 79.179688 5.15625 L 77.164062 4.402344 C 75.800781 3.933594 74.441406 3.464844 73.078125 3.136719 C 71.71875 2.714844 70.3125 2.433594 68.902344 2.152344 C 67.496094 1.917969 66.085938 1.636719 64.632812 1.496094 C 63.226562 1.308594 61.769531 1.214844 60.316406 1.121094 C 59.613281 1.074219 58.859375 1.074219 58.15625 1.074219 C 57.453125 1.027344 56.703125 1.074219 55.996094 1.074219 C 55.292969 1.121094 54.542969 1.074219 53.839844 1.121094 C 53.136719 1.167969 52.382812 1.214844 51.679688 1.261719 C 50.976562 1.308594 50.226562 1.402344 49.523438 1.496094 C 49.148438 1.542969 48.816406 1.589844 48.441406 1.636719 L 47.363281 1.824219 C 43.5625 2.433594 39.808594 3.417969 36.289062 4.683594 C 32.722656 5.953125 29.390625 7.5 26.246094 9.234375 C 25.730469 9.515625 25.355469 9.65625 25.496094 9.46875 C 25.683594 9.234375 26.199219 8.859375 26.808594 8.53125 C 33.378906 4.871094 40.605469 2.386719 48.113281 1.261719 C 55.621094 0.132812 63.320312 0.417969 70.828125 2.105469 C 78.289062 3.792969 85.46875 6.984375 91.757812 11.488281 C 97.953125 15.851562 103.347656 21.574219 107.335938 28.1875 C 111.183594 34.476562 113.8125 41.511719 114.9375 48.785156 C 116.113281 56.054688 115.878906 63.46875 114.28125 70.550781 C 112.6875 77.636719 109.683594 84.296875 105.601562 90.019531 C 101.566406 95.746094 96.449219 100.578125 90.816406 104.234375 C 90.535156 104.421875 90.300781 104.46875 90.394531 104.328125 C 90.582031 104.140625 91.007812 103.8125 91.289062 103.625 Z M 91.289062 103.625 " fill-opacity="1" fill-rule="nonzero"/></g><path fill="#d97706" d="M 70.59375 2.621094 C 74.582031 3.605469 78.476562 5.0625 82.183594 6.890625 C 85.84375 8.71875 89.363281 10.925781 92.554688 13.503906 C 95.792969 16.039062 98.796875 18.945312 101.425781 22.089844 C 104.097656 25.28125 106.445312 28.753906 108.464844 32.457031 C 110.667969 36.445312 112.265625 40.714844 113.296875 45.125 C 114.328125 49.535156 114.84375 54.132812 114.609375 58.871094 C 114.515625 62.015625 114.046875 65.015625 113.4375 67.972656 C 112.828125 70.878906 111.984375 73.695312 110.996094 76.417969 C 110.527344 77.777344 109.917969 79.136719 109.355469 80.449219 C 109.027344 81.109375 108.746094 81.765625 108.417969 82.421875 C 108.085938 83.078125 107.757812 83.734375 107.382812 84.390625 C 105.976562 86.972656 104.425781 89.503906 102.597656 91.992188 C 102.363281 92.320312 102.082031 92.601562 101.941406 92.648438 C 101.894531 92.601562 102.035156 92.367188 102.269531 92.039062 C 106.117188 86.644531 109.121094 80.871094 111.183594 74.773438 C 113.203125 68.675781 114.234375 62.203125 114.09375 55.492188 C 114 52.394531 113.625 49.300781 113.015625 46.25 C 112.40625 43.296875 111.511719 40.339844 110.386719 37.476562 C 108.132812 31.753906 104.894531 26.5 101 21.855469 C 93.070312 12.613281 82.371094 5.953125 70.453125 2.855469 C 69.933594 2.714844 69.652344 2.621094 69.652344 2.527344 C 69.699219 2.480469 70.125 2.527344 70.59375 2.621094 Z M 70.59375 2.621094 " fill-opacity="1" fill-rule="nonzero"/><path fill="#d97706" d="M 104.847656 53.710938 C 105.273438 57.605469 105.226562 61.636719 104.613281 65.578125 C 104.003906 69.519531 102.878906 73.414062 101.234375 77.027344 C 99.59375 80.636719 97.480469 83.921875 95.089844 86.785156 C 92.648438 89.644531 89.925781 92.039062 87.15625 93.960938 C 86.875 94.148438 86.78125 94.148438 86.921875 93.914062 C 87.0625 93.726562 87.4375 93.398438 87.675781 93.210938 C 90.394531 91.289062 93.023438 88.894531 95.277344 86.035156 C 97.527344 83.171875 99.546875 79.933594 101.046875 76.417969 C 102.550781 72.898438 103.628906 69.144531 104.191406 65.34375 C 104.707031 61.542969 104.800781 57.652344 104.425781 53.898438 C 104.378906 53.195312 104.332031 52.539062 104.472656 52.445312 C 104.566406 52.445312 104.753906 52.960938 104.847656 53.710938 Z M 104.847656 53.710938 " fill-opacity="1" fill-rule="nonzero"/><path fill="#d97706" d="M 58.203125 112.773438 C 62.425781 112.726562 66.652344 112.164062 70.78125 111.132812 C 74.863281 110.101562 78.851562 108.550781 82.605469 106.628906 C 86.359375 104.707031 89.832031 102.3125 93.070312 99.636719 C 96.261719 96.964844 99.171875 93.914062 101.753906 90.632812 C 106.398438 84.109375 109.636719 76.699219 111.277344 68.910156 C 111.464844 67.785156 111.792969 66.894531 111.9375 66.941406 C 112.125 66.941406 112.078125 67.925781 111.890625 69.050781 C 111.136719 73.039062 109.917969 76.933594 108.320312 80.636719 C 108.417969 80.542969 108.511719 80.542969 108.511719 80.589844 C 114.328125 67.550781 114.84375 52.207031 109.871094 38.699219 C 109.589844 37.945312 109.449219 37.382812 109.542969 37.335938 C 109.636719 37.289062 109.964844 37.851562 110.246094 38.605469 C 112.875 45.640625 114 53.242188 113.625 60.699219 C 113.25 68.160156 111.324219 75.523438 108.039062 82.1875 C 107.851562 82.703125 107.570312 83.265625 107.242188 83.875 C 105.789062 86.644531 104.097656 89.269531 102.175781 91.710938 C 100.296875 94.148438 98.1875 96.402344 95.933594 98.511719 C 91.429688 102.6875 86.21875 106.113281 80.496094 108.644531 C 76.410156 110.429688 72.1875 111.789062 67.917969 112.632812 C 63.601562 113.476562 59.28125 113.804688 54.917969 113.710938 C 50.554688 113.617188 46.238281 112.960938 42.058594 111.789062 C 37.835938 110.617188 33.753906 108.972656 29.953125 106.816406 C 23.898438 103.390625 18.738281 98.652344 14.375 93.210938 C 12.542969 90.960938 10.808594 88.472656 9.351562 85.988281 C 8.601562 84.71875 7.992188 83.453125 7.382812 82.1875 C 6.816406 80.871094 6.300781 79.605469 5.878906 78.339844 C 3.625 71.300781 3.25 64.640625 3.910156 58.449219 C 3.957031 58.074219 4.003906 58.027344 4.050781 58.308594 C 4.097656 58.542969 4.144531 59.058594 4.097656 59.339844 C 3.816406 62.4375 3.816406 65.71875 4.238281 69.050781 C 4.613281 72.335938 5.316406 75.664062 6.207031 78.761719 C 8.554688 84.625 11.886719 90.066406 15.96875 94.804688 C 20.097656 99.542969 24.933594 103.578125 30.328125 106.816406 C 32.488281 107.941406 34.738281 108.925781 36.992188 109.679688 C 39.246094 110.476562 41.542969 111.039062 43.84375 111.554688 C 48.535156 112.398438 53.277344 112.867188 58.203125 112.773438 Z M 58.203125 112.773438 " fill-opacity="1" fill-rule="nonzero"/></g></g></g></g><path fill="#d97706" d="M 154.511719 168.046875 L 159.808594 168.046875 L 159.808594 162.722656 L 154.511719 162.722656 L 154.511719 168.046875 " fill-opacity="1" fill-rule="nonzero"/><path fill="#d97706" d="M 162.832031 168.046875 L 168.128906 168.046875 L 168.128906 162.722656 L 162.832031 162.722656 L 162.832031 168.046875 " fill-opacity="1" fill-rule="nonzero"/><path fill="#d97706" d="M 154.511719 176.414062 L 159.808594 176.414062 L 159.808594 171.089844 L 154.511719 171.089844 L 154.511719 176.414062 " fill-opacity="1" fill-rule="nonzero"/><path fill="#d97706" d="M 162.832031 176.414062 L 168.128906 176.414062 L 168.128906 171.089844 L 162.832031 171.089844 L 162.832031 176.414062 " fill-opacity="1" fill-rule="nonzero"/><path fill="#d97706" d="M 132.425781 176.921875 L 161.320312 151.25 L 190.214844 176.921875 L 161.320312 148.03125 L 132.425781 176.921875 " fill-opacity="1" fill-rule="nonzero"/><g clip-path="url(#5a09a3a87f)"><path fill="#d97706" d="M 206.363281 133.148438 L 183.839844 155.792969 L 161.320312 133.148438 L 111.34375 183.402344 L 123.375 183.402344 L 161.320312 145.246094 L 199.265625 183.402344 L 211.296875 183.402344 L 187.117188 159.089844 L 206.363281 139.734375 L 227.027344 160.519531 L 233.578125 160.519531 L 206.363281 133.148438 " fill-opacity="1" fill-rule="nonzero"/></g><path fill="#d97706" d="M 205.535156 149.253906 L 202.652344 149.253906 L 202.652344 152.15625 L 205.535156 152.15625 L 205.535156 149.253906 " fill-opacity="1" fill-rule="nonzero"/><path fill="#d97706" d="M 210.066406 149.253906 L 207.183594 149.253906 L 207.183594 152.15625 L 210.066406 152.15625 L 210.066406 149.253906 " fill-opacity="1" fill-rule="nonzero"/><path fill="#d97706" d="M 202.652344 156.710938 L 205.535156 156.710938 L 205.535156 153.8125 L 202.652344 153.8125 L 202.652344 156.710938 " fill-opacity="1" fill-rule="nonzero"/><path fill="#d97706" d="M 207.183594 156.710938 L 210.066406 156.710938 L 210.066406 153.8125 L 207.183594 153.8125 L 207.183594 156.710938 " fill-opacity="1" fill-rule="nonzero"/><path fill="#d97706" d="M 206.363281 141.253906 L 190.625 156.988281 L 206.363281 143.003906 L 222.097656 156.988281 L 206.363281 141.253906 " fill-opacity="1" fill-rule="nonzero"/><g fill="#d97706" fill-opacity="1"><g transform="translate(33.63913, 261.421849)"><g><path d="M 11.800781 -28.285156 L 3.433594 -28.285156 L 3.433594 0 L 6.425781 0 L 6.425781 -9.414062 L 11.71875 -9.414062 C 18.304688 -9.414062 22.144531 -13.011719 22.144531 -18.910156 C 22.144531 -24.851562 18.222656 -28.285156 11.800781 -28.285156 Z M 6.425781 -12.164062 L 6.425781 -25.578125 L 11.757812 -25.578125 C 16.40625 -25.578125 19.152344 -23.152344 19.152344 -18.910156 C 19.152344 -14.464844 16.324219 -12.164062 11.71875 -12.164062 Z M 6.425781 -12.164062 "/></g></g></g><g fill="#d97706" fill-opacity="1"><g transform="translate(57.155771, 261.421849)"><g><path d="M 25.296875 0 L 14.667969 -28.285156 L 11.476562 -28.285156 L 0.847656 0 L 3.960938 0 L 6.503906 -6.789062 L 19.636719 -6.789062 L 22.144531 0 Z M 13.050781 -24.445312 L 18.628906 -9.496094 L 7.515625 -9.496094 Z M 13.050781 -24.445312 "/></g></g></g><g fill="#d97706" fill-opacity="1"><g transform="translate(83.298842, 261.421849)"><g><path d="M 13.617188 -30.265625 C 16.527344 -30.265625 18.222656 -32.085938 18.222656 -35.113281 L 15.921875 -35.113281 C 15.921875 -33.09375 15.152344 -32.125 13.617188 -32.125 C 12 -32.125 11.273438 -33.09375 11.273438 -35.113281 L 8.96875 -35.113281 C 8.96875 -32.003906 10.75 -30.265625 13.617188 -30.265625 Z M 6.425781 -5.898438 L 6.425781 -28.285156 L 3.433594 -28.285156 L 3.433594 0 L 5.980469 0 L 20.808594 -22.589844 L 20.808594 0 L 23.761719 0 L 23.761719 -28.285156 L 21.132812 -28.285156 Z M 6.425781 -5.898438 "/></g></g></g><g fill="#d97706" fill-opacity="1"><g transform="translate(110.49249, 261.421849)"><g><path d="M 6.425781 -16.929688 L 6.425781 -25.660156 L 19.800781 -25.660156 L 19.800781 -28.285156 L 3.433594 -28.285156 L 3.433594 0 L 13.898438 0 C 19.355469 0 23.03125 -3.070312 23.03125 -8.363281 C 23.03125 -13.132812 20.042969 -16.851562 13.699219 -16.890625 Z M 6.425781 -2.625 L 6.425781 -14.304688 L 13.578125 -14.304688 C 17.414062 -14.304688 20.003906 -12.285156 20.003906 -8.648438 C 20.003906 -4.527344 17.292969 -2.625 13.375 -2.625 Z M 6.425781 -2.625 "/></g></g></g><g fill="#d97706" fill-opacity="1"><g transform="translate(135.50418, 261.421849)"><g><path d="M 23.761719 -28.285156 L 21.132812 -28.285156 L 6.425781 -5.898438 L 6.425781 -28.285156 L 3.433594 -28.285156 L 3.433594 0 L 5.980469 0 L 20.808594 -22.589844 L 20.808594 0 L 23.761719 0 Z M 23.761719 -28.285156 "/></g></g></g><g fill="#d97706" fill-opacity="1"><g transform="translate(162.697828, 261.421849)"><g><path d="M 0.96875 0.0390625 C 5.578125 0.242188 8.042969 -2.867188 8.324219 -12.285156 L 8.6875 -25.699219 L 20.203125 -25.699219 L 20.203125 0 L 23.234375 0 L 23.234375 -28.285156 L 5.738281 -28.285156 L 5.332031 -12.285156 C 5.089844 -4.726562 3.636719 -2.425781 0.96875 -2.546875 Z M 0.96875 0.0390625 "/></g></g></g><g fill="#d97706" fill-opacity="1"><g transform="translate(189.366188, 261.421849)"><g><path d="M 3.960938 4.808594 L 3.960938 0 L 22.871094 0 L 22.871094 4.808594 L 25.859375 4.808594 L 25.859375 -2.707031 L 22.789062 -2.707031 L 22.789062 -28.285156 L 6.546875 -28.285156 L 6.183594 -15.839844 C 5.980469 -6.667969 4.445312 -3.757812 3.3125 -2.707031 L 0.96875 -2.707031 L 0.96875 4.808594 Z M 6.871094 -2.707031 C 8 -4.527344 9.050781 -8.324219 9.214844 -15.839844 L 9.496094 -25.578125 L 19.757812 -25.578125 L 19.757812 -2.707031 Z M 6.871094 -2.707031 "/></g></g></g><g fill="#d97706" fill-opacity="1"><g transform="translate(216.196178, 261.421849)"><g><path d="M 23.761719 -28.285156 L 21.132812 -28.285156 L 6.425781 -5.898438 L 6.425781 -28.285156 L 3.433594 -28.285156 L 3.433594 0 L 5.980469 0 L 20.808594 -22.589844 L 20.808594 0 L 23.761719 0 Z M 23.761719 -28.285156 "/></g></g></g><g fill="#d97706" fill-opacity="1"><g transform="translate(243.389827, 261.421849)"><g><path d="M 20.40625 -15.558594 L 6.503906 -15.558594 L 6.503906 -28.285156 L 3.433594 -28.285156 L 3.433594 0 L 6.503906 0 L 6.503906 -12.851562 L 20.40625 -12.851562 L 20.40625 0 L 23.515625 0 L 23.515625 -28.285156 L 20.40625 -28.285156 Z M 20.40625 -15.558594 "/></g></g></g><g fill="#d97706" fill-opacity="1"><g transform="translate(270.341028, 261.421849)"><g><path d="M 3.433594 0 L 6.464844 0 L 6.464844 -25.578125 L 19.839844 -25.578125 L 19.839844 -28.285156 L 3.433594 -28.285156 Z M 3.433594 0 "/></g></g></g><g fill="#d97706" fill-opacity="1"><g transform="translate(291.150423, 261.421849)"><g/></g></g><g fill="#d97706" fill-opacity="1"><g transform="translate(301.373303, 261.421849)"><g><path d="M 1.171875 -28.285156 L 1.171875 -25.78125 L 14.910156 -25.78125 L 3.796875 0 L 6.949219 0 L 18.222656 -26.425781 L 17.660156 -28.285156 Z M 1.171875 -28.285156 "/></g></g></g><g fill="#d97706" fill-opacity="1"><g transform="translate(320.445224, 261.421849)"><g><path d="M 11.515625 0.402344 C 16.929688 0.402344 20.566406 -3.273438 20.566406 -9.457031 C 20.566406 -14.910156 17.253906 -18.546875 12.121094 -18.546875 C 8.484375 -18.546875 5.65625 -15.878906 5.132812 -12.929688 C 5.050781 -20.082031 6.625 -26.0625 12.363281 -26.0625 C 14.425781 -26.0625 16.445312 -25.417969 17.902344 -24.042969 L 19.113281 -26.226562 C 17.09375 -27.921875 14.707031 -28.691406 12.164062 -28.691406 C 5.375 -28.691406 2.261719 -23.558594 2.261719 -12.121094 C 2.261719 -4.445312 5.171875 0.402344 11.515625 0.402344 Z M 11.597656 -2.101562 C 7.636719 -2.101562 5.617188 -5.132812 5.617188 -9.214844 C 5.617188 -13.457031 8.527344 -16.121094 11.679688 -16.121094 C 15.113281 -16.121094 17.660156 -13.414062 17.660156 -9.171875 C 17.660156 -4.6875 15.113281 -2.101562 11.597656 -2.101562 Z M 11.597656 -2.101562 "/></g></g></g></svg>